<?xml version="1.0" encoding="utf-8"?>
<!-- Generator: Adobe Illustrator 19.1.0, SVG Export Plug-In . SVG Version: 6.00 Build 0)  -->
<svg version="1.1" id="Ebene_1" xmlns="http://www.w3.org/2000/svg" xmlns:xlink="http://www.w3.org/1999/xlink" x="0px" y="0px"
	 viewBox="-9 23.6 264.9 95.1" style="enable-background:new -9 23.6 264.9 95.1;" xml:space="preserve">
<style type="text/css">
	.st0{fill:#FFBB00;}
	.st1{fill:none;}
	.st2{enable-background:new    ;}
	.st3{fill:none;stroke:#1B171B;stroke-miterlimit:10;}
	.st4{fill:#1B171B;}
	.st5{fill:#B8B8B9;}
</style>
<g>
	<path class="st0" d="M6.8,90.9c-4.7,0-8.5,3.8-8.5,8.5S3.5,108,6.8,111c2.7-2.7,8.5-7,8.5-11.6C15.3,94.7,11.5,90.9,6.8,90.9z
		 M10.1,102.5H8.2v-2.2H5.3v2.2H3.4v-6.2h1.9v2.2h2.9v-2.2h1.9V102.5z"/>
	<g>
		<rect x="180.7" y="54.6" class="st1" width="67.5" height="13.5"/>
		<g class="st2">
			<path d="M190.1,60.1c0,1.6-0.4,2.9-1.3,3.8c-0.9,0.9-2.2,1.3-3.9,1.3h-2.8v-10h3.1c1.6,0,2.8,0.4,3.6,1.3S190.1,58.6,190.1,60.1z
				 M188.9,60.2c0-1.3-0.3-2.3-1-2.9c-0.7-0.7-1.6-1-2.9-1h-1.7v8h1.4c1.4,0,2.4-0.3,3.1-1C188.5,62.5,188.9,61.5,188.9,60.2z"/>
			<path d="M195.6,57.6c0.3,0,0.6,0,0.9,0.1l-0.2,1.1c-0.3-0.1-0.6-0.1-0.8-0.1c-0.6,0-1.1,0.2-1.6,0.7s-0.6,1.1-0.6,1.8v4h-1.1
				v-7.5h0.9l0.1,1.4h0.1c0.3-0.5,0.6-0.9,1-1.1C194.7,57.7,195.1,57.6,195.6,57.6z"/>
			<path d="M204.3,61.5c0,1.2-0.3,2.2-0.9,2.9c-0.6,0.7-1.5,1-2.5,1c-0.7,0-1.3-0.2-1.8-0.5s-0.9-0.8-1.2-1.4
				c-0.3-0.6-0.4-1.3-0.4-2.1c0-1.2,0.3-2.2,0.9-2.9c0.6-0.7,1.5-1,2.5-1s1.9,0.3,2.5,1C204,59.3,204.3,60.3,204.3,61.5z
				 M198.6,61.5c0,1,0.2,1.7,0.6,2.2c0.4,0.5,0.9,0.8,1.7,0.8c0.7,0,1.3-0.2,1.7-0.7c0.4-0.5,0.6-1.2,0.6-2.2s-0.2-1.7-0.6-2.2
				c-0.4-0.5-1-0.7-1.7-0.7c-0.7,0-1.3,0.2-1.7,0.7C198.8,59.8,198.6,60.5,198.6,61.5z"/>
			<path d="M209.8,65.4c-0.5,0-0.9-0.1-1.3-0.3c-0.4-0.2-0.7-0.5-1-0.8h-0.1c0.1,0.4,0.1,0.9,0.1,1.2v3.1h-1.1V57.7h0.9l0.2,1h0.1
				c0.3-0.4,0.6-0.7,1-0.9c0.4-0.2,0.8-0.3,1.3-0.3c1,0,1.8,0.3,2.3,1s0.8,1.6,0.8,2.9c0,1.2-0.3,2.2-0.8,2.9
				C211.5,65,210.8,65.4,209.8,65.4z M209.6,58.6c-0.8,0-1.3,0.2-1.7,0.6c-0.4,0.4-0.5,1.1-0.5,2v0.3c0,1.1,0.2,1.8,0.5,2.3
				c0.4,0.5,0.9,0.7,1.7,0.7c0.6,0,1.2-0.3,1.5-0.8c0.4-0.5,0.5-1.2,0.5-2.2c0-0.9-0.2-1.7-0.5-2.1
				C210.8,58.8,210.3,58.6,209.6,58.6z"/>
		</g>
		<line class="st3" x1="-3.8" y1="113.9" x2="251.2" y2="113.9"/>
		<polygon points="242.7,105.2 229.4,108.8 238.7,83.8 217.4,112.5 187.4,107.8 206.7,113.8 234.1,113.8 		"/>
		<g>
			<g>
				<path class="st0" d="M215.9,101.2c-2.5-0.9-5.1,0-6.7,1.9l-22.1-7.7l-1.3,3.8l22.1,7.7c0,2.5,1.5,4.8,4,5.6
					c3.1,1.1,6.6-0.6,7.6-3.7C220.5,105.7,219.1,102.3,215.9,101.2z"/>
				<path class="st4" d="M176.9,80.1c-6.8-2.4-14.1-0.1-18.4,5.2l-20.7-7.2c0-2.5-1.6-4.8-4-5.6c-3.1-1.1-6.6,0.6-7.6,3.7
					c-1.1,3.1,0.6,6.6,3.7,7.6c2.5,0.9,5.1,0,6.7-1.9l19.8,6.9l30.1,10.5l1.2,0.4C189.5,91.5,185,83,176.9,80.1z"/>
			</g>
			
				<rect x="111.1" y="68.9" transform="matrix(-0.944 -0.3299 0.3299 -0.944 237.5038 181.0255)" class="st5" width="46" height="2.9"/>
			
				<rect x="192.8" y="97.5" transform="matrix(-0.944 -0.3299 0.3299 -0.944 386.8907 263.5779)" class="st5" width="46" height="2.9"/>
		</g>
	</g>
</g>
</svg>
