<?xml version="1.0" encoding="utf-8"?>
<!-- Generator: Adobe Illustrator 19.1.0, SVG Export Plug-In . SVG Version: 6.00 Build 0)  -->
<svg version="1.1" id="Ebene_1" xmlns="http://www.w3.org/2000/svg" xmlns:xlink="http://www.w3.org/1999/xlink" x="0px" y="0px"
	 viewBox="-9 23.6 264.9 95.1" style="enable-background:new -9 23.6 264.9 95.1;" xml:space="preserve">
<style type="text/css">
	.st0{fill:#FFBB00;}
	.st1{fill:#1B171B;}
	.st2{fill:#B8B8B9;}
	.st3{fill:none;}
	.st4{enable-background:new    ;}
	.st5{fill:none;stroke:#FFBB00;stroke-width:2;stroke-linecap:round;stroke-miterlimit:10;}
	.st6{fill:none;stroke:#1B171B;stroke-miterlimit:10;}
</style>
<g>
	<g>
		<g>
			<g>
				<path class="st0" d="M226.8,47.3c-2.6,0-4.8,1.7-5.7,4h-23.4v4h23.4c0.8,2.3,3,4,5.7,4c3.3,0,6-2.7,6-6
					C232.8,50,230.1,47.3,226.8,47.3z"/>
				<path class="st1" d="M182.9,40.3c-7.2,0-13.3,4.6-15.6,11h-21.9c-0.8-2.3-3-4-5.7-4c-3.3,0-6,2.7-6,6s2.7,6,6,6
					c2.6,0,4.8-1.7,5.7-4h21h31.8h1.2C198.7,46.9,191.6,40.3,182.9,40.3z"/>
			</g>
			<rect x="116.4" y="43.8" class="st2" width="46" height="2.9"/>
			<rect x="202.9" y="43.8" class="st2" width="46" height="2.9"/>
		</g>
		<rect x="190.4" y="74.1" class="st3" width="67.5" height="13.5"/>
		<g class="st4">
			<path d="M199.4,84.7h-1.2V80h-5.3v4.7h-1.2v-10h1.2V79h5.3v-4.3h1.2V84.7z"/>
			<path d="M208.4,80.9c0,1.2-0.3,2.2-0.9,2.9c-0.6,0.7-1.5,1-2.5,1c-0.7,0-1.3-0.2-1.8-0.5s-0.9-0.8-1.2-1.4
				c-0.3-0.6-0.4-1.3-0.4-2.1c0-1.2,0.3-2.2,0.9-2.9c0.6-0.7,1.5-1,2.5-1s1.9,0.3,2.5,1C208.1,78.8,208.4,79.8,208.4,80.9z
				 M202.7,80.9c0,1,0.2,1.7,0.6,2.2c0.4,0.5,0.9,0.8,1.7,0.8c0.7,0,1.3-0.2,1.7-0.8c0.4-0.5,0.6-1.2,0.6-2.2s-0.2-1.7-0.6-2.2
				c-0.4-0.5-1-0.7-1.7-0.7c-0.7,0-1.3,0.2-1.7,0.7C202.9,79.3,202.7,80,202.7,80.9z"/>
			<path d="M212.1,84.7l-2.8-7.5h1.2l1.6,4.4c0.4,1,0.6,1.7,0.6,2l0,0c0.1-0.2,0.2-0.7,0.5-1.5s0.9-2.4,1.8-5h1.2l-2.8,7.5h-1.3
				V84.7z"/>
			<path d="M220.6,84.8c-1.1,0-2-0.3-2.6-1s-1-1.6-1-2.8c0-1.2,0.3-2.2,0.9-2.9c0.6-0.7,1.4-1.1,2.4-1.1c0.9,0,1.7,0.3,2.2,0.9
				s0.8,1.4,0.8,2.4V81h-5.2c0,0.9,0.2,1.5,0.7,2c0.4,0.5,1,0.7,1.8,0.7c0.8,0,1.6-0.2,2.4-0.5v1c-0.4,0.2-0.8,0.3-1.1,0.4
				C221.5,84.8,221.1,84.8,220.6,84.8z M220.3,78c-0.6,0-1.1,0.2-1.4,0.6c-0.4,0.4-0.6,0.9-0.6,1.6h3.9c0-0.7-0.2-1.3-0.5-1.6
				C221.3,78.2,220.9,78,220.3,78z"/>
			<path d="M228.7,77.1c0.3,0,0.6,0,0.9,0.1l-0.2,1.1c-0.3-0.1-0.6-0.1-0.8-0.1c-0.6,0-1.1,0.2-1.6,0.7s-0.6,1.1-0.6,1.8v4h-1.1
				v-7.5h0.9l0.1,1.4h0.1c0.3-0.5,0.6-0.9,1-1.1C227.8,77.2,228.2,77.1,228.7,77.1z"/>
		</g>
		<g>
			<path class="st0" d="M186.8,105.1L186.8,105.1c0.2-0.2,0.3-0.4,0.3-0.7c0-0.6-0.5-1-1-1c-0.3,0-0.6,0.1-0.7,0.3l0,0l-3,3.3
				l-3-3.3l0,0c-0.2-0.2-0.5-0.3-0.7-0.3c-0.6,0-1,0.5-1,1c0,0.3,0.1,0.5,0.3,0.7l0,0l3.7,4.1c0.2,0.2,0.5,0.3,0.8,0.3
				c0.3,0,0.6-0.1,0.8-0.3L186.8,105.1z"/>
			<path class="st0" d="M177.9,61.8L177.9,61.8c-0.2,0.2-0.3,0.4-0.3,0.7c0,0.6,0.5,1,1,1c0.3,0,0.6-0.1,0.7-0.3l0,0l3-3.3l3,3.3
				l0,0c0.2,0.2,0.5,0.3,0.7,0.3c0.6,0,1-0.5,1-1c0-0.3-0.1-0.5-0.3-0.7l0,0l-3.7-4.1c-0.2-0.2-0.5-0.3-0.8-0.3s-0.6,0.1-0.8,0.3
				L177.9,61.8z"/>
			<line class="st5" x1="182.3" y1="64.6" x2="182.3" y2="102.6"/>
		</g>
		<line class="st6" x1="-4.1" y1="113.8" x2="250.9" y2="113.8"/>
	</g>
	<path class="st0" d="M6.5,92.4c-4.7,0-8.5,3.8-8.5,8.5s5.2,8.6,8.5,11.6c2.7-2.7,8.5-7,8.5-11.6C15,96.2,11.2,92.4,6.5,92.4z
		 M9.8,104.1H7.9v-2.2H5v2.2H3.1v-6.2H5v2.2h2.9v-2.2h1.9V104.1z"/>
</g>
</svg>
