<?xml version="1.0" encoding="utf-8"?>
<!-- Generator: Adobe Illustrator 19.1.0, SVG Export Plug-In . SVG Version: 6.00 Build 0)  -->
<svg version="1.1" id="Capa_1" xmlns="http://www.w3.org/2000/svg" xmlns:xlink="http://www.w3.org/1999/xlink" x="0px" y="0px"
	 viewBox="28 -43 141.7 141.7" style="enable-background:new 28 -43 141.7 141.7;" xml:space="preserve">
<style type="text/css">
	.st0{fill:#FFCC00;}
</style>
<g>
	<g>
		<path class="st0" d="M157.1,71.9l-52-97.5c-1.3-2.4-3.8-4-6.6-4c-2.8,0-5.3,1.5-6.6,4L39.6,71.9c-1.2,2.3-1.2,5.1,0.2,7.4
			c1.4,2.3,3.8,3.7,6.5,3.7h104.3c2.6,0,5.1-1.4,6.4-3.7C158.3,77,158.4,74.2,157.1,71.9L157.1,71.9z M98.5,67.9
			c-4.1,0-7.5-3.3-7.5-7.5c0-4.1,3.4-7.5,7.5-7.5c4.1,0,7.5,3.4,7.5,7.5C106,64.6,102.6,67.9,98.5,67.9L98.5,67.9z M106,38
			c0,4.2-3.4,7.5-7.5,7.5c-4.1,0-7.5-3.3-7.5-7.5V8c0-4.1,3.4-7.5,7.5-7.5c4.1,0,7.5,3.4,7.5,7.5V38z M106,38"/>
	</g>
</g>
</svg>
