<?xml version="1.0" encoding="utf-8"?>
<!-- Generator: Adobe Illustrator 18.1.1, SVG Export Plug-In . SVG Version: 6.00 Build 0)  -->
<svg version="1.1" id="Capa_1" xmlns="http://www.w3.org/2000/svg" xmlns:xlink="http://www.w3.org/1999/xlink" x="0px" y="0px"
	 viewBox="0 0 141.7 141.7" enable-background="new 0 0 141.7 141.7" xml:space="preserve">
<g>
	<path fill="#818181" d="M111.4,49.1H98.6c-2.7-4-7.3-6.6-12.4-6.6H75.3V6c0-2.4-2-4.4-4.4-4.4s-4.4,2-4.4,4.4v36.5H56.5
		c-5.1,0-9.7,2.6-12.4,6.6H30.5c-8.2,0-15,6.7-15,15v61.1c0,8.2,6.7,15,15,15h80.9c8.2,0,15-6.7,15-15V64.1
		C126.4,55.8,119.6,49.1,111.4,49.1z M45.9,106.5c-9.6,0-17.4-7.8-17.4-17.4c0-9.6,7.8-17.4,17.4-17.4c9.6,0,17.4,7.8,17.4,17.4
		C63.3,98.7,55.5,106.5,45.9,106.5z M95.3,106.5c-9.6,0-17.4-7.8-17.4-17.4c0-9.6,7.8-17.4,17.4-17.4s17.4,7.8,17.4,17.4
		C112.7,98.7,104.9,106.5,95.3,106.5z"/>
	<circle fill="#818181" cx="95.5" cy="89.1" r="5.1"/>
	<circle fill="#818181" cx="46.4" cy="89.1" r="5.1"/>
</g>
</svg>
