<?xml version="1.0" encoding="utf-8"?>
<!-- Generator: Adobe Illustrator 18.1.1, SVG Export Plug-In . SVG Version: 6.00 Build 0)  -->
<svg version="1.1" id="Capa_1" xmlns="http://www.w3.org/2000/svg" xmlns:xlink="http://www.w3.org/1999/xlink" x="0px" y="0px"
	 viewBox="0 0 141.7 141.7" enable-background="new 0 0 141.7 141.7" xml:space="preserve">
<g>
	<path fill="#818181" d="M137.9,36.3c-0.1-1.2-0.9-2.2-2-2.6c-1.1-0.4-2.4-0.1-3.2,0.7l-17.4,17.4l-19.3-6.1l-6.1-19.3l17.4-17.4
		c0.9-0.9,1.1-2.1,0.7-3.2c-0.4-1.1-1.4-1.9-2.6-2C94.7,2.7,84.3,6.5,76.8,14c-10.3,10.3-13,25.3-8.2,38c-0.5,0.4-1,0.9-1.6,1.4
		L9,108.3c0,0,0,0-0.1,0.1c-6.8,6.8-6.8,18,0,24.8c6.8,6.8,17.9,6.8,24.7-0.1c0,0,0.1-0.1,0.1-0.1l54.4-58.6c0.5-0.5,1-1,1.4-1.6
		c12.8,4.8,27.8,2.1,38-8.2C135,57.2,138.8,46.9,137.9,36.3z M24.9,125.8c-2.5,2.5-6.6,2.5-9.1,0c-2.5-2.5-2.5-6.6,0-9.1
		c2.5-2.5,6.6-2.5,9.1,0C27.4,119.2,27.4,123.3,24.9,125.8z"/>
</g>
</svg>
