<?xml version="1.0" encoding="utf-8"?>
<!-- Generator: Adobe Illustrator 18.1.1, SVG Export Plug-In . SVG Version: 6.00 Build 0)  -->
<svg version="1.1" id="Capa_1" xmlns="http://www.w3.org/2000/svg" xmlns:xlink="http://www.w3.org/1999/xlink" x="0px" y="0px"
	 viewBox="0 0 141.7 141.7" enable-background="new 0 0 141.7 141.7" xml:space="preserve">
<g>
	<path fill="#FFFFFF" d="M137.3,42.9c-1.4-1.8-3.6-2.8-5.9-2.8h-7.6c0-4.2-3.4-7.6-7.6-7.6h-7.6v-7.6c0-4.2-3.4-7.6-7.6-7.6H9.7
		c-4.2,0-7.6,3.4-7.6,7.6v91.3c0,4.2,3.4,7.6,7.6,7.6h15.2h76.1h15.2c3.6,0,6.7-2.5,7.4-6l15.2-68.5
		C139.3,47.1,138.7,44.7,137.3,42.9z M100.9,32.5h-7.6c-3.9,0-7.1,3-7.5,6.9v27.5h9.5c1.5,0,2.9,0.9,3.5,2.3
		c0.6,1.4,0.3,3.1-0.8,4.1L71.4,99.9c-0.7,0.7-1.7,1.1-2.7,1.1c-1,0-1.9-0.4-2.7-1.1L39.4,73.3c-1.1-1.1-1.4-2.7-0.8-4.1
		c0.6-1.4,2-2.3,3.5-2.3h9.5V40.1H40.1c-3.6,0-6.7,2.5-7.4,6l-15.2,68.5c-0.1,0.6-0.2,1.1-0.2,1.6H9.7V24.9h91.3V32.5z"/>
</g>
</svg>
