<?xml version="1.0" encoding="utf-8"?>
<!-- Generator: Adobe Illustrator 18.1.1, SVG Export Plug-In . SVG Version: 6.00 Build 0)  -->
<svg version="1.1" id="Capa_1" xmlns="http://www.w3.org/2000/svg" xmlns:xlink="http://www.w3.org/1999/xlink" x="0px" y="0px"
	 viewBox="0 0 141.7 141.7" enable-background="new 0 0 141.7 141.7" xml:space="preserve">
<g>
	<g>
		<path fill="#FFFFFF" d="M59.1,20.5h9v6.8h-9V20.5z M72.5,27.3h9v-6.8h-9V27.3z M89.4,40h9.2v39.5h-0.1c0,0.7,0.1,1.5,0.1,2.3
			c0,18.3-12.5,28.6-27.9,28.6s-27.8-10.4-27.8-28.6c0-0.7,0.1-1.5,0.1-2.3h-0.1V40H52V12.1h37.4V40z M56.5,40h28.5V16.5H56.5V40z
			 M77.5,74l9.8-9.8c0.7-0.7,0.7-1.8,0-2.5l-3.4-3.4c-0.7-0.7-1.8-0.7-2.5,0l-9.8,9.8l-9.9-9.9c-0.7-0.7-1.8-0.7-2.5,0l-3.4,3.4
			c-0.7,0.7-0.7,1.8,0,2.5l9.8,9.9l-9.8,9.8c-0.7,0.7-0.7,1.8,0,2.5l3.4,3.4c0.7,0.7,1.8,0.7,2.5,0l9.8-9.8l9.8,9.8
			c0.7,0.7,1.8,0.7,2.5,0l3.4-3.4c0.7-0.7,0.7-1.8,0-2.5L77.5,74z"/>
	</g>
	<rect x="66.2" y="104.9" fill="#FFFFFF" width="9" height="36.8"/>
</g>
</svg>
