<?xml version="1.0" encoding="utf-8"?>
<!-- Generator: Adobe Illustrator 18.1.1, SVG Export Plug-In . SVG Version: 6.00 Build 0)  -->
<svg version="1.1" id="Capa_1" xmlns="http://www.w3.org/2000/svg" xmlns:xlink="http://www.w3.org/1999/xlink" x="0px" y="0px"
	 viewBox="0 0 141.7 141.7" enable-background="new 0 0 141.7 141.7" xml:space="preserve">
<g>
	<polygon fill="#FFFFFF" points="26.8,38.1 31.7,38.1 31.7,29.5 40.4,29.5 40.4,24.6 31.7,24.6 31.7,15.9 26.8,15.9 26.8,24.6 
		18.2,24.6 18.2,29.5 26.8,29.5 	"/>
	<path fill="#FFFFFF" d="M114.8,94.6c-10.8,0-19.8,7.6-21.9,17.7l-39.1,0V71.8l39,0c2,10.3,11.1,18.1,22,18.1
		c12.4,0,22.4-10.1,22.4-22.4s-10.1-22.4-22.4-22.4c-10.9,0-20,7.8-22,18.1l-39,0V51.6h0.1V2.4H4.7v49.1h40.6v69.9h0.2v0.3l47.3,0
		c2.2,10.1,11.2,17.7,21.9,17.7c12.4,0,22.4-10.1,22.4-22.4S127.1,94.6,114.8,94.6z M114.8,55.2c6.8,0,12.3,5.5,12.3,12.3
		c0,6.8-5.5,12.3-12.3,12.3s-12.3-5.5-12.3-12.3C102.5,60.7,108,55.2,114.8,55.2z M45,42.7H13.6V11.3H45V42.7z M114.8,129.3
		c-6.8,0-12.3-5.5-12.3-12.3s5.5-12.3,12.3-12.3s12.3,5.5,12.3,12.3S121.5,129.3,114.8,129.3z"/>
</g>
</svg>
