<?xml version="1.0" encoding="utf-8"?>
<!-- Generator: Adobe Illustrator 18.1.1, SVG Export Plug-In . SVG Version: 6.00 Build 0)  -->
<svg version="1.1" id="Capa_1" xmlns="http://www.w3.org/2000/svg" xmlns:xlink="http://www.w3.org/1999/xlink" x="0px" y="0px"
	 viewBox="0 0 141.7 141.7" enable-background="new 0 0 141.7 141.7" xml:space="preserve">
<g>
	<g>
		<path fill="#FFFFFF" d="M84.7,129.5c0,3.6,2.9,6.5,6.5,6.5c3.6,0,6.5-2.9,6.5-6.5v-10.5h-13L84.7,129.5L84.7,129.5z"/>
		<path fill="#FFFFFF" d="M84.7,14.5v10.5h13V14.5c0-3.6-2.9-6.5-6.5-6.5C87.6,8,84.7,10.9,84.7,14.5z"/>
		<path fill="#FFFFFF" d="M63.5,14.5v10.5h13V14.5c0-3.6-2.9-6.5-6.5-6.5S63.5,10.9,63.5,14.5z"/>
		<path fill="#FFFFFF" d="M63.5,129.5c0,3.6,2.9,6.5,6.5,6.5s6.5-2.9,6.5-6.5v-10.5h-13V129.5z"/>
		<path fill="#FFFFFF" d="M42.3,14.5v10.5h13V14.5c0-3.6-2.9-6.5-6.5-6.5S42.3,10.9,42.3,14.5z"/>
		<path fill="#FFFFFF" d="M42.3,129.5c0,3.6,2.9,6.5,6.5,6.5s6.5-2.9,6.5-6.5v-10.5h-13V129.5z"/>
		<path fill="#FFFFFF" d="M6,93.2c0,3.6,2.9,6.5,6.5,6.5h10.5v-13H12.5C8.9,86.7,6,89.6,6,93.2z"/>
		<path fill="#FFFFFF" d="M127.5,86.7h-10.5v13h10.5c3.6,0,6.5-2.9,6.5-6.5C134,89.6,131.1,86.7,127.5,86.7z"/>
		<path fill="#FFFFFF" d="M6,72c0,3.6,2.9,6.5,6.5,6.5h10.5v-13H12.5C8.9,65.5,6,68.4,6,72z"/>
		<path fill="#FFFFFF" d="M127.5,65.5h-10.5v13h10.5c3.6,0,6.5-2.9,6.5-6.5C134,68.4,131.1,65.5,127.5,65.5z"/>
		<path fill="#FFFFFF" d="M6,50.8c0,3.6,2.9,6.5,6.5,6.5h10.5v-13H12.5C8.9,44.3,6,47.2,6,50.8z"/>
		<path fill="#FFFFFF" d="M127.5,44.3h-10.5v13h10.5c3.6,0,6.5-2.9,6.5-6.5S131.1,44.3,127.5,44.3z"/>
		<path fill="#FFFFFF" d="M29.3,105.9c0,3.8,3,6.8,6.8,6.8h67.8c3.8,0,6.8-3,6.8-6.8V38.1c0-3.8-3-6.8-6.8-6.8H36.1
			c-3.8,0-6.8,3-6.8,6.8V105.9z"/>
	</g>
</g>
</svg>
