<?xml version="1.0" encoding="utf-8"?>
<!-- Generator: Adobe Illustrator 19.1.0, SVG Export Plug-In . SVG Version: 6.00 Build 0)  -->
<svg version="1.1" id="Capa_1" xmlns="http://www.w3.org/2000/svg" xmlns:xlink="http://www.w3.org/1999/xlink" x="0px" y="0px"
	 viewBox="28 -43 141.7 141.7" style="enable-background:new 28 -43 141.7 141.7;" xml:space="preserve">
<style type="text/css">
	.st0{fill:#818180;}
</style>
<g>
	<g>
		<path class="st0" d="M146.1,18.3l-21,21c-11.6,11.6-30.4,11.6-42,0c-1.8-1.8-3.3-3.9-4.5-6l9.8-9.8c0.5-0.5,1-0.7,1.6-1.1
			c0.7,2.3,1.9,4.5,3.7,6.3c5.8,5.8,15.2,5.8,21,0l21-21c5.8-5.8,5.8-15.2,0-21s-15.2-5.8-21,0l-7.5,7.5c-6.1-2.4-12.6-3-18.9-2.1
			l15.9-15.9c11.6-11.6,30.4-11.6,42,0C157.7-12,157.7,6.8,146.1,18.3L146.1,18.3z M90.6,52.8l-7.5,7.5c-5.8,5.8-15.2,5.8-21,0
			s-5.8-15.2,0-21l21-21c5.8-5.8,15.2-5.8,21,0c1.8,1.8,3,4,3.7,6.3c0.6-0.3,1.1-0.6,1.6-1l9.8-9.7c-1.2-2.1-2.7-4.2-4.5-6
			c-11.6-11.6-30.4-11.6-42,0l-21,21c-11.6,11.6-11.6,30.4,0,42s30.4,11.6,42,0L109.6,55C103.2,55.8,96.7,55.2,90.6,52.8L90.6,52.8z
			"/>
	</g>
</g>
</svg>
