<?xml version="1.0" encoding="utf-8"?>
<!-- Generator: Adobe Illustrator 18.1.1, SVG Export Plug-In . SVG Version: 6.00 Build 0)  -->
<svg version="1.1" id="Capa_1" xmlns="http://www.w3.org/2000/svg" xmlns:xlink="http://www.w3.org/1999/xlink" x="0px" y="0px"
	 viewBox="0 0 141.7 141.7" enable-background="new 0 0 141.7 141.7" xml:space="preserve">
<g>
	<path fill="#FFFFFF" d="M119.8,21.5H113c0,0.1,0,0.2,0,0.3v26.7h6.8c3.9,0,7-3.1,7-7v-13C126.8,24.7,123.7,21.5,119.8,21.5z"/>
	<path fill="#FFFFFF" d="M126.8,76.6v-13c0-3.9-3.1-7-7-7H113v27h6.8C123.7,83.6,126.8,80.5,126.8,76.6z"/>
	<path fill="#FFFFFF" d="M113,117.8c0,0.3,0,0.6,0,0.9h6.8c3.9,0,7-3.1,7-7v-13c0-3.9-3.1-7-7-7H113V117.8z"/>
	<path fill="#FFFFFF" d="M101.3,15.2c-0.7-0.2-1.5-0.4-2.2-0.4H36.5v0.4v109.6h62.5c3.6,0,6.5-2.7,6.9-6.1c0-0.3,0.1-0.6,0.1-0.9
		V91.6v-8v-27v-8V21.8c0-0.1,0-0.2,0-0.3C105.9,18.6,104,16.1,101.3,15.2z M68.8,67.8H51.2c-2.6,0-4.7-2.1-4.7-4.7
		c0-2.6,2.1-4.7,4.7-4.7h17.5c2.6,0,4.7,2.1,4.7,4.7C73.4,65.7,71.4,67.8,68.8,67.8z M86.3,46.6H51.2c-2.6,0-4.7-2.1-4.7-4.7
		s2.1-4.7,4.7-4.7h35.1c2.6,0,4.7,2.1,4.7,4.7C91,44.5,88.9,46.6,86.3,46.6z"/>
	<path fill="#FFFFFF" d="M19.6,15.2c-2.8,0.9-4.7,3.5-4.7,6.6v96c0,3.9,3.1,7,7,7h6.6V15.2v-0.4h-6.6C21,14.8,20.3,15,19.6,15.2z"/>
</g>
</svg>
