<?xml version="1.0" encoding="utf-8"?>
<!-- Generator: Adobe Illustrator 19.1.0, SVG Export Plug-In . SVG Version: 6.00 Build 0)  -->
<svg version="1.1" id="Capa_1" xmlns="http://www.w3.org/2000/svg" xmlns:xlink="http://www.w3.org/1999/xlink" x="0px" y="0px"
	 viewBox="-70 0 141.7 141.7" style="enable-background:new -70 0 141.7 141.7;" xml:space="preserve">
<style type="text/css">
	.st0{fill:#818181;}
</style>
<g>
	<path class="st0" d="M-52.5,63.5c0.1-12.6,5-24.4,14-33.2c2.7-2.7,2.7-7.1,0-9.8c-2.7-2.7-7.1-2.7-9.8,0
		c-11.6,11.5-18,26.7-18.1,43c-0.1,16.3,6.2,31.6,17.6,43.2c1.4,1.4,3.1,2.1,4.9,2.1c1.8,0,3.5-0.7,4.9-2c2.7-2.7,2.7-7.1,0-9.8
		C-47.8,88-52.6,76.1-52.5,63.5z"/>
	<path class="st0" d="M-17.9,34.9c-2.7-2.7-7.1-2.7-9.8,0c-7.8,7.7-12.1,18-12.2,28.9c-0.1,11,4.2,21.3,11.9,29.1
		c1.4,1.4,3.1,2.1,4.9,2.1c1.8,0,3.5-0.7,4.9-2c2.7-2.7,2.7-7.1,0-9.8c-5.1-5.1-7.9-12-7.8-19.2c0-7.2,2.9-14,8-19.1
		C-15.2,42-15.2,37.6-17.9,34.9z"/>
	<path class="st0" d="M49.5,20.5c-2.7-2.7-7.1-2.7-9.8,0c-2.7,2.7-2.7,7.1,0,9.8c8.8,8.9,13.7,20.8,13.6,33.4
		c-0.1,12.6-5,24.4-14,33.2c-2.7,2.7-2.7,7.1,0,9.8c1.4,1.4,3.2,2.1,4.9,2.1c1.8,0,3.5-0.7,4.9-2C72.9,83.1,73.1,44.4,49.5,20.5z"/>
	<path class="st0" d="M28.7,34.7c-2.7-2.7-7.1-2.8-9.8,0c-2.7,2.7-2.7,7.1,0,9.8c5.1,5.1,7.9,12,7.9,19.2c0,7.2-2.9,14-8,19.1
		c-2.7,2.7-2.7,7.1,0,9.8c1.4,1.4,3.1,2.1,4.9,2.1c1.8,0,3.5-0.7,4.9-2C44.5,76.8,44.6,50.8,28.7,34.7z"/>
	<path class="st0" d="M0.6,50.2l-0.2,0c-3.6,0-7,1.4-9.5,4c-2.5,2.5-3.9,5.9-3.9,9.4c0,5.1,3,9.5,7.3,11.8v50.2H6.3V75.7
		c1.4-0.6,2.6-1.5,3.7-2.6c2.5-2.5,3.9-5.9,3.9-9.5C13.9,56.2,8.1,50.3,0.6,50.2z"/>
</g>
</svg>
