<?xml version="1.0" encoding="utf-8"?>
<!-- Generator: Adobe Illustrator 18.1.1, SVG Export Plug-In . SVG Version: 6.00 Build 0)  -->
<svg version="1.1" id="Capa_1" xmlns="http://www.w3.org/2000/svg" xmlns:xlink="http://www.w3.org/1999/xlink" x="0px" y="0px"
	 viewBox="0 0 141.7 141.7" enable-background="new 0 0 141.7 141.7" xml:space="preserve">
<g>
	<g>
		<path fill="#FFFFFF" d="M37.7,25c-0.6-0.6-1.5-1-2.4-1c-0.9,0-1.8,0.4-2.4,1.1C13,47.1,23.8,94.5,25,99.2l-20,20
			c-0.6,0.6-1,1.5-1,2.3c0,0.9,0.3,1.7,1,2.3l12,12c0.6,0.6,1.5,1,2.3,1c0.8,0,1.7-0.3,2.3-1l20-20c9.7,2.5,21.9,4,32.6,4
			c12.9,0,30.5-2.1,41.4-11.9c0.7-0.6,1.1-1.5,1.1-2.4c0-0.9-0.3-1.8-1-2.4L37.7,25z"/>
		<path fill="#FFFFFF" d="M66.5,44.8c0.6,0.6,1.5,1,2.3,1c0.8,0,1.7-0.3,2.3-1L96,20c1.8-1.8,2.7-4.1,2.7-6.6c0-2.5-1-4.8-2.7-6.6
			c-1.8-1.8-4.1-2.7-6.6-2.7c-2.5,0-4.8,1-6.6,2.7L58.1,31.7c-1.3,1.3-1.3,3.4,0,4.7L66.5,44.8z"/>
		<path fill="#FFFFFF" d="M134.3,45.2c-1.8-1.8-4.1-2.7-6.6-2.7c-2.5,0-4.8,1-6.6,2.7L96.4,69.9c-0.6,0.6-1,1.5-1,2.3s0.3,1.7,1,2.3
			l8.4,8.4c0.6,0.6,1.5,1,2.3,1c0.8,0,1.7-0.3,2.3-1l24.7-24.7C137.9,54.7,137.9,48.8,134.3,45.2z"/>
	</g>
</g>
</svg>
