<?xml version="1.0" encoding="utf-8"?>
<!-- Generator: Adobe Illustrator 16.0.0, SVG Export Plug-In . SVG Version: 6.00 Build 0)  -->
<!DOCTYPE svg PUBLIC "-//W3C//DTD SVG 1.1//EN" "http://www.w3.org/Graphics/SVG/1.1/DTD/svg11.dtd">
<svg version="1.1" id="Capa_1" xmlns="http://www.w3.org/2000/svg" xmlns:xlink="http://www.w3.org/1999/xlink" x="0px" y="0px"
	 width="595.281px" height="841.891px" viewBox="0 0 595.281 841.891" enable-background="new 0 0 595.281 841.891"
	 xml:space="preserve">
<g>
	<path fill="#FFFFFF" d="M127.71,440.9c-7.142,41.59,6.722,84.439,36.549,114.267s72.677,43.69,114.267,36.549
		c11.763-2.101,19.745-13.443,18.064-25.206c-0.84-4.621-2.94-8.822-5.881-11.763c-4.621-4.621-11.763-7.142-18.904-6.302
		c-27.727,4.621-56.293-4.621-76.458-24.365c-20.165-19.745-28.987-47.892-24.366-76.038c2.1-11.763-5.881-23.105-18.064-25.206
		C140.733,420.735,129.811,429.137,127.71,440.9"/>
	<path fill="#FFFFFF" d="M289.028,652.21c-0.42-5.461-2.521-10.502-6.302-14.283c-4.201-4.201-10.083-6.722-16.804-6.302
		c-47.892,2.521-94.942-15.543-128.971-49.151c-34.028-33.607-51.672-81.079-48.731-128.971c0.84-12.183-8.402-22.265-20.585-23.105
		c-12.183-0.84-22.265,8.402-23.105,20.585c-3.36,60.494,19.325,119.309,62.175,162.158c42.85,42.851,101.664,65.115,162.158,62.175
		C280.626,674.895,289.868,664.392,289.028,652.21"/>
</g>
<g>
	<path fill="#FFFFFF" d="M480.616,308.596c-10.826,0-19.984,13.633-23.733,32.085h-97.416v32.084h97.416
		c3.332,18.451,12.491,32.088,23.733,32.088c13.735,0,24.977-21.659,24.977-48.131C505.592,330.255,494.351,308.596,480.616,308.596
		z"/>
	<path fill="#FFFFFF" d="M297.853,252.445c-29.975,0-55.369,36.899-64.945,88.236h-91.171
		c-3.331-18.452-12.491-32.085-23.729-32.085c-13.739,0-24.979,21.658-24.979,48.126c0,26.472,11.24,48.131,24.979,48.131
		c10.822,0,19.982-13.637,23.729-32.088h87.426h132.386h4.995C363.631,304.584,334.073,252.445,297.853,252.445z"/>
	<rect x="21.007" y="280.52" fill="#FFFFFF" width="191.502" height="23.262"/>
	<rect x="381.115" y="280.52" fill="#FFFFFF" width="191.504" height="23.262"/>
</g>
</svg>
