<?xml version="1.0" encoding="utf-8"?>
<!-- Generator: Adobe Illustrator 19.1.0, SVG Export Plug-In . SVG Version: 6.00 Build 0)  -->
<svg version="1.1" id="Capa_1" xmlns="http://www.w3.org/2000/svg" xmlns:xlink="http://www.w3.org/1999/xlink" x="0px" y="0px"
	 viewBox="-70 0 141.7 141.7" style="enable-background:new -70 0 141.7 141.7;" xml:space="preserve">
<style type="text/css">
	.st0{fill:#818181;}
</style>
<g>
	<path class="st0" d="M8.4,34.1c0,0,16.2,7.3,21.5,13.4c0,0-5.9-0.2-8.1,3.3c-2.6,3.8-1.3,11.4,6.8,17.1s17.7,6.3,22.5,6.6
		c4.8,0.2,9.6,1.3,10.6,3.5C61.4,78.1,62.9,51.6,8.4,34.1z M38.7,61.1c-1-4,2.2-5.5,6.6-3.8c4,1.8,10.6,12.1,10.6,12.1
		C50.6,68.7,39.9,65.2,38.7,61.1z"/>
	<path class="st0" d="M-68.6,10.4l9,19.7l-8.6-3l2.6,4.8c0,0,3.5,6.8,11.9,21.5c6.6,11.4,18.2,17.1,33.8,16.4c0.5,0,1.3,0,2,0
		c9.6-0.5,31.6-3,32.6-3h0.2l10.3-4L-68.6,10.4z M-20.1,65.5c-5.5,0.2-10.6-0.5-14.9-2c-6.3-2.2-11.4-6.3-14.9-12.3
		c-4.3-7.6-7.3-12.9-9-16.4l7.9,2.8L-59,20.8l74.2,40.9l-1.3,0.5c-0.5,0-1.8,0.2-3.8,0.5l-50-20.2L-2.2,64
		C-9,64.4-16.4,65.2-20.1,65.5z"/>
	<path class="st0" d="M24.8,59.4c0,0-31.6-8.3-26.8,16.4c3.1,16.2,21.3,6.8,27.9,0.7C32.4,70.5,27,60.2,24.8,59.4z"/>
	<path class="st0" d="M41.5,96.8c-14.2-6.1-22.8-16-33.6-15.2C1.3,82.1-5.7,87.6-8.5,95c4,3.3,10.1,5.5,19.7,2c0,0-6.6,8.1-20.4,7.3
		c0.2,1.8,1,3.3,1.8,5c1.3,2,3,4,5,5.5c5.9-0.7,13.9-3.5,21.7-12.1c0,0-0.7,9-7.9,17.1c3.8,0.5,7.9,0.5,12.1,0.2
		c3.3-1.8,7.9-5,7.9-10.9c0,0,1.5,4.6-0.7,9.9c6.6-1.3,13.4-3.8,19.9-7.6C65.2,103,70,93.2,70,93.2S55.9,102.5,41.5,96.8z
		 M51.8,107.3c-0.7-2-1-6.1-1-6.1c4.6,0.5,10.1-1.5,10.1-1.5C57.2,104.6,51.8,107.3,51.8,107.3z"/>
</g>
</svg>
