<?xml version="1.0" encoding="utf-8"?>
<!-- Generator: Adobe Illustrator 18.1.1, SVG Export Plug-In . SVG Version: 6.00 Build 0)  -->
<svg version="1.1" id="Capa_1" xmlns="http://www.w3.org/2000/svg" xmlns:xlink="http://www.w3.org/1999/xlink" x="0px" y="0px"
	 viewBox="0 0 141.7 141.7" enable-background="new 0 0 141.7 141.7" xml:space="preserve">
<g>
	<g>
		<path fill="#FFFFFF" d="M52.7,113.6c-2.4,0-4.4-1.1-4.9-3.4l-6.7-32l-4.4,7.6c-0.9,1.5-2.6,2.6-4.3,2.6H8c-2.8,0-5-2.3-5-5
			c0-2.8,2.3-5,5-5h21.4L39,62.3c1.1-1.8,3.1-2.8,5.2-2.4c2,0.3,3.7,1.9,4.1,3.9l4,19.5l9.2-51.1c0.4-2.4,2.5-4.1,5-4.1c0,0,0,0,0,0
			c2.4,0,4.5,1.7,4.9,4.1l9.8,57.4l3.2-8c0.8-1.9,2.6-3.2,4.7-3.2h44.6c2.8,0,5,2.2,5,5c0,2.8-2.2,5-5,5H92.5L84,110
			c-0.8,2.1-2.9,3.4-5.2,3.2c-2.2-0.2-4-1.9-4.4-4.2l-8-46.9l-8.7,48C57.2,112.4,55.1,113.6,52.7,113.6
			C52.7,113.6,52.7,113.6,52.7,113.6z"/>
	</g>
</g>
</svg>
