<?xml version="1.0" encoding="utf-8"?>
<!-- Generator: Adobe Illustrator 19.1.0, SVG Export Plug-In . SVG Version: 6.00 Build 0)  -->
<svg version="1.1" id="Ebene_1" xmlns="http://www.w3.org/2000/svg" xmlns:xlink="http://www.w3.org/1999/xlink" x="0px" y="0px"
	 viewBox="0 0 85 85" style="enable-background:new 0 0 85 85;" xml:space="preserve">
<style type="text/css">
	.st0{fill:#707173;}
	.st1{fill:#9C9E9F;}
</style>
<g>
	<path class="st0" d="M82.4,48.7V26.9C75.6,17.3,60,10.6,41.9,10.6C24.3,10.6,9.1,16.9,2,26.1v22.8c7.1-9.2,22.3-15.5,39.9-15.5
		c17.8,0,33.1,6.5,40.1,15.8C82.2,49,82.3,48.8,82.4,48.7z"/>
	<g>
		<path class="st1" d="M61.7,64.8c9.2-2.9,16.6-7.6,20.7-13.4V29.7c-0.1-0.2-0.2-0.4-0.4-0.5c-4.2,5.6-11.4,10.1-20.3,12.9V64.8z"/>
		<path class="st1" d="M36.8,67.4V44.6C21.4,43.5,8.4,37.6,2,29.3v22.9C8.4,60.4,21.4,66.4,36.8,67.4z"/>
	</g>
	<polygon class="st1" points="28.4,72.3 58.3,54.8 28.3,36.6 	"/>
</g>
</svg>
