<?xml version="1.0" encoding="utf-8"?>
<!-- Generator: Adobe Illustrator 18.1.1, SVG Export Plug-In . SVG Version: 6.00 Build 0)  -->
<svg version="1.1" id="Capa_1" xmlns="http://www.w3.org/2000/svg" xmlns:xlink="http://www.w3.org/1999/xlink" x="0px" y="0px"
	 viewBox="0 0 141.7 141.7" enable-background="new 0 0 141.7 141.7" xml:space="preserve">
<g>
	<g>
		<path fill="#818181" d="M17.8,93.4c-1.5-1.9-3.9-3.2-6.6-3.2c-4.6,0-8.4,3.8-8.4,8.4c0,4.6,3.8,8.4,8.4,8.4c2.7,0,5-1.2,6.6-3.2
			h11.3V93.4H17.8z"/>
		<path fill="#818181" d="M17.8,65.6c-1.5-1.9-3.9-3.2-6.6-3.2c-4.6,0-8.4,3.8-8.4,8.4c0,4.6,3.8,8.4,8.4,8.4c2.7,0,5-1.2,6.6-3.2
			h11.3V65.6L17.8,65.6L17.8,65.6z"/>
		<path fill="#818181" d="M17.8,37.8c-1.5-1.9-3.9-3.2-6.6-3.2c-4.6,0-8.4,3.8-8.4,8.4s3.8,8.4,8.4,8.4c2.7,0,5-1.2,6.6-3.2h11.3
			V37.8H17.8z"/>
		<path fill="#818181" d="M123.9,103.8c1.5,1.9,3.9,3.2,6.6,3.2c4.6,0,8.4-3.8,8.4-8.4c0-4.6-3.8-8.4-8.4-8.4c-2.7,0-5,1.2-6.6,3.2
			h-11.3v10.4H123.9z"/>
		<path fill="#818181" d="M123.9,76c1.5,1.9,3.9,3.2,6.6,3.2c4.6,0,8.4-3.8,8.4-8.4c0-4.6-3.8-8.4-8.4-8.4c-2.7,0-5,1.2-6.6,3.2
			h-11.3V76L123.9,76L123.9,76z"/>
		<path fill="#818181" d="M123.9,48.2c1.5,1.9,3.9,3.2,6.6,3.2c4.6,0,8.4-3.8,8.4-8.4s-3.8-8.4-8.4-8.4c-2.7,0-5,1.2-6.6,3.2h-11.3
			v10.4L123.9,48.2L123.9,48.2z"/>
		<path fill="#818181" d="M98.2,14.9H43.5c-2.9,0-5.2,2.3-5.2,5.2v101.4c0,2.9,2.3,5.2,5.2,5.2h54.7c2.9,0,5.2-2.3,5.2-5.2V20.1
			C103.4,17.3,101.1,14.9,98.2,14.9z M89.2,32.6c-2.2,0-4-1.8-4-4s1.8-4,4-4c2.2,0,4,1.8,4,4S91.4,32.6,89.2,32.6z"/>
	</g>
</g>
</svg>
