<?xml version="1.0" encoding="utf-8"?>
<!-- Generator: Adobe Illustrator 18.1.1, SVG Export Plug-In . SVG Version: 6.00 Build 0)  -->
<svg version="1.1" id="Capa_1" xmlns="http://www.w3.org/2000/svg" xmlns:xlink="http://www.w3.org/1999/xlink" x="0px" y="0px"
	 width="141.7px" height="141.7px" viewBox="0 0 141.7 141.7" enable-background="new 0 0 141.7 141.7" xml:space="preserve">
<g>
	<path fill="#FFFFFF" d="M70.9,130l60.9-61.9c0.8-0.8,1.2-1.9,1.1-3h0c-4.2-30.5-30.4-54.1-62-54.1c-31.5,0-57.7,23.5-62,53.8
		c0,0,0,0.1,0,0.1c0,0,0,0.1,0,0.1h0c-0.1,1,0.3,2.1,1.1,2.9l42.9,43.8 M79,111.2l14.8-49.6c3.3-4.7,8.7-7.8,14.9-7.8
		c7.2,0,13.4,4.2,16.4,10.3L79,111.2z M55.7,62c3.2-4.9,8.8-8.2,15.2-8.2c6.2,0,11.7,3.1,15,7.9l-14.9,50L55.7,62z M16.5,63.8
		c3-6,9.1-10.1,16.2-10.1c6.2,0,11.7,3.1,14.9,7.8l15.1,49.4L16.5,63.8z"/>
</g>
</svg>
