<?xml version="1.0" encoding="utf-8"?>
<!-- Generator: Adobe Illustrator 19.1.0, SVG Export Plug-In . SVG Version: 6.00 Build 0)  -->
<svg version="1.1" id="Ebene_1" xmlns="http://www.w3.org/2000/svg" xmlns:xlink="http://www.w3.org/1999/xlink" x="0px" y="0px"
	 viewBox="0 0 85 56.7" style="enable-background:new 0 0 85 56.7;" xml:space="preserve">
<style type="text/css">
	.st0{fill:#838281;}
</style>
<g>
	<path class="st0" d="M7,43.6c1,1,2.1,1.5,3.5,1.5h59.9c1.4,0,2.5-0.5,3.5-1.5c1-1,1.5-2.1,1.5-3.5v-6h2.3c1.3,0,2.3-1,2.3-2.3v-6.1
		c0-1.3-1-2.3-2.3-2.3h-2.3v-5.8c0-1.4-0.5-2.5-1.5-3.5c-1-1-2.1-1.5-3.5-1.5l-59.9,0c-1.4,0-2.6,0.5-3.5,1.4c-1,1-1.4,2.2-1.4,3.5
		v22.4C5.5,41.4,6,42.6,7,43.6L7,43.6z M9.1,16.7c0-0.3,0.1-0.4,0.4-0.4l61.9,0c0.2,0,0.4,0.2,0.4,0.4v24.4c0,0.2-0.2,0.4-0.4,0.4
		l-61.9,0c-0.3,0-0.4-0.1-0.4-0.4V16.7z M9.1,16.7"/>
</g>
</svg>
