<?xml version="1.0" encoding="utf-8"?>
<!-- Generator: Adobe Illustrator 18.1.1, SVG Export Plug-In . SVG Version: 6.00 Build 0)  -->
<svg version="1.1" id="Capa_1" xmlns="http://www.w3.org/2000/svg" xmlns:xlink="http://www.w3.org/1999/xlink" x="0px" y="0px"
	 viewBox="0 0 141.7 141.7" enable-background="new 0 0 141.7 141.7" xml:space="preserve">
<g>
	<g>
		<path fill="#FFFFFF" d="M123.5,25.8h-6c-2.9,0-6.4,2.2-7.8,4.7L101.4,45c-1.7,3-4.9,4.4-8.3,4.4H46.2c-3.5,0-6.6-1.3-8.3-4.3
			l-8.3-14.9c-1.4-2.5-4.9-4.4-7.8-4.4h-6c-7,0-12.2,5.9-12.2,12.9v63.4c0,7,5.2,12.9,12.2,12.9h107.8c7,0,13.9-5.9,13.9-12.9V38.8
			C137.4,31.8,130.5,25.8,123.5,25.8z M38,85.5c-5.2,0-9.5-4.3-9.5-9.5c0-5.2,4.3-9.5,9.5-9.5s9.5,4.3,9.5,9.5S43.3,85.5,38,85.5z
			 M84.4,80.1c0,2.6-2.1,4.6-4.6,4.6H58.8c-2.5,0-4.6-2.1-4.6-4.6v-8.8c0-2.6,2.1-4.6,4.6-4.6h20.9c2.6,0,4.6,2.1,4.6,4.6V80.1z
			 M100.6,85.5c-5.2,0-9.5-4.3-9.5-9.5c0-5.2,4.3-9.5,9.5-9.5c5.2,0,9.5,4.3,9.5,9.5S105.9,85.5,100.6,85.5z"/>
		<path fill="#FFFFFF" d="M43.6,36.7c1.4,2.5,4.9,4.9,7.8,4.9h36.4c2.9,0,6.4-2.3,7.8-4.8l3.2-6.1c1.4-2.5,0.2-4.8-2.7-4.8h-53
			c-2.9,0-4.1,2.2-2.7,4.7L43.6,36.7z"/>
	</g>
</g>
</svg>
