<?xml version="1.0" encoding="utf-8"?>
<!-- Generator: Adobe Illustrator 19.1.0, SVG Export Plug-In . SVG Version: 6.00 Build 0)  -->
<svg version="1.1" id="Capa_1" xmlns="http://www.w3.org/2000/svg" xmlns:xlink="http://www.w3.org/1999/xlink" x="0px" y="0px"
	 viewBox="227 -351.2 595.3 841.9" style="enable-background:new 227 -351.2 595.3 841.9;" xml:space="preserve">
<style type="text/css">
	.st0{fill:#818181;}
</style>
<g>
	<path class="st0" d="M677.5,19.8h-13.3v94.8h10.2c13.9,0,24.1-4,30.5-12.1c6.5-8.1,9.7-20.4,9.7-37c0-15.5-3.1-27-9.2-34.5
		C699.3,23.5,690,19.8,677.5,19.8z"/>
	<path class="st0" d="M369.2,17.7c-22.9,0-34.4,16.5-34.4,49.5c0,32.7,11.4,49.1,34.1,49.1c11.6,0,20.1-4,25.7-11.9
		c5.6-7.9,8.4-20.3,8.4-37.1c0-16.9-2.8-29.4-8.5-37.4C388.9,21.7,380.4,17.7,369.2,17.7z"/>
	<path class="st0" d="M726.8-134.3H321.9c-36.3,0-65.9,29.5-65.9,65.9V207c0,36.3,29.5,65.9,65.9,65.9h404.9
		c36.3,0,65.9-29.5,65.9-65.9V-68.4C792.7-104.8,763.1-134.3,726.8-134.3z M430.3,132.1c-14,14.8-34.4,22.2-61.3,22.2
		c-26.5,0-46.9-7.4-61-22.3c-14.2-14.9-21.2-36.6-21.2-65c0-28.1,7-49.7,21.1-64.5c14.1-14.8,34.5-22.3,61.4-22.3
		c26.9,0,47.3,7.4,61.2,22.1c13.9,14.7,20.8,36.4,20.8,64.9C451.2,95.7,444.2,117.3,430.3,132.1z M525.5,36.8
		c3.4,2.6,12.7,7.4,27.9,14.3c14.6,6.6,24.7,13.6,30.4,21.1c5.7,7.5,8.5,17,8.5,28.4c0,10.5-2.7,19.8-8,27.9c-5.3,8.1-13,14.5-23,19
		c-10,4.5-21.8,6.8-35.3,6.8c-11.3,0-20.7-0.8-28.3-2.4s-15.6-4.3-23.8-8.3V103c8.7,4.5,17.8,8,27.2,10.5c9.4,2.5,18,3.8,25.9,3.8
		c6.8,0,11.8-1.2,14.9-3.5c3.1-2.3,4.7-5.4,4.7-9.1c0-2.3-0.6-4.3-1.9-6.1s-3.3-3.5-6.1-5.3c-2.8-1.8-10.3-5.4-22.5-10.9
		c-11-5-19.3-9.9-24.8-14.6c-5.5-4.7-9.6-10.1-12.3-16.2c-2.7-6.1-4-13.3-4-21.6c0-15.6,5.7-27.7,17-36.4
		c11.3-8.7,26.9-13.1,46.7-13.1c17.5,0,35.4,4,53.6,12.1l-14,35.3c-15.8-7.2-29.5-10.9-41-10.9c-5.9,0-10.3,1-13,3.1s-4,4.7-4,7.8
		C520.4,31.2,522.1,34.2,525.5,36.8z M738.8,129.1c-15.5,15.3-37.4,22.9-65.5,22.9h-54.7V-17.1H677c27.2,0,48.1,6.9,62.9,20.8
		c14.8,13.9,22.2,33.9,22.2,60.2C762.1,92.1,754.3,113.8,738.8,129.1z"/>
</g>
</svg>
