<?xml version="1.0" encoding="utf-8"?>
<!-- Generator: Adobe Illustrator 19.1.0, SVG Export Plug-In . SVG Version: 6.00 Build 0)  -->
<svg version="1.1" id="Capa_1" xmlns="http://www.w3.org/2000/svg" xmlns:xlink="http://www.w3.org/1999/xlink" x="0px" y="0px"
	 viewBox="227 -351.2 220 690.7" style="enable-background:new 227 -351.2 220 690.7;" xml:space="preserve">
<style type="text/css">
	.st0{fill:#818181;}
</style>
<path class="st0" d="M300.8,334.5h-61.4v-20h61.4c37.1,0,67.2-30.2,67.2-67.2V46.6c0-13.8,7.9-27.7,23.4-41.2
	c2.5-2.1,4.9-4.1,7.3-5.9C385.3-9.3,368-24.6,368-45.4v-209.8c0-37.1-30.2-67.2-67.2-67.2h-61.4v-20h61.4
	c48.1,0,87.2,39.1,87.2,87.2v209.8c0,16.6,24.5,30.9,34,35l18.8,8.2l-18,9.8c-9,4.9-34.8,22.7-34.8,39v200.7
	C388,295.4,348.9,334.5,300.8,334.5z"/>
</svg>
