<?xml version="1.0" encoding="UTF-8" standalone="no"?>
<!DOCTYPE svg PUBLIC "-//W3C//DTD SVG 1.1//EN" "http://www.w3.org/Graphics/SVG/1.1/DTD/svg11.dtd">
<!-- Created with Inkscape (http://www.inkscape.org/) -->

<svg
   xmlns:svg="http://www.w3.org/2000/svg"
   xmlns="http://www.w3.org/2000/svg"
   xmlns:xlink="http://www.w3.org/1999/xlink"
   version="1.1"
   width="537.94183"
   height="539.90863"
   id="svg6534"
   preserveAspectRatio="X200Y200 meet"
   >
  <g
     transform="translate(-78,33), scale(0.8)"
     id="layer3"
     style="display:inline">

    <path
       d="m 435.64988,289.47018 c -12.33394,0 -22.41326,9.69394 -23.03125,21.875 l -121.9375,-0.22694 c -4.43702,0.0318 -5.34776,6.2322 -0.5,7.0625 l 126.375,7.25819 c 4.14867,6.10563 11.15189,10.125 19.09375,10.125 7.92634,0 14.91358,-4.00188 19.0625,-10.09375 l 126.9375,-7.28944 c 4.84776,-0.8303 3.93702,-7.0307 -0.5,-7.0625 l -122.46875,0.25819 c -0.6019,-12.19506 -10.68685,-21.90625 -23.03125,-21.90625 z"
       id="path7134"
       style="fill:#ffffff;fill-opacity:1;stroke:none" />
    <path
       d="m 382.64058,303.11984 c 4.38251,0.0518 102.16734,0.0518 106.54985,0 4.38251,-0.0518 5.82754,-6.6971 -0.25253,-7.17567 l -44.44671,-2.12492 c -3.68642,-0.66946 -4.02856,-2.28053 -4.29315,-4.3671 l -0.50508,-25.22318 c 0,-3.88798 -7.42864,-3.96105 -7.42864,0 l -0.50508,25.22318 c -0.26459,2.08657 -0.60673,3.69764 -4.29315,4.3671 l -44.57298,2.12492 c -6.08007,0.47857 -4.63504,7.12387 -0.25253,7.17567 z"
       id="path7318"
       style="fill:#000000;fill-opacity:0.60301508;stroke:none;filter:url(#filter7320)" />
    <path
       d="m 382.64058,299.50149 c 4.38251,0.0518 102.16734,0.0518 106.54985,0 4.38251,-0.0518 5.82754,-6.6971 -0.25253,-7.17567 l -44.44671,-2.12492 c -3.68642,-0.66946 -4.02856,-2.28053 -4.29315,-4.3671 l -0.50508,-25.22318 c 0,-3.88798 -7.42864,-3.96105 -7.42864,0 l -0.50508,25.22318 c -0.26459,2.08657 -0.60673,3.69764 -4.29315,4.3671 l -44.57298,2.12492 c -6.08007,0.47857 -4.63504,7.12387 -0.25253,7.17567 z"
       id="path7169"
       style="fill:#ffffff;fill-opacity:1;stroke:none" />
  </g>
</svg>
       