<?xml version="1.0" encoding="utf-8"?>
<!-- Generator: Adobe Illustrator 19.1.0, SVG Export Plug-In . SVG Version: 6.00 Build 0)  -->
<svg version="1.1" id="Ebene_1" xmlns="http://www.w3.org/2000/svg" xmlns:xlink="http://www.w3.org/1999/xlink" x="0px" y="0px"
	 viewBox="-173 349.9 264.9 95.1" style="enable-background:new -173 349.9 264.9 95.1;" xml:space="preserve">
<style type="text/css">
	.st0{fill:#71B221;}
	.st1{fill:none;}
	.st2{enable-background:new    ;}
	.st3{fill:none;stroke:#1B171B;stroke-miterlimit:10;}
	.st4{fill:#1B171B;}
	.st5{fill:#B8B8B9;}
</style>
<g>
	<path class="st0" d="M-157.2,418.3c-4.7,0-8.5,3.8-8.5,8.5c0,4.7,5.2,8.6,8.5,11.6c2.7-2.7,8.5-7,8.5-11.6
		C-148.7,422.1-152.5,418.3-157.2,418.3z M-153.9,429.9h-1.9v-2.2h-2.9v2.2h-1.9v-6.2h1.9v2.2h2.9v-2.2h1.9V429.9z"/>
	<g>
		<rect x="16.7" y="382" class="st1" width="67.5" height="13.5"/>
		<g class="st2">
			<path d="M26.1,387.5c0,1.6-0.4,2.9-1.3,3.8c-0.9,0.9-2.2,1.3-3.9,1.3h-2.8v-10h3.1c1.6,0,2.8,0.4,3.6,1.3S26.1,386,26.1,387.5z
				 M24.9,387.6c0-1.3-0.3-2.3-1-2.9c-0.7-0.7-1.6-1-2.9-1h-1.7v8h1.4c1.4,0,2.4-0.3,3.1-1C24.5,389.9,24.9,388.9,24.9,387.6z"/>
			<path d="M31.6,385c0.3,0,0.6,0,0.9,0.1l-0.2,1.1c-0.3-0.1-0.6-0.1-0.8-0.1c-0.6,0-1.1,0.2-1.6,0.7s-0.6,1.1-0.6,1.8v4h-1.1v-7.5
				h0.9l0.1,1.4h0.1c0.3-0.5,0.6-0.9,1-1.1C30.7,385.1,31.1,385,31.6,385z"/>
			<path d="M40.3,388.9c0,1.2-0.3,2.2-0.9,2.9c-0.6,0.7-1.5,1-2.5,1c-0.7,0-1.3-0.2-1.8-0.5s-0.9-0.8-1.2-1.4
				c-0.3-0.6-0.4-1.3-0.4-2.1c0-1.2,0.3-2.2,0.9-2.9c0.6-0.7,1.5-1,2.5-1c1,0,1.9,0.3,2.5,1C40,386.7,40.3,387.7,40.3,388.9z
				 M34.6,388.9c0,1,0.2,1.7,0.6,2.2s0.9,0.8,1.7,0.8c0.7,0,1.3-0.2,1.7-0.7c0.4-0.5,0.6-1.2,0.6-2.2c0-1-0.2-1.7-0.6-2.2
				c-0.4-0.5-1-0.7-1.7-0.7c-0.7,0-1.3,0.2-1.7,0.7C34.8,387.2,34.6,387.9,34.6,388.9z"/>
			<path d="M45.8,392.8c-0.5,0-0.9-0.1-1.3-0.3c-0.4-0.2-0.7-0.5-1-0.8h-0.1c0.1,0.4,0.1,0.9,0.1,1.2v3.1h-1.1v-10.9h0.9l0.2,1h0.1
				c0.3-0.4,0.6-0.7,1-0.9c0.4-0.2,0.8-0.3,1.3-0.3c1,0,1.8,0.3,2.3,1s0.8,1.6,0.8,2.9c0,1.2-0.3,2.2-0.8,2.9
				C47.5,392.4,46.8,392.8,45.8,392.8z M45.6,386c-0.8,0-1.3,0.2-1.7,0.6s-0.5,1.1-0.5,2v0.3c0,1.1,0.2,1.8,0.5,2.3
				c0.4,0.5,0.9,0.7,1.7,0.7c0.6,0,1.2-0.3,1.5-0.8c0.4-0.5,0.5-1.2,0.5-2.2c0-0.9-0.2-1.7-0.5-2.1C46.8,386.2,46.3,386,45.6,386z"
				/>
		</g>
		<line class="st3" x1="-167.8" y1="441.3" x2="87.2" y2="441.3"/>
		<polygon points="78.7,432.6 65.4,436.2 74.7,411.2 53.4,439.9 23.4,435.2 42.7,441.2 70.1,441.2 		"/>
		<g>
			<g>
				<path class="st0" d="M51.9,428.6c-2.5-0.9-5.1,0-6.7,1.9l-22.1-7.7l-1.3,3.8l22.1,7.7c0,2.5,1.5,4.8,4,5.6
					c3.1,1.1,6.6-0.6,7.6-3.7C56.5,433.1,55.1,429.7,51.9,428.6z"/>
				<path class="st4" d="M12.9,407.5c-6.8-2.4-14.1-0.1-18.4,5.2l-20.7-7.2c0-2.5-1.6-4.8-4-5.6c-3.1-1.1-6.6,0.6-7.6,3.7
					c-1.1,3.1,0.6,6.6,3.7,7.6c2.5,0.9,5.1,0,6.7-1.9l19.8,6.9l30.1,10.5l1.2,0.4C25.5,418.9,21,410.4,12.9,407.5z"/>
			</g>
			
				<rect x="-52.9" y="396.3" transform="matrix(0.944 0.3299 -0.3299 0.944 129.5555 32.1182)" class="st5" width="46" height="2.9"/>
			<rect x="28.8" y="424.9" transform="matrix(0.944 0.3299 -0.3299 0.944 143.564 6.7675)" class="st5" width="46" height="2.9"/>
		</g>
	</g>
</g>
</svg>
