<?xml version="1.0" encoding="utf-8"?>
<!-- Generator: Adobe Illustrator 19.1.0, SVG Export Plug-In . SVG Version: 6.00 Build 0)  -->
<svg version="1.1" id="Ebene_1" xmlns="http://www.w3.org/2000/svg" xmlns:xlink="http://www.w3.org/1999/xlink" x="0px" y="0px"
	 viewBox="-173 349.9 264.9 95.1" style="enable-background:new -173 349.9 264.9 95.1;" xml:space="preserve">
<style type="text/css">
	.st0{fill:#71B221;}
	.st1{fill:#1B171B;}
	.st2{fill:#B8B8B9;}
	.st3{fill:none;}
	.st4{enable-background:new    ;}
	.st5{fill:none;stroke:#71B221;stroke-width:2;stroke-linecap:round;stroke-linejoin:round;}
	.st6{fill:none;stroke:#71B221;stroke-width:2;stroke-linecap:round;stroke-linejoin:round;stroke-dasharray:7.4103,7.4103;}
	.st7{fill:none;stroke:#71B221;stroke-width:2;stroke-linecap:round;stroke-linejoin:round;stroke-dasharray:7.7778,7.7778;}
	.st8{fill:none;stroke:#1B171B;stroke-miterlimit:10;}
</style>
<g>
	<path class="st0" d="M-152.8,414.3L-152.8,414.3c0.2-0.2,0.3-0.4,0.3-0.7c0-0.6-0.5-1-1-1c-0.3,0-0.6,0.1-0.7,0.3l0,0l-3,3.3
		l-3-3.3l0,0c-0.2-0.2-0.5-0.3-0.7-0.3c-0.6,0-1,0.5-1,1c0,0.3,0.1,0.5,0.3,0.7l0,0l3.7,4.1c0.2,0.2,0.5,0.3,0.8,0.3
		s0.6-0.1,0.8-0.3L-152.8,414.3z"/>
	<g>
		<g>
			<path class="st0" d="M-25.1,375.5c2.6,0,4.8,1.7,5.7,4H4v4h-23.4c-0.8,2.3-3,4-5.7,4c-3.3,0-6-2.7-6-6
				C-31.1,378.2-28.4,375.5-25.1,375.5z"/>
			<path class="st1" d="M18.7,368.5c7.2,0,13.3,4.6,15.6,11h21.9c0.8-2.3,3-4,5.7-4c3.3,0,6,2.7,6,6s-2.7,6-6,6
				c-2.6,0-4.8-1.7-5.7-4h-21H3.4H2.2C3,375.1,10.1,368.5,18.7,368.5z"/>
		</g>
		<rect x="39.2" y="372" class="st2" width="46" height="2.9"/>
		<rect x="-47.3" y="372" class="st2" width="46" height="2.9"/>
	</g>
	<rect x="-131" y="396.2" class="st3" width="86.5" height="32.1"/>
	<g class="st4">
		<path d="M-128.5,402.7v4.2h-1.2v-10h2.7c1.2,0,2.1,0.2,2.7,0.7s0.9,1.2,0.9,2.1c0,1.3-0.7,2.2-2,2.7l2.7,4.5h-1.4l-2.4-4.2
			L-128.5,402.7L-128.5,402.7z M-128.5,401.7h1.6c0.8,0,1.4-0.2,1.8-0.5s0.6-0.8,0.6-1.5s-0.2-1.1-0.6-1.4s-1-0.4-1.9-0.4h-1.5
			V401.7z"/>
		<path d="M-118,407c-1.1,0-2-0.3-2.6-1s-1-1.6-1-2.8c0-1.2,0.3-2.2,0.9-2.9s1.4-1.1,2.4-1.1c0.9,0,1.7,0.3,2.2,0.9s0.8,1.4,0.8,2.4
			v0.7h-5.2c0,0.9,0.2,1.5,0.7,2s1,0.7,1.8,0.7s1.6-0.2,2.4-0.5v1c-0.4,0.2-0.8,0.3-1.1,0.4C-117.1,407-117.5,407-118,407z
			 M-118.3,400.2c-0.6,0-1.1,0.2-1.4,0.6s-0.6,0.9-0.6,1.6h3.9c0-0.7-0.2-1.3-0.5-1.6C-117.3,400.4-117.7,400.2-118.3,400.2z"/>
		<path d="M-110.9,406.1c0.2,0,0.4,0,0.6,0s0.3-0.1,0.4-0.1v0.9c-0.1,0.1-0.3,0.1-0.5,0.1s-0.5,0.1-0.6,0.1c-1.4,0-2.2-0.8-2.2-2.3
			v-4.5h-1.1v-0.5l1.1-0.5l0.5-1.6h0.7v1.7h2.2v0.9h-2.2v4.4c0,0.5,0.1,0.8,0.3,1S-111.3,406.1-110.9,406.1z"/>
		<path d="M-107.3,399.4v4.9c0,0.6,0.1,1.1,0.4,1.4s0.7,0.5,1.3,0.5c0.8,0,1.4-0.2,1.7-0.6s0.5-1.1,0.5-2.1v-3.9h1.1v7.5h-0.9
			l-0.2-1h-0.1c-0.2,0.4-0.6,0.7-1,0.8s-0.9,0.3-1.4,0.3c-0.9,0-1.6-0.2-2-0.6s-0.7-1.1-0.7-2.1v-4.9h1.3V399.4z"/>
		<path d="M-96.4,399.2c0.3,0,0.6,0,0.9,0.1l-0.2,1.1c-0.3-0.1-0.6-0.1-0.8-0.1c-0.6,0-1.1,0.2-1.6,0.7s-0.6,1.1-0.6,1.8v4h-1.1
			v-7.5h0.9l0.1,1.4h0.1c0.3-0.5,0.6-0.9,1-1.1S-96.8,399.2-96.4,399.2z"/>
		<path d="M-88.9,406.9v-4.8c0-0.6-0.1-1.1-0.4-1.4s-0.7-0.5-1.3-0.5c-0.8,0-1.4,0.2-1.7,0.6s-0.5,1.1-0.5,2.1v3.9h-1.1v-7.5h0.9
			l0.2,1h0.1c0.2-0.4,0.6-0.7,1-0.9c0.4-0.2,0.9-0.3,1.4-0.3c0.9,0,1.6,0.2,2,0.7c0.5,0.4,0.7,1.1,0.7,2.1v4.9L-88.9,406.9
			L-88.9,406.9z"/>
		<path d="M-79.4,406.1c0.2,0,0.4,0,0.6,0s0.3-0.1,0.4-0.1v0.9c-0.1,0.1-0.3,0.1-0.5,0.1s-0.5,0.1-0.6,0.1c-1.4,0-2.2-0.8-2.2-2.3
			v-4.5h-1.1v-0.5l1.1-0.5l0.5-1.6h0.7v1.7h2.2v0.9h-2.2v4.4c0,0.5,0.1,0.8,0.3,1S-79.8,406.1-79.4,406.1z"/>
		<path d="M-70.4,403.1c0,1.2-0.3,2.2-0.9,2.9c-0.6,0.7-1.5,1-2.5,1c-0.7,0-1.3-0.2-1.8-0.5s-0.9-0.8-1.2-1.4s-0.4-1.3-0.4-2.1
			c0-1.2,0.3-2.2,0.9-2.9c0.6-0.7,1.5-1,2.5-1s1.9,0.3,2.5,1S-70.4,401.9-70.4,403.1z M-76.1,403.1c0,1,0.2,1.7,0.6,2.2
			s0.9,0.8,1.7,0.8s1.3-0.2,1.7-0.7c0.4-0.5,0.6-1.2,0.6-2.2s-0.2-1.7-0.6-2.2s-1-0.7-1.7-0.7s-1.3,0.2-1.7,0.7
			S-76.1,402.1-76.1,403.1z"/>
	</g>
	<g class="st4">
		<path d="M-122.1,423.7h-1.2V419h-5.3v4.7h-1.2v-10h1.2v4.3h5.3v-4.3h1.2C-122.1,413.7-122.1,423.7-122.1,423.7z"/>
		<path d="M-113,419.9c0,1.2-0.3,2.2-0.9,2.9c-0.6,0.7-1.5,1-2.5,1c-0.7,0-1.3-0.2-1.8-0.5s-0.9-0.8-1.2-1.4s-0.4-1.3-0.4-2.1
			c0-1.2,0.3-2.2,0.9-2.9c0.6-0.7,1.5-1,2.5-1s1.9,0.3,2.5,1S-113,418.7-113,419.9z M-118.7,419.9c0,1,0.2,1.7,0.6,2.2
			s0.9,0.8,1.7,0.8s1.3-0.2,1.7-0.7c0.4-0.5,0.6-1.2,0.6-2.2s-0.2-1.7-0.6-2.2s-1-0.7-1.7-0.7s-1.3,0.2-1.7,0.7
			S-118.7,418.9-118.7,419.9z"/>
		<path d="M-101.5,423.7v-4.9c0-0.6-0.1-1-0.4-1.3s-0.7-0.4-1.2-0.4c-0.7,0-1.2,0.2-1.6,0.6s-0.5,1-0.5,1.9v4.2h-1.1v-4.9
			c0-0.6-0.1-1-0.4-1.3s-0.7-0.4-1.2-0.4c-0.7,0-1.2,0.2-1.6,0.6c-0.3,0.4-0.5,1.1-0.5,2.1v3.9h-1.1v-7.5h0.9l0.2,1h0.1
			c0.2-0.4,0.5-0.6,0.9-0.9s0.8-0.3,1.3-0.3c1.2,0,1.9,0.4,2.3,1.3h0.1c0.2-0.4,0.5-0.7,1-0.9s0.9-0.3,1.4-0.3
			c0.8,0,1.5,0.2,1.9,0.7c0.4,0.4,0.6,1.1,0.6,2.1v4.9h-1.1V423.7z"/>
		<path d="M-94.8,423.8c-1.1,0-2-0.3-2.6-1s-1-1.6-1-2.8c0-1.2,0.3-2.2,0.9-2.9s1.4-1.1,2.4-1.1c0.9,0,1.7,0.3,2.2,0.9
			s0.8,1.4,0.8,2.4v0.7h-5.2c0,0.9,0.2,1.5,0.7,2s1,0.7,1.8,0.7s1.6-0.2,2.4-0.5v1c-0.4,0.2-0.8,0.3-1.1,0.4
			C-93.9,423.8-94.3,423.8-94.8,423.8z M-95.1,417c-0.6,0-1.1,0.2-1.4,0.6s-0.6,0.9-0.6,1.6h3.9c0-0.7-0.2-1.3-0.5-1.6
			C-94.1,417.2-94.6,417-95.1,417z"/>
	</g>
	<g>
		<g>
			<line class="st5" x1="-52.9" y1="379.2" x2="-56.9" y2="379.2"/>
			<line class="st6" x1="-64.3" y1="379.2" x2="-149.6" y2="379.2"/>
			<polyline class="st5" points="-153.3,379.2 -157.3,379.2 -157.3,383.2 			"/>
			<line class="st7" x1="-157.3" y1="391" x2="-157.3" y2="402.6"/>
			<line class="st5" x1="-157.3" y1="406.5" x2="-157.3" y2="410.5"/>
		</g>
	</g>
	<line class="st8" x1="-167.8" y1="442" x2="87.2" y2="442"/>
	<path class="st0" d="M-157.2,420.6c-4.7,0-8.5,3.8-8.5,8.5s5.2,8.6,8.5,11.6c2.7-2.7,8.5-7,8.5-11.6
		C-148.7,424.4-152.5,420.6-157.2,420.6z M-153.9,432.2h-1.9V430h-2.9v2.2h-1.9V426h1.9v2.2h2.9V426h1.9V432.2z"/>
</g>
</svg>
