<?xml version="1.0" encoding="utf-8"?>
<!-- Generator: Adobe Illustrator 19.1.0, SVG Export Plug-In . SVG Version: 6.00 Build 0)  -->
<svg version="1.1" id="Ebene_1" xmlns="http://www.w3.org/2000/svg" xmlns:xlink="http://www.w3.org/1999/xlink" x="0px" y="0px"
	 viewBox="-9 23.6 264.9 95.1" style="enable-background:new -9 23.6 264.9 95.1;" xml:space="preserve">
<style type="text/css">
	.st0{fill:#FFBB00;}
	.st1{fill:#1B171B;}
	.st2{fill:#B8B8B9;}
	.st3{fill:none;}
	.st4{enable-background:new    ;}
	.st5{fill:none;stroke:#FFBB00;stroke-width:2;stroke-linecap:round;stroke-linejoin:round;}
	.st6{fill:none;stroke:#FFBB00;stroke-width:2;stroke-linecap:round;stroke-linejoin:round;stroke-dasharray:7.4103,7.4103;}
	.st7{fill:none;stroke:#FFBB00;stroke-width:2;stroke-linecap:round;stroke-linejoin:round;stroke-dasharray:7.7778,7.7778;}
	.st8{fill:none;stroke:#1B171B;stroke-miterlimit:10;}
</style>
<g>
	<path class="st0" d="M11.2,84.9L11.2,84.9c0.2-0.2,0.3-0.4,0.3-0.7c0-0.6-0.5-1-1-1c-0.3,0-0.6,0.1-0.7,0.3l0,0l-3,3.3l-3-3.3l0,0
		c-0.2-0.2-0.5-0.3-0.7-0.3c-0.6,0-1,0.5-1,1c0,0.3,0.1,0.5,0.3,0.7l0,0L6.1,89c0.2,0.2,0.5,0.3,0.8,0.3s0.6-0.1,0.8-0.3L11.2,84.9z
		"/>
	<g>
		<g>
			<path class="st0" d="M138.9,46.1c2.6,0,4.8,1.7,5.7,4H168v4h-23.4c-0.8,2.3-3,4-5.7,4c-3.3,0-6-2.7-6-6S135.6,46.1,138.9,46.1z"
				/>
			<path class="st1" d="M182.7,39.1c7.2,0,13.3,4.6,15.6,11h21.9c0.8-2.3,3-4,5.7-4c3.3,0,6,2.7,6,6s-2.7,6-6,6
				c-2.6,0-4.8-1.7-5.7-4h-21h-31.8h-1.2C167,45.7,174.1,39.1,182.7,39.1z"/>
		</g>
		<rect x="203.2" y="42.6" class="st2" width="46" height="2.9"/>
		<rect x="116.7" y="42.6" class="st2" width="46" height="2.9"/>
	</g>
	<rect x="33" y="66.8" class="st3" width="86.5" height="32.1"/>
	<g class="st4">
		<path d="M35.5,73.3v4.2h-1.2v-10H37c1.2,0,2.1,0.2,2.7,0.7s0.9,1.2,0.9,2.1c0,1.3-0.7,2.2-2,2.7l2.7,4.5h-1.4l-2.4-4.2L35.5,73.3
			L35.5,73.3z M35.5,72.3h1.6c0.8,0,1.4-0.2,1.8-0.5s0.6-0.8,0.6-1.5s-0.2-1.1-0.6-1.4s-1-0.4-1.9-0.4h-1.5V72.3z"/>
		<path d="M46,77.6c-1.1,0-2-0.3-2.6-1s-1-1.6-1-2.8c0-1.2,0.3-2.2,0.9-2.9s1.4-1.1,2.4-1.1c0.9,0,1.7,0.3,2.2,0.9s0.8,1.4,0.8,2.4
			v0.7h-5.2c0,0.9,0.2,1.5,0.7,2s1,0.7,1.8,0.7s1.6-0.2,2.4-0.5v1c-0.4,0.2-0.8,0.3-1.1,0.4C46.9,77.6,46.5,77.6,46,77.6z
			 M45.7,70.8c-0.6,0-1.1,0.2-1.4,0.6s-0.6,0.9-0.6,1.6h3.9c0-0.7-0.2-1.3-0.5-1.6C46.7,71,46.3,70.8,45.7,70.8z"/>
		<path d="M53.1,76.7c0.2,0,0.4,0,0.6,0s0.3-0.1,0.4-0.1v0.9c-0.1,0.1-0.3,0.1-0.5,0.1s-0.5,0.1-0.6,0.1c-1.4,0-2.2-0.8-2.2-2.3
			v-4.5h-1.1v-0.5l1.1-0.5l0.5-1.6H52V70h2.2v0.9H52v4.4c0,0.5,0.1,0.8,0.3,1S52.7,76.7,53.1,76.7z"/>
		<path d="M56.7,70v4.9c0,0.6,0.1,1.1,0.4,1.4s0.7,0.5,1.3,0.5c0.8,0,1.4-0.2,1.7-0.6s0.5-1.1,0.5-2.1v-3.9h1.1v7.5h-0.9l-0.2-1
			h-0.1c-0.2,0.4-0.6,0.7-1,0.8s-0.9,0.3-1.4,0.3c-0.9,0-1.6-0.2-2-0.6s-0.7-1.1-0.7-2.1v-4.9h1.3C56.7,70.2,56.7,70,56.7,70z"/>
		<path d="M67.6,69.8c0.3,0,0.6,0,0.9,0.1L68.3,71c-0.3-0.1-0.6-0.1-0.8-0.1c-0.6,0-1.1,0.2-1.6,0.7s-0.6,1.1-0.6,1.8v4h-1.1v-7.5
			h0.9l0.1,1.4h0.1c0.3-0.5,0.6-0.9,1-1.1S67.2,69.8,67.6,69.8z"/>
		<path d="M75.1,77.5v-4.8c0-0.6-0.1-1.1-0.4-1.4s-0.7-0.5-1.3-0.5c-0.8,0-1.4,0.2-1.7,0.6s-0.5,1.1-0.5,2.1v3.9h-1.1v-7.5H71l0.2,1
			h0.1c0.2-0.4,0.6-0.7,1-0.9c0.4-0.2,0.9-0.3,1.4-0.3c0.9,0,1.6,0.2,2,0.7c0.5,0.4,0.7,1.1,0.7,2.1v4.9L75.1,77.5L75.1,77.5z"/>
		<path d="M84.6,76.7c0.2,0,0.4,0,0.6,0s0.3-0.1,0.4-0.1v0.9c-0.1,0.1-0.3,0.1-0.5,0.1s-0.5,0.1-0.6,0.1c-1.4,0-2.2-0.8-2.2-2.3
			v-4.5h-1.1v-0.5l1.1-0.5l0.5-1.6h0.7V70h2.2v0.9h-2.2v4.4c0,0.5,0.1,0.8,0.3,1S84.2,76.7,84.6,76.7z"/>
		<path d="M93.6,73.7c0,1.2-0.3,2.2-0.9,2.9c-0.6,0.7-1.5,1-2.5,1c-0.7,0-1.3-0.2-1.8-0.5s-0.9-0.8-1.2-1.4s-0.4-1.3-0.4-2.1
			c0-1.2,0.3-2.2,0.9-2.9c0.6-0.7,1.5-1,2.5-1s1.9,0.3,2.5,1S93.6,72.5,93.6,73.7z M87.9,73.7c0,1,0.2,1.7,0.6,2.2s0.9,0.8,1.7,0.8
			s1.3-0.2,1.7-0.7c0.4-0.5,0.6-1.2,0.6-2.2s-0.2-1.7-0.6-2.2s-1-0.7-1.7-0.7s-1.3,0.2-1.7,0.7S87.9,72.7,87.9,73.7z"/>
	</g>
	<g class="st4">
		<path d="M41.9,94.3h-1.2v-4.7h-5.3v4.7h-1.2v-10h1.2v4.3h5.3v-4.3h1.2C41.9,84.3,41.9,94.3,41.9,94.3z"/>
		<path d="M51,90.5c0,1.2-0.3,2.2-0.9,2.9c-0.6,0.7-1.5,1-2.5,1c-0.7,0-1.3-0.2-1.8-0.5s-0.9-0.8-1.2-1.4s-0.4-1.3-0.4-2.1
			c0-1.2,0.3-2.2,0.9-2.9c0.6-0.7,1.5-1,2.5-1s1.9,0.3,2.5,1S51,89.3,51,90.5z M45.3,90.5c0,1,0.2,1.7,0.6,2.2s0.9,0.8,1.7,0.8
			s1.3-0.2,1.7-0.7c0.4-0.5,0.6-1.2,0.6-2.2s-0.2-1.7-0.6-2.2s-1-0.7-1.7-0.7s-1.3,0.2-1.7,0.7S45.3,89.5,45.3,90.5z"/>
		<path d="M62.5,94.3v-4.9c0-0.6-0.1-1-0.4-1.3s-0.7-0.4-1.2-0.4c-0.7,0-1.2,0.2-1.6,0.6s-0.5,1-0.5,1.9v4.2h-1.1v-4.9
			c0-0.6-0.1-1-0.4-1.3s-0.7-0.4-1.2-0.4c-0.7,0-1.2,0.2-1.6,0.6c-0.3,0.4-0.5,1.1-0.5,2.1v3.9h-1.1v-7.5h0.9l0.2,1h0.1
			c0.2-0.4,0.5-0.6,0.9-0.9s0.8-0.3,1.3-0.3c1.2,0,1.9,0.4,2.3,1.3h0.1c0.2-0.4,0.5-0.7,1-0.9s0.9-0.3,1.4-0.3
			c0.8,0,1.5,0.2,1.9,0.7c0.4,0.4,0.6,1.1,0.6,2.1v4.9h-1.1L62.5,94.3L62.5,94.3z"/>
		<path d="M69.2,94.4c-1.1,0-2-0.3-2.6-1s-1-1.6-1-2.8c0-1.2,0.3-2.2,0.9-2.9s1.4-1.1,2.4-1.1c0.9,0,1.7,0.3,2.2,0.9
			s0.8,1.4,0.8,2.4v0.7h-5.2c0,0.9,0.2,1.5,0.7,2s1,0.7,1.8,0.7s1.6-0.2,2.4-0.5v1c-0.4,0.2-0.8,0.3-1.1,0.4
			C70.1,94.4,69.7,94.4,69.2,94.4z M68.9,87.6c-0.6,0-1.1,0.2-1.4,0.6s-0.6,0.9-0.6,1.6h3.9c0-0.7-0.2-1.3-0.5-1.6
			C69.9,87.8,69.4,87.6,68.9,87.6z"/>
	</g>
	<g>
		<g>
			<line class="st5" x1="111.1" y1="49.8" x2="107.1" y2="49.8"/>
			<line class="st6" x1="99.7" y1="49.8" x2="14.4" y2="49.8"/>
			<polyline class="st5" points="10.7,49.8 6.7,49.8 6.7,53.8 			"/>
			<line class="st7" x1="6.7" y1="61.6" x2="6.7" y2="73.2"/>
			<line class="st5" x1="6.7" y1="77.1" x2="6.7" y2="81.1"/>
		</g>
	</g>
	<line class="st8" x1="-3.8" y1="112.6" x2="251.2" y2="112.6"/>
	<path class="st0" d="M6.8,91.2c-4.7,0-8.5,3.8-8.5,8.5s5.2,8.6,8.5,11.6c2.7-2.7,8.5-7,8.5-11.6C15.3,95,11.5,91.2,6.8,91.2z
		 M10.1,102.8H8.2v-2.2H5.3v2.2H3.4v-6.2h1.9v2.2h2.9v-2.2h1.9V102.8z"/>
</g>
</svg>
