<?xml version="1.0" encoding="utf-8"?>
<!-- Generator: Adobe Illustrator 19.1.0, SVG Export Plug-In . SVG Version: 6.00 Build 0)  -->
<svg version="1.1" id="Ebene_1" xmlns="http://www.w3.org/2000/svg" xmlns:xlink="http://www.w3.org/1999/xlink" x="0px" y="0px"
	 viewBox="-173 349.9 264.9 95.1" style="enable-background:new -173 349.9 264.9 95.1;" xml:space="preserve">
<style type="text/css">
	.st0{fill:#71B221;}
	.st1{fill:#1B171B;}
	.st2{fill:#B8B8B9;}
	.st3{fill:none;}
	.st4{enable-background:new    ;}
	
		.st5{fill:none;stroke:#71B221;stroke-width:2;stroke-linecap:round;stroke-linejoin:round;stroke-miterlimit:10;stroke-dasharray:8,8;}
	.st6{fill:none;stroke:#1B171B;stroke-miterlimit:10;}
</style>
<g>
	<g>
		<g>
			<g>
				<path class="st0" d="M63.1,374.8c-2.6,0-4.8,1.7-5.7,4H34v4h23.4c0.8,2.3,3,4,5.7,4c3.3,0,6-2.7,6-6
					C69.1,377.5,66.4,374.8,63.1,374.8z"/>
				<path class="st1" d="M19.2,367.8c-7.2,0-13.3,4.6-15.6,11h-21.9c-0.8-2.3-3-4-5.7-4c-3.3,0-6,2.7-6,6s2.7,6,6,6
					c2.6,0,4.8-1.7,5.7-4h21h31.8h1.2C35,374.3,27.9,367.8,19.2,367.8z"/>
			</g>
			<rect x="-47.3" y="371.3" class="st2" width="46" height="2.9"/>
			<rect x="39.2" y="371.3" class="st2" width="46" height="2.9"/>
		</g>
		<rect x="26.7" y="401.5" class="st3" width="67.5" height="13.5"/>
		<g class="st4">
			<path d="M28.1,412.1v-10h1.2v8.9h4.4v1.1H28.1z"/>
			<path d="M39.8,412.1l-0.2-1.1h-0.1c-0.4,0.5-0.7,0.8-1.1,1c-0.4,0.2-0.8,0.2-1.4,0.2c-0.7,0-1.3-0.2-1.7-0.6
				c-0.4-0.4-0.6-0.9-0.6-1.6c0-1.5,1.2-2.3,3.6-2.4l1.3,0v-0.5c0-0.6-0.1-1-0.4-1.3c-0.3-0.3-0.7-0.4-1.2-0.4
				c-0.6,0-1.3,0.2-2.1,0.6l-0.3-0.9c0.4-0.2,0.8-0.4,1.2-0.5c0.4-0.1,0.9-0.2,1.3-0.2c0.9,0,1.6,0.2,2,0.6s0.6,1,0.6,1.9v5.1H39.8z
				 M37.2,411.3c0.7,0,1.3-0.2,1.7-0.6s0.6-0.9,0.6-1.6v-0.7l-1.1,0c-0.9,0-1.6,0.2-2,0.4c-0.4,0.2-0.6,0.6-0.6,1.2
				c0,0.4,0.1,0.7,0.4,0.9C36.5,411.2,36.8,411.3,37.2,411.3z"/>
			<path d="M48.1,412.1v-4.8c0-0.6-0.1-1.1-0.4-1.4c-0.3-0.3-0.7-0.5-1.3-0.5c-0.8,0-1.4,0.2-1.7,0.6c-0.4,0.4-0.5,1.1-0.5,2.1v3.9
				H43v-7.5h0.9l0.2,1h0.1c0.2-0.4,0.6-0.7,1-0.9c0.4-0.2,0.9-0.3,1.4-0.3c0.9,0,1.6,0.2,2,0.7c0.5,0.4,0.7,1.1,0.7,2.1v4.9H48.1z"
				/>
			<path d="M56.7,411.1L56.7,411.1c-0.6,0.8-1.4,1.1-2.4,1.1c-1,0-1.7-0.3-2.3-1c-0.5-0.7-0.8-1.6-0.8-2.9s0.3-2.2,0.8-2.9
				s1.3-1,2.3-1c1,0,1.8,0.4,2.3,1.1h0.1l0-0.5l0-0.5v-3h1.1v10.6h-0.9L56.7,411.1z M54.4,411.3c0.8,0,1.3-0.2,1.7-0.6
				c0.3-0.4,0.5-1.1,0.5-2v-0.2c0-1.1-0.2-1.8-0.5-2.3c-0.4-0.5-0.9-0.7-1.7-0.7c-0.7,0-1.2,0.3-1.5,0.8c-0.4,0.5-0.5,1.2-0.5,2.2
				c0,1,0.2,1.7,0.5,2.2C53.2,411.1,53.7,411.3,54.4,411.3z"/>
		</g>
		<g>
			<path class="st0" d="M23.1,432.6L23.1,432.6c0.2-0.2,0.3-0.4,0.3-0.7c0-0.6-0.5-1-1-1c-0.3,0-0.6,0.1-0.7,0.3l0,0l-3,3.3l-3-3.3
				l0,0c-0.2-0.2-0.5-0.3-0.7-0.3c-0.6,0-1,0.5-1,1c0,0.3,0.1,0.5,0.3,0.7l0,0l3.7,4.1c0.2,0.2,0.5,0.3,0.8,0.3s0.6-0.1,0.8-0.3
				L23.1,432.6z"/>
			<line class="st5" x1="18.6" y1="392" x2="18.6" y2="430"/>
		</g>
		<line class="st6" x1="-167.8" y1="441.3" x2="87.2" y2="441.3"/>
	</g>
	<path class="st0" d="M-157.2,420.1c-4.7,0-8.5,3.8-8.5,8.5c0,4.7,5.2,8.6,8.5,11.6c2.7-2.7,8.5-7,8.5-11.6
		C-148.7,423.9-152.5,420.1-157.2,420.1z M-153.9,431.7h-1.9v-2.2h-2.9v2.2h-1.9v-6.2h1.9v2.2h2.9v-2.2h1.9V431.7z"/>
</g>
</svg>
