<?xml version="1.0" encoding="utf-8"?>
<!-- Generator: Adobe Illustrator 19.1.0, SVG Export Plug-In . SVG Version: 6.00 Build 0)  -->
<svg version="1.1" id="Ebene_1" xmlns="http://www.w3.org/2000/svg" xmlns:xlink="http://www.w3.org/1999/xlink" x="0px" y="0px"
	 viewBox="-173 349.9 264.9 95.1" style="enable-background:new -173 349.9 264.9 95.1;" xml:space="preserve">
<style type="text/css">
	.st0{fill:#71B221;}
	.st1{fill:#1B171B;}
	.st2{fill:#B8B8B9;}
	.st3{fill:none;}
	.st4{enable-background:new    ;}
	.st5{fill:none;stroke:#71B221;stroke-width:2;stroke-linecap:round;stroke-miterlimit:10;}
	.st6{fill:none;stroke:#1B171B;stroke-miterlimit:10;}
</style>
<g>
	<g>
		<g>
			<g>
				<path class="st0" d="M63.1,374.7c-2.6,0-4.8,1.7-5.7,4H34v4h23.4c0.8,2.3,3,4,5.7,4c3.3,0,6-2.7,6-6
					C69.1,377.4,66.4,374.7,63.1,374.7z"/>
				<path class="st1" d="M19.2,367.7c-7.2,0-13.3,4.6-15.6,11h-21.9c-0.8-2.3-3-4-5.7-4c-3.3,0-6,2.7-6,6c0,3.3,2.7,6,6,6
					c2.6,0,4.8-1.7,5.7-4h21h31.8h1.2C35,374.3,27.9,367.7,19.2,367.7z"/>
			</g>
			<rect x="-47.3" y="371.2" class="st2" width="46" height="2.9"/>
			<rect x="39.2" y="371.2" class="st2" width="46" height="2.9"/>
		</g>
		<rect x="26.7" y="401.5" class="st3" width="67.5" height="13.5"/>
		<g class="st4">
			<path d="M35.7,412.1h-1.2v-4.7h-5.3v4.7h-1.2v-10h1.2v4.3h5.3v-4.3h1.2V412.1z"/>
			<path d="M44.7,408.3c0,1.2-0.3,2.2-0.9,2.9c-0.6,0.7-1.5,1-2.5,1c-0.7,0-1.3-0.2-1.8-0.5s-0.9-0.8-1.2-1.4
				c-0.3-0.6-0.4-1.3-0.4-2.1c0-1.2,0.3-2.2,0.9-2.9c0.6-0.7,1.5-1,2.5-1c1,0,1.9,0.3,2.5,1C44.4,406.2,44.7,407.2,44.7,408.3z
				 M39,408.3c0,1,0.2,1.7,0.6,2.2c0.4,0.5,0.9,0.8,1.7,0.8c0.7,0,1.3-0.2,1.7-0.8c0.4-0.5,0.6-1.2,0.6-2.2c0-1-0.2-1.7-0.6-2.2
				c-0.4-0.5-1-0.7-1.7-0.7c-0.7,0-1.3,0.2-1.7,0.7C39.2,406.7,39,407.4,39,408.3z"/>
			<path d="M48.4,412.1l-2.8-7.5h1.2l1.6,4.4c0.4,1,0.6,1.7,0.6,2H49c0.1-0.2,0.2-0.7,0.5-1.5c0.3-0.8,0.9-2.4,1.8-5h1.2l-2.8,7.5
				H48.4z"/>
			<path d="M56.9,412.2c-1.1,0-2-0.3-2.6-1c-0.6-0.7-1-1.6-1-2.8c0-1.2,0.3-2.2,0.9-2.9s1.4-1.1,2.4-1.1c0.9,0,1.7,0.3,2.2,0.9
				c0.5,0.6,0.8,1.4,0.8,2.4v0.7h-5.2c0,0.9,0.2,1.5,0.7,2c0.4,0.5,1,0.7,1.8,0.7c0.8,0,1.6-0.2,2.4-0.5v1c-0.4,0.2-0.8,0.3-1.1,0.4
				C57.8,412.2,57.4,412.2,56.9,412.2z M56.6,405.4c-0.6,0-1.1,0.2-1.4,0.6c-0.4,0.4-0.6,0.9-0.6,1.6h3.9c0-0.7-0.2-1.3-0.5-1.6
				C57.6,405.6,57.2,405.4,56.6,405.4z"/>
			<path d="M65,404.5c0.3,0,0.6,0,0.9,0.1l-0.2,1.1c-0.3-0.1-0.6-0.1-0.8-0.1c-0.6,0-1.1,0.2-1.6,0.7s-0.6,1.1-0.6,1.8v4h-1.1v-7.5
				h0.9l0.1,1.4h0.1c0.3-0.5,0.6-0.9,1-1.1C64.1,404.6,64.5,404.5,65,404.5z"/>
		</g>
		<g>
			<path class="st0" d="M23.1,432.5L23.1,432.5c0.2-0.2,0.3-0.4,0.3-0.7c0-0.6-0.5-1-1-1c-0.3,0-0.6,0.1-0.7,0.3l0,0l-3,3.3l-3-3.3
				l0,0c-0.2-0.2-0.5-0.3-0.7-0.3c-0.6,0-1,0.5-1,1c0,0.3,0.1,0.5,0.3,0.7l0,0l3.7,4.1c0.2,0.2,0.5,0.3,0.8,0.3s0.6-0.1,0.8-0.3
				L23.1,432.5z"/>
			<path class="st0" d="M14.2,389.2L14.2,389.2c-0.2,0.2-0.3,0.4-0.3,0.7c0,0.6,0.5,1,1,1c0.3,0,0.6-0.1,0.7-0.3l0,0l3-3.3l3,3.3
				l0,0c0.2,0.2,0.5,0.3,0.7,0.3c0.6,0,1-0.5,1-1c0-0.3-0.1-0.5-0.3-0.7l0,0l-3.7-4.1c-0.2-0.2-0.5-0.3-0.8-0.3s-0.6,0.1-0.8,0.3
				L14.2,389.2z"/>
			<line class="st5" x1="18.6" y1="392" x2="18.6" y2="430"/>
		</g>
		<line class="st6" x1="-167.8" y1="441.2" x2="87.2" y2="441.2"/>
	</g>
	<path class="st0" d="M-157.2,419.8c-4.7,0-8.5,3.8-8.5,8.5c0,4.7,5.2,8.6,8.5,11.6c2.7-2.7,8.5-7,8.5-11.6
		C-148.7,423.6-152.5,419.8-157.2,419.8z M-153.9,431.5h-1.9v-2.2h-2.9v2.2h-1.9v-6.2h1.9v2.2h2.9v-2.2h1.9V431.5z"/>
</g>
</svg>
