<?xml version="1.0" encoding="utf-8"?>
<!-- Generator: Adobe Illustrator 19.1.0, SVG Export Plug-In . SVG Version: 6.00 Build 0)  -->
<svg version="1.1" id="Ebene_1" xmlns="http://www.w3.org/2000/svg" xmlns:xlink="http://www.w3.org/1999/xlink" x="0px" y="0px"
	 viewBox="-9 23.6 264.9 95.1" style="enable-background:new -9 23.6 264.9 95.1;" xml:space="preserve">
<style type="text/css">
	.st0{fill:#FFBB00;}
	.st1{fill:#1B171B;}
	.st2{fill:#B8B8B9;}
	.st3{fill:none;}
	.st4{enable-background:new    ;}
	
		.st5{fill:none;stroke:#FFBB00;stroke-width:2;stroke-linecap:round;stroke-linejoin:round;stroke-miterlimit:10;stroke-dasharray:8,8;}
	.st6{fill:none;stroke:#1B171B;stroke-miterlimit:10;}
</style>
<g>
	<g>
		<g>
			<g>
				<path class="st0" d="M226.8,48.2c-2.6,0-4.8,1.7-5.7,4h-23.4v4h23.4c0.8,2.3,3,4,5.7,4c3.3,0,6-2.7,6-6
					C232.8,50.9,230.1,48.2,226.8,48.2z"/>
				<path class="st1" d="M182.9,41.2c-7.2,0-13.3,4.6-15.6,11h-21.9c-0.8-2.3-3-4-5.7-4c-3.3,0-6,2.7-6,6s2.7,6,6,6
					c2.6,0,4.8-1.7,5.7-4h21h31.8h1.2C198.7,47.7,191.6,41.2,182.9,41.2z"/>
			</g>
			<rect x="116.4" y="44.7" class="st2" width="46" height="2.9"/>
			<rect x="202.9" y="44.7" class="st2" width="46" height="2.9"/>
		</g>
		<rect x="190.4" y="74.9" class="st3" width="67.5" height="13.5"/>
		<g class="st4">
			<path d="M191.8,85.5v-10h1.2v8.9h4.4v1.1H191.8z"/>
			<path d="M203.5,85.5l-0.2-1.1h-0.1c-0.4,0.5-0.7,0.8-1.1,1c-0.4,0.2-0.8,0.2-1.4,0.2c-0.7,0-1.3-0.2-1.7-0.6
				c-0.4-0.4-0.6-0.9-0.6-1.6c0-1.5,1.2-2.3,3.6-2.4h1.3v-0.5c0-0.6-0.1-1-0.4-1.3s-0.7-0.4-1.2-0.4c-0.6,0-1.3,0.2-2.1,0.6
				l-0.3-0.9c0.4-0.2,0.8-0.4,1.2-0.5c0.4-0.1,0.9-0.2,1.3-0.2c0.9,0,1.6,0.2,2,0.6c0.4,0.4,0.6,1,0.6,1.9v5.1L203.5,85.5
				L203.5,85.5z M200.9,84.7c0.7,0,1.3-0.2,1.7-0.6c0.4-0.4,0.6-0.9,0.6-1.6v-0.7h-1.1c-0.9,0-1.6,0.2-2,0.4
				c-0.4,0.2-0.6,0.6-0.6,1.2c0,0.4,0.1,0.7,0.4,0.9C200.2,84.6,200.5,84.7,200.9,84.7z"/>
			<path d="M211.8,85.5v-4.8c0-0.6-0.1-1.1-0.4-1.4s-0.7-0.5-1.3-0.5c-0.8,0-1.4,0.2-1.7,0.6c-0.4,0.4-0.5,1.1-0.5,2.1v3.9h-1.2
				v-7.5h0.9l0.2,1h0.1c0.2-0.4,0.6-0.7,1-0.9c0.4-0.2,0.9-0.3,1.4-0.3c0.9,0,1.6,0.2,2,0.7c0.5,0.4,0.7,1.1,0.7,2.1v4.9L211.8,85.5
				L211.8,85.5z"/>
			<path d="M220.4,84.5L220.4,84.5c-0.6,0.8-1.4,1.1-2.4,1.1s-1.7-0.3-2.3-1c-0.5-0.7-0.8-1.6-0.8-2.9s0.3-2.2,0.8-2.9s1.3-1,2.3-1
				s1.8,0.4,2.3,1.1h0.1v-0.5v-0.5v-3h1.1v10.6h-0.9L220.4,84.5z M218.1,84.7c0.8,0,1.3-0.2,1.7-0.6c0.3-0.4,0.5-1.1,0.5-2v-0.2
				c0-1.1-0.2-1.8-0.5-2.3c-0.4-0.5-0.9-0.7-1.7-0.7c-0.7,0-1.2,0.3-1.5,0.8c-0.4,0.5-0.5,1.2-0.5,2.2s0.2,1.7,0.5,2.2
				C216.9,84.5,217.4,84.7,218.1,84.7z"/>
		</g>
		<g>
			<path class="st0" d="M186.8,106L186.8,106c0.2-0.2,0.3-0.4,0.3-0.7c0-0.6-0.5-1-1-1c-0.3,0-0.6,0.1-0.7,0.3l0,0l-3,3.3l-3-3.3
				l0,0c-0.2-0.2-0.5-0.3-0.7-0.3c-0.6,0-1,0.5-1,1c0,0.3,0.1,0.5,0.3,0.7l0,0l3.7,4.1c0.2,0.2,0.5,0.3,0.8,0.3
				c0.3,0,0.6-0.1,0.8-0.3L186.8,106z"/>
			<line class="st5" x1="182.3" y1="65.4" x2="182.3" y2="103.4"/>
		</g>
		<line class="st6" x1="-4.1" y1="114.7" x2="250.9" y2="114.7"/>
	</g>
	<path class="st0" d="M6.5,93.5C1.8,93.5-2,97.3-2,102s5.2,8.6,8.5,11.6c2.7-2.7,8.5-7,8.5-11.6C15,97.3,11.2,93.5,6.5,93.5z
		 M9.8,105.1H7.9v-2.2H5v2.2H3.1v-6.2H5v2.2h2.9v-2.2h1.9V105.1z"/>
</g>
</svg>
