<?xml version="1.0" encoding="utf-8"?>
<!-- Generator: Adobe Illustrator 18.1.1, SVG Export Plug-In . SVG Version: 6.00 Build 0)  -->
<svg version="1.1" id="Capa_1" xmlns="http://www.w3.org/2000/svg" xmlns:xlink="http://www.w3.org/1999/xlink" x="0px" y="0px"
	 viewBox="0 0 141.7 141.7" enable-background="new 0 0 141.7 141.7" xml:space="preserve">
<g>
	<g>
		<g>
			<path fill="#818181" d="M119.6,54.2l-2.3-5.5c7.9-18,7.4-18.5,5.9-20.1L113,18.7l-1-0.8h-1.2c-0.6,0-2.5,0-17.9,7l-5.7-2.3
				C79.9,4.4,79.1,4.4,77,4.4H62.7c-2.1,0-3,0-9.8,18.3l-5.7,2.3c-10.4-4.4-16.5-6.6-18.2-6.6l-1.4,0L16.7,29
				c-1.7,1.6-2.2,2.1,6.2,19.8l-2.3,5.5C2,61.5,2,62.2,2,64.4v14c0,2.2,0,3,18.7,9.7l2.3,5.5c-7.9,18-7.4,18.5-5.9,20l10.2,9.9
				l1,0.9h1.2c0.6,0,2.4,0,17.9-7l5.7,2.3c7.3,18.2,8.1,18.2,10.3,18.2h14.3c2.2,0,3,0,9.8-18.3l5.7-2.3c10.4,4.4,16.5,6.6,18.2,6.6
				l1.4,0l11-10.8c1.6-1.6,2.1-2.1-6.2-19.7l2.3-5.5c18.6-7.2,18.6-8,18.6-10.1v-14C138.3,61.6,138.3,60.8,119.6,54.2z M70.1,94.5
				C57,94.5,46.3,84,46.3,71.1c0-12.9,10.7-23.4,23.8-23.4c13.1,0,23.8,10.5,23.8,23.4C93.9,84,83.3,94.5,70.1,94.5z"/>
		</g>
	</g>
</g>
</svg>
