<?xml version="1.0" encoding="utf-8"?>
<!-- Generator: Adobe Illustrator 18.1.1, SVG Export Plug-In . SVG Version: 6.00 Build 0)  -->
<svg version="1.1" id="Capa_1" xmlns="http://www.w3.org/2000/svg" xmlns:xlink="http://www.w3.org/1999/xlink" x="0px" y="0px"
	 viewBox="0 0 141.7 141.7" enable-background="new 0 0 141.7 141.7" xml:space="preserve">
<g>
	<path fill="#FFFFFF" d="M89,59.3l-2.6-6.2c0,0,6.1-13.7,5.5-14.2l-8-7.8c-0.6-0.5-14.2,5.7-14.2,5.7l-6.3-2.5
		c0,0-5.6-13.9-6.3-13.9H45.7c-0.8,0-5.9,13.9-5.9,13.9l-6.3,2.6c0,0-14-5.9-14.5-5.4l-8,7.9c-0.6,0.5,5.8,13.9,5.8,13.9l-2.6,6.2
		c0,0-14.2,5.4-14.2,6.2v11.1c0,0.8,14.2,5.8,14.2,5.8l2.6,6.2c0,0-6.1,13.7-5.5,14.2l8,7.8c0.5,0.5,14.2-5.7,14.2-5.7l6.3,2.6
		c0,0,5.6,13.8,6.3,13.8h11.3c0.8,0,5.9-13.9,5.9-13.9l6.3-2.6c0,0,14,5.9,14.5,5.4l8-7.9c0.5-0.5-5.8-13.9-5.8-13.9l2.6-6.2
		c0,0,14.2-5.5,14.2-6.2V65.1C103.2,64.3,89,59.3,89,59.3z M51.6,87.1c-9.1,0-16.5-7.3-16.5-16.2c0-8.9,7.4-16.2,16.5-16.2
		c9.1,0,16.5,7.3,16.5,16.2C68.2,79.8,60.7,87.1,51.6,87.1z"/>
	<path fill="#FFFFFF" d="M136.4,46.3l0.1-3.2c0,0,5.3-4.8,5.2-5.1l-2-5c-0.1-0.3-7.4-0.3-7.4-0.3l-2.3-2.4c0,0,0.3-7.2-0.1-7.3
		l-5-2.2c-0.4-0.2-5.3,4.9-5.3,4.9l-3.3-0.1c0,0-5-5.4-5.3-5.2l-5.1,1.9c-0.3,0.1-0.2,7.3-0.2,7.3l-2.4,2.2c0,0-7.3-0.4-7.4-0.1
		l-2.2,4.9c-0.2,0.3,5.1,5.4,5.1,5.4l-0.1,3.2c0,0-5.3,4.8-5.2,5.2l2,5c0.1,0.3,7.4,0.3,7.4,0.3l2.3,2.4c0,0-0.3,7.2,0.1,7.3l5,2.2
		c0.3,0.2,5.3-4.9,5.3-4.9l3.3,0.1c0,0,5,5.4,5.3,5.2l5.1-1.9c0.3-0.1,0.2-7.3,0.2-7.3l2.4-2.2c0,0,7.3,0.4,7.4,0l2.2-4.9
		C141.7,51.4,136.4,46.3,136.4,46.3z M125,47.3c-1.8,3.9-6.4,5.7-10.5,3.9c-4-1.8-5.8-6.4-4.1-10.4c1.7-3.9,6.4-5.6,10.4-3.9
		C124.9,38.8,126.8,43.4,125,47.3z"/>
</g>
</svg>
