<?xml version="1.0" encoding="utf-8"?>
<!-- Generator: Adobe Illustrator 18.1.1, SVG Export Plug-In . SVG Version: 6.00 Build 0)  -->
<svg version="1.1" id="Capa_1" xmlns="http://www.w3.org/2000/svg" xmlns:xlink="http://www.w3.org/1999/xlink" x="0px" y="0px"
	 viewBox="0 0 141.7 141.7" enable-background="new 0 0 141.7 141.7" xml:space="preserve">
<g>
	<path fill="#FFFFFF" d="M34.1,28.1l23,23l20-20l-23-23c-1.1-1.1-2.9-1.1-4,0l-16,16C33,25.2,33,27,34.1,28.1"/>
	<path fill="#FFFFFF" d="M117.9,107.8l16-16c1.1-1.1,1.1-2.9,0-4l-23-23l-20,20l23,23C115,109,116.8,109,117.9,107.8"/>
	<path fill="#FFFFFF" d="M71.6,70.4c-7.1-7.1-18.6-7.1-25.6,0c0,0,0,0,0,0c-0.5,0.5-0.5,1.4,0,2l0,0l23.7,23.7c0.5,0.5,1.4,0.5,2,0
		C78.6,89,78.6,77.5,71.6,70.4"/>
	<path fill="#FFFFFF" d="M75,67c6.6,6.6,8.4,16.1,5.5,24.3l37-37c2.2-2.2,2.2-5.9,0-8.1L95.8,24.5c-2.2-2.2-5.9-2.2-8.1,0l-37,37
		C59,58.6,68.5,60.4,75,67"/>
	<path fill="#FFFFFF" d="M30.4,75.6c-1.7,9.9,1.6,20.1,8.7,27.2c7.1,7.1,17.3,10.4,27.2,8.7c2.8-0.5,4.7-3.2,4.3-6
		c-0.2-1.1-0.7-2.1-1.4-2.8c-1.1-1.1-2.8-1.7-4.5-1.5c-6.6,1.1-13.4-1.1-18.2-5.8S39.6,84,40.7,77.3c0.5-2.8-1.4-5.5-4.3-6
		S30.9,72.8,30.4,75.6"/>
	<path fill="#FFFFFF" d="M68.8,125.9c-0.1-1.3-0.6-2.5-1.5-3.4c-1-1-2.4-1.6-4-1.5c-11.4,0.6-22.6-3.7-30.7-11.7S20.3,90,21,78.6
		c0.2-2.9-2-5.3-4.9-5.5c-2.9-0.2-5.3,2-5.5,4.9c-0.8,14.4,4.6,28.4,14.8,38.6s24.2,15.5,38.6,14.8C66.8,131.3,69,128.8,68.8,125.9"
		/>
</g>
</svg>
