<?xml version="1.0" encoding="utf-8"?>
<!-- Generator: Adobe Illustrator 18.1.1, SVG Export Plug-In . SVG Version: 6.00 Build 0)  -->
<svg version="1.1" id="Capa_1" xmlns="http://www.w3.org/2000/svg" xmlns:xlink="http://www.w3.org/1999/xlink" x="0px" y="0px"
	 viewBox="0 0 141.7 141.7" enable-background="new 0 0 141.7 141.7" xml:space="preserve">
<g>
	<g id="_x34_29._Network">
		<g>
			<path fill="#818181" d="M122.4,98.3V77.6c0-7.2-5.9-13.1-13.1-13.1H76.6V43.7c7.6-2.7,13.1-10,13.1-18.5
				c0-10.8-8.8-19.6-19.6-19.6c-10.8,0-19.6,8.8-19.6,19.6c0,8.6,5.5,15.8,13.1,18.5v20.8H30.7c-7.2,0-13.1,5.9-13.1,13.1v20.8
				C10,101,4.5,108.3,4.5,116.8c0,10.8,8.8,19.6,19.6,19.6s19.6-8.8,19.6-19.6c0-8.5-5.5-15.8-13.1-18.5V77.6h32.7v20.8
				c-7.6,2.7-13.1,9.9-13.1,18.5c0,10.8,8.8,19.6,19.6,19.6c10.8,0,19.6-8.8,19.6-19.6c0-8.5-5.5-15.8-13.1-18.5V77.6h32.7v20.8
				c-7.6,2.7-13.1,9.9-13.1,18.5c0,10.8,8.8,19.6,19.6,19.6c10.8,0,19.6-8.8,19.6-19.6C135.5,108.3,130,101,122.4,98.3z M24.2,123.4
				c-3.6,0-6.5-2.9-6.5-6.5c0-3.6,2.9-6.5,6.5-6.5c3.6,0,6.5,2.9,6.5,6.5C30.7,120.5,27.8,123.4,24.2,123.4z M70,123.4
				c-3.6,0-6.5-2.9-6.5-6.5c0-3.6,2.9-6.5,6.5-6.5c3.6,0,6.5,2.9,6.5,6.5C76.6,120.5,73.6,123.4,70,123.4z M70,31.7
				c-3.6,0-6.5-2.9-6.5-6.6c0-3.6,2.9-6.5,6.5-6.5c3.6,0,6.5,2.9,6.5,6.5C76.6,28.8,73.6,31.7,70,31.7z M115.8,123.4
				c-3.6,0-6.5-2.9-6.5-6.5c0-3.6,2.9-6.5,6.5-6.5c3.6,0,6.5,2.9,6.5,6.5C122.4,120.5,119.5,123.4,115.8,123.4z"/>
		</g>
	</g>
</g>
</svg>
