<?xml version="1.0" encoding="utf-8"?>
<!-- Generator: Adobe Illustrator 18.1.1, SVG Export Plug-In . SVG Version: 6.00 Build 0)  -->
<svg version="1.1" id="Capa_1" xmlns="http://www.w3.org/2000/svg" xmlns:xlink="http://www.w3.org/1999/xlink" x="0px" y="0px"
	 viewBox="0 0 141.7 141.7" enable-background="new 0 0 141.7 141.7" xml:space="preserve">
<path fill="#FFFFFF" d="M106.9,71v-2.2l-11.6-8H80.1v-6.5l-2-3.3V26.2h-7.4h-0.4h-7.4V51l-2,3.3v6.5H45.7l-11.6,8V71h-4v56.5
	l2.9,0.9c0,0,0.4,5.1,5.1,5.1c3.3,0,19.4,0,29,0v1.5c0,1.3,1,2.3,2.3,2.3h2c1.3,0,2.3-1,2.3-2.3v-1.5c0.1,0,0.3,0,0.4,0
	c7.6,0,24.9,0,28.6,0c4.7,0,5.1-5.1,5.1-5.1l2.9-0.9V71H106.9z"/>
<path fill="#FFFFFF" d="M70.1,48.5l18.3,0v-4.7h-3.1C85.2,23.7,76.3,5,70.9,5l-0.9,0c-5.4,0-14.3,18.7-14.3,38.8h-3.1v4.7l18.3,0"/>
</svg>
