<?xml version="1.0" encoding="utf-8"?>
<!-- Generator: Adobe Illustrator 18.1.1, SVG Export Plug-In . SVG Version: 6.00 Build 0)  -->
<svg version="1.1" id="Capa_1" xmlns="http://www.w3.org/2000/svg" xmlns:xlink="http://www.w3.org/1999/xlink" x="0px" y="0px"
	 viewBox="0 0 141.7 141.7" enable-background="new 0 0 141.7 141.7" xml:space="preserve">
<g>
	<g>
		<g>
			<path fill="#FFFFFF" d="M70.9,2.8c-26.4,0-47.7,21.4-47.7,47.7c0,2,0.2,4,0.4,5.9c4.1,37.3,44.2,80.3,44.2,80.3
				c0.7,0.8,1.4,1.3,2.1,1.7l0,0l1.3,0.4l1.3-0.4l0,0c0.7-0.4,1.4-0.9,2.1-1.7c0,0,39.6-43.1,43.6-80.3c0.2-1.9,0.4-3.9,0.4-5.9
				C118.6,24.2,97.2,2.8,70.9,2.8z M70.9,81.3c-16.9,0-30.7-13.8-30.7-30.7s13.8-30.7,30.7-30.7s30.7,13.8,30.7,30.7
				S87.8,81.3,70.9,81.3z"/>
		</g>
	</g>
</g>
</svg>
