<?xml version="1.0" encoding="utf-8"?>
<!-- Generator: Adobe Illustrator 18.1.1, SVG Export Plug-In . SVG Version: 6.00 Build 0)  -->
<svg version="1.1" id="Capa_1" xmlns="http://www.w3.org/2000/svg" xmlns:xlink="http://www.w3.org/1999/xlink" x="0px" y="0px"
	 viewBox="0 0 141.7 141.7" enable-background="new 0 0 141.7 141.7" xml:space="preserve">
<g>
	<path fill="#FFFFFF" d="M35.8,27.4L18.9,10.5h-8.5v8.5l16.9,16.9L35.8,27.4z M44.3,2h8.5v16.9h-8.5L44.3,2L44.3,2z M78.1,44.3H95
		v8.5H78.1V44.3z M86.6,18.9v-8.5h-8.5L61.2,27.4l8.5,8.5L86.6,18.9z M2,44.3h16.9v8.5H2V44.3z M44.3,78.1h8.5V95h-8.5L44.3,78.1
		L44.3,78.1z M10.5,78.1v8.5h8.5l16.9-16.9l-8.5-8.5L10.5,78.1z M135.5,118.6L51.4,34.5c-2.5-2.5-6.5-2.5-9,0l-7.9,7.9
		c-2.5,2.5-2.5,6.5,0,9l84.1,84.1c2.5,2.5,6.5,2.5,9,0l7.9-7.9C138,125.1,138,121,135.5,118.6z M65.4,73.9L40.1,48.5l8.5-8.5
		l25.4,25.4L65.4,73.9z"/>
</g>
</svg>
