<?xml version="1.0" encoding="utf-8"?>
<!-- Generator: Adobe Illustrator 19.1.0, SVG Export Plug-In . SVG Version: 6.00 Build 0)  -->
<svg version="1.1" id="Capa_1" xmlns="http://www.w3.org/2000/svg" xmlns:xlink="http://www.w3.org/1999/xlink" x="0px" y="0px"
	 viewBox="28 -43 141.7 141.7" style="enable-background:new 28 -43 141.7 141.7;" xml:space="preserve">
<style type="text/css">
	.st0{fill:#E60000;}
</style>
<g>
	<path class="st0" d="M98.9,87l60.9-61.9c0.8-0.8,1.2-1.9,1.1-3l0,0C156.7-8.4,130.5-32,98.9-32c-31.5,0-57.7,23.5-62,53.8v0.1V22
		l0,0c-0.1,1,0.3,2.1,1.1,2.9l42.9,43.8 M107,68.2l14.8-49.6c3.3-4.7,8.7-7.8,14.9-7.8c7.2,0,13.4,4.2,16.4,10.3L107,68.2z M83.7,19
		c3.2-4.9,8.8-8.2,15.2-8.2c6.2,0,11.7,3.1,15,7.9L99,68.7L83.7,19z M44.5,20.8c3-6,9.1-10.1,16.2-10.1c6.2,0,11.7,3.1,14.9,7.8
		l15.1,49.4L44.5,20.8z"/>
</g>
</svg>
