<?xml version="1.0" encoding="utf-8"?>
<!-- Generator: Adobe Illustrator 18.1.1, SVG Export Plug-In . SVG Version: 6.00 Build 0)  -->
<svg version="1.0" id="Capa_1" xmlns="http://www.w3.org/2000/svg" xmlns:xlink="http://www.w3.org/1999/xlink" x="0px" y="0px"
	 viewBox="0 0 141.7 141.7" enable-background="new 0 0 141.7 141.7" xml:space="preserve">
<g>
	<path fill="#818181" d="M65,82.3c-2.8,7.3-7.1,13.3-12.8,17.8c-8.1,6.4-16.7,9.6-25.9,9.6c-9.3,0-16.2-3-20.5-9.1
		c-2.9-4-4.3-8.7-4.2-13.8c0.1-5.2,1.2-11.6,3.4-19.2c2.1-7.6,4.6-14,7.4-19.2c2.8-5.2,6.8-9.8,11.9-13.8c7.8-6.1,16.3-9.2,25.6-9.2
		c9.4,0,16.3,3.1,20.6,9.4c3.2,4.5,4.1,10.4,2.9,17.6H58.2c0.6-3.1,0.1-6-1.3-8.6c-1.7-3.4-5.4-5-10.9-5c-5,0-9.6,1.8-14,5.4
		c-2.3,1.8-4.3,4.3-6,7.3c-1.7,3.1-2.9,5.6-3.6,7.7c-0.7,2.1-1.5,4.9-2.5,8.4c-1,3.5-1.7,6.3-2.2,8.4c-0.5,2.1-0.7,4.6-0.7,7.7
		c0,3.1,0.7,5.5,1.9,7.3c2.4,3.6,6,5.4,11,5.4c5.4,0,10-1.7,13.7-5.2c2.9-2.6,4.9-5.6,6.2-8.9H65z"/>
	<path fill="#818181" d="M136.7,40.3H95.4l-6.1,21.8h36.9l-3.7,13.4H85.5l-9.1,32.7H61.6l22.7-81.2h56.1L136.7,40.3z"/>
</g>
</svg>
