<?xml version="1.0" encoding="utf-8"?>
<!-- Generator: Adobe Illustrator 18.1.1, SVG Export Plug-In . SVG Version: 6.00 Build 0)  -->
<svg version="1.0" id="Capa_1" xmlns="http://www.w3.org/2000/svg" xmlns:xlink="http://www.w3.org/1999/xlink" x="0px" y="0px"
	 viewBox="0 0 141.7 141.7" enable-background="new 0 0 141.7 141.7" xml:space="preserve">
<path fill="#FFFFFF" d="M104,46.7l-11.8-0.3H40.9c-7.9,0-14.4,3.4-19.7,9.7l-11,18.6c-3.9,6.3-6,10.5-6,13.1
	c0.3,1.3,0.3,2.1,0.5,2.4c0.8,2.6,3.4,3.9,7.6,3.9h6l1.6,0.3l1.8-0.3h26c0.3,0,2.6-3.9,6.8-11.8h-0.3L54,82.1H27l-1.8,0.3l-0.5-0.3
	c-1.6,0-2.6-0.8-2.9-2.6c0-1.6,1.6-4.5,4.5-9.2c4.2-7.9,8.4-11.8,13.1-11.8h35.8L54.6,94.2v0.3H68c4.7-7.9,8.4-14.2,10.8-18.9h8.9
	l16-9.2v-0.3H84.6c2.9-5,4.2-7.3,4.5-7.3h27.8L136.5,47v-0.3H104z"/>
</svg>
