<?xml version="1.0" encoding="utf-8"?>
<!-- Generator: Adobe Illustrator 18.1.1, SVG Export Plug-In . SVG Version: 6.00 Build 0)  -->
<svg version="1.0" id="Capa_1" xmlns="http://www.w3.org/2000/svg" xmlns:xlink="http://www.w3.org/1999/xlink" x="0px" y="0px"
	 viewBox="0 0 141.7 141.7" enable-background="new 0 0 141.7 141.7" xml:space="preserve">
<path fill="#818181" d="M106.2,45.3L93.8,45H39.7c-8.3,0-15.2,3.6-20.8,10.2L7.3,74.9C3.1,81.5,0.9,86,0.9,88.7
	c0.3,1.4,0.3,2.2,0.6,2.5c0.8,2.8,3.6,4.2,8,4.2h6.4l1.7,0.3l1.9-0.3h27.4c0.3,0,2.8-4.2,7.2-12.5h-0.3l-0.3-0.3H25l-1.9,0.3
	l-0.6-0.3c-1.7,0-2.8-0.8-3-2.8c0-1.7,1.7-4.7,4.7-9.7C28.6,61.9,33,57.7,38,57.7h37.8L54.2,95.4v0.3h14.1c5-8.3,8.9-14.9,11.3-19.9
	H89l16.9-9.7v-0.3H85.7c3-5.3,4.4-7.7,4.7-7.7h29.3l20.8-12.5v-0.3H106.2z"/>
</svg>
