<?xml version="1.0" encoding="utf-8"?>
<!-- Generator: Adobe Illustrator 18.1.1, SVG Export Plug-In . SVG Version: 6.00 Build 0)  -->
<svg version="1.1" id="Capa_1" xmlns="http://www.w3.org/2000/svg" xmlns:xlink="http://www.w3.org/1999/xlink" x="0px" y="0px"
	 viewBox="0 0 141.7 141.7" enable-background="new 0 0 141.7 141.7" xml:space="preserve">
<g>
	<path d="M29.1,56.4c3.1,0,6-0.6,8.7-1.5l-2.6-5.8c-1.9,0.6-4,1-6.1,1c-10.8,0-19.6-8.8-19.6-19.6s8.8-19.6,19.6-19.6
		s19.6,8.8,19.6,19.6c0,1.6-0.2,3.2-0.6,4.8l5.7,3c0.8-2.5,1.2-5.1,1.2-7.8c0-14.3-11.6-25.9-25.9-25.9S3.2,16.2,3.2,30.5
		S14.8,56.4,29.1,56.4z"/>
	<path d="M48.1,107.1c0.4,1.5,0.6,3.1,0.6,4.8c0,10.8-8.8,19.6-19.6,19.6s-19.6-8.8-19.6-19.6s8.8-19.6,19.6-19.6
		c2.1,0,4.2,0.4,6.1,1l2.6-5.8c-2.7-1-5.7-1.5-8.7-1.5c-14.3,0-25.9,11.6-25.9,25.9s11.6,25.9,25.9,25.9s25.9-11.6,25.9-25.9
		c0-2.7-0.4-5.3-1.2-7.8L48.1,107.1z"/>
	<path d="M92.2,35.2c-0.4-1.5-0.6-3.1-0.6-4.8c0-10.8,8.8-19.6,19.6-19.6s19.6,8.8,19.6,19.6s-8.8,19.6-19.6,19.6
		c-2.1,0-4.2-0.4-6.1-1l-2.6,5.8c2.7,1,5.7,1.5,8.7,1.5c14.3,0,25.9-11.6,25.9-25.9S125.5,4.5,111.2,4.5S85.2,16.2,85.2,30.5
		c0,2.7,0.4,5.3,1.2,7.8L92.2,35.2z"/>
	<path d="M111.2,85.9c-3.1,0-6,0.6-8.7,1.5l2.6,5.8c1.9-0.6,4-1,6.1-1c10.8,0,19.6,8.8,19.6,19.6s-8.8,19.6-19.6,19.6
		s-19.6-8.8-19.6-19.6c0-1.6,0.2-3.2,0.6-4.8l-5.7-3c-0.8,2.5-1.2,5.1-1.2,7.8c0,14.3,11.6,25.9,25.9,25.9s25.9-11.6,25.9-25.9
		S125.5,85.9,111.2,85.9z"/>
	<path d="M111.2,103.1c-1.6,0-3.2,0.5-4.5,1.2C97.2,93.5,89.2,80,89.2,71.5c0-0.1,0-0.2,0-0.4c0-0.1,0-0.2,0-0.4
		c0-8.4,8-22,17.5-32.8c1.3,0.8,2.8,1.2,4.5,1.2c4.8,0,8.8-3.9,8.8-8.8s-3.9-8.8-8.8-8.8c-4.8,0-8.8,3.9-8.8,8.8
		c0,1.4,0.3,2.7,0.9,3.9C91.2,44.5,79.4,49.1,70.4,49.1h-0.4c-9.1,0-20.8-4.6-32.9-14.8c0.6-1.2,0.9-2.5,0.9-3.9
		c0-4.8-3.9-8.8-8.8-8.8s-8.8,3.9-8.8,8.8s3.9,8.8,8.8,8.8c1.6,0,3.2-0.5,4.5-1.2c9.5,10.8,17.5,24.4,17.5,32.8c0,0.1,0,0.2,0,0.4
		c0,0.1,0,0.2,0,0.4c0,8.4-8,22-17.5,32.8c-1.3-0.8-2.8-1.2-4.5-1.2c-4.8,0-8.8,3.9-8.8,8.8s3.9,8.8,8.8,8.8s8.8-3.9,8.8-8.8
		c0-1.4-0.3-2.7-0.9-3.9c12.1-10.1,23.9-14.8,32.9-14.8h0.4c9.1,0,20.8,4.6,32.9,14.8c-0.6,1.2-0.9,2.5-0.9,3.9
		c0,4.8,3.9,8.8,8.8,8.8c4.8,0,8.8-3.9,8.8-8.8S116,103.1,111.2,103.1z M70.3,81l-11.9,3.8l10.7-28.1L82.7,86L70.3,81z"/>
</g>
</svg>
