<?xml version="1.0" encoding="utf-8"?>
<!-- Generator: Adobe Illustrator 18.1.1, SVG Export Plug-In . SVG Version: 6.00 Build 0)  -->
<svg version="1.1" id="Capa_1" xmlns="http://www.w3.org/2000/svg" xmlns:xlink="http://www.w3.org/1999/xlink" x="0px" y="0px"
	 viewBox="0 0 141.7 141.7" enable-background="new 0 0 141.7 141.7" xml:space="preserve">
<g>
	<path fill="#FFFFFF" stroke="#000000" stroke-width="0.3" stroke-miterlimit="10" d="M84,41c0.5,0.5,1.3,0.5,1.7,0
		c0.5-0.5,0.5-1.3,0-1.7L71.9,25.6c-0.5-0.5-1.3-0.5-1.7,0L56.3,39.3c-0.5,0.5-0.5,1.3,0,1.7c0.5,0.5,1.3,0.5,1.7,0l13-12.5L84,41z"
		/>
</g>
<g>
	<path fill="#FFFFFF" stroke="#000000" stroke-width="0.3" stroke-miterlimit="10" d="M58,100.1c-0.5-0.5-1.3-0.5-1.7,0
		c-0.5,0.5-0.5,1.3,0,1.7l13.9,13.7c0.5,0.5,1.3,0.5,1.7,0l13.9-13.6c0.5-0.5,0.5-1.3,0-1.7c-0.5-0.5-1.3-0.5-1.7,0L71,112.6
		L58,100.1z"/>
</g>
<g>
	<path fill="#FFFFFF" stroke="#000000" stroke-width="0.3" stroke-miterlimit="10" d="M20.4,77.3c1.9,1.1,4.6,2.1,7.4,2.1
		c4.2,0,6.7-2.2,6.7-5.5c0-3-1.7-4.7-6-6.4c-5.2-1.8-8.5-4.5-8.5-9c0-5,4.1-8.7,10.4-8.7c3.3,0,5.7,0.8,7.1,1.6l-1.1,3.4
		c-1-0.6-3.2-1.5-6.1-1.5c-4.4,0-6,2.6-6,4.8c0,3,2,4.5,6.4,6.2c5.4,2.1,8.2,4.7,8.2,9.4c0,4.9-3.7,9.2-11.2,9.2
		c-3.1,0-6.5-0.9-8.2-2L20.4,77.3z"/>
	<path fill="#FFFFFF" stroke="#000000" stroke-width="0.3" stroke-miterlimit="10" d="M61,81.5c-1.1,0.6-3.5,1.3-6.6,1.3
		c-6.9,0-11.5-4.7-11.5-11.8c0-7.1,4.9-12.2,12.4-12.2c2.5,0,4.7,0.6,5.8,1.2l-1,3.2c-1-0.6-2.6-1.1-4.9-1.1c-5.3,0-8.1,3.9-8.1,8.7
		c0,5.3,3.4,8.6,8,8.6c2.4,0,4-0.6,5.1-1.1L61,81.5z"/>
	<path fill="#FFFFFF" stroke="#000000" stroke-width="0.3" stroke-miterlimit="10" d="M65.9,66.5c0-2.7,0-5-0.2-7.2h3.7l0.1,4.5h0.2
		c1-3.1,3.6-5,6.4-5c0.5,0,0.8,0,1.2,0.1v4c-0.4-0.1-0.9-0.1-1.4-0.1c-3,0-5,2.2-5.6,5.4c-0.1,0.6-0.2,1.2-0.2,2v12.3H66v-16H65.9z"
		/>
	<path fill="#FFFFFF" stroke="#000000" stroke-width="0.3" stroke-miterlimit="10" d="M101.9,70.6c0,8.5-5.9,12.2-11.5,12.2
		c-6.2,0-11-4.6-11-11.8c0-7.7,5-12.2,11.4-12.2C97.4,58.8,101.9,63.6,101.9,70.6z M83.6,70.9c0,5,2.9,8.9,7,8.9c4,0,7-3.8,7-8.9
		c0-3.9-2-8.9-6.9-8.9C85.7,61.9,83.6,66.5,83.6,70.9z"/>
	<path fill="#FFFFFF" stroke="#000000" stroke-width="0.3" stroke-miterlimit="10" d="M107.2,48.6h4.2v33.8h-4.2V48.6z"/>
	<path fill="#FFFFFF" stroke="#000000" stroke-width="0.3" stroke-miterlimit="10" d="M118.4,48.6h4.2v33.8h-4.2V48.6z"/>
</g>
</svg>
