<?xml version="1.0" encoding="UTF-8" standalone="no"?>
<!-- Created with Inkscape (http://www.inkscape.org/) -->

<svg
   xmlns:dc="http://purl.org/dc/elements/1.1/"
   xmlns:cc="http://creativecommons.org/ns#"
   xmlns:rdf="http://www.w3.org/1999/02/22-rdf-syntax-ns#"
   xmlns:svg="http://www.w3.org/2000/svg"
   xmlns="http://www.w3.org/2000/svg"
   xmlns:sodipodi="http://sodipodi.sourceforge.net/DTD/sodipodi-0.dtd"
   xmlns:inkscape="http://www.inkscape.org/namespaces/inkscape"
   width="84.628006mm"
   height="21.990192mm"
   viewBox="0 0 299.86301 77.918004"
   id="svg4057"
   version="1.1"
   inkscape:version="0.91 r13725"
   sodipodi:docname="light-wide-1.svg">
  <defs
     id="defs4059" />
  <sodipodi:namedview
     id="base"
     pagecolor="#ffffff"
     bordercolor="#666666"
     borderopacity="1.0"
     inkscape:pageopacity="0.0"
     inkscape:pageshadow="2"
     inkscape:zoom="1.4"
     inkscape:cx="271.31351"
     inkscape:cy="-40.407035"
     inkscape:document-units="px"
     inkscape:current-layer="layer1"
     showgrid="true"
     inkscape:window-width="1011"
     inkscape:window-height="666"
     inkscape:window-x="2360"
     inkscape:window-y="241"
     inkscape:window-maximized="0"
     showguides="false"
     showborder="true"
     borderlayer="false"
     inkscape:showpageshadow="false"
     fit-margin-top="0"
     fit-margin-left="0"
     fit-margin-right="0"
     fit-margin-bottom="0">
    <inkscape:grid
       type="xygrid"
       id="grid4093"
       originx="-10.04131"
       originy="-961.96023" />
  </sodipodi:namedview>
  <metadata
     id="metadata4062">
    <rdf:RDF>
      <cc:Work
         rdf:about="">
        <dc:format>image/svg+xml</dc:format>
        <dc:type
           rdf:resource="http://purl.org/dc/dcmitype/StillImage" />
        <dc:title></dc:title>
      </cc:Work>
    </rdf:RDF>
  </metadata>
  <g
     inkscape:label="Layer 1"
     inkscape:groupmode="layer"
     id="layer1"
     transform="translate(-10.04131,-12.483937)">
    <path
       id="path3751"
       d="m 64.07831,54.056939 19.024,0 0,0.139 -9.478,5.673 -10.307,0 c -2.237,0 -4.312,1.891 -6.226,5.673 -1.43,2.202 -2.145,3.654 -2.145,4.357 0.115,0.831 0.576,1.246 1.383,1.246 l 0.208,0.068 0.831,-0.068 12.867,0 0.069,0.068 0.069,0 c -2.041,3.725 -3.125,5.615 -3.251,5.673 l -12.176,0 -0.899,0.069 -0.761,-0.069 -2.906,0 c -1.972,0 -3.194,-0.646 -3.667,-1.937 -0.092,-0.139 -0.162,-0.508 -0.208,-1.107 0,-1.222 0.945,-3.297 2.836,-6.226 l 5.188,-8.855 c 2.654,-3.136 5.836,-4.704 9.549,-4.704 z"
       inkscape:connector-curvature="0"
       style="fill:#56ac1d" />
    <path
       id="path3753"
       d="m 88.21731,54.125939 0,0.139 -9.754,16.88 19.784995,0 0,0.138 -9.892995,5.673 -19.577,0 c 0,-0.139 2.075,-3.828 6.226,-11.068 l 6.71,-11.691 0.069,-0.069 6.434,0 z"
       inkscape:connector-curvature="0"
       style="fill:#56ac1d" />
    <path
       id="path3755"
       d="m 131.83131,54.125939 0,0.139 -9.478,5.673 -13.282,0 -1.937,3.459 9.131,0 0,0.138 c -4.98,2.917 -7.609,4.416 -7.886,4.497 l -3.874,0 c -0.865,1.326 -1.487,2.433 -1.868,3.32 l 19.646,0 0.069,0.069 0.069,0 c -1.891,3.366 -2.975,5.212 -3.251,5.534 l -26.081005,0 -0.069,-0.069 -0.069,0 12.937005,-22.76 25.943,0 z"
       inkscape:connector-curvature="0"
       style="fill:#56ac1d" />
    <path
       id="path3757"
       d="m 146.66631,54.056939 c 2.479,0 4.07,0.738 4.773,2.214 l 0.139,0.83 0,0.208 c 0,0.979 -0.876,2.894 -2.629,5.741 -5.154,9.028 -7.829,13.641 -8.025,13.836 l -6.364,0 3.113,-5.673 -9.823,0 c -0.185,0.185 -1.269,2.076 -3.251,5.673 l -0.069,0.069 -6.503,0 0,-0.069 c 6.318,-11.126 9.777,-17.121 10.377,-17.986 1.764,-1.937 3.17,-3.113 4.22,-3.528 1.326,-0.727 2.709,-1.142 4.151,-1.245 l 9.891,-0.07 z m -9.201,0.069 9.616,0 c 2.225,0 3.678,0.83 4.358,2.49 l 0.069,0.554 c 0,1.072 -1.107,3.379 -3.321,6.918 -2.19,3.943 -4.635,8.187 -7.333,12.729 l -0.277,0.069 -5.88,0 -0.138,-0.139 3.044,-5.326 0,-0.208 -9.893,0 c -0.173,0.173 -1.257,2.064 -3.251,5.673 l -0.346,0.069 -5.95,0 -0.069,-0.069 -0.069,0 c 6.295,-11.092 9.708,-17.018 10.238,-17.778 2.746,-3.322 5.813,-4.982 9.202,-4.982 z m -6.572,11.553 8.716,0 c 0.969,0 1.453,-0.161 1.453,-0.484 1.476,-2.167 2.213,-3.481 2.213,-3.942 l 0,-0.554 c -0.253,-0.554 -0.922,-0.83 -2.006,-0.83 l -3.943,0 c -2.64,-10e-4 -4.784,1.936 -6.433,5.81 z m 0.139,-0.069 9.824,0 c 1.66,-2.582 2.49,-4.035 2.49,-4.357 l 0,-0.277 c 0,-0.737 -0.784,-1.106 -2.352,-1.106 l -3.251,0 c -2.56,0 -4.52,1.406 -5.88,4.22 -0.554,0.886 -0.831,1.394 -0.831,1.52 z"
       inkscape:connector-curvature="0"
       style="fill:#56ac1d" />
    <path
       id="path3759"
       d="m 170.63331,54.125939 c 2.364,0 3.909,0.6 4.635,1.799 0.184,0.335 0.277,0.703 0.277,1.106 l 0,0.139 c 0,1.084 -0.899,3.044 -2.698,5.88 -4.427,7.979 -7.056,12.614 -7.886,13.905 l -6.434,0 0,-0.069 8.301,-14.666 c 0.23,-0.438 0.346,-0.853 0.346,-1.245 l 0,-0.207 c 0,-0.6 -0.438,-0.899 -1.314,-0.899 l -7.541,0 c -6.376,11.265 -9.65,16.96 -9.823,17.087 l -6.295,0 c 0,-0.139 2.145,-3.943 6.434,-11.414 l 6.572,-11.415 15.426,0 z"
       inkscape:connector-curvature="0"
       style="fill:#56ac1d" />
    <path
       id="path3761"
       d="m 179.45031,54.125939 25.942,0 0,0.139 -9.339,5.604 -13.282,0 c -0.104,0 -0.796,1.153 -2.076,3.459 l 9.132,0 0,0.138 -7.679,4.428 -4.22,0 c -1.142,2.19 -2.848,5.212 -5.119,9.062 l -6.434,0 0,-0.069 13.075,-22.761 z"
       inkscape:connector-curvature="0"
       style="fill:#505050" />
    <path
       id="path3763"
       d="m 210.76731,54.125939 0,0.139 -9.754,16.88 19.785,0 0,0.138 -9.893,5.673 -19.578,0 c 0,-0.139 2.075,-3.828 6.226,-11.068 l 6.71,-11.691 0.069,-0.069 6.435,0 z"
       inkscape:connector-curvature="0"
       style="fill:#505050" />
    <path
       id="path3765"
       d="m 228.23131,54.195939 6.364,0 0.138,0.139 -12.867,22.621 -6.364,0 c 0.45,-1.004 4.693,-8.591 12.729,-22.76 z"
       inkscape:connector-curvature="0"
       style="fill:#505050" />
    <path
       id="path3767"
       d="m 242.66931,54.125939 19.024,0 0,0.139 -9.547,5.673 -10.169,0 c -2.226,0 -4.278,1.867 -6.157,5.604 -1.28,1.937 -1.971,3.297 -2.075,4.081 l 0,0.484 c 0,0.611 0.53,0.98 1.591,1.106 l 7.056,0 c 0.115,-0.011 0.761,-1.118 1.937,-3.32 l -9.616,0 0,-0.139 7.679,-4.357 10.861,0 0.069,0.068 0.069,0 -7.61,13.49 -16.326,0 c -2.859,0 -4.289,-0.945 -4.289,-2.836 0,-1.326 1.015,-3.54 3.044,-6.642 2.79,-5.107 4.773,-8.359 5.949,-9.754 2.629,-2.398 5.466,-3.597 8.51,-3.597 z"
       inkscape:connector-curvature="0"
       style="fill:#505050" />
    <path
       id="path3769"
       d="m 267.63931,54.125939 0,0.139 -5.119,8.993 2.421,0 7.402,0.069 5.258,-9.201 6.226,0 0.139,0.139 -12.867,22.69 -0.069,0 -6.364,-0.069 c 0,-0.161 1.66,-3.136 4.98,-8.924 l 0,-0.069 -9.754,0 -5.189,9.062 -6.364,0 c 0.312,-0.703 2.156,-4.001 5.534,-9.893 l 7.403,-12.937 6.363,0 z"
       inkscape:connector-curvature="0"
       style="fill:#505050" />
    <path
       id="path3771"
       d="m 303.88531,53.987939 6.019,0.068 0,0.139 -9.408,5.742 -6.088,0 c -6.398,11.345 -9.65,17.018 -9.754,17.018 l -6.434,0 0,-0.069 9.754,-17.018 -9.27,0 0,-0.139 9.547,-5.741 15.634,0 z"
       inkscape:connector-curvature="0"
       style="fill:#505050" />
    <path
       id="path3773"
       d="m 11.33631,51.544937 1.424,0.144 1.846,-0.419 2.13,-0.969 2.24,-1.451 1.745,-1.466 7.338,0.084 7.081,-0.757 0.905,1.078 0.22,0.202 0.242,0.112 0.247,0.014 0.299,-0.028 0.234,-0.083 0.206,-0.174 0.165,-0.253 0.113,-0.314 0.008,-0.056 0.188,0.334 -1.067,2.194 0.122,0.144 0.346,-0.028 -0.747,1.163 -0.031,0.049 -0.151,0.311 -4.947,10.231002 -0.238,-0.043 -2.756,0.365 -2.889,1.119 -2.885,1.797 -2.75,2.386 -2.489,2.873 -2.1,3.24 -1.582,3.462 -0.936,3.509 -0.174,3.345 0.678,2.936 1.568,2.263 2.419,1.336 3.13,0.207 3.597,-1.018 3.736,-2.198 3.512,-3.181 2.953,-3.843 2.143,-4.121 1.197,-4.019 0.231,-3.598 -0.664,-2.946 -0.469,-0.708 0.641,-1.137 3.39,-7.776 0.184,0.096 0.396,0.147 0.391,0.089 0.362,0.021 0.305,-0.043 0.229,-0.108 0.137,-0.166 0.156,-0.372 0.035,-0.213 -0.071,-0.246 -0.172,-0.262 -0.981,-1.177002 0.065,-0.149 0.073,-1.788 0.477,-0.03 0.015,-0.013 0.98,-2.238 1.774,-1.317 0.922,-2.153 2.301,-0.239 0.933,-0.693 2.384,-0.258 0.017,-0.011 0.174,-0.449 1.717,0.456 0.172,-0.018 0.862,1.257 0.207,0.236 0.222,0.133 0.222,0.022 0.394,-0.037 0.206,-0.09 0.177,-0.194 0.137,-0.285 0.087,-0.356 0.032,-0.403 -0.025,-0.423 -0.024,-0.127 8.141,-0.87 0.858,-0.183 0.473,0.63 2.51,1.556 3.391,0.89 4.08,0.083 4.469,-0.802 4.466,-1.673 4.03,-2.42 3.193995,-2.942 2.064,-3.173 0.788,-3.1 -0.474,-2.76 -1.595,-2.223 -2.493995,-1.568 -3.138,-0.869 -3.529,-0.18 -3.688,0.461 -3.645,1.033 -3.428,1.525 -3.061,1.93 -2.56,2.243 -1.936,2.457 -1.198,2.561 -0.05,0.357 -10.803,1.594 -0.336,0.05 -0.055,0.015 -1.302,0.357 0.134,-0.328 -0.106,-0.157 -2.368,0.355 -0.576,-0.656 0.319,0.107 0.352,0.054 0.329,-0.014 0.285,-0.081 0.221,-0.143 0.141,-0.195 0.119,-0.282 0.052,-0.236 -0.042,-0.26 -0.134,-0.266 -0.791,-1.17 2.894,-6.639 2.136,-7.082 1.945,-1.269 2.045,-1.729 1.562,-1.772 0.962,-1.666 0.308,-1.431 -0.335,-1.098 -0.917,-0.705 -1.4,-0.288 -1.765,0.122 -2.003,0.503 -2.115,0.836 -2.107,1.112 -1.987,1.322 -1.763,1.461 -1.443,1.523 -1.037,1.503 -0.557,1.397 -0.019,1.202 0.55,0.919 1.119,0.554 1.644,0.126 2.075,-0.338 0.229,-0.078 -4.462,9.227 -0.114,0.235 -0.016,0.047 -0.331,0.972 -0.477,0.089 -0.013,0.011 -0.865,1.779 -5.385,3.997 -1.93,0.289 -0.232,0.439 -1.007,0.025 -0.049,0.001 -0.254,0.037 -9.935,1.466 0.21,-0.291 0.958,-1.912 0.393,-1.637 -0.167,-1.26 -0.682,-0.82 -1.122,-0.354 -1.47,0.108 -1.717,0.542 -1.862,0.93 -1.903,1.26 -1.844,1.521 -1.686,1.703 -1.433,1.797 -1.089,1.791 -0.662,1.677 -0.168,1.45 0.37,1.109 0.925,0.669 z m 41.352,-26.378 -0.022,0.071 -0.012,0.039 -0.52,0.127 0.35,-0.771 0.016,-0.024 0.003,10e-4 0.052,0.045 0.048,0.065 0.04,0.081 0.03,0.091 0.018,0.096 0.005,0.094 -0.008,0.085 z m -0.757,0.685 0.068,-0.009 0.101,0.013 0.043,0.022 0.009,0.047 -0.016,0.101 -0.048,0.109 -0.077,0.109 -0.101,0.102 -0.118,0.088 -0.126,0.068 -0.035,0.012 0.3,-0.662 z m -0.361,1.02 0.117,-0.014 0.1,0.015 0.037,0.021 0.01,0.056 -0.018,0.103 -0.05,0.111 -0.079,0.111 -0.102,0.103 -0.119,0.088 -0.127,0.067 -0.126,0.042 -0.067,0.008 0.304,-0.669 0.12,-0.042 z m -2.542,10.714 -0.13,0.017 -0.144,-0.011 -0.147,-0.039 -0.068,-0.031 0.179,-0.409 0.093,0.042 0.127,0.086 0.102,0.101 0.07,0.109 0.027,0.089 -0.109,0.046 z m 1.109,4.965 -0.004,0.009 -0.013,0.002 0.017,-0.011 z m 5.187,2.429 -0.089,0.018 -0.021,-0.006 0.11,-0.012 z m -0.204,-0.263 -0.046,0.137 -0.025,0.039 -0.08,-0.112 -0.067,-0.146 -0.011,-0.038 0.248,-0.027 -0.019,0.147 z m -13.821,9.968002 0.129,0.103 0.096,0.109 0.009,0.016 -0.12,0.008 -0.156,-0.019 -0.076,-0.021 0.092,-0.21 0.026,0.014 z m 3.796,-9.149002 0.032,-0.028 0.036,-0.023 0.007,-0.003 -0.008,0.01 -0.033,0.028 -0.036,0.023 -0.007,0.003 0.009,-0.01 z m 0.093,-0.209 0.019,0.017 0.008,0.019 -0.027,-0.036 z m -0.132,-3.797 -0.016,-0.013 -0.01,-0.022 0.026,0.035 z m 3.529,-12.84 -0.008,-0.168 0.018,-0.153 0.042,-0.129 1.18,-2.489 0.463,-0.114 0.002,0.04 -0.009,0.084 -0.023,0.07 -0.902,2.698 -0.762,0.173 -10e-4,-0.012 z m 2.692,-4.443 0.041,0.054 0.002,0.016 -0.043,-0.07 z m -2.168,5.001 -0.063,0.096 -0.039,0.027 -0.074,-0.024 -0.096,-0.074 -0.089,-0.111 -0.029,-0.055 0.045,-0.016 0.135,-0.015 0.146,0.011 0.108,0.027 -0.044,0.134 z m -4.062,10.597 -0.013,-0.01 -0.01,-0.021 0.023,0.031 z m 18.601,-0.637 -0.066,-0.084 -0.062,-0.156 -0.005,-0.117 0.109,-0.117 0.099,-0.055 -0.075,0.529 z m -11.984,-14.913 -10e-4,-0.002 0.002,-10e-4 -10e-4,0.003 z m -8.043,18.954 0.019,0.016 0.007,0.018 -0.026,-0.034 z m -0.175,-3.83 -0.015,-0.012 -0.009,-0.021 0.024,0.033 z m -3.727,4.323 0.017,0.016 0.003,0.009 -0.02,-0.025 z m 1.568,0.56 0.004,0.011 -0.022,-0.028 0.018,0.017 z m -1.472,-2.239 0.016,0.015 0.004,0.011 -0.02,-0.026 z m -7.105,19.765002 0.017,-0.036 0.107,-0.174 0.132,-0.128 0.148,-0.074 0.021,-0.002 0.102,0.031 0.135,0.102 0.111,0.152 0.08,0.191 0.019,0.097 -0.872,-0.159 z m 3.055,1.491 -0.65,-0.417 0.484,-1.068 0.105,-0.179 0.12,-0.121 0.344,0.004 0.058,0.045 0.111,0.155 0.08,0.196 0.044,0.223 0.005,0.235 -0.034,0.231 -0.071,0.212 -0.422,0.748 -0.174,-0.264 z m 4.9,-13.732002 -0.01,10e-4 0.015,-0.013 -0.005,0.012 z m 23.496,-7.608 0.24,0.319 -0.515,0.11 -0.22,0.004 -0.229,-0.036 -0.222,-0.074 -0.201,-0.107 -0.165,-0.132 -0.104,-0.13 0.14,-0.459 0.038,-0.02 0.197,-0.046 0.879,-0.107 0.162,0.678 z m -15.024,-4.314 -0.044,0.089 0.044,-0.102 0,0.013 z m 1.919,-9.537 -0.006,-0.115 0.791,-0.181 -0.276,0.869 -0.061,0.097 -0.033,0.024 -0.069,-0.023 -0.095,-0.076 -0.088,-0.114 -0.074,-0.144 -0.056,-0.164 -0.033,-0.173 z m -9.599,12.093 0.007,0.017 -0.023,-0.031 0.016,0.014 z m -0.238,0.204 -0.017,-0.014 -0.008,-0.021 0.025,0.035 z m -4.97,6.013 -0.002,-0.024 0.47,-0.051 0.004,0.05 -0.013,0.151 -0.038,0.138 -0.062,0.115 -0.075,0.078 -0.004,-10e-4 -0.095,-0.071 -0.082,-0.105 -0.063,-0.131 -0.04,-0.149 z m -8.366,-2.793 0.134,-0.002 0.151,0.028 0.145,0.052 -0.387,0.668 -2.751,0.052 -0.072,10e-4 -0.082,-0.016 -0.059,-0.021 0.232,-0.385 2.689,-0.377 z m 0.85,0.374 0.083,0.115 0.045,0.112 0.003,0.076 -0.029,0.023 -0.107,0.031 -0.21,0.004 0.003,-0.056 0.032,-0.144 0.055,-0.126 0.068,-0.091 0.057,0.056 z m -4.607,0.007 -0.005,-0.002 -0.009,-0.014 0.014,0.016 z m 3.439,2.541 -0.108,0.029 -0.885,0.003 0.388,-0.669 0.076,0.027 0.157,0.082 0.142,0.1 0.118,0.112 0.086,0.115 0.047,0.111 0.004,0.071 -0.025,0.019 z m -3.763,0.04 -0.083,-0.017 -0.088,-0.032 -0.086,-0.045 -0.079,-0.055 -0.067,-0.062 -0.05,-0.064 -0.029,-0.061 0.019,-0.006 0.853,-0.104 -0.268,0.446 -0.05,0 -0.072,0 z m 0.826,-0.34 -0.008,-0.005 -0.047,-0.067 0.055,0.072 z m 1.05,0.002 -0.008,-0.005 -0.047,-0.068 0.055,0.073 z m 0.847,-0.367 -0.079,0.11 -0.103,0.102 -0.12,0.088 -0.128,0.067 -0.128,0.042 -0.118,0.013 -0.101,-0.016 -0.036,-0.02 -0.01,-0.057 0.019,-0.103 0.051,-0.109 0.039,-0.054 0.727,-0.089 -0.013,0.026 z m -1.24,0.207 -0.119,0.088 -0.127,0.067 -0.127,0.042 -0.117,0.014 -0.1,-0.015 -0.035,-0.019 -0.009,-0.056 0.019,-0.101 0.012,-0.027 0.695,-0.085 -0.092,0.092 z"
       inkscape:connector-curvature="0"
       style="fill:#505050" />
  </g>
</svg>
