<?xml version="1.0" encoding="utf-8"?>
<!-- Copyright 2014.  All rights reserved.  Used with permission for Baseflight Configurator -->
<!DOCTYPE svg PUBLIC "-//W3C//DTD SVG 1.1 Basic//EN" "http://www.w3.org/Graphics/SVG/1.1/DTD/svg11-basic.dtd" [
	<!ENTITY st0 "fill:#ED1C24;">
	<!ENTITY st1 "fill:none;stroke:#BF1B2C;stroke-width:3;stroke-miterlimit:10;">
	<!ENTITY st2 "fill:none;stroke:#000000;stroke-miterlimit:10;">
	<!ENTITY st3 "fill:none;stroke:#ED1C24;stroke-width:5;stroke-miterlimit:10;">
	<!ENTITY st4 "fill:none;stroke:#666666;stroke-miterlimit:10;">
	<!ENTITY st5 "fill:none;stroke:#8D198F;stroke-width:2.4379;stroke-miterlimit:10;">
	<!ENTITY st6 "fill:none;stroke:#666666;stroke-width:2;stroke-miterlimit:10;">
]>
<svg version="1.1" baseProfile="basic"
	 id="AirplaneMix" xmlns:dc="http://purl.org/dc/elements/1.1/" xmlns:cc="http://creativecommons.org/ns#" xmlns:rdf="http://www.w3.org/1999/02/22-rdf-syntax-ns#" xmlns:svg="http://www.w3.org/2000/svg"
	 xmlns="http://www.w3.org/2000/svg" xmlns:xlink="http://www.w3.org/1999/xlink" x="0px" y="0px" width="126.33px"
	 height="120.93px" viewBox="-14.5 -44.84 126.33 120.93" xml:space="preserve">
<g id="FrontArrow" transform="matrix(1.25,0,0,-1.25,-381.26404,917.36835)">
	<path id="path5270" style="&st3;" d="M343.99,717.59v9.9"/>
	<path id="path5274" style="&st0;" d="M351.42,725.31l-7.48,12.95l-7.48-12.95H351.42L351.42,725.31z"/>
</g>
<g id="AirplaneGraphic">
	<polyline id="polyline3" style="&st4;" points="-4.2,22.63 -4.2,15.58 29,15.58 29,22.63 	"/>
	<polyline id="polyline5" style="&st4;" points="101.53,22.63 101.53,15.58 68.83,15.58 68.83,22.63 	"/>
	<path id="rect11_2_" style="&st6;" d="M-13.5,22.63c0,0,0-31.4,18.57-31.4h87.19c18.57,0,18.57,31.4,18.57,31.4H-13.5z"/>
	<path id="polyline13_2_" style="&st2;" d="M37.73,22.63"/>
	<path id="polyline13-4_2_" style="&st2;" d="M59.61,22.63"/>
	<path id="polyline13-4_4_" style="&st6;" d="M46.42,72.99L15.96,71c0-18.32,15.88-15,30.44-18.67l-3.65-29.7"/>
	<path id="polyline13-4_3_" style="&st6;" d="M54.58,22.63l-3.64,29.7C65.49,56,81.38,52.67,81.38,71l-30.46,1.99"/>
	<line id="line34_1_" style="&st4;" x1="16.58" y1="65.45" x2="46.76" y2="67.03"/>
	<line id="line36_1_" style="&st4;" x1="80.76" y1="65.45" x2="50.57" y2="67.03"/>
	<path id="path38" style="&st4;" d="M50.92,73.57c0-2.09,0-5.78,0-10.99c0-8.56-2.25-8.81-2.25-8.81s-2.25,0.25-2.25,8.81
		c0,8.56,0,13.01,0,13.01h4.5C50.92,75.6,50.92,74.92,50.92,73.57"/>
	<polyline id="polyline420" style="&st6;" points="37.72,-8.77 37.72,-15.32 41,-22.39 56.33,-22.39 59.61,-15.32 59.61,-8.77 	"/>
</g>
<g id="1and2" transform="matrix(1.25,0,0,-1.25,-378.9054,819.72049)">
	<g>
		<path d="M337.29,675.44c0-0.07-0.02-0.12-0.05-0.16c-0.04-0.04-0.09-0.06-0.15-0.06h-0.61c-0.06,0-0.11,0.02-0.15,0.07
			c-0.04,0.04-0.05,0.1-0.05,0.16v7.04l-1.44-0.63c-0.06-0.02-0.11-0.03-0.15-0.03c-0.07,0-0.1,0.04-0.1,0.13v0.57
			c0,0.06,0.04,0.11,0.11,0.15l1.69,0.8c0.09,0.05,0.17,0.07,0.24,0.07h0.46c0.06,0,0.11-0.02,0.15-0.06
			c0.04-0.04,0.06-0.09,0.06-0.16v-7.89H337.29z"/>
		<path d="M343.59,683.41c0-0.04,0-0.07-0.01-0.09l-2.53-7.88c-0.04-0.15-0.11-0.22-0.2-0.22h-0.63c-0.11,0-0.16,0.05-0.16,0.14
			c0,0.04,0.01,0.09,0.02,0.14l2.53,7.82c0.04,0.15,0.11,0.22,0.19,0.22h0.63C343.54,683.54,343.59,683.5,343.59,683.41z"/>
		<path d="M349.51,681.61c0-0.3-0.05-0.57-0.15-0.8c-0.1-0.24-0.25-0.46-0.46-0.67c-0.21-0.21-0.49-0.44-0.85-0.69l-1.07-0.73
			c-0.4-0.27-0.72-0.53-0.95-0.77c-0.23-0.24-0.39-0.49-0.48-0.74c-0.09-0.25-0.13-0.54-0.13-0.88v-0.24h3.77
			c0.15,0,0.22-0.06,0.22-0.19v-0.49c0-0.07-0.02-0.12-0.07-0.15c-0.04-0.03-0.1-0.05-0.16-0.05h-4.45c-0.06,0-0.11,0.02-0.16,0.06
			c-0.05,0.04-0.07,0.09-0.07,0.15v0.91c0,0.39,0.06,0.76,0.18,1.11c0.12,0.35,0.3,0.67,0.56,0.98c0.25,0.3,0.58,0.59,0.98,0.86
			l1.13,0.77c0.47,0.31,0.77,0.57,0.92,0.77c0.15,0.2,0.22,0.46,0.22,0.8c0,0.27-0.05,0.49-0.16,0.66c-0.1,0.17-0.26,0.29-0.47,0.38
			c-0.21,0.09-0.47,0.12-0.79,0.12c-0.25,0-0.51-0.02-0.76-0.07c-0.26-0.05-0.51-0.1-0.77-0.17c-0.25-0.07-0.46-0.13-0.63-0.18
			c-0.07-0.02-0.12-0.02-0.16,0.01c-0.04,0.03-0.06,0.08-0.06,0.14v0.38c0,0.07,0.01,0.12,0.04,0.15c0.02,0.03,0.07,0.06,0.13,0.08
			c0.19,0.08,0.4,0.16,0.62,0.24c0.22,0.07,0.48,0.14,0.78,0.19s0.58,0.08,0.85,0.08c0.38,0,0.72-0.04,1.02-0.13
			c0.3-0.09,0.55-0.21,0.74-0.37c0.19-0.16,0.34-0.37,0.45-0.62C349.46,682.25,349.51,681.95,349.51,681.61z"/>
	</g>
	<path id="path5318" style="&st5;" d="M353.75,679.1c0-6.38-5.17-11.57-11.57-11.57c-6.4,0-11.57,5.18-11.57,11.57
		c0,6.39,5.17,11.57,11.57,11.57C348.58,690.67,353.75,685.48,353.75,679.1z"/>
</g>
<g id="3" transform="translate(-52.834,-63.500761)">
	<path id="path5276-7" style="&st1;" d="M78.81,83.09H53.55V57.82h25.27L78.81,83.09L78.81,83.09z"/>
	<path d="M65.65,75.33c-0.45,0-0.9-0.06-1.37-0.17c-0.47-0.11-0.86-0.23-1.18-0.36c-0.08-0.04-0.14-0.08-0.16-0.12
		s-0.04-0.1-0.04-0.18v-0.48c0-0.19,0.09-0.25,0.28-0.2c0.55,0.15,1,0.26,1.34,0.33c0.34,0.07,0.71,0.11,1.1,0.11
		c0.75,0,1.29-0.15,1.61-0.46s0.49-0.8,0.49-1.48v-0.29c0-0.27-0.05-0.53-0.15-0.8c-0.1-0.27-0.28-0.48-0.53-0.65
		s-0.57-0.26-0.96-0.26h-2.54c-0.18,0-0.27-0.08-0.27-0.25V69.6c0-0.08,0.02-0.14,0.08-0.19c0.06-0.05,0.11-0.08,0.19-0.08h2.54
		c0.42,0,0.75-0.08,0.99-0.25c0.24-0.17,0.41-0.37,0.51-0.63s0.14-0.52,0.14-0.8v-0.2c0-0.4-0.07-0.71-0.2-0.95
		c-0.13-0.24-0.35-0.42-0.66-0.53s-0.72-0.17-1.24-0.17c-0.39,0-0.76,0.04-1.11,0.11c-0.35,0.07-0.79,0.18-1.32,0.32
		c-0.19,0.05-0.28-0.01-0.28-0.2v-0.47c0-0.09,0.01-0.15,0.04-0.19c0.03-0.04,0.08-0.07,0.16-0.11c0.31-0.13,0.7-0.25,1.16-0.37
		c0.46-0.12,0.93-0.17,1.39-0.17c1.11,0,1.94,0.21,2.51,0.62c0.57,0.41,0.85,1.12,0.85,2.11v0.2c0,0.24-0.03,0.47-0.09,0.68
		c-0.06,0.21-0.14,0.41-0.26,0.6s-0.26,0.36-0.42,0.52s-0.36,0.28-0.57,0.39c0.46,0.22,0.79,0.53,1.01,0.92
		c0.22,0.39,0.32,0.82,0.32,1.27v0.29c0,1.02-0.29,1.77-0.89,2.26C67.52,75.07,66.71,75.33,65.65,75.33z"/>
</g>
<g id="4">
	<path id="path5276" style="&st1;" d="M96.78,19.86H71.51V-5.4h25.27V19.86L96.78,19.86z"/>
	<path d="M87.55,8.71c0,0.08-0.03,0.14-0.08,0.18c-0.05,0.04-0.12,0.06-0.19,0.06h-1.22v2.5c0,0.08-0.02,0.14-0.07,0.2
		c-0.04,0.05-0.1,0.08-0.17,0.08h-0.81c-0.16,0-0.24-0.09-0.24-0.28v-2.5h-4.05c-0.21,0-0.35-0.04-0.44-0.12s-0.13-0.22-0.13-0.42
		V7.88c0-0.2,0.06-0.37,0.17-0.52l4.14-5.81c0.1-0.15,0.23-0.23,0.41-0.23h0.82c0.25,0,0.37,0.1,0.37,0.31v6.26h1.22
		c0.08,0,0.14,0.02,0.19,0.07c0.05,0.05,0.08,0.11,0.08,0.18V8.71L87.55,8.71z M84.79,7.9V3.11c0-0.05-0.02-0.08-0.05-0.08h-0.01
		c-0.04,0-0.07,0.03-0.11,0.08L81.39,7.7c-0.03,0.04-0.05,0.08-0.05,0.12c0,0.05,0.04,0.08,0.12,0.08H84.79z"/>
</g>
<g id="5">
	<polyline id="polyline40" style="&st2;" points="48.67,65.33 28.26,44.49 17.37,44.49 	"/>
	<path id="path5276-7_1_" style="&st1;" d="M17.2,57.08H-8.07V31.81H17.2V57.08z"/>
	<circle id="circle62" cx="48.67" cy="65.33" r="1.88"/>
	<path d="M4.88,49.42c-0.45,0-0.91-0.06-1.38-0.17s-0.86-0.23-1.17-0.36c-0.09-0.05-0.14-0.09-0.17-0.12
		c-0.03-0.03-0.04-0.09-0.04-0.17v-0.48c0-0.19,0.09-0.26,0.28-0.2c0.97,0.29,1.79,0.44,2.45,0.44c0.78,0,1.36-0.18,1.73-0.55
		s0.55-0.92,0.55-1.65v-0.21c0-0.69-0.22-1.17-0.67-1.45s-1.2-0.42-2.25-0.42H2.53c-0.06,0-0.12-0.03-0.16-0.08
		s-0.06-0.11-0.06-0.16v-0.01l0.39-4.66C2.71,39.1,2.74,39.04,2.8,39c0.06-0.04,0.12-0.06,0.18-0.06H7.8c0.08,0,0.14,0.02,0.2,0.06
		s0.08,0.1,0.08,0.17v0.62c0,0.15-0.09,0.23-0.28,0.23H3.78l-0.23,3.02h0.66c0.91,0,1.68,0.09,2.29,0.27s1.09,0.49,1.43,0.92
		c0.34,0.43,0.5,1.01,0.5,1.73v0.21c0,1.04-0.31,1.84-0.93,2.41C6.88,49.15,6.01,49.42,4.88,49.42z"/>
</g>
<g id="6">
	<polyline id="polyline42" style="&st2;" points="61.83,69.6 71.55,44.45 83.02,44.45 	"/>
	<path id="path5276-7_2_" style="&st1;" d="M108.28,57.08H83.01V31.81h25.27V57.08z"/>
	<circle id="circle64" cx="61.83" cy="69.59" r="1.66"/>
	<path d="M96.61,38.73c0.86,0,1.7,0.17,2.52,0.52c0.08,0.03,0.14,0.06,0.16,0.1s0.04,0.1,0.04,0.19v0.51c0,0.18-0.09,0.25-0.28,0.19
		c-0.59-0.15-1.04-0.27-1.34-0.34c-0.31-0.07-0.67-0.11-1.11-0.11c-0.68,0-1.19,0.13-1.54,0.38c-0.35,0.25-0.58,0.59-0.69,1.03
		c-0.11,0.44-0.16,1-0.16,1.7v0.16c0.82-0.19,1.53-0.28,2.11-0.28c0.65,0,1.23,0.09,1.74,0.27c0.51,0.18,0.92,0.49,1.23,0.92
		c0.31,0.43,0.46,1.01,0.46,1.73v0.08c0,0.75-0.13,1.39-0.38,1.91s-0.63,0.93-1.14,1.21c-0.51,0.28-1.14,0.42-1.9,0.42
		c-0.53,0-1-0.08-1.42-0.24s-0.77-0.4-1.06-0.72c-0.29-0.32-0.52-0.73-0.67-1.24c-0.15-0.51-0.24-1.09-0.24-1.76V42.9
		c0-0.99,0.14-1.79,0.41-2.4c0.27-0.61,0.68-1.06,1.22-1.34C95.13,38.87,95.8,38.73,96.61,38.73z M98.5,45.78V45.7
		c0-0.47-0.1-0.86-0.3-1.15c-0.2-0.29-0.46-0.49-0.78-0.61c-0.32-0.12-0.69-0.18-1.09-0.18c-0.31,0-0.68,0.03-1.09,0.08
		c-0.41,0.05-0.75,0.11-1.02,0.17v1.33c0,0.75,0.08,1.34,0.24,1.76s0.4,0.73,0.71,0.91c0.31,0.18,0.7,0.27,1.18,0.27
		c0.33,0,0.63-0.05,0.9-0.14c0.27-0.09,0.49-0.23,0.68-0.42c0.19-0.19,0.33-0.45,0.43-0.78C98.45,46.62,98.5,46.23,98.5,45.78z"/>
</g>
</svg>
