<?xml version="1.0" encoding="utf-8"?>
<!-- Copyright 2014.  All rights reserved.  Used with permission for Baseflight Configurator -->
<svg version="1.2" baseProfile="tiny"
	 id="svg3971" xmlns:dc="http://purl.org/dc/elements/1.1/" xmlns:cc="http://creativecommons.org/ns#" xmlns:rdf="http://www.w3.org/1999/02/22-rdf-syntax-ns#" xmlns:svg="http://www.w3.org/2000/svg"
	 xmlns="http://www.w3.org/2000/svg" xmlns:xlink="http://www.w3.org/1999/xlink" x="0px" y="0px" width="43.828px" height="95px"
	 viewBox="0 0 43.828 95" xml:space="preserve">
<g id="layer1" transform="translate(-353.46478,-451.46461)">
	<g id="Custom_Mix" transform="matrix(1.25,0,0,-1.25,29.893856,1001.973)">
		<path id="MotorOrderGraphic" fill="#BDBCBC" d="M260.982,427.344c-1.417,2.291-2.125,4.313-2.125,6.063
			c0,1.291,0.344,2.375,1.031,3.25s1.594,1.594,2.719,2.156s2.406,0.969,3.844,1.219s2.906,0.375,4.406,0.375
			c2.875,0,5.698-0.375,8.469-1.125c2.77-0.75,5.23-1.854,7.375-3.313c2.145-1.459,3.886-3.281,5.219-5.469s2-4.74,2-7.656
			c0-1.917-0.302-3.615-0.906-5.094c-0.605-1.479-1.406-2.834-2.406-4.063c-1-1.229-2.167-2.375-3.5-3.438s-2.73-2.115-4.188-3.156
			c-1.25-0.875-2.458-1.719-3.625-2.531s-2.208-1.656-3.125-2.531c-0.917-0.875-1.656-1.823-2.219-2.844
			c-0.563-1.021-0.844-2.177-0.844-3.469c0-1.209,0.281-2.469,0.844-3.781s1.448-2.844,2.656-4.594
			c-0.958-0.667-1.906-1.188-2.844-1.563s-1.844-0.563-2.719-0.563c-1.208,0-2.271,0.208-3.188,0.625
			c-0.917,0.416-1.688,0.979-2.313,1.688c-0.625,0.708-1.104,1.541-1.438,2.5c-0.333,0.958-0.5,1.979-0.5,3.063
			c0,1.791,0.375,3.448,1.125,4.969c0.75,1.52,1.719,2.938,2.906,4.25s2.542,2.541,4.063,3.688c1.521,1.146,3.052,2.26,4.594,3.344
			c1.417,1,2.802,1.989,4.156,2.969c1.355,0.979,2.552,1.979,3.594,3c1.042,1.021,1.875,2.083,2.5,3.188
			c0.625,1.104,0.938,2.302,0.938,3.594c0,1.541-0.375,2.864-1.125,3.969c-0.75,1.104-1.739,2-2.969,2.688s-2.645,1.188-4.25,1.5
			s-3.281,0.469-5.031,0.469C268.857,430.719,264.482,429.594,260.982,427.344z M277.107,371.032c0-2.25-0.625-3.917-1.875-5
			c-1.25-1.084-3.063-1.625-5.438-1.625c-1.917,0-3.396,0.604-4.438,1.813c-1.042,1.208-1.563,2.813-1.563,4.813
			c0,2.375,0.646,4.083,1.938,5.125c1.292,1.041,3.083,1.563,5.375,1.563c2,0,3.5-0.584,4.5-1.75
			C276.607,374.802,277.107,373.157,277.107,371.032z"/>
	</g>
</g>
</svg>
