<?xml version="1.0" encoding="utf-8"?>
<!-- Copyright 2014.  All rights reserved.  Used with permission for Baseflight Configurator -->
<!DOCTYPE svg PUBLIC "-//W3C//DTD SVG 1.1 Basic//EN" "http://www.w3.org/Graphics/SVG/1.1/DTD/svg11-basic.dtd" [
	<!ENTITY st0 "fill:none;stroke:#8D198F;stroke-width:3;stroke-miterlimit:10;">
	<!ENTITY st1 "fill:#ED1C24;">
	<!ENTITY st2 "fill:#231F20;">
	<!ENTITY st3 "fill:none;stroke:#ED1C24;stroke-width:5;stroke-miterlimit:10;">
	<!ENTITY st4 "fill:none;stroke:#8D198F;stroke-width:3;stroke-linecap:round;stroke-miterlimit:10;">
]>
<svg version="1.1" baseProfile="basic"
	 id="hex6p-mix" xmlns:dc="http://purl.org/dc/elements/1.1/" xmlns:cc="http://creativecommons.org/ns#" xmlns:rdf="http://www.w3.org/1999/02/22-rdf-syntax-ns#" xmlns:svg="http://www.w3.org/2000/svg"
	 xmlns="http://www.w3.org/2000/svg" xmlns:xlink="http://www.w3.org/1999/xlink" x="0px" y="0px" width="113.34px"
	 height="127.02px" viewBox="5.62 7.63 113.34 127.02" xml:space="preserve">
<g id="M6">
	<path id="path4002" style="&st2;" d="M65.66,116.45v-0.09c0-0.51-0.11-0.92-0.32-1.23c-0.21-0.31-0.49-0.53-0.84-0.66
		c-0.35-0.13-0.73-0.19-1.17-0.19c-0.34,0-0.73,0.03-1.17,0.08c-0.44,0.06-0.81,0.12-1.09,0.19v1.43c0,0.8,0.09,1.43,0.26,1.89
		c0.17,0.46,0.43,0.78,0.76,0.97c0.33,0.19,0.75,0.29,1.26,0.29c0.36,0,0.68-0.05,0.96-0.15c0.29-0.1,0.53-0.25,0.72-0.45
		c0.2-0.2,0.35-0.48,0.46-0.84C65.61,117.36,65.66,116.94,65.66,116.45z M63.64,108.89c0.92,0,1.82,0.18,2.7,0.56
		c0.09,0.03,0.15,0.07,0.18,0.11c0.03,0.04,0.04,0.11,0.04,0.21v0.54c0,0.19-0.1,0.26-0.3,0.21c-0.63-0.17-1.11-0.29-1.43-0.36
		c-0.33-0.08-0.72-0.11-1.19-0.11c-0.73,0-1.28,0.13-1.66,0.4c-0.38,0.27-0.62,0.64-0.74,1.11c-0.11,0.47-0.17,1.07-0.17,1.82v0.17
		c0.88-0.2,1.64-0.3,2.26-0.3c0.69,0,1.32,0.1,1.86,0.29c0.55,0.2,0.99,0.52,1.32,0.99c0.33,0.46,0.49,1.08,0.49,1.85v0.09
		c0,0.8-0.14,1.49-0.41,2.05c-0.27,0.57-0.68,1-1.22,1.3c-0.54,0.3-1.22,0.45-2.03,0.45c-0.57,0-1.07-0.09-1.52-0.26
		c-0.45-0.17-0.83-0.43-1.14-0.78s-0.55-0.79-0.72-1.33c-0.17-0.54-0.25-1.17-0.25-1.89v-2.63c0-1.06,0.15-1.92,0.44-2.57
		c0.29-0.65,0.73-1.13,1.31-1.44C62.06,109.04,62.78,108.89,63.64,108.89L63.64,108.89z"/>
	<path id="path5546" style="&st0;" d="M60.93,97.77c9.72-1.44,18.77,5.27,20.21,14.99c1.44,9.72-5.27,18.77-14.99,20.21
		c-9.72,1.44-18.76-5.27-20.21-14.99C44.5,108.25,51.21,99.21,60.93,97.77L60.93,97.77z"/>
	<path id="path5550" style="&st4;" d="M46.63,120.24l-3.31,10.44"/>
	<path id="path5554" style="&st4;" d="M46.63,120.24l10.3,4.27"/>
</g>
<g id="M5">
	<path id="path4000" style="&st2;" d="M61.72,32.75c-0.48,0-0.98-0.06-1.48-0.18c-0.5-0.12-0.92-0.25-1.26-0.38
		c-0.09-0.05-0.15-0.09-0.18-0.13c-0.03-0.04-0.04-0.1-0.04-0.19v-0.51c0-0.2,0.1-0.28,0.3-0.21c1.04,0.31,1.92,0.47,2.63,0.47
		c0.84,0,1.45-0.2,1.85-0.59c0.39-0.4,0.59-0.98,0.59-1.76v-0.23c0-0.74-0.24-1.26-0.72-1.56c-0.48-0.3-1.29-0.45-2.41-0.45h-1.79
		c-0.07,0-0.13-0.03-0.17-0.08c-0.05-0.06-0.07-0.11-0.07-0.17v-0.02l0.42-5c0.01-0.08,0.04-0.14,0.1-0.19
		c0.06-0.05,0.13-0.07,0.2-0.07h5.16c0.08,0,0.15,0.02,0.21,0.07c0.06,0.05,0.09,0.11,0.09,0.19v0.66c0,0.16-0.1,0.24-0.3,0.24
		h-4.31l-0.24,3.24H61c0.98,0,1.8,0.1,2.46,0.29c0.66,0.19,1.17,0.52,1.53,0.99c0.36,0.46,0.53,1.08,0.53,1.85v0.23
		c0,1.11-0.33,1.97-0.99,2.58C63.86,32.45,62.93,32.75,61.72,32.75z"/>
	<path id="path5498" style="&st0;" d="M43.72,26.92c0,9.83,7.96,17.79,17.79,17.79c9.83,0,17.79-7.96,17.79-17.79
		c0-9.82-7.96-17.79-17.79-17.79C51.69,9.13,43.72,17.1,43.72,26.92z"/>
	<path id="path5502" style="&st4;" d="M44.35,21.12l10.5-3.14"/>
	<path id="path5506" style="&st4;" d="M44.35,21.12l-2.27-10.91"/>
</g>
<g id="M4">
	<path id="path3994" style="&st2;" d="M28.69,51.01c0,0.08-0.03,0.15-0.08,0.2c-0.06,0.05-0.12,0.07-0.2,0.07h-1.3v2.67
		c0,0.08-0.02,0.15-0.07,0.21c-0.05,0.06-0.11,0.09-0.19,0.09h-0.87c-0.17,0-0.26-0.1-0.26-0.3v-2.67h-4.34
		c-0.22,0-0.38-0.04-0.47-0.13c-0.1-0.09-0.14-0.24-0.14-0.45v-0.57c0-0.21,0.06-0.4,0.18-0.56l4.44-6.22
		c0.1-0.16,0.25-0.24,0.44-0.24h0.88c0.26,0,0.4,0.11,0.4,0.33v6.71h1.3c0.08,0,0.15,0.03,0.21,0.07c0.05,0.05,0.08,0.12,0.08,0.2
		L28.69,51.01L28.69,51.01z M25.73,50.14v-5.13c0-0.06-0.02-0.09-0.06-0.09h-0.02c-0.04,0-0.08,0.03-0.12,0.09l-3.46,4.92
		c-0.03,0.04-0.05,0.08-0.05,0.13c0,0.06,0.04,0.09,0.13,0.09L25.73,50.14L25.73,50.14z"/>
	<path id="path5510" style="&st0;" d="M42.7,49.14c0,9.82-7.96,17.79-17.79,17.79c-9.83,0-17.79-7.97-17.79-17.79
		c0-9.83,7.97-17.79,17.79-17.79S42.7,39.32,42.7,49.14z"/>
	<path id="path5514" style="&st4;" d="M19.84,31.58L9.09,29.52"/>
	<path id="path5518" style="&st4;" d="M19.84,31.58l-3.03,10.73"/>
</g>
<g id="M3">
	<path id="path3996" style="&st2;" d="M26.08,98.15c-0.48,0-0.97-0.06-1.47-0.18c-0.5-0.12-0.92-0.25-1.26-0.38
		c-0.09-0.04-0.15-0.08-0.18-0.12s-0.04-0.1-0.04-0.19v-0.51c0-0.2,0.1-0.27,0.3-0.21c0.59,0.16,1.07,0.27,1.43,0.35
		s0.76,0.12,1.18,0.12c0.81,0,1.38-0.16,1.73-0.49c0.35-0.33,0.52-0.85,0.52-1.58v-0.32c0-0.29-0.05-0.57-0.17-0.85
		c-0.11-0.28-0.3-0.51-0.56-0.7c-0.27-0.19-0.61-0.28-1.03-0.28H23.8c-0.19,0-0.29-0.09-0.29-0.27v-0.52c0-0.08,0.03-0.15,0.08-0.21
		c0.05-0.05,0.12-0.08,0.21-0.08h2.72c0.45,0,0.81-0.09,1.06-0.26c0.26-0.18,0.44-0.4,0.54-0.67c0.1-0.27,0.15-0.55,0.15-0.85v-0.21
		c0-0.43-0.07-0.77-0.21-1.02c-0.14-0.26-0.38-0.45-0.71-0.57c-0.33-0.13-0.77-0.19-1.33-0.19c-0.42,0-0.82,0.04-1.19,0.12
		c-0.38,0.08-0.85,0.19-1.41,0.34c-0.2,0.06-0.3-0.01-0.3-0.21v-0.51c0-0.09,0.01-0.16,0.05-0.2c0.03-0.04,0.09-0.08,0.17-0.11
		c0.33-0.14,0.75-0.27,1.24-0.39c0.5-0.12,0.99-0.18,1.49-0.18c1.19,0,2.08,0.22,2.69,0.67c0.61,0.44,0.91,1.19,0.91,2.26v0.21
		c0,0.26-0.03,0.5-0.09,0.73c-0.06,0.23-0.15,0.44-0.27,0.65c-0.12,0.2-0.27,0.39-0.45,0.55c-0.18,0.17-0.38,0.31-0.61,0.42
		c0.49,0.24,0.85,0.56,1.08,0.99c0.23,0.42,0.35,0.88,0.35,1.36v0.32c0,1.09-0.32,1.9-0.95,2.42C28.1,97.89,27.22,98.15,26.08,98.15
		L26.08,98.15z"/>
	<path id="path5558" style="&st0;" d="M35.48,107.66c8.29-5.27,10.74-16.27,5.46-24.56c-5.27-8.29-16.27-10.74-24.56-5.46
		c-8.29,5.27-10.74,16.27-5.46,24.56C16.19,110.49,27.19,112.93,35.48,107.66z"/>
	<path id="path5562" style="&st4;" d="M20.21,109.83l-3.19-10.48"/>
	<path id="path5566" style="&st4;" d="M20.21,109.83l-10.9,2.32"/>
</g>
<g id="M2">
	<path id="path4014" style="&st2;" d="M103.91,44.47c0,0.4-0.07,0.76-0.2,1.07c-0.13,0.32-0.34,0.62-0.62,0.9
		c-0.28,0.29-0.66,0.59-1.14,0.92l-1.43,0.97c-0.54,0.37-0.97,0.71-1.28,1.03c-0.31,0.32-0.53,0.65-0.64,0.99
		c-0.12,0.34-0.18,0.73-0.18,1.17v0.31h5.05c0.2,0,0.3,0.08,0.3,0.26v0.66c0,0.09-0.03,0.15-0.09,0.2
		c-0.06,0.05-0.13,0.07-0.21,0.07h-5.96c-0.08,0-0.15-0.03-0.21-0.08s-0.09-0.12-0.09-0.2v-1.22c0-0.52,0.08-1.02,0.24-1.48
		c0.16-0.47,0.41-0.9,0.75-1.31s0.78-0.79,1.32-1.15l1.52-1.03c0.63-0.42,1.04-0.76,1.24-1.03c0.2-0.27,0.3-0.62,0.3-1.07
		c0-0.36-0.07-0.66-0.21-0.88c-0.14-0.23-0.35-0.39-0.63-0.5c-0.28-0.11-0.63-0.16-1.06-0.16c-0.34,0-0.68,0.03-1.02,0.09
		c-0.34,0.06-0.68,0.14-1.02,0.23c-0.34,0.1-0.62,0.18-0.85,0.24c-0.09,0.03-0.17,0.02-0.22-0.02c-0.05-0.04-0.08-0.1-0.08-0.19
		v-0.51c0-0.09,0.02-0.16,0.05-0.2c0.03-0.04,0.09-0.08,0.18-0.11c0.26-0.11,0.54-0.22,0.84-0.32c0.3-0.1,0.65-0.18,1.04-0.25
		c0.4-0.07,0.78-0.11,1.14-0.11c0.51,0,0.96,0.06,1.37,0.18c0.41,0.12,0.74,0.28,1,0.5c0.26,0.21,0.46,0.49,0.6,0.83
		C103.84,43.62,103.91,44.02,103.91,44.47L103.91,44.47z"/>
	<path id="path5522" style="&st0;" d="M107.01,63.36c-8.95,4.06-19.49,0.1-23.55-8.85c-4.06-8.95-0.1-19.49,8.85-23.55
		c8.95-4.06,19.49-0.1,23.55,8.85C119.92,48.75,115.96,59.3,107.01,63.36z"/>
	<path id="path5526" style="&st4;" d="M112.62,34.27l-3.36-10.43"/>
	<path id="path5530" style="&st4;" d="M112.62,34.27l-10.86,2.5"/>
</g>
<g id="M1">
	<path id="path3998" style="&st2;" d="M101.11,96.4c0,0.09-0.03,0.16-0.07,0.22c-0.05,0.06-0.11,0.08-0.2,0.08h-0.82
		c-0.08,0-0.15-0.03-0.2-0.09s-0.07-0.13-0.07-0.21v-9.43l-1.93,0.84c-0.08,0.03-0.14,0.04-0.2,0.04c-0.09,0-0.13-0.06-0.13-0.17
		v-0.76c0-0.08,0.05-0.14,0.15-0.2l2.26-1.08c0.12-0.06,0.23-0.09,0.32-0.09h0.61c0.08,0,0.15,0.03,0.2,0.08
		c0.06,0.05,0.08,0.12,0.08,0.21V96.4L101.11,96.4z"/>
	<path id="path5534" style="&st0;" d="M108.12,74.42c-8.64-4.67-19.44-1.46-24.11,7.19c-4.67,8.64-1.46,19.44,7.19,24.11
		c8.64,4.67,19.44,1.46,24.11-7.19C119.98,89.89,116.77,79.1,108.12,74.42z"/>
	<path id="path5538" style="&st4;" d="M108.41,105.56l-10.05-4.37"/>
	<path id="path5542" style="&st4;" d="M108.41,105.56l-5.3,9.81"/>
</g>
<g id="FrontArrow">
	<path id="path5224" style="&st3;" d="M62.83,84.18V71.8"/>
	<path id="path5228" style="&st1;" d="M72.13,74.54l-9.35-16.19l-9.35,16.19H72.13z"/>
</g>
</svg>
