<?xml version="1.0" encoding="utf-8"?>
<!-- Copyright 2014.  All rights reserved.  Used with permission for Baseflight Configurator -->
<svg version="1.2" baseProfile="tiny"
	 id="svg4419" xmlns:dc="http://purl.org/dc/elements/1.1/" xmlns:cc="http://creativecommons.org/ns#" xmlns:rdf="http://www.w3.org/1999/02/22-rdf-syntax-ns#" xmlns:svg="http://www.w3.org/2000/svg"
	 xmlns="http://www.w3.org/2000/svg" xmlns:xlink="http://www.w3.org/1999/xlink" x="0px" y="0px" width="119.33px"
	 height="135.031px" viewBox="0 0 119.33 135.031" xml:space="preserve">
<g id="layer1" transform="translate(-315.33485,-443.45501)">
	<g id="Hexa-Plus" transform="matrix(1.25,0,0,-1.25,26.114921,1206.5344)">
		<g id="MotorOrderGraphic">
			<g id="FrontArrow">
				<path id="path5224" fill="none" stroke="#ED1C24" stroke-width="5" stroke-miterlimit="10" d="M281.639,543.118v9.902"/>
				<path id="path5228" fill="#ED1C24" d="M289.076,550.832l-7.477,12.953l-7.48-12.953H289.076z"/>
			</g>
			<g id="M5">
				<path id="path4000" fill="#231F20" d="M280.755,584.262c-0.388,0-0.781,0.048-1.181,0.144c-0.4,0.096-0.735,0.198-1.005,0.307
					c-0.074,0.039-0.123,0.073-0.146,0.103s-0.035,0.079-0.035,0.149v0.41c0,0.164,0.08,0.221,0.24,0.17
					c0.832-0.25,1.534-0.375,2.104-0.375c0.672,0,1.164,0.158,1.479,0.475c0.315,0.316,0.472,0.787,0.472,1.412v0.182
					c0,0.59-0.193,1.005-0.577,1.245c-0.384,0.24-1.028,0.36-1.93,0.36h-1.436c-0.055,0-0.101,0.023-0.138,0.068
					s-0.055,0.091-0.055,0.138v0.012l0.334,3.996c0.008,0.063,0.035,0.112,0.082,0.15s0.1,0.056,0.158,0.056h4.13
					c0.067,0,0.123-0.019,0.17-0.056s0.07-0.087,0.07-0.15v-0.527c0-0.129-0.08-0.193-0.241-0.193h-3.445l-0.193-2.59h0.563
					c0.781,0,1.437-0.078,1.966-0.234c0.529-0.156,0.937-0.42,1.222-0.791s0.427-0.865,0.427-1.482v-0.182
					c0-0.891-0.264-1.579-0.794-2.065C282.466,584.505,281.719,584.262,280.755,584.262z"/>
				<path id="path5498" fill="none" stroke="#8D198F" stroke-width="3" stroke-miterlimit="10" d="M266.354,588.925
					c0-7.86,6.372-14.232,14.232-14.232c7.861,0,14.233,6.372,14.233,14.232c0,7.86-6.372,14.232-14.233,14.232
					C272.726,603.157,266.354,596.785,266.354,588.925z"/>
				<path id="path5502" fill="none" stroke="#8D198F" stroke-width="3" stroke-linecap="round" stroke-miterlimit="10" d="
					M278.129,603.207l6.21-6.186"/>
				<path id="path5506" fill="none" stroke="#8D198F" stroke-width="3" stroke-linecap="round" stroke-miterlimit="10" d="
					M278.129,603.207l6.812,5.757"/>
			</g>
			<g id="M4">
				<path id="path3994" fill="#231F20" d="M254.33,569.654c0-0.066-0.023-0.118-0.068-0.156c-0.045-0.037-0.098-0.056-0.161-0.056
					h-1.043v-2.138c0-0.066-0.019-0.123-0.056-0.17s-0.087-0.07-0.149-0.07h-0.697c-0.137,0-0.205,0.081-0.205,0.241v2.138h-3.469
					c-0.176,0-0.302,0.036-0.378,0.105c-0.076,0.07-0.114,0.19-0.114,0.358v0.457c0,0.168,0.049,0.316,0.146,0.445l3.551,4.98
					c0.082,0.129,0.199,0.193,0.352,0.193h0.703c0.211,0,0.316-0.087,0.316-0.263v-5.367h1.043c0.066,0,0.121-0.02,0.164-0.059
					c0.043-0.039,0.064-0.092,0.064-0.159V569.654z M251.963,570.351v4.107c0,0.047-0.016,0.07-0.047,0.07h-0.012
					c-0.031,0-0.063-0.023-0.094-0.07l-2.771-3.938c-0.027-0.031-0.041-0.064-0.041-0.1c0-0.047,0.033-0.07,0.1-0.07H251.963z"/>
				<path id="path5510" fill="none" stroke="#8D198F" stroke-width="3" stroke-miterlimit="10" d="M265.536,571.148
					c0-7.86-6.372-14.232-14.232-14.232c-7.861,0-14.233,6.372-14.233,14.232c0,7.86,6.372,14.232,14.233,14.232
					C259.165,585.38,265.536,579.008,265.536,571.148z"/>
				<path id="path5514" fill="none" stroke="#8D198F" stroke-width="3" stroke-linecap="round" stroke-miterlimit="10" d="
					M246.198,584.849l-8.708,0.996"/>
				<path id="path5518" fill="none" stroke="#8D198F" stroke-width="3" stroke-linecap="round" stroke-miterlimit="10" d="
					M246.198,584.849l-1.769-8.74"/>
			</g>
			<g id="M2">
				<path id="path4014" fill="#231F20" d="M314.506,574.888c0-0.32-0.053-0.606-0.159-0.859c-0.105-0.252-0.27-0.492-0.495-0.72
					c-0.225-0.229-0.529-0.474-0.912-0.736l-1.148-0.779c-0.434-0.293-0.774-0.568-1.023-0.826c-0.248-0.258-0.42-0.521-0.516-0.791
					c-0.095-0.27-0.143-0.582-0.143-0.938v-0.252h4.043c0.16,0,0.24-0.068,0.24-0.205v-0.527c0-0.07-0.023-0.124-0.07-0.161
					c-0.047-0.037-0.103-0.056-0.17-0.056h-4.764c-0.063,0-0.118,0.022-0.167,0.067c-0.048,0.045-0.073,0.099-0.073,0.161v0.973
					c0,0.418,0.063,0.813,0.19,1.186c0.127,0.373,0.327,0.723,0.598,1.049c0.271,0.326,0.622,0.632,1.052,0.917l1.213,0.82
					c0.5,0.336,0.83,0.61,0.991,0.823s0.241,0.497,0.241,0.853c0,0.289-0.056,0.524-0.167,0.706
					c-0.112,0.182-0.278,0.316-0.502,0.402c-0.222,0.086-0.503,0.129-0.844,0.129c-0.269,0-0.542-0.025-0.817-0.073
					c-0.275-0.049-0.548-0.112-0.82-0.188c-0.272-0.077-0.497-0.14-0.677-0.191c-0.074-0.023-0.133-0.02-0.176,0.012
					s-0.065,0.082-0.065,0.152v0.41c0,0.074,0.012,0.128,0.038,0.161c0.026,0.034,0.073,0.064,0.143,0.091
					c0.208,0.09,0.43,0.174,0.669,0.252c0.238,0.078,0.516,0.145,0.834,0.202c0.319,0.056,0.622,0.085,0.911,0.085
					c0.406,0,0.772-0.047,1.096-0.141s0.59-0.227,0.797-0.398s0.367-0.393,0.48-0.662S314.506,575.251,314.506,574.888
					L314.506,574.888z"/>
				<path id="path5522" fill="none" stroke="#8D198F" stroke-width="3" stroke-miterlimit="10" d="M316.985,559.777
					c-7.157-3.248-15.595-0.078-18.841,7.08c-3.248,7.158-0.078,15.595,7.08,18.841c7.158,3.248,15.594,0.077,18.842-7.08
					C327.313,571.46,324.142,563.024,316.985,559.777z"/>
				<path id="path5526" fill="none" stroke="#8D198F" stroke-width="3" stroke-linecap="round" stroke-miterlimit="10" d="
					M321.472,583.047l-2.691,8.342"/>
				<path id="path5530" fill="none" stroke="#8D198F" stroke-width="3" stroke-linecap="round" stroke-miterlimit="10" d="
					M321.472,583.047l-8.69-2"/>
			</g>
			<g id="g4851">
				<path id="path3998" fill="#231F20" d="M312.264,533.344c0-0.07-0.02-0.128-0.059-0.173c-0.039-0.045-0.091-0.067-0.158-0.067
					h-0.656c-0.066,0-0.119,0.023-0.158,0.07s-0.059,0.103-0.059,0.17v7.547l-1.547-0.674c-0.063-0.023-0.115-0.034-0.158-0.034
					c-0.07,0-0.105,0.045-0.105,0.134v0.609c0,0.063,0.039,0.116,0.117,0.158l1.81,0.862c0.098,0.051,0.182,0.076,0.252,0.076h0.492
					c0.063,0,0.116-0.02,0.161-0.061c0.045-0.041,0.068-0.097,0.068-0.167V533.344z"/>
				<path id="path5534" fill="none" stroke="#8D198F" stroke-width="3" stroke-miterlimit="10" d="M317.875,550.924
					c-6.912,3.739-15.55,1.166-19.29-5.748c-3.74-6.912-1.166-15.55,5.748-19.289c6.916-3.739,15.55-1.166,19.291,5.748
					C327.363,538.549,324.789,547.185,317.875,550.924z"/>
				<path id="path5538" fill="none" stroke="#8D198F" stroke-width="3" stroke-linecap="round" stroke-miterlimit="10" d="
					M318.106,526.017l-8.039,3.494"/>
				<path id="path5542" fill="none" stroke="#8D198F" stroke-width="3" stroke-linecap="round" stroke-miterlimit="10" d="
					M318.106,526.017l-4.241-7.845"/>
			</g>
			<g id="M6">
				<path id="path4002" fill="#231F20" d="M283.906,517.301v0.07c0,0.406-0.085,0.733-0.255,0.981
					c-0.17,0.248-0.394,0.423-0.671,0.525s-0.588,0.152-0.932,0.152c-0.269,0-0.581-0.022-0.938-0.067
					c-0.355-0.045-0.646-0.095-0.873-0.149v-1.143c0-0.641,0.07-1.144,0.208-1.511s0.341-0.627,0.607-0.78s0.602-0.228,1.008-0.228
					c0.284,0,0.541,0.039,0.77,0.117c0.228,0.078,0.422,0.198,0.58,0.359c0.158,0.163,0.28,0.385,0.366,0.669
					C283.863,516.579,283.906,516.914,283.906,517.301z M282.289,523.348c0.738,0,1.459-0.148,2.163-0.445
					c0.07-0.027,0.117-0.056,0.141-0.085s0.034-0.085,0.034-0.167v-0.434c0-0.156-0.08-0.211-0.24-0.164
					c-0.504,0.133-0.887,0.23-1.148,0.291c-0.262,0.06-0.578,0.091-0.949,0.091c-0.582,0-1.023-0.108-1.324-0.323
					s-0.498-0.509-0.589-0.884s-0.138-0.859-0.138-1.453v-0.135c0.707,0.16,1.31,0.241,1.81,0.241c0.555,0,1.052-0.078,1.491-0.234
					s0.791-0.42,1.055-0.791s0.396-0.865,0.396-1.482v-0.07c0-0.641-0.109-1.188-0.326-1.641s-0.543-0.799-0.979-1.037
					c-0.435-0.238-0.977-0.357-1.625-0.357c-0.453,0-0.859,0.07-1.216,0.208s-0.661,0.346-0.911,0.621s-0.443,0.63-0.577,1.063
					s-0.202,0.938-0.202,1.512v2.104c0,0.848,0.117,1.533,0.352,2.056c0.235,0.523,0.584,0.907,1.049,1.152
					S281.598,523.348,282.289,523.348L282.289,523.348z"/>
				<path id="path5546" fill="none" stroke="#8D198F" stroke-width="3" stroke-miterlimit="10" d="M280.119,532.251
					c7.774,1.152,15.013-4.216,16.166-11.991c1.152-7.776-4.217-15.014-11.991-16.166c-7.776-1.155-15.012,4.216-16.165,11.991
					C266.975,523.86,272.343,531.098,280.119,532.251L280.119,532.251z"/>
				<path id="path5550" fill="none" stroke="#8D198F" stroke-width="3" stroke-linecap="round" stroke-miterlimit="10" d="
					M268.677,514.274l-2.649-8.353"/>
				<path id="path5554" fill="none" stroke="#8D198F" stroke-width="3" stroke-linecap="round" stroke-miterlimit="10" d="
					M268.677,514.274l8.238-3.413"/>
			</g>
			<g id="M3">
				<path id="path3996" fill="#231F20" d="M252.24,531.942c-0.383,0-0.775,0.048-1.178,0.144c-0.402,0.095-0.738,0.198-1.008,0.308
					c-0.07,0.034-0.117,0.068-0.141,0.099s-0.035,0.082-0.035,0.152v0.41c0,0.16,0.08,0.216,0.24,0.17
					c0.473-0.125,0.854-0.219,1.145-0.281s0.605-0.094,0.941-0.094c0.645,0,1.105,0.131,1.383,0.393s0.416,0.684,0.416,1.266v0.252
					c0,0.23-0.044,0.458-0.132,0.683c-0.088,0.224-0.238,0.411-0.451,0.559s-0.487,0.222-0.823,0.222h-2.18
					c-0.152,0-0.229,0.073-0.229,0.217v0.416c0,0.067,0.021,0.122,0.064,0.164c0.043,0.044,0.098,0.065,0.164,0.065h2.18
					c0.359,0,0.644,0.07,0.852,0.211c0.209,0.141,0.354,0.32,0.434,0.537c0.08,0.216,0.12,0.444,0.12,0.682v0.17
					c0,0.341-0.057,0.612-0.17,0.818c-0.113,0.205-0.302,0.357-0.565,0.457c-0.264,0.1-0.618,0.149-1.064,0.149
					c-0.336,0-0.654-0.031-0.955-0.094s-0.678-0.154-1.131-0.276c-0.16-0.047-0.24,0.011-0.24,0.17v0.405
					c0,0.073,0.012,0.128,0.038,0.161c0.025,0.033,0.071,0.063,0.137,0.091c0.266,0.113,0.598,0.218,0.996,0.314
					c0.398,0.095,0.795,0.143,1.189,0.143c0.949,0,1.667-0.177,2.154-0.534c0.486-0.355,0.729-0.956,0.729-1.805v-0.17
					c0-0.207-0.024-0.401-0.073-0.583c-0.049-0.182-0.122-0.354-0.22-0.516c-0.098-0.162-0.219-0.31-0.363-0.443
					s-0.307-0.244-0.486-0.334c0.391-0.188,0.679-0.45,0.864-0.788c0.186-0.337,0.278-0.702,0.278-1.092v-0.252
					c0-0.871-0.253-1.516-0.759-1.937C253.859,532.152,253.151,531.942,252.24,531.942L252.24,531.942z"/>
				<path id="path5558" fill="none" stroke="#8D198F" stroke-width="3" stroke-miterlimit="10" d="M259.759,524.335
					c6.632,4.219,8.589,13.016,4.371,19.647c-4.219,6.633-13.016,8.589-19.648,4.372c-6.633-4.219-8.589-13.016-4.37-19.648
					C244.33,522.073,253.127,520.117,259.759,524.335z"/>
				<path id="path5562" fill="none" stroke="#8D198F" stroke-width="3" stroke-linecap="round" stroke-miterlimit="10" d="
					M241.389,526.607l1.887,8.559"/>
				<path id="path5566" fill="none" stroke="#8D198F" stroke-width="3" stroke-linecap="round" stroke-miterlimit="10" d="
					M241.389,526.607l-8.513,2.656"/>
			</g>
		</g>
	</g>
</g>
</svg>
