<?xml version="1.0" encoding="utf-8"?>
<!-- Copyright 2014.  All rights reserved.  Used with permission for Baseflight Configurator -->
<!DOCTYPE svg PUBLIC "-//W3C//DTD SVG 1.1 Basic//EN" "http://www.w3.org/Graphics/SVG/1.1/DTD/svg11-basic.dtd" [
	<!ENTITY st0 "fill:none;stroke:#8D198F;stroke-width:3;stroke-miterlimit:10;">
	<!ENTITY st1 "fill:#ED1C24;">
	<!ENTITY st2 "fill:#231F20;">
	<!ENTITY st3 "fill:none;stroke:#ED1C24;stroke-width:5;stroke-miterlimit:10;">
	<!ENTITY st4 "fill:none;stroke:#8D198F;stroke-width:3;stroke-linecap:round;stroke-miterlimit:10;">
]>
<svg version="1.1" baseProfile="basic"
	 id="hex6x-mix" xmlns:dc="http://purl.org/dc/elements/1.1/" xmlns:cc="http://creativecommons.org/ns#" xmlns:rdf="http://www.w3.org/1999/02/22-rdf-syntax-ns#" xmlns:svg="http://www.w3.org/2000/svg"
	 xmlns="http://www.w3.org/2000/svg" xmlns:xlink="http://www.w3.org/1999/xlink" x="0px" y="0px" width="130.52px"
	 height="126.07px" viewBox="0.37 0.38 130.52 126.07" xml:space="preserve">
<g id="M6">
	<path id="path4036" style="&st2;" d="M27.89,65.66v-0.09c0-0.51-0.11-0.92-0.32-1.23c-0.21-0.31-0.49-0.53-0.84-0.66
		c-0.35-0.13-0.74-0.19-1.16-0.19c-0.34,0-0.73,0.03-1.17,0.08c-0.44,0.06-0.81,0.12-1.09,0.19v1.43c0,0.8,0.09,1.43,0.26,1.89
		c0.17,0.46,0.43,0.78,0.76,0.97c0.33,0.19,0.75,0.29,1.26,0.29c0.36,0,0.68-0.05,0.96-0.15c0.29-0.1,0.53-0.25,0.72-0.45
		s0.35-0.48,0.46-0.83C27.84,66.56,27.89,66.14,27.89,65.66z M25.87,58.1c0.92,0,1.82,0.18,2.7,0.56c0.09,0.03,0.15,0.07,0.18,0.11
		c0.03,0.04,0.04,0.11,0.04,0.21v0.54c0,0.19-0.1,0.26-0.3,0.21c-0.63-0.17-1.11-0.29-1.43-0.36c-0.33-0.08-0.72-0.11-1.19-0.11
		c-0.73,0-1.28,0.13-1.66,0.4c-0.38,0.27-0.62,0.64-0.73,1.11c-0.12,0.47-0.17,1.07-0.17,1.82v0.17c0.88-0.2,1.64-0.3,2.26-0.3
		c0.69,0,1.32,0.1,1.86,0.29c0.55,0.2,0.99,0.53,1.32,0.99c0.33,0.46,0.49,1.08,0.49,1.85v0.09c0,0.8-0.14,1.48-0.41,2.05
		c-0.27,0.57-0.68,1-1.22,1.3c-0.54,0.3-1.22,0.45-2.03,0.45c-0.57,0-1.07-0.09-1.52-0.26c-0.45-0.17-0.83-0.43-1.14-0.78
		c-0.31-0.34-0.55-0.79-0.72-1.33c-0.17-0.54-0.25-1.17-0.25-1.89v-2.63c0-1.06,0.15-1.92,0.44-2.57c0.29-0.65,0.73-1.13,1.31-1.44
		C24.28,58.25,25.01,58.1,25.87,58.1L25.87,58.1z"/>
	<path id="path5486" style="&st0;" d="M35.48,78.97c8.29-5.27,10.74-16.27,5.46-24.56c-5.27-8.29-16.27-10.74-24.56-5.46
		C8.09,54.22,5.65,65.21,10.92,73.5C16.19,81.79,27.19,84.24,35.48,78.97z"/>
	<path id="path5490" style="&st4;" d="M12.52,76.13l2.36-10.7"/>
	<path id="path5494" style="&st4;" d="M12.52,76.13L1.87,72.81"/>
</g>
<g id="M5">
	<path id="path3915" style="&st2;" d="M110.72,68.98c-0.48,0-0.98-0.06-1.48-0.18c-0.5-0.12-0.92-0.25-1.26-0.39
		c-0.09-0.05-0.15-0.09-0.18-0.13c-0.03-0.04-0.04-0.1-0.04-0.19v-0.51c0-0.21,0.1-0.28,0.3-0.21c1.04,0.31,1.92,0.47,2.63,0.47
		c0.84,0,1.46-0.2,1.85-0.59c0.39-0.39,0.59-0.98,0.59-1.76v-0.23c0-0.74-0.24-1.26-0.72-1.56c-0.48-0.3-1.29-0.45-2.41-0.45h-1.8
		c-0.07,0-0.13-0.03-0.17-0.08c-0.05-0.06-0.07-0.11-0.07-0.17v-0.01l0.42-5c0.01-0.08,0.04-0.14,0.1-0.19
		c0.06-0.05,0.13-0.07,0.2-0.07h5.16c0.08,0,0.15,0.02,0.21,0.07c0.06,0.05,0.09,0.11,0.09,0.19v0.66c0,0.16-0.1,0.24-0.3,0.24
		h-4.31l-0.24,3.24h0.7c0.98,0,1.8,0.1,2.46,0.29c0.66,0.2,1.17,0.53,1.53,0.99s0.53,1.08,0.53,1.85v0.23
		c0,1.11-0.33,1.97-0.99,2.58C112.86,68.68,111.92,68.98,110.72,68.98L110.72,68.98z"/>
	<path id="path5450" style="&st0;" d="M118.95,80.26c-8.95,4.06-19.49,0.1-23.55-8.85c-4.06-8.95-0.1-19.49,8.85-23.55
		c8.95-4.06,19.49-0.1,23.55,8.85C131.86,65.66,127.9,76.21,118.95,80.26z"/>
	<path id="path5454" style="&st4;" d="M124.56,51.18l-3.36-10.43"/>
	<path id="path5458" style="&st4;" d="M124.56,51.18l-10.86,2.5"/>
</g>
<g id="M4">
	<path id="path4034" style="&st2;" d="M49.71,29.15c0,0.08-0.03,0.15-0.08,0.19c-0.06,0.05-0.12,0.07-0.2,0.07h-1.3v2.67
		c0,0.08-0.02,0.15-0.07,0.21c-0.05,0.06-0.11,0.09-0.19,0.09h-0.87c-0.17,0-0.26-0.1-0.26-0.3v-2.67H42.4
		c-0.22,0-0.38-0.04-0.47-0.13s-0.14-0.24-0.14-0.45v-0.57c0-0.21,0.06-0.39,0.18-0.56l4.44-6.23c0.1-0.16,0.25-0.24,0.44-0.24h0.88
		c0.26,0,0.39,0.11,0.39,0.33v6.71h1.3c0.08,0,0.15,0.02,0.21,0.07s0.08,0.11,0.08,0.2V29.15L49.71,29.15z M46.75,28.28v-5.13
		c0-0.06-0.02-0.09-0.06-0.09h-0.01c-0.04,0-0.08,0.03-0.12,0.09l-3.46,4.92c-0.03,0.04-0.05,0.08-0.05,0.13
		c0,0.06,0.04,0.09,0.12,0.09H46.75z"/>
	<path id="path5426" style="&st0;" d="M64.19,27.42c0,9.82-7.96,17.79-17.79,17.79c-9.83,0-17.79-7.96-17.79-17.79
		c0-9.83,7.96-17.79,17.79-17.79C56.23,9.63,64.19,17.59,64.19,27.42z"/>
	<path id="path5430" style="&st4;" d="M40.02,10.29L29.13,9.04"/>
	<path id="path5434" style="&st4;" d="M40.02,10.29l-2.21,10.93"/>
</g>
<g id="M3">
	<path id="path4042" style="&st2;" d="M46.42,105.65c-0.48,0-0.97-0.06-1.47-0.18c-0.5-0.12-0.92-0.25-1.26-0.38
		c-0.09-0.04-0.15-0.08-0.18-0.12c-0.03-0.04-0.04-0.1-0.04-0.19v-0.51c0-0.2,0.1-0.27,0.3-0.21c0.59,0.16,1.07,0.27,1.43,0.35
		c0.36,0.08,0.76,0.12,1.18,0.12c0.81,0,1.38-0.16,1.73-0.49c0.35-0.33,0.52-0.86,0.52-1.58v-0.31c0-0.29-0.05-0.57-0.17-0.85
		c-0.11-0.28-0.3-0.52-0.56-0.7c-0.27-0.19-0.61-0.28-1.03-0.28h-2.72c-0.19,0-0.29-0.09-0.29-0.27V99.5c0-0.08,0.03-0.15,0.08-0.21
		s0.12-0.08,0.21-0.08h2.73c0.45,0,0.8-0.09,1.06-0.26c0.26-0.18,0.44-0.4,0.54-0.67c0.1-0.27,0.15-0.55,0.15-0.85v-0.21
		c0-0.42-0.07-0.76-0.21-1.02c-0.14-0.26-0.38-0.45-0.71-0.57c-0.33-0.12-0.77-0.19-1.33-0.19c-0.42,0-0.82,0.04-1.19,0.12
		c-0.38,0.08-0.85,0.19-1.41,0.34c-0.2,0.06-0.3-0.01-0.3-0.21v-0.51c0-0.09,0.02-0.16,0.05-0.2c0.03-0.04,0.09-0.08,0.17-0.11
		c0.33-0.14,0.75-0.27,1.25-0.39c0.5-0.12,0.99-0.18,1.49-0.18c1.19,0,2.08,0.22,2.69,0.67c0.61,0.44,0.91,1.2,0.91,2.26v0.21
		c0,0.26-0.03,0.5-0.09,0.73c-0.06,0.23-0.15,0.44-0.27,0.64c-0.12,0.2-0.27,0.39-0.45,0.55s-0.38,0.31-0.61,0.42
		c0.49,0.24,0.85,0.56,1.08,0.98c0.23,0.42,0.35,0.88,0.35,1.37v0.31c0,1.09-0.32,1.9-0.95,2.42
		C48.44,105.38,47.56,105.65,46.42,105.65L46.42,105.65z"/>
	<path id="path5474" style="&st0;" d="M44.24,82.05c9.72-1.44,18.77,5.27,20.21,14.99c1.44,9.72-5.27,18.77-14.99,20.21
		c-9.72,1.44-18.76-5.27-20.21-14.99C27.81,92.54,34.52,83.5,44.24,82.05z"/>
	<path id="path5478" style="&st4;" d="M29.94,104.53l-3.31,10.44"/>
	<path id="path5482" style="&st4;" d="M29.94,104.53l10.3,4.26"/>
</g>
<g id="M2">
	<path id="path4040" style="&st2;" d="M92.89,23.3c0,0.4-0.07,0.76-0.2,1.07c-0.13,0.31-0.34,0.62-0.62,0.9
		c-0.28,0.29-0.66,0.59-1.14,0.92l-1.44,0.97c-0.54,0.37-0.97,0.71-1.28,1.03s-0.53,0.65-0.64,0.99c-0.12,0.34-0.18,0.73-0.18,1.17
		v0.32h5.05c0.2,0,0.3,0.08,0.3,0.26v0.66c0,0.09-0.03,0.16-0.09,0.2s-0.13,0.07-0.21,0.07H86.5c-0.08,0-0.15-0.03-0.21-0.08
		c-0.06-0.06-0.09-0.12-0.09-0.2v-1.22c0-0.52,0.08-1.02,0.24-1.48c0.16-0.47,0.41-0.9,0.75-1.31c0.34-0.41,0.78-0.79,1.31-1.15
		l1.52-1.02c0.63-0.42,1.04-0.76,1.24-1.03c0.2-0.27,0.3-0.62,0.3-1.07c0-0.36-0.07-0.66-0.21-0.88c-0.14-0.23-0.35-0.39-0.63-0.5
		c-0.28-0.11-0.63-0.16-1.05-0.16c-0.34,0-0.68,0.03-1.02,0.09c-0.34,0.06-0.68,0.14-1.03,0.24c-0.34,0.1-0.62,0.17-0.85,0.24
		c-0.09,0.03-0.17,0.03-0.22-0.01s-0.08-0.1-0.08-0.19V21.6c0-0.09,0.02-0.16,0.05-0.2c0.03-0.04,0.09-0.08,0.18-0.11
		c0.26-0.11,0.54-0.22,0.83-0.32c0.3-0.1,0.64-0.18,1.04-0.25c0.4-0.07,0.78-0.11,1.14-0.11c0.51,0,0.96,0.06,1.37,0.18
		c0.41,0.12,0.74,0.28,1,0.5s0.46,0.49,0.6,0.83C92.82,22.46,92.89,22.85,92.89,23.3L92.89,23.3z"/>
	<path id="path5438" style="&st0;" d="M71.45,26.92c0,9.82,7.96,17.79,17.79,17.79c9.83,0,17.79-7.97,17.79-17.79
		c0-9.83-7.96-17.79-17.79-17.79C79.41,9.13,71.45,17.1,71.45,26.92L71.45,26.92z"/>
	<path id="path5442" style="&st4;" d="M86.17,9.07l7.76,7.73"/>
	<path id="path5446" style="&st4;" d="M86.17,9.07l8.51-7.2"/>
</g>
<g id="M1">
	<path id="path4038" style="&st2;" d="M91.09,103.92c0,0.09-0.03,0.16-0.07,0.22c-0.05,0.06-0.12,0.08-0.2,0.08H90
		c-0.08,0-0.15-0.03-0.2-0.09s-0.07-0.13-0.07-0.21v-9.43l-1.93,0.84c-0.08,0.03-0.14,0.04-0.2,0.04c-0.09,0-0.13-0.06-0.13-0.17
		v-0.76c0-0.08,0.05-0.15,0.15-0.2l2.26-1.08c0.12-0.06,0.23-0.1,0.32-0.1h0.62c0.08,0,0.14,0.03,0.2,0.08
		c0.06,0.05,0.08,0.12,0.08,0.21L91.09,103.92L91.09,103.92z"/>
	<path id="path5462" style="&st0;" d="M98.13,84.01c-8.64-4.67-19.44-1.46-24.11,7.19c-4.67,8.64-1.46,19.44,7.19,24.11
		c8.64,4.68,19.44,1.46,24.11-7.18C109.99,99.47,106.77,88.68,98.13,84.01z"/>
	<path id="path5466" style="&st4;" d="M98.41,115.14l-10.05-4.37"/>
	<path id="path5470" style="&st4;" d="M98.41,115.14l-5.3,9.81"/>
</g>
<g id="FrontArrow">
	<path id="path5248" style="&st3;" d="M68.03,76.99V64.61"/>
	<path id="path5252" style="&st1;" d="M77.33,67.34l-9.35-16.19l-9.35,16.19H77.33z"/>
</g>
</svg>
