<?xml version="1.0" encoding="utf-8"?>
<!-- Copyright 2014.  All rights reserved.  Used with permission for Baseflight Configurator -->
<svg version="1.2" baseProfile="tiny"
	 id="svg4235" xmlns:dc="http://purl.org/dc/elements/1.1/" xmlns:cc="http://creativecommons.org/ns#" xmlns:rdf="http://www.w3.org/1999/02/22-rdf-syntax-ns#" xmlns:svg="http://www.w3.org/2000/svg"
	 xmlns="http://www.w3.org/2000/svg" xmlns:xlink="http://www.w3.org/1999/xlink" x="0px" y="0px" width="131.271px"
	 height="126.82px" viewBox="0 0 131.271 126.82" xml:space="preserve">
<g id="layer1" transform="translate(-309.36456,-449.17394)">
	<g id="Hexa-X" transform="matrix(1.25,0,0,-1.25,231.63326,1208.6047)">
		<g id="MotorOrderGraphic">
			<g id="FrontArrow">
				<path id="path5248" fill="none" stroke="#ED1C24" stroke-width="5" stroke-miterlimit="10" d="M116.611,545.955v9.902"/>
				<path id="path5252" fill="#ED1C24" d="M124.049,553.669l-7.478,12.953l-7.48-12.953H124.049z"/>
			</g>
			<g id="M4">
				<path id="path4034" fill="#231F20" d="M101.95,584.224c0-0.066-0.023-0.119-0.067-0.156c-0.045-0.037-0.099-0.055-0.162-0.055
					h-1.043v-2.139c0-0.066-0.018-0.123-0.055-0.169c-0.037-0.047-0.087-0.07-0.149-0.07h-0.698c-0.137,0-0.205,0.08-0.205,0.24
					v2.139h-3.469c-0.176,0-0.302,0.035-0.378,0.105c-0.076,0.07-0.114,0.189-0.114,0.357v0.457c0,0.168,0.048,0.316,0.146,0.445
					l3.551,4.98c0.082,0.129,0.199,0.194,0.352,0.194h0.703c0.211,0,0.316-0.088,0.316-0.264v-5.367h1.043
					c0.066,0,0.121-0.02,0.164-0.059s0.065-0.091,0.065-0.158V584.224z M99.583,584.921v4.108c0,0.047-0.016,0.07-0.047,0.07h-0.012
					c-0.031,0-0.063-0.023-0.094-0.07l-2.772-3.938c-0.027-0.031-0.041-0.065-0.041-0.1c0-0.047,0.033-0.07,0.099-0.07H99.583z"/>
				<path id="path5426" fill="none" stroke="#8D198F" stroke-width="3" stroke-miterlimit="10" d="M113.536,585.612
					c0-7.859-6.372-14.231-14.232-14.231c-7.861,0-14.233,6.372-14.233,14.231c0,7.86,6.372,14.232,14.233,14.232
					C107.165,599.844,113.536,593.473,113.536,585.612z"/>
				<path id="path5430" fill="none" stroke="#8D198F" stroke-width="3" stroke-linecap="round" stroke-miterlimit="10" d="
					M94.198,599.314l-8.708,0.996"/>
				<path id="path5434" fill="none" stroke="#8D198F" stroke-width="3" stroke-linecap="round" stroke-miterlimit="10" d="
					M94.198,599.314l-1.769-8.74"/>
			</g>
			<g id="M2">
				<path id="path4040" fill="#231F20" d="M136.498,588.904c0-0.32-0.052-0.606-0.158-0.859c-0.105-0.252-0.271-0.492-0.495-0.72
					c-0.225-0.229-0.528-0.474-0.911-0.736l-1.148-0.779c-0.434-0.293-0.775-0.569-1.023-0.827c-0.248-0.258-0.42-0.521-0.516-0.791
					c-0.096-0.27-0.144-0.582-0.144-0.938v-0.252h4.043c0.16,0,0.241-0.068,0.241-0.205v-0.527c0-0.07-0.023-0.124-0.07-0.161
					c-0.047-0.037-0.104-0.056-0.17-0.056h-4.763c-0.063,0-0.119,0.023-0.167,0.067c-0.049,0.045-0.073,0.099-0.073,0.162v0.973
					c0,0.418,0.063,0.813,0.191,1.186c0.127,0.373,0.326,0.723,0.598,1.049c0.271,0.326,0.622,0.632,1.052,0.917l1.213,0.82
					c0.5,0.336,0.83,0.61,0.99,0.823c0.16,0.213,0.241,0.498,0.241,0.853c0,0.289-0.056,0.524-0.167,0.705
					c-0.112,0.182-0.278,0.316-0.501,0.402s-0.504,0.129-0.844,0.129c-0.27,0-0.542-0.024-0.818-0.073
					c-0.275-0.049-0.548-0.112-0.82-0.188c-0.271-0.077-0.497-0.14-0.677-0.191c-0.074-0.023-0.133-0.02-0.176,0.012
					s-0.064,0.082-0.064,0.152v0.41c0,0.074,0.013,0.128,0.038,0.161c0.026,0.034,0.073,0.063,0.144,0.091
					c0.207,0.09,0.43,0.174,0.668,0.252s0.516,0.145,0.835,0.202c0.318,0.056,0.622,0.084,0.911,0.084
					c0.406,0,0.772-0.047,1.096-0.141s0.59-0.227,0.797-0.398s0.367-0.392,0.48-0.662S136.498,589.267,136.498,588.904
					L136.498,588.904z"/>
				<path id="path5438" fill="none" stroke="#8D198F" stroke-width="3" stroke-miterlimit="10" d="M119.344,586.006
					c0-7.86,6.372-14.232,14.232-14.232c7.861,0,14.233,6.372,14.233,14.232c0,7.86-6.372,14.232-14.233,14.232
					C125.716,600.238,119.344,593.866,119.344,586.006L119.344,586.006z"/>
				<path id="path5442" fill="none" stroke="#8D198F" stroke-width="3" stroke-linecap="round" stroke-miterlimit="10" d="
					M131.119,600.287l6.209-6.186"/>
				<path id="path5446" fill="none" stroke="#8D198F" stroke-width="3" stroke-linecap="round" stroke-miterlimit="10" d="
					M131.119,600.287l6.812,5.757"/>
			</g>
			<g id="M5">
				<path id="path3915" fill="#231F20" d="M150.758,552.359c-0.387,0-0.78,0.048-1.181,0.144c-0.4,0.095-0.735,0.198-1.005,0.308
					c-0.074,0.039-0.123,0.073-0.146,0.102c-0.023,0.029-0.036,0.079-0.036,0.149v0.41c0,0.164,0.08,0.221,0.241,0.17
					c0.832-0.25,1.533-0.375,2.103-0.375c0.672,0,1.166,0.158,1.48,0.474c0.315,0.316,0.472,0.787,0.472,1.412v0.181
					c0,0.59-0.192,1.005-0.577,1.245c-0.384,0.24-1.028,0.36-1.93,0.36h-1.436c-0.055,0-0.1,0.023-0.138,0.067
					c-0.037,0.045-0.055,0.091-0.055,0.138v0.012l0.334,3.996c0.009,0.063,0.035,0.112,0.082,0.149
					c0.047,0.037,0.1,0.055,0.159,0.055h4.13c0.066,0,0.123-0.019,0.17-0.055c0.047-0.038,0.07-0.087,0.07-0.149v-0.527
					c0-0.129-0.08-0.194-0.241-0.194h-3.445l-0.193-2.59h0.563c0.781,0,1.437-0.078,1.966-0.234c0.53-0.156,0.937-0.42,1.222-0.791
					s0.427-0.866,0.427-1.483v-0.181c0-0.891-0.264-1.58-0.794-2.066C152.469,552.602,151.722,552.359,150.758,552.359
					L150.758,552.359z"/>
				<path id="path5450" fill="none" stroke="#8D198F" stroke-width="3" stroke-miterlimit="10" d="M157.346,543.333
					c-7.158-3.248-15.594-0.078-18.841,7.08c-3.248,7.158-0.077,15.595,7.081,18.841c7.156,3.248,15.593,0.077,18.841-7.08
					C167.674,555.016,164.504,546.58,157.346,543.333z"/>
				<path id="path5454" fill="none" stroke="#8D198F" stroke-width="3" stroke-linecap="round" stroke-miterlimit="10" d="
					M161.833,566.603l-2.691,8.342"/>
				<path id="path5458" fill="none" stroke="#8D198F" stroke-width="3" stroke-linecap="round" stroke-miterlimit="10" d="
					M161.833,566.603l-8.69-2"/>
			</g>
			<g id="M1">
				<path id="path4038" fill="#231F20" d="M135.056,524.406c0-0.07-0.02-0.128-0.059-0.173c-0.039-0.045-0.092-0.067-0.159-0.067
					h-0.656c-0.066,0-0.119,0.023-0.158,0.07s-0.059,0.103-0.059,0.17v7.547l-1.547-0.673c-0.063-0.023-0.116-0.035-0.159-0.035
					c-0.07,0-0.105,0.045-0.105,0.134v0.609c0,0.063,0.039,0.116,0.117,0.159l1.811,0.861c0.098,0.051,0.181,0.077,0.252,0.077
					h0.492c0.063,0,0.116-0.021,0.161-0.062c0.045-0.041,0.068-0.097,0.068-0.167V524.406z"/>
				<path id="path5462" fill="none" stroke="#8D198F" stroke-width="3" stroke-miterlimit="10" d="M140.686,540.34
					c-6.912,3.739-15.55,1.166-19.29-5.748c-3.739-6.912-1.165-15.55,5.748-19.289c6.916-3.74,15.55-1.166,19.291,5.748
					C150.173,527.965,147.6,536.601,140.686,540.34z"/>
				<path id="path5466" fill="none" stroke="#8D198F" stroke-width="3" stroke-linecap="round" stroke-miterlimit="10" d="
					M140.917,515.433l-8.04,3.493"/>
				<path id="path5470" fill="none" stroke="#8D198F" stroke-width="3" stroke-linecap="round" stroke-miterlimit="10" d="
					M140.917,515.433l-4.243-7.845"/>
			</g>
			<g id="M3">
				<path id="path4042" fill="#231F20" d="M99.321,523.028c-0.383,0-0.776,0.048-1.178,0.144c-0.402,0.095-0.738,0.198-1.008,0.308
					c-0.07,0.035-0.117,0.068-0.141,0.099s-0.035,0.082-0.035,0.152v0.41c0,0.16,0.08,0.217,0.241,0.17
					c0.473-0.125,0.854-0.219,1.145-0.281c0.291-0.063,0.605-0.094,0.941-0.094c0.645,0,1.105,0.13,1.383,0.392
					s0.416,0.684,0.416,1.266v0.252c0,0.23-0.044,0.458-0.132,0.682c-0.088,0.225-0.238,0.412-0.451,0.56
					c-0.213,0.148-0.487,0.223-0.823,0.223h-2.18c-0.152,0-0.228,0.072-0.228,0.216v0.416c0,0.066,0.021,0.121,0.064,0.164
					s0.098,0.064,0.164,0.064h2.18c0.359,0,0.644,0.07,0.852,0.211c0.209,0.141,0.354,0.32,0.434,0.536
					c0.08,0.217,0.12,0.444,0.12,0.683v0.17c0,0.34-0.056,0.612-0.17,0.817c-0.113,0.205-0.302,0.357-0.566,0.457
					c-0.264,0.099-0.618,0.149-1.063,0.149c-0.336,0-0.655-0.031-0.955-0.094s-0.677-0.154-1.13-0.275
					c-0.16-0.047-0.241,0.01-0.241,0.169v0.405c0,0.074,0.012,0.128,0.038,0.161c0.025,0.034,0.071,0.063,0.138,0.091
					c0.266,0.113,0.598,0.218,0.996,0.314c0.398,0.095,0.795,0.143,1.19,0.143c0.949,0,1.666-0.177,2.153-0.533
					c0.486-0.355,0.73-0.957,0.73-1.805v-0.17c0-0.207-0.025-0.401-0.073-0.583c-0.049-0.181-0.122-0.353-0.22-0.516
					c-0.098-0.162-0.219-0.309-0.363-0.442s-0.307-0.245-0.487-0.334c0.391-0.188,0.679-0.45,0.864-0.787
					c0.186-0.338,0.279-0.702,0.279-1.093v-0.252c0-0.871-0.253-1.516-0.759-1.936C100.939,523.238,100.231,523.028,99.321,523.028
					L99.321,523.028z"/>
				<path id="path5474" fill="none" stroke="#8D198F" stroke-width="3" stroke-miterlimit="10" d="M97.577,541.901
					c7.774,1.152,15.013-4.216,16.166-11.991c1.152-7.777-4.216-15.014-11.991-16.166c-7.777-1.154-15.012,4.216-16.166,11.991
					C84.433,533.51,89.801,540.748,97.577,541.901z"/>
				<path id="path5478" fill="none" stroke="#8D198F" stroke-width="3" stroke-linecap="round" stroke-miterlimit="10" d="
					M86.136,523.924l-2.649-8.354"/>
				<path id="path5482" fill="none" stroke="#8D198F" stroke-width="3" stroke-linecap="round" stroke-miterlimit="10" d="
					M86.136,523.924l8.238-3.412"/>
			</g>
			<g id="M6">
				<path id="path4036" fill="#231F20" d="M84.498,555.019v0.07c0,0.406-0.084,0.733-0.255,0.981
					c-0.17,0.248-0.394,0.423-0.671,0.524s-0.588,0.152-0.931,0.152c-0.27,0-0.582-0.023-0.938-0.067
					c-0.355-0.045-0.647-0.094-0.873-0.149v-1.143c0-0.641,0.07-1.145,0.209-1.512c0.138-0.367,0.341-0.627,0.606-0.779
					s0.602-0.229,1.008-0.229c0.285,0,0.542,0.039,0.77,0.117c0.229,0.078,0.422,0.198,0.58,0.36
					c0.158,0.162,0.28,0.385,0.366,0.668C84.455,554.297,84.498,554.633,84.498,555.019z M82.881,561.066
					c0.738,0,1.459-0.148,2.162-0.445c0.07-0.027,0.117-0.056,0.141-0.085c0.023-0.03,0.035-0.085,0.035-0.167v-0.434
					c0-0.156-0.08-0.211-0.241-0.164c-0.504,0.133-0.887,0.23-1.148,0.29c-0.262,0.061-0.578,0.091-0.949,0.091
					c-0.582,0-1.023-0.108-1.324-0.323s-0.497-0.509-0.588-0.884c-0.092-0.375-0.138-0.859-0.138-1.453v-0.135
					c0.707,0.16,1.311,0.241,1.811,0.241c0.555,0,1.052-0.078,1.491-0.234c0.439-0.156,0.791-0.42,1.055-0.791
					c0.263-0.371,0.395-0.865,0.395-1.482v-0.07c0-0.641-0.109-1.188-0.325-1.641c-0.217-0.453-0.543-0.799-0.979-1.037
					c-0.435-0.238-0.977-0.357-1.626-0.357c-0.453,0-0.859,0.069-1.216,0.208c-0.358,0.138-0.662,0.345-0.912,0.621
					c-0.25,0.275-0.442,0.63-0.577,1.063c-0.135,0.434-0.202,0.938-0.202,1.512v2.104c0,0.848,0.117,1.533,0.352,2.056
					s0.584,0.907,1.048,1.151C81.611,560.944,82.19,561.066,82.881,561.066L82.881,561.066z"/>
				<path id="path5486" fill="none" stroke="#8D198F" stroke-width="3" stroke-miterlimit="10" d="M90.568,544.372
					c6.632,4.219,8.589,13.016,4.371,19.647c-4.219,6.633-13.016,8.589-19.648,4.372c-6.634-4.219-8.589-13.016-4.37-19.649
					C75.139,542.109,83.936,540.152,90.568,544.372z"/>
				<path id="path5490" fill="none" stroke="#8D198F" stroke-width="3" stroke-linecap="round" stroke-miterlimit="10" d="
					M72.198,546.643l1.887,8.559"/>
				<path id="path5494" fill="none" stroke="#8D198F" stroke-width="3" stroke-linecap="round" stroke-miterlimit="10" d="
					M72.198,546.643l-8.513,2.656"/>
			</g>
		</g>
	</g>
</g>
</svg>
