<?xml version="1.0" encoding="utf-8"?>
<!-- Copyright 2014.  All rights reserved.  Used with permission for Baseflight Configurator -->
<svg version="1.2" baseProfile="tiny"
	 id="svg4069" xmlns:dc="http://purl.org/dc/elements/1.1/" xmlns:cc="http://creativecommons.org/ns#" xmlns:rdf="http://www.w3.org/1999/02/22-rdf-syntax-ns#" xmlns:svg="http://www.w3.org/2000/svg"
	 xmlns="http://www.w3.org/2000/svg" xmlns:xlink="http://www.w3.org/1999/xlink" x="0px" y="0px" width="153.18px"
	 height="156.838px" viewBox="0 0 153.18 156.838" xml:space="preserve">
<g id="layer1" transform="translate(-298.41006,-439.84159)">
	<g id="Octo-X" transform="matrix(1.25,0,0,-1.25,240.06039,1013.5961)">
		<g id="MotorOrderGraphic">
			<g id="FrontArrow">
				<path id="path5690" fill="none" stroke="#ED1C24" stroke-width="5" stroke-miterlimit="10" d="M113.448,387.081v9.902"/>
				<path id="path5694" fill="#ED1C24" d="M120.886,394.794l-7.478,12.953l-7.48-12.953H120.886z"/>
			</g>
			<g id="M5">
				<path id="path4119" fill="#231F20" d="M92.657,433.011c-0.387,0-0.78,0.048-1.18,0.144c-0.4,0.095-0.736,0.198-1.005,0.307
					c-0.074,0.039-0.123,0.073-0.146,0.103c-0.023,0.029-0.035,0.079-0.035,0.149v0.41c0,0.164,0.08,0.221,0.24,0.17
					c0.832-0.25,1.533-0.375,2.104-0.375c0.672,0,1.165,0.158,1.48,0.475s0.471,0.787,0.471,1.412v0.182
					c0,0.59-0.192,1.005-0.577,1.245c-0.385,0.24-1.029,0.36-1.931,0.36h-1.436c-0.055,0-0.1,0.023-0.137,0.067
					c-0.037,0.045-0.056,0.091-0.056,0.138v0.012l0.334,3.996c0.007,0.063,0.035,0.112,0.082,0.15
					c0.046,0.037,0.099,0.055,0.158,0.055h4.131c0.066,0,0.123-0.019,0.17-0.055c0.047-0.038,0.07-0.087,0.07-0.15v-0.527
					c0-0.129-0.08-0.193-0.24-0.193h-3.445l-0.194-2.59h0.563c0.781,0,1.437-0.078,1.966-0.234s0.936-0.42,1.221-0.791
					s0.428-0.865,0.428-1.482v-0.182c0-0.891-0.265-1.579-0.794-2.065C94.37,433.254,93.623,433.011,92.657,433.011z"/>
				<path id="path5712" fill="none" stroke="#8D198F" stroke-width="3" stroke-miterlimit="10" d="M107.741,437.072
					c0-7.86-6.372-14.232-14.232-14.232c-7.861,0-14.233,6.372-14.233,14.232c0,7.86,6.372,14.232,14.233,14.232
					C101.368,451.304,107.741,444.932,107.741,437.072z"/>
				<path id="path5716" fill="none" stroke="#8D198F" stroke-width="3" stroke-linecap="round" stroke-miterlimit="10" d="
					M88.402,450.773l-8.708,0.996"/>
				<path id="path5720" fill="none" stroke="#8D198F" stroke-width="3" stroke-linecap="round" stroke-miterlimit="10" d="
					M88.402,450.773l-1.769-8.74"/>
			</g>
			<g id="M2">
				<path id="path4135" fill="#231F20" d="M130.726,440.359c0-0.32-0.052-0.607-0.159-0.859c-0.105-0.252-0.27-0.492-0.495-0.721
					c-0.224-0.229-0.529-0.474-0.912-0.736l-1.148-0.779c-0.433-0.293-0.773-0.569-1.022-0.827c-0.248-0.258-0.42-0.521-0.516-0.791
					c-0.095-0.27-0.144-0.582-0.144-0.938v-0.252h4.043c0.16,0,0.24-0.068,0.24-0.205v-0.527c0-0.07-0.023-0.124-0.07-0.161
					s-0.103-0.056-0.17-0.056h-4.763c-0.063,0-0.119,0.023-0.167,0.068c-0.048,0.045-0.073,0.098-0.073,0.161v0.973
					c0,0.418,0.064,0.813,0.191,1.186c0.127,0.373,0.327,0.723,0.598,1.049c0.271,0.326,0.622,0.632,1.052,0.917l1.213,0.82
					c0.5,0.336,0.83,0.61,0.99,0.823s0.24,0.497,0.24,0.853c0,0.289-0.055,0.524-0.166,0.706c-0.112,0.182-0.279,0.315-0.501,0.401
					c-0.223,0.086-0.505,0.129-0.844,0.129c-0.27,0-0.542-0.024-0.817-0.073c-0.276-0.049-0.549-0.111-0.82-0.188
					c-0.272-0.076-0.498-0.14-0.677-0.191c-0.074-0.023-0.133-0.02-0.176,0.012s-0.064,0.082-0.064,0.152v0.41
					c0,0.074,0.012,0.128,0.038,0.161c0.026,0.033,0.073,0.063,0.144,0.091c0.207,0.09,0.43,0.174,0.668,0.252
					s0.516,0.146,0.835,0.202c0.319,0.057,0.622,0.085,0.911,0.085c0.406,0,0.772-0.047,1.095-0.141
					c0.325-0.094,0.591-0.227,0.797-0.398c0.208-0.172,0.367-0.393,0.481-0.662C130.669,441.038,130.726,440.722,130.726,440.359
					L130.726,440.359z"/>
				<path id="path5736" fill="none" stroke="#8D198F" stroke-width="3" stroke-miterlimit="10" d="M113.548,437.465
					c0-7.86,6.372-14.232,14.231-14.232c7.861,0,14.234,6.372,14.234,14.232c0,7.86-6.373,14.232-14.234,14.232
					C119.92,451.697,113.548,445.325,113.548,437.465L113.548,437.465z"/>
				<path id="path5740" fill="none" stroke="#8D198F" stroke-width="3" stroke-linecap="round" stroke-miterlimit="10" d="
					M125.323,451.747l6.209-6.186"/>
				<path id="path5744" fill="none" stroke="#8D198F" stroke-width="3" stroke-linecap="round" stroke-miterlimit="10" d="
					M125.323,451.747l6.812,5.757"/>
			</g>
			<g id="M6">
				<path id="path4138" fill="#231F20" d="M154.948,410.975v0.07c0,0.406-0.085,0.733-0.255,0.981
					c-0.17,0.248-0.393,0.423-0.67,0.525s-0.587,0.152-0.931,0.152c-0.27,0-0.583-0.023-0.938-0.068
					c-0.356-0.045-0.647-0.095-0.873-0.149v-1.143c0-0.641,0.069-1.145,0.208-1.512s0.341-0.627,0.606-0.779
					s0.602-0.229,1.008-0.229c0.285,0,0.542,0.039,0.77,0.117c0.229,0.078,0.422,0.198,0.58,0.36s0.28,0.385,0.366,0.668
					S154.948,410.588,154.948,410.975L154.948,410.975z M153.331,417.022c0.738,0,1.459-0.148,2.162-0.445
					c0.07-0.027,0.117-0.056,0.141-0.085s0.035-0.085,0.036-0.167v-0.434c0-0.156-0.08-0.211-0.241-0.164
					c-0.504,0.133-0.887,0.229-1.148,0.29s-0.578,0.091-0.949,0.091c-0.582,0-1.023-0.108-1.324-0.323s-0.497-0.509-0.589-0.884
					s-0.138-0.859-0.138-1.453v-0.135c0.707,0.16,1.311,0.241,1.811,0.241c0.555,0,1.052-0.078,1.491-0.234s0.791-0.42,1.055-0.791
					s0.395-0.865,0.395-1.482v-0.07c0-0.641-0.108-1.188-0.325-1.641s-0.543-0.799-0.978-1.038
					c-0.436-0.238-0.978-0.357-1.627-0.357c-0.453,0-0.858,0.069-1.216,0.208s-0.661,0.346-0.911,0.621s-0.442,0.63-0.577,1.063
					s-0.202,0.938-0.202,1.512v2.104c0,0.848,0.117,1.533,0.352,2.056s0.584,0.907,1.049,1.152S152.639,417.022,153.331,417.022
					L153.331,417.022z"/>
				<path id="path5760" fill="none" stroke="#8D198F" stroke-width="3" stroke-miterlimit="10" d="M159.368,398.913
					c-7.159-3.248-15.595-0.078-18.841,7.08c-3.248,7.158-0.077,15.595,7.081,18.841c7.157,3.248,15.593,0.077,18.841-7.08
					C169.695,410.595,166.526,402.16,159.368,398.913z"/>
				<path id="path5764" fill="none" stroke="#8D198F" stroke-width="3" stroke-linecap="round" stroke-miterlimit="10" d="
					M163.856,422.183l-2.691,8.342"/>
				<path id="path5768" fill="none" stroke="#8D198F" stroke-width="3" stroke-linecap="round" stroke-miterlimit="10" d="
					M163.856,422.183l-8.69-2"/>
			</g>
			<g id="M4">
				<path id="path4147" fill="#231F20" d="M97.058,354.203c0-0.066-0.022-0.118-0.067-0.155c-0.045-0.038-0.099-0.056-0.161-0.056
					h-1.043v-2.138c0-0.066-0.018-0.123-0.055-0.17c-0.037-0.048-0.087-0.07-0.15-0.07h-0.697c-0.137,0-0.205,0.08-0.205,0.24v2.138
					H91.21c-0.176,0-0.302,0.036-0.378,0.106s-0.114,0.189-0.114,0.357v0.457c0,0.168,0.049,0.316,0.146,0.445l3.551,4.98
					c0.082,0.129,0.199,0.193,0.352,0.193h0.703c0.211,0,0.316-0.087,0.316-0.263v-5.367h1.043c0.066,0,0.121-0.02,0.164-0.059
					s0.064-0.092,0.064-0.158V354.203z M94.691,354.901v4.107c0,0.047-0.016,0.07-0.047,0.07h-0.012
					c-0.031,0-0.063-0.023-0.094-0.07l-2.771-3.938c-0.027-0.031-0.041-0.064-0.041-0.099c0-0.047,0.033-0.07,0.1-0.07H94.691z"/>
				<path id="path5784" fill="none" stroke="#8D198F" stroke-width="3" stroke-miterlimit="10" d="M100.279,367.786
					c-6.913,3.739-15.55,1.166-19.29-5.748c-3.739-6.913-1.165-15.55,5.748-19.289c6.915-3.739,15.55-1.166,19.29,5.748
					C109.766,355.411,107.194,364.047,100.279,367.786z"/>
				<path id="path5788" fill="none" stroke="#8D198F" stroke-width="3" stroke-linecap="round" stroke-miterlimit="10" d="
					M100.51,342.878l-8.04,3.494"/>
				<path id="path5792" fill="none" stroke="#8D198F" stroke-width="3" stroke-linecap="round" stroke-miterlimit="10" d="
					M100.51,342.878l-4.243-7.845"/>
			</g>
			<g id="M7">
				<path id="path4144" fill="#231F20" d="M130.991,358.12c0-0.198-0.053-0.408-0.158-0.627l-3.452-7.353
					c-0.063-0.122-0.15-0.182-0.264-0.182h-0.72c-0.121,0-0.181,0.06-0.181,0.182c0,0.039,0.011,0.081,0.034,0.128l3.627,7.536
					c0.008,0.008,0.012,0.025,0.012,0.052c0,0.055-0.03,0.082-0.087,0.082h-4.091c-0.159,0-0.24,0.069-0.24,0.205v0.505
					c0,0.058,0.023,0.111,0.07,0.158s0.104,0.07,0.17,0.07h4.377c0.316,0,0.546-0.07,0.688-0.211S130.991,358.343,130.991,358.12
					L130.991,358.12z"/>
				<path id="path5808" fill="none" stroke="#8D198F" stroke-width="3" stroke-miterlimit="10" d="M126.214,368.75
					c7.775,1.152,15.014-4.216,16.166-11.991c1.152-7.776-4.216-15.014-11.991-16.166c-7.777-1.154-15.012,4.216-16.166,11.991
					C113.07,360.358,118.439,367.597,126.214,368.75z"/>
				<path id="path5812" fill="none" stroke="#8D198F" stroke-width="3" stroke-linecap="round" stroke-miterlimit="10" d="
					M114.773,350.773l-2.649-8.355"/>
				<path id="path5816" fill="none" stroke="#8D198F" stroke-width="3" stroke-linecap="round" stroke-miterlimit="10" d="
					M114.773,350.773l8.238-3.413"/>
			</g>
			<g id="M1">
				<path id="path4132" fill="#231F20" d="M67.952,408.794c0-0.07-0.02-0.128-0.059-0.173s-0.092-0.068-0.158-0.068h-0.656
					c-0.066,0-0.119,0.023-0.158,0.07s-0.059,0.104-0.059,0.17v7.547l-1.547-0.674c-0.063-0.023-0.115-0.035-0.158-0.035
					c-0.07,0-0.105,0.045-0.105,0.135v0.609c0,0.063,0.039,0.115,0.117,0.158l1.811,0.861c0.098,0.051,0.182,0.076,0.252,0.076
					h0.492c0.063,0,0.116-0.02,0.161-0.061s0.067-0.097,0.067-0.167V408.794z"/>
				<path id="path5832" fill="none" stroke="#8D198F" stroke-width="3" stroke-miterlimit="10" d="M75.062,400.864
					c6.632,4.219,8.589,13.016,4.371,19.647c-4.219,6.633-13.016,8.589-19.648,4.372c-6.633-4.219-8.589-13.016-4.37-19.649
					C59.633,398.602,68.431,396.645,75.062,400.864z"/>
				<path id="path5836" fill="none" stroke="#8D198F" stroke-width="3" stroke-linecap="round" stroke-miterlimit="10" d="
					M56.693,403.135l1.887,8.559"/>
				<path id="path5840" fill="none" stroke="#8D198F" stroke-width="3" stroke-linecap="round" stroke-miterlimit="10" d="
					M56.693,403.135l-8.513,2.656"/>
			</g>
			<g id="M3">
				<path id="path4141" fill="#231F20" d="M152.614,374.592c-0.383,0-0.775,0.048-1.177,0.144c-0.402,0.095-0.738,0.198-1.008,0.307
					c-0.07,0.035-0.117,0.069-0.141,0.1c-0.023,0.03-0.035,0.082-0.035,0.152v0.41c0,0.16,0.08,0.216,0.241,0.17
					c0.472-0.125,0.855-0.219,1.145-0.281c0.291-0.063,0.605-0.094,0.941-0.094c0.644,0,1.105,0.131,1.383,0.393
					c0.277,0.262,0.416,0.684,0.416,1.266v0.252c0,0.23-0.044,0.458-0.131,0.682c-0.088,0.224-0.239,0.412-0.452,0.56
					c-0.212,0.148-0.487,0.222-0.823,0.222h-2.18c-0.152,0-0.228,0.073-0.228,0.217v0.416c0,0.067,0.021,0.122,0.064,0.164
					c0.043,0.044,0.098,0.065,0.164,0.065h2.18c0.359,0,0.644,0.07,0.853,0.211c0.209,0.141,0.353,0.32,0.433,0.536
					c0.08,0.216,0.12,0.445,0.12,0.683v0.17c0,0.341-0.056,0.613-0.17,0.817c-0.112,0.205-0.302,0.358-0.565,0.458
					c-0.263,0.099-0.618,0.149-1.063,0.149c-0.336,0-0.655-0.031-0.955-0.094s-0.677-0.154-1.13-0.276
					c-0.161-0.047-0.241,0.011-0.241,0.17v0.405c0,0.073,0.013,0.127,0.038,0.161c0.026,0.033,0.071,0.063,0.138,0.091
					c0.266,0.113,0.598,0.218,0.996,0.313c0.398,0.096,0.795,0.144,1.189,0.144c0.95,0,1.667-0.177,2.154-0.534
					c0.487-0.355,0.729-0.956,0.729-1.805v-0.17c0-0.207-0.023-0.402-0.073-0.583c-0.049-0.182-0.123-0.354-0.22-0.516
					c-0.098-0.163-0.219-0.31-0.364-0.443c-0.144-0.133-0.306-0.244-0.486-0.334c0.391-0.188,0.679-0.45,0.864-0.788
					c0.186-0.337,0.278-0.702,0.278-1.092v-0.252c0-0.871-0.252-1.516-0.758-1.937C154.233,374.802,153.525,374.592,152.614,374.592
					L152.614,374.592z"/>
				<path id="path5856" fill="none" stroke="#8D198F" stroke-width="3" stroke-miterlimit="10" d="M159.259,390.847
					c-6.913,3.739-15.55,1.166-19.29-5.748c-3.739-6.913-1.166-15.55,5.748-19.289c6.915-3.74,15.55-1.166,19.29,5.748
					C168.745,378.472,166.173,387.108,159.259,390.847L159.259,390.847z"/>
				<path id="path5860" fill="none" stroke="#8D198F" stroke-width="3" stroke-linecap="round" stroke-miterlimit="10" d="
					M159.489,365.939l-8.039,3.493"/>
				<path id="path5864" fill="none" stroke="#8D198F" stroke-width="3" stroke-linecap="round" stroke-miterlimit="10" d="
					M159.489,365.939l-4.242-7.845"/>
			</g>
			<g id="M8">
				<path id="path4129" fill="#231F20" d="M71.301,377.1c0-0.839-0.275-1.477-0.823-1.913c-0.549-0.436-1.247-0.653-2.095-0.653
					h-0.117c-0.848,0-1.546,0.217-2.095,0.653c-0.549,0.435-0.823,1.073-0.823,1.913v0.229c0,0.375,0.104,0.742,0.311,1.102
					s0.492,0.641,0.855,0.844c-0.367,0.191-0.65,0.451-0.847,0.779s-0.296,0.692-0.296,1.091v0.111c0,0.539,0.124,0.983,0.372,1.333
					c0.248,0.35,0.589,0.609,1.023,0.777s0.934,0.252,1.5,0.252h0.117c0.566,0,1.066-0.084,1.5-0.252s0.774-0.427,1.022-0.777
					c0.248-0.35,0.372-0.794,0.372-1.333v-0.111c0-0.27-0.044-0.523-0.132-0.763c-0.088-0.237-0.215-0.45-0.381-0.636
					c-0.166-0.185-0.376-0.342-0.63-0.471c0.359-0.199,0.643-0.477,0.852-0.832s0.314-0.727,0.314-1.113V377.1z M70.223,381.143
					v0.111c0,0.473-0.158,0.836-0.475,1.09s-0.771,0.38-1.365,0.38h-0.117c-0.594,0-1.049-0.127-1.365-0.38s-0.475-0.617-0.475-1.09
					v-0.111c0-0.411,0.125-0.753,0.375-1.029c0.25-0.276,0.635-0.413,1.154-0.413H68.7c0.512,0,0.893,0.138,1.145,0.413
					C70.097,380.39,70.223,380.733,70.223,381.143z M70.211,377.1v0.229c0,0.242-0.052,0.479-0.155,0.712
					c-0.104,0.233-0.27,0.423-0.498,0.574c-0.229,0.151-0.514,0.226-0.858,0.226h-0.744c-0.34,0-0.625-0.074-0.855-0.223
					s-0.398-0.34-0.504-0.574s-0.158-0.473-0.158-0.715V377.1c0-0.523,0.159-0.93,0.477-1.222c0.318-0.291,0.769-0.436,1.351-0.436
					h0.117c0.59,0,1.042,0.145,1.356,0.436C70.054,376.169,70.211,376.576,70.211,377.1z"/>
				<path id="path5880" fill="none" stroke="#8D198F" stroke-width="3" stroke-miterlimit="10" d="M66.308,393.407
					c7.774,1.152,15.013-4.216,16.166-11.991c1.152-7.776-4.217-15.014-11.992-16.166c-7.776-1.154-15.012,4.216-16.165,11.991
					C53.165,385.015,58.532,392.254,66.308,393.407z"/>
				<path id="path5884" fill="none" stroke="#8D198F" stroke-width="3" stroke-linecap="round" stroke-miterlimit="10" d="
					M54.867,375.43l-2.649-8.354"/>
				<path id="path5888" fill="none" stroke="#8D198F" stroke-width="3" stroke-linecap="round" stroke-miterlimit="10" d="
					M54.867,375.43l8.238-3.413"/>
			</g>
		</g>
	</g>
</g>
</svg>
