<?xml version="1.0" encoding="utf-8"?>
<!-- Copyright 2014.  All rights reserved.  Used with permission for Baseflight Configurator -->
<!DOCTYPE svg PUBLIC "-//W3C//DTD SVG 1.1 Basic//EN" "http://www.w3.org/Graphics/SVG/1.1/DTD/svg11-basic.dtd" [
	<!ENTITY st0 "fill:none;stroke:#8D198F;stroke-width:3;stroke-miterlimit:10;">
	<!ENTITY st1 "fill:#ED1C24;">
	<!ENTITY st2 "fill:#231F20;">
	<!ENTITY st3 "fill:none;stroke:#ED1C24;stroke-width:5;stroke-miterlimit:10;">
	<!ENTITY st4 "fill:none;stroke:#8D198F;stroke-width:3;stroke-linecap:round;stroke-miterlimit:10;">
]>
<svg version="1.1" baseProfile="basic"
	 id="octox-mix" xmlns:dc="http://purl.org/dc/elements/1.1/" xmlns:cc="http://creativecommons.org/ns#" xmlns:rdf="http://www.w3.org/1999/02/22-rdf-syntax-ns#" xmlns:svg="http://www.w3.org/2000/svg"
	 xmlns="http://www.w3.org/2000/svg" xmlns:xlink="http://www.w3.org/1999/xlink" x="0px" y="0px" width="153.18px"
	 height="156.84px" viewBox="0 0 153.18 156.84" xml:space="preserve">
<g id="M8">
	<path id="path4129" style="&st2;" d="M30.78,102.38c0,1.05-0.34,1.85-1.03,2.39c-0.69,0.54-1.56,0.82-2.62,0.82h-0.15
		c-1.06,0-1.93-0.27-2.62-0.82c-0.69-0.54-1.03-1.34-1.03-2.39v-0.29c0-0.47,0.13-0.93,0.39-1.38s0.62-0.8,1.07-1.05
		c-0.46-0.24-0.81-0.56-1.06-0.97c-0.25-0.41-0.37-0.86-0.37-1.36v-0.14c0-0.67,0.15-1.23,0.46-1.67c0.31-0.44,0.74-0.76,1.28-0.97
		c0.54-0.21,1.17-0.32,1.88-0.32h0.15c0.71,0,1.33,0.11,1.88,0.32c0.54,0.21,0.97,0.53,1.28,0.97c0.31,0.44,0.46,0.99,0.46,1.67
		v0.14c0,0.34-0.05,0.65-0.17,0.95c-0.11,0.3-0.27,0.56-0.48,0.79c-0.21,0.23-0.47,0.43-0.79,0.59c0.45,0.25,0.8,0.6,1.07,1.04
		c0.26,0.44,0.39,0.91,0.39,1.39L30.78,102.38L30.78,102.38z M29.43,97.33v-0.14c0-0.59-0.2-1.04-0.59-1.36
		c-0.4-0.32-0.96-0.48-1.71-0.48h-0.15c-0.74,0-1.31,0.16-1.71,0.48c-0.39,0.32-0.59,0.77-0.59,1.36v0.14
		c0,0.51,0.16,0.94,0.47,1.29c0.31,0.34,0.79,0.52,1.44,0.52h0.93c0.64,0,1.12-0.17,1.43-0.52C29.27,98.27,29.43,97.84,29.43,97.33z
		 M29.41,102.38v-0.29c0-0.3-0.07-0.6-0.19-0.89c-0.13-0.29-0.34-0.53-0.62-0.72c-0.29-0.19-0.64-0.28-1.07-0.28h-0.93
		c-0.42,0-0.78,0.09-1.07,0.28c-0.29,0.19-0.5,0.43-0.63,0.72c-0.13,0.29-0.2,0.59-0.2,0.89v0.29c0,0.65,0.2,1.16,0.6,1.53
		c0.4,0.36,0.96,0.54,1.69,0.54h0.15c0.74,0,1.3-0.18,1.7-0.54S29.41,103.03,29.41,102.38z"/>
	<path id="path5880" style="&st0;" d="M24.54,82c9.72-1.44,18.77,5.27,20.21,14.99c1.44,9.72-5.27,18.77-14.99,20.21
		c-9.72,1.44-18.77-5.27-20.21-14.99C8.11,92.49,14.82,83.44,24.54,82z"/>
	<path id="path5884" style="&st4;" d="M10.23,104.47l-3.31,10.44"/>
	<path id="path5888" style="&st4;" d="M10.23,104.47l10.3,4.27"/>
</g>
<g id="M7">
	<path id="path4144" style="&st2;" d="M105.39,126.1c0,0.25-0.07,0.51-0.2,0.78l-4.32,9.19c-0.08,0.15-0.19,0.23-0.33,0.23h-0.9
		c-0.15,0-0.23-0.08-0.23-0.23c0-0.05,0.01-0.1,0.04-0.16l4.53-9.42c0.01-0.01,0.02-0.03,0.02-0.06c0-0.07-0.04-0.1-0.11-0.1h-5.11
		c-0.2,0-0.3-0.09-0.3-0.26v-0.63c0-0.07,0.03-0.14,0.09-0.2s0.13-0.09,0.21-0.09h5.47c0.4,0,0.68,0.09,0.86,0.26
		C105.3,125.6,105.39,125.83,105.39,126.1L105.39,126.1z"/>
	<path id="path5808" style="&st0;" d="M99.42,112.82c9.72-1.44,18.77,5.27,20.21,14.99c1.44,9.72-5.27,18.77-14.99,20.21
		c-9.72,1.44-18.77-5.27-20.21-14.99C82.99,123.31,89.7,114.26,99.42,112.82z"/>
	<path id="path5812" style="&st4;" d="M85.12,135.29l-3.31,10.44"/>
	<path id="path5816" style="&st4;" d="M85.12,135.29l10.3,4.27"/>
</g>
<g id="M6">
	<path id="path4138" style="&st2;" d="M135.34,60.04v-0.09c0-0.51-0.11-0.92-0.32-1.23c-0.21-0.31-0.49-0.53-0.84-0.66
		c-0.35-0.13-0.73-0.19-1.16-0.19c-0.34,0-0.73,0.03-1.17,0.08c-0.45,0.06-0.81,0.12-1.09,0.19v1.43c0,0.8,0.09,1.43,0.26,1.89
		s0.43,0.78,0.76,0.97s0.75,0.29,1.26,0.29c0.36,0,0.68-0.05,0.96-0.15c0.29-0.1,0.53-0.25,0.73-0.45c0.2-0.2,0.35-0.48,0.46-0.83
		C135.28,60.94,135.34,60.52,135.34,60.04L135.34,60.04z M133.31,52.48c0.92,0,1.82,0.19,2.7,0.56c0.09,0.03,0.15,0.07,0.18,0.11
		s0.04,0.11,0.04,0.21v0.54c0,0.2-0.1,0.26-0.3,0.21c-0.63-0.17-1.11-0.29-1.44-0.36s-0.72-0.11-1.19-0.11
		c-0.73,0-1.28,0.13-1.66,0.4c-0.38,0.27-0.62,0.64-0.74,1.1s-0.17,1.07-0.17,1.82v0.17c0.88-0.2,1.64-0.3,2.26-0.3
		c0.69,0,1.32,0.1,1.86,0.29c0.55,0.2,0.99,0.52,1.32,0.99s0.49,1.08,0.49,1.85v0.09c0,0.8-0.13,1.49-0.41,2.05
		c-0.27,0.57-0.68,1-1.22,1.3c-0.54,0.3-1.22,0.45-2.03,0.45c-0.57,0-1.07-0.09-1.52-0.26s-0.83-0.43-1.14-0.78
		s-0.55-0.79-0.72-1.33c-0.17-0.54-0.25-1.17-0.25-1.89v-2.63c0-1.06,0.15-1.92,0.44-2.57c0.29-0.65,0.73-1.13,1.31-1.44
		S132.45,52.48,133.31,52.48L133.31,52.48z"/>
	<path id="path5760" style="&st0;" d="M140.86,75.11c-8.95,4.06-19.49,0.1-23.55-8.85c-4.06-8.95-0.1-19.49,8.85-23.55
		c8.95-4.06,19.49-0.1,23.55,8.85C153.77,60.51,149.81,71.05,140.86,75.11z"/>
	<path id="path5764" style="&st4;" d="M146.47,46.03l-3.36-10.43"/>
	<path id="path5768" style="&st4;" d="M146.47,46.03l-10.86,2.5"/>
</g>
<g id="M5">
	<path id="path4119" style="&st2;" d="M57.47,32.49c-0.48,0-0.98-0.06-1.48-0.18c-0.5-0.12-0.92-0.25-1.26-0.38
		c-0.09-0.05-0.15-0.09-0.18-0.13c-0.03-0.04-0.04-0.1-0.04-0.19V31.1c0-0.21,0.1-0.28,0.3-0.21c1.04,0.31,1.92,0.47,2.63,0.47
		c0.84,0,1.46-0.2,1.85-0.59c0.39-0.4,0.59-0.98,0.59-1.77v-0.23c0-0.74-0.24-1.26-0.72-1.56c-0.48-0.3-1.29-0.45-2.41-0.45h-1.8
		c-0.07,0-0.13-0.03-0.17-0.08c-0.05-0.06-0.07-0.11-0.07-0.17v-0.02l0.42-5c0.01-0.08,0.04-0.14,0.1-0.19
		c0.06-0.05,0.12-0.07,0.2-0.07h5.16c0.08,0,0.15,0.02,0.21,0.07c0.06,0.05,0.09,0.11,0.09,0.19v0.66c0,0.16-0.1,0.24-0.3,0.24
		h-4.31l-0.24,3.24h0.7c0.98,0,1.8,0.1,2.46,0.29c0.66,0.19,1.17,0.52,1.53,0.99c0.36,0.46,0.54,1.08,0.54,1.85V29
		c0,1.11-0.33,1.97-0.99,2.58C59.61,32.19,58.68,32.49,57.47,32.49z"/>
	<path id="path5712" style="&st0;" d="M76.33,27.41c0,9.83-7.96,17.79-17.79,17.79c-9.83,0-17.79-7.96-17.79-17.79
		c0-9.82,7.96-17.79,17.79-17.79C68.36,9.62,76.33,17.59,76.33,27.41z"/>
	<path id="path5716" style="&st4;" d="M52.15,10.29L41.27,9.04"/>
	<path id="path5720" style="&st4;" d="M52.15,10.29l-2.21,10.93"/>
</g>
<g id="M4">
	<path id="path4147" style="&st2;" d="M62.97,131c0,0.08-0.03,0.15-0.08,0.19c-0.06,0.05-0.12,0.07-0.2,0.07h-1.3v2.67
		c0,0.08-0.02,0.15-0.07,0.21c-0.05,0.06-0.11,0.09-0.19,0.09h-0.87c-0.17,0-0.26-0.1-0.26-0.3v-2.67h-4.34
		c-0.22,0-0.38-0.04-0.47-0.13c-0.1-0.09-0.14-0.24-0.14-0.45v-0.57c0-0.21,0.06-0.39,0.18-0.56l4.44-6.23
		c0.1-0.16,0.25-0.24,0.44-0.24h0.88c0.26,0,0.4,0.11,0.4,0.33v6.71h1.3c0.08,0,0.15,0.03,0.21,0.07c0.05,0.05,0.08,0.12,0.08,0.2
		L62.97,131L62.97,131z M60.01,130.13V125c0-0.06-0.02-0.09-0.06-0.09h-0.01c-0.04,0-0.08,0.03-0.12,0.09l-3.46,4.92
		c-0.03,0.04-0.05,0.08-0.05,0.12c0,0.06,0.04,0.09,0.13,0.09H60.01z"/>
	<path id="path5784" style="&st0;" d="M67,114.02c-8.64-4.67-19.44-1.46-24.11,7.18c-4.67,8.64-1.46,19.44,7.18,24.11
		c8.64,4.67,19.44,1.46,24.11-7.18C78.86,129.49,75.64,118.7,67,114.02z"/>
	<path id="path5788" style="&st4;" d="M67.29,145.16l-10.05-4.37"/>
	<path id="path5792" style="&st4;" d="M67.29,145.16l-5.3,9.81"/>
</g>
<g id="M3">
	<path id="path4141" style="&st2;" d="M132.42,105.51c-0.48,0-0.97-0.06-1.47-0.18c-0.5-0.12-0.92-0.25-1.26-0.38
		c-0.09-0.04-0.15-0.09-0.18-0.13c-0.03-0.04-0.04-0.1-0.04-0.19v-0.51c0-0.2,0.1-0.27,0.3-0.21c0.59,0.16,1.07,0.27,1.43,0.35
		s0.76,0.12,1.18,0.12c0.8,0,1.38-0.16,1.73-0.49c0.35-0.33,0.52-0.85,0.52-1.58v-0.31c0-0.29-0.06-0.57-0.16-0.85
		c-0.11-0.28-0.3-0.51-0.56-0.7c-0.27-0.19-0.61-0.28-1.03-0.28h-2.72c-0.19,0-0.29-0.09-0.29-0.27v-0.52
		c0-0.08,0.03-0.15,0.08-0.21c0.05-0.06,0.12-0.08,0.21-0.08h2.72c0.45,0,0.8-0.09,1.07-0.26c0.26-0.18,0.44-0.4,0.54-0.67
		c0.1-0.27,0.15-0.56,0.15-0.85v-0.21c0-0.43-0.07-0.77-0.21-1.02c-0.14-0.26-0.38-0.45-0.71-0.57c-0.33-0.12-0.77-0.19-1.33-0.19
		c-0.42,0-0.82,0.04-1.19,0.12c-0.38,0.08-0.85,0.19-1.41,0.34c-0.2,0.06-0.3-0.01-0.3-0.21v-0.51c0-0.09,0.02-0.16,0.05-0.2
		c0.03-0.04,0.09-0.08,0.17-0.11c0.33-0.14,0.75-0.27,1.25-0.39c0.5-0.12,0.99-0.18,1.49-0.18c1.19,0,2.08,0.22,2.69,0.67
		c0.61,0.44,0.91,1.2,0.91,2.26v0.21c0,0.26-0.03,0.5-0.09,0.73c-0.06,0.23-0.15,0.44-0.28,0.64s-0.27,0.39-0.46,0.55
		c-0.18,0.17-0.38,0.3-0.61,0.42c0.49,0.24,0.85,0.56,1.08,0.99c0.23,0.42,0.35,0.88,0.35,1.37v0.32c0,1.09-0.31,1.89-0.95,2.42
		C134.44,105.25,133.56,105.51,132.42,105.51L132.42,105.51z"/>
	<path id="path5856" style="&st0;" d="M140.72,85.2c-8.64-4.67-19.44-1.46-24.11,7.18c-4.67,8.64-1.46,19.44,7.18,24.11
		c8.64,4.67,19.44,1.46,24.11-7.18C152.58,100.67,149.37,89.87,140.72,85.2L140.72,85.2z"/>
	<path id="path5860" style="&st4;" d="M141.01,116.33l-10.05-4.37"/>
	<path id="path5864" style="&st4;" d="M141.01,116.33l-5.3,9.81"/>
</g>
<g id="M2">
	<path id="path4135" style="&st2;" d="M105.06,23.31c0,0.4-0.07,0.76-0.2,1.07c-0.13,0.31-0.34,0.62-0.62,0.9
		c-0.28,0.29-0.66,0.59-1.14,0.92l-1.44,0.97c-0.54,0.37-0.97,0.71-1.28,1.03c-0.31,0.32-0.53,0.65-0.65,0.99
		c-0.12,0.34-0.18,0.73-0.18,1.17v0.31h5.05c0.2,0,0.3,0.08,0.3,0.26v0.66c0,0.09-0.03,0.15-0.09,0.2s-0.13,0.07-0.21,0.07h-5.95
		c-0.08,0-0.15-0.03-0.21-0.08c-0.06-0.06-0.09-0.12-0.09-0.2v-1.22c0-0.52,0.08-1.02,0.24-1.48c0.16-0.47,0.41-0.9,0.75-1.31
		c0.34-0.41,0.78-0.79,1.32-1.15l1.52-1.02c0.63-0.42,1.04-0.76,1.24-1.03c0.2-0.27,0.3-0.62,0.3-1.07c0-0.36-0.07-0.65-0.21-0.88
		c-0.14-0.23-0.35-0.39-0.63-0.5c-0.28-0.11-0.63-0.16-1.05-0.16c-0.34,0-0.68,0.03-1.02,0.09c-0.34,0.06-0.69,0.14-1.03,0.23
		c-0.34,0.1-0.62,0.18-0.85,0.24c-0.09,0.03-0.17,0.03-0.22-0.01s-0.08-0.1-0.08-0.19v-0.51c0-0.09,0.01-0.16,0.05-0.2
		c0.03-0.04,0.09-0.08,0.18-0.11c0.26-0.11,0.54-0.22,0.83-0.31c0.3-0.1,0.64-0.18,1.04-0.25c0.4-0.07,0.78-0.11,1.14-0.11
		c0.51,0,0.96,0.06,1.37,0.18c0.41,0.12,0.74,0.28,1,0.5c0.26,0.21,0.46,0.49,0.6,0.83C104.99,22.46,105.06,22.85,105.06,23.31
		L105.06,23.31z"/>
	<path id="path5736" style="&st0;" d="M83.59,26.92c0,9.82,7.96,17.79,17.79,17.79c9.83,0,17.79-7.97,17.79-17.79
		c0-9.83-7.97-17.79-17.79-17.79C91.55,9.13,83.59,17.1,83.59,26.92L83.59,26.92z"/>
	<path id="path5740" style="&st4;" d="M98.3,9.07l7.76,7.73"/>
	<path id="path5744" style="&st4;" d="M98.3,9.07l8.51-7.2"/>
</g>
<g id="M1">
	<path id="path4132" style="&st2;" d="M26.59,62.76c0,0.09-0.02,0.16-0.07,0.22c-0.05,0.06-0.12,0.08-0.2,0.08H25.5
		c-0.08,0-0.15-0.03-0.2-0.09c-0.05-0.06-0.07-0.13-0.07-0.21v-9.43l-1.93,0.84c-0.08,0.03-0.14,0.04-0.2,0.04
		c-0.09,0-0.13-0.06-0.13-0.17v-0.76c0-0.08,0.05-0.14,0.15-0.2l2.26-1.08c0.12-0.06,0.23-0.1,0.32-0.1h0.61
		c0.08,0,0.15,0.02,0.2,0.08c0.06,0.05,0.08,0.12,0.08,0.21V62.76L26.59,62.76z"/>
	<path id="path5832" style="&st0;" d="M35.48,72.67c8.29-5.27,10.74-16.27,5.46-24.56c-5.27-8.29-16.27-10.74-24.56-5.46
		c-8.29,5.27-10.74,16.27-5.46,24.56C16.19,75.5,27.19,77.95,35.48,72.67z"/>
	<path id="path5836" style="&st4;" d="M12.52,69.84l2.36-10.7"/>
	<path id="path5840" style="&st4;" d="M12.52,69.84L1.88,66.52"/>
</g>
<g id="FrontArrow">
	<path id="path5690" style="&st3;" d="M80.46,89.9V77.53"/>
	<path id="path5694" style="&st1;" d="M89.76,80.26l-9.35-16.19l-9.35,16.19H89.76z"/>
</g>
</svg>
