<?xml version="1.0" encoding="utf-8"?>
<!-- Copyright 2014.  All rights reserved.  Used with permission for Baseflight Configurator -->
<!DOCTYPE svg PUBLIC "-//W3C//DTD SVG 1.1 Basic//EN" "http://www.w3.org/Graphics/SVG/1.1/DTD/svg11-basic.dtd" [
	<!ENTITY st0 "fill:none;stroke:#8D198F;stroke-width:3;stroke-miterlimit:10;">
	<!ENTITY st1 "fill:#ED1C24;">
	<!ENTITY st2 "fill:#231F20;">
	<!ENTITY st3 "fill:none;stroke:#ED1C24;stroke-width:5;stroke-miterlimit:10;">
	<!ENTITY st4 "fill:none;stroke:#8D198F;stroke-width:3;stroke-linecap:round;stroke-miterlimit:10;">
]>
<svg version="1.1" baseProfile="basic"
	 id="quadp-mix" xmlns:dc="http://purl.org/dc/elements/1.1/" xmlns:cc="http://creativecommons.org/ns#" xmlns:rdf="http://www.w3.org/1999/02/22-rdf-syntax-ns#" xmlns:svg="http://www.w3.org/2000/svg"
	 xmlns="http://www.w3.org/2000/svg" xmlns:xlink="http://www.w3.org/1999/xlink" x="0px" y="0px" width="114.93px"
	 height="124.07px" viewBox="4.37 2.5 114.93 124.07" xml:space="preserve">
<g id="M4">
	<path id="path3908" style="&st2;" d="M64.72,23.41c0,0.08-0.03,0.15-0.08,0.19c-0.06,0.05-0.12,0.07-0.2,0.07h-1.3v2.67
		c0,0.08-0.02,0.15-0.07,0.21c-0.05,0.06-0.11,0.09-0.19,0.09H62c-0.17,0-0.26-0.1-0.26-0.3v-2.67h-4.34
		c-0.22,0-0.38-0.04-0.47-0.13c-0.09-0.09-0.14-0.24-0.14-0.45v-0.57c0-0.21,0.06-0.4,0.18-0.56l4.44-6.22
		c0.1-0.16,0.25-0.24,0.44-0.24h0.88c0.26,0,0.4,0.11,0.4,0.33v6.71h1.3c0.08,0,0.15,0.03,0.21,0.07s0.08,0.12,0.08,0.2L64.72,23.41
		L64.72,23.41z M61.76,22.54v-5.13c0-0.06-0.02-0.09-0.06-0.09h-0.02c-0.04,0-0.08,0.03-0.12,0.09l-3.46,4.92
		c-0.03,0.04-0.05,0.08-0.05,0.13c0,0.06,0.04,0.09,0.13,0.09H61.76z"/>
	<path id="path5342" style="&st0;" d="M79.68,22.37c0,9.82-7.96,17.79-17.79,17.79c-9.83,0-17.79-7.97-17.79-17.79
		c0-9.83,7.96-17.79,17.79-17.79C71.72,4.58,79.68,12.55,79.68,22.37z"/>
	<path id="path5346" style="&st4;" d="M55.51,5.24L44.63,4"/>
	<path id="path5350" style="&st4;" d="M55.51,5.24L53.3,16.17"/>
</g>
<g id="M3">
	<path id="path3906" style="&st2;" d="M26.56,70.49c-0.48,0-0.97-0.06-1.47-0.18c-0.5-0.12-0.92-0.25-1.26-0.38
		c-0.09-0.04-0.15-0.08-0.18-0.12c-0.03-0.04-0.04-0.1-0.04-0.19V69.1c0-0.2,0.1-0.27,0.3-0.21c0.59,0.16,1.07,0.27,1.43,0.35
		c0.36,0.08,0.75,0.12,1.17,0.12c0.81,0,1.38-0.16,1.73-0.49c0.35-0.33,0.52-0.86,0.52-1.58v-0.31c0-0.29-0.06-0.57-0.17-0.85
		c-0.11-0.28-0.3-0.51-0.56-0.7c-0.27-0.19-0.61-0.28-1.03-0.28h-2.73c-0.19,0-0.29-0.09-0.29-0.27v-0.52
		c0-0.08,0.03-0.15,0.08-0.21c0.05-0.05,0.12-0.08,0.2-0.08h2.73c0.45,0,0.8-0.09,1.06-0.26c0.26-0.18,0.44-0.4,0.54-0.67
		c0.1-0.27,0.15-0.55,0.15-0.85v-0.21c0-0.42-0.07-0.76-0.21-1.02c-0.14-0.26-0.38-0.45-0.71-0.57c-0.33-0.13-0.77-0.19-1.33-0.19
		c-0.42,0-0.82,0.04-1.19,0.12c-0.38,0.08-0.85,0.19-1.41,0.34c-0.2,0.06-0.3-0.01-0.3-0.21v-0.5c0-0.09,0.01-0.16,0.05-0.2
		c0.03-0.04,0.09-0.08,0.17-0.11c0.33-0.14,0.75-0.27,1.25-0.39c0.5-0.12,0.99-0.18,1.49-0.18c1.19,0,2.08,0.22,2.69,0.67
		c0.61,0.44,0.91,1.2,0.91,2.26v0.21c0,0.26-0.03,0.5-0.09,0.73s-0.15,0.44-0.27,0.65c-0.12,0.2-0.27,0.39-0.45,0.55
		c-0.18,0.17-0.38,0.3-0.61,0.42c0.49,0.24,0.85,0.56,1.08,0.99c0.23,0.42,0.35,0.88,0.35,1.37v0.31c0,1.09-0.32,1.9-0.95,2.42
		C28.58,70.22,27.7,70.49,26.56,70.49L26.56,70.49z"/>
	<path id="path5354" style="&st0;" d="M44.27,64.99c0-9.82-7.96-17.79-17.79-17.79c-9.83,0-17.79,7.97-17.79,17.79
		c0,9.83,7.96,17.79,17.79,17.79C36.31,82.78,44.27,74.82,44.27,64.99z"/>
	<path id="path5358" style="&st4;" d="M17.02,80.06l-0.94-10.92"/>
	<path id="path5362" style="&st4;" d="M17.02,80.06H5.87"/>
</g>
<g id="M1">
	<path id="path3902" style="&st2;" d="M63.45,107.78c0,0.09-0.03,0.16-0.07,0.22c-0.05,0.06-0.12,0.08-0.2,0.08h-0.82
		c-0.08,0-0.15-0.03-0.2-0.09c-0.05-0.06-0.07-0.13-0.07-0.21v-9.43l-1.93,0.84c-0.08,0.03-0.14,0.04-0.2,0.04
		c-0.09,0-0.13-0.06-0.13-0.17v-0.76c0-0.08,0.05-0.14,0.15-0.2l2.26-1.08c0.12-0.06,0.23-0.1,0.32-0.1h0.61
		c0.08,0,0.15,0.03,0.2,0.08c0.06,0.05,0.08,0.12,0.08,0.21L63.45,107.78L63.45,107.78z"/>
	<path id="path5366" style="&st0;" d="M44.05,102.82c0-9.82,7.96-17.79,17.79-17.79c9.83,0,17.79,7.97,17.79,17.79
		c0,9.83-7.96,17.79-17.79,17.79C52.02,120.61,44.05,112.64,44.05,102.82z"/>
	<path id="path5370" style="&st4;" d="M64.18,120.26l9.84,4.81"/>
	<path id="path5374" style="&st4;" d="M64.18,120.26l5.73-9.56"/>
</g>
<g id="M2">
	<path id="path3904" style="&st2;" d="M103.58,62.14c0,0.4-0.07,0.76-0.2,1.07c-0.13,0.31-0.34,0.61-0.62,0.9
		c-0.28,0.29-0.66,0.59-1.14,0.92L100.19,66c-0.54,0.37-0.97,0.71-1.28,1.03c-0.31,0.32-0.53,0.65-0.65,0.99
		c-0.12,0.34-0.18,0.73-0.18,1.17v0.32h5.05c0.2,0,0.3,0.09,0.3,0.26v0.66c0,0.09-0.03,0.15-0.09,0.2s-0.13,0.07-0.21,0.07h-5.95
		c-0.08,0-0.15-0.03-0.21-0.08c-0.06-0.06-0.09-0.12-0.09-0.2V69.2c0-0.52,0.08-1.02,0.24-1.48c0.16-0.47,0.41-0.9,0.75-1.31
		c0.34-0.41,0.78-0.79,1.32-1.15l1.52-1.02c0.63-0.42,1.04-0.76,1.24-1.03c0.2-0.26,0.3-0.62,0.3-1.06c0-0.36-0.07-0.66-0.21-0.88
		c-0.14-0.23-0.35-0.39-0.63-0.5c-0.28-0.11-0.63-0.16-1.05-0.16c-0.34,0-0.68,0.03-1.02,0.09c-0.34,0.06-0.69,0.14-1.03,0.24
		c-0.34,0.09-0.62,0.17-0.85,0.24c-0.09,0.03-0.17,0.03-0.22-0.01c-0.05-0.04-0.08-0.1-0.08-0.19v-0.51c0-0.09,0.02-0.16,0.05-0.2
		c0.03-0.04,0.09-0.08,0.18-0.11c0.26-0.11,0.54-0.22,0.83-0.32c0.3-0.1,0.64-0.18,1.04-0.25c0.4-0.07,0.78-0.11,1.14-0.11
		c0.51,0,0.97,0.06,1.37,0.18c0.41,0.12,0.74,0.28,1,0.5s0.46,0.49,0.6,0.83C103.51,61.29,103.58,61.68,103.58,62.14L103.58,62.14z"
		/>
	<path id="path5378" style="&st0;" d="M82.23,65.6c0,9.83,7.97,17.79,17.79,17.79c9.83,0,17.79-7.96,17.79-17.79
		c0-9.82-7.97-17.79-17.79-17.79C90.19,47.81,82.23,55.78,82.23,65.6z"/>
	<path id="path5382" style="&st4;" d="M96.94,47.75l7.76,7.73"/>
	<path id="path5386" style="&st4;" d="M96.94,47.75l8.52-7.2"/>
</g>
<g id="FrontArrow">
	<path id="path5112" style="&st3;" d="M61.89,74.11V61.73"/>
	<path id="path5116" style="&st1;" d="M71.19,64.46l-9.35-16.19l-9.35,16.19H71.19z"/>
</g>
</svg>
