<?xml version="1.0" encoding="utf-8"?>
<!-- Copyright 2014.  All rights reserved.  Used with permission for Baseflight Configurator -->
<svg version="1.2" baseProfile="tiny"
	 id="svg3581" xmlns:dc="http://purl.org/dc/elements/1.1/" xmlns:cc="http://creativecommons.org/ns#" xmlns:rdf="http://www.w3.org/1999/02/22-rdf-syntax-ns#" xmlns:svg="http://www.w3.org/2000/svg"
	 xmlns="http://www.w3.org/2000/svg" xmlns:xlink="http://www.w3.org/1999/xlink" x="0px" y="0px" width="123.684px"
	 height="130.941px" viewBox="0 0 123.684 130.941" xml:space="preserve">
<g id="layer1" transform="translate(-313.15844,-448.10506)">
	<g id="QuadCopter-Plus" transform="matrix(1.25,0,0,-1.25,104.48314,1403.5657)">
		<g id="MotorOrderGraphic">
			<g id="FrontArrow">
				<path id="path5112" fill="none" stroke="#ED1C24" stroke-width="5" stroke-miterlimit="10" d="M216.456,705.083v9.901"/>
				<path id="path5116" fill="#ED1C24" d="M223.893,712.797l-7.478,12.953l-7.48-12.953H223.893z"/>
			</g>
			<g id="M4">
				<path id="path3908" fill="#231F20" d="M217.965,747.336c0-0.066-0.023-0.118-0.067-0.155c-0.045-0.037-0.098-0.056-0.161-0.056
					h-1.043v-2.139c0-0.066-0.019-0.123-0.056-0.17c-0.037-0.047-0.087-0.07-0.149-0.07h-0.697c-0.137,0-0.205,0.08-0.205,0.24
					v2.139h-3.469c-0.176,0-0.302,0.036-0.378,0.105c-0.076,0.07-0.114,0.189-0.114,0.357v0.457c0,0.168,0.049,0.316,0.147,0.445
					l3.551,4.98c0.082,0.129,0.199,0.193,0.352,0.193h0.703c0.211,0,0.316-0.088,0.316-0.264v-5.367h1.043
					c0.066,0,0.121-0.02,0.164-0.059s0.064-0.092,0.064-0.158V747.336z M215.598,748.032v4.108c0,0.047-0.016,0.07-0.047,0.07
					h-0.012c-0.031,0-0.063-0.024-0.094-0.07l-2.771-3.938c-0.027-0.032-0.041-0.065-0.041-0.1c0-0.047,0.034-0.07,0.1-0.07H215.598
					z"/>
				<path id="path5342" fill="none" stroke="#8D198F" stroke-width="3" stroke-miterlimit="10" d="M229.939,748.172
					c0-7.86-6.372-14.232-14.232-14.232c-7.861,0-14.233,6.372-14.233,14.232c0,7.86,6.372,14.232,14.233,14.232
					C223.567,762.403,229.939,756.031,229.939,748.172z"/>
				<path id="path5346" fill="none" stroke="#8D198F" stroke-width="3" stroke-linecap="round" stroke-miterlimit="10" d="
					M210.601,761.872l-8.708,0.996"/>
				<path id="path5350" fill="none" stroke="#8D198F" stroke-width="3" stroke-linecap="round" stroke-miterlimit="10" d="
					M210.601,761.872l-1.769-8.74"/>
			</g>
			<g id="M3">
				<path id="path3906" fill="#231F20" d="M184.987,707.979c-0.383,0-0.775,0.048-1.177,0.144c-0.402,0.095-0.738,0.198-1.008,0.308
					c-0.07,0.034-0.117,0.068-0.141,0.099s-0.035,0.082-0.035,0.152v0.41c0,0.16,0.08,0.216,0.24,0.17
					c0.473-0.125,0.855-0.219,1.146-0.281c0.291-0.063,0.604-0.093,0.94-0.093c0.645,0,1.105,0.13,1.383,0.392
					s0.416,0.684,0.416,1.266v0.252c0,0.23-0.044,0.458-0.132,0.683c-0.087,0.224-0.238,0.411-0.451,0.559
					c-0.213,0.148-0.488,0.223-0.823,0.223h-2.18c-0.152,0-0.229,0.072-0.229,0.216v0.416c0,0.066,0.022,0.121,0.065,0.164
					s0.098,0.064,0.164,0.064h2.18c0.359,0,0.644,0.07,0.852,0.211c0.209,0.141,0.354,0.319,0.434,0.536
					c0.08,0.217,0.12,0.444,0.12,0.683v0.17c0,0.34-0.057,0.612-0.17,0.817s-0.302,0.357-0.565,0.457
					c-0.264,0.1-0.619,0.15-1.064,0.15c-0.336,0-0.654-0.032-0.955-0.094c-0.301-0.063-0.678-0.154-1.131-0.275
					c-0.16-0.047-0.24,0.01-0.24,0.17v0.404c0,0.074,0.012,0.128,0.038,0.161c0.025,0.033,0.071,0.064,0.137,0.091
					c0.266,0.113,0.598,0.218,0.996,0.313s0.795,0.144,1.189,0.144c0.949,0,1.667-0.178,2.154-0.533
					c0.486-0.355,0.729-0.957,0.729-1.805v-0.17c0-0.207-0.024-0.401-0.073-0.583c-0.049-0.182-0.123-0.354-0.22-0.516
					s-0.219-0.309-0.363-0.442s-0.306-0.244-0.486-0.334c0.391-0.188,0.679-0.45,0.864-0.788c0.186-0.338,0.278-0.702,0.278-1.093
					v-0.252c0-0.872-0.252-1.517-0.759-1.938C186.606,708.19,185.897,707.979,184.987,707.979L184.987,707.979z"/>
				<path id="path5354" fill="none" stroke="#8D198F" stroke-width="3" stroke-miterlimit="10" d="M199.157,712.376
					c0,7.859-6.372,14.232-14.232,14.232c-7.861,0-14.233-6.373-14.233-14.232c0-7.861,6.372-14.232,14.233-14.232
					C192.785,698.144,199.157,704.515,199.157,712.376z"/>
				<path id="path5358" fill="none" stroke="#8D198F" stroke-width="3" stroke-linecap="round" stroke-miterlimit="10" d="
					M177.358,700.324l-0.751,8.733"/>
				<path id="path5362" fill="none" stroke="#8D198F" stroke-width="3" stroke-linecap="round" stroke-miterlimit="10" d="
					M177.358,700.324h-8.918"/>
			</g>
			<g id="M1">
				<path id="path3902" fill="#231F20" d="M216.991,674.942c0-0.07-0.02-0.128-0.059-0.173c-0.039-0.045-0.092-0.067-0.159-0.067
					h-0.656c-0.066,0-0.119,0.023-0.158,0.07s-0.059,0.104-0.059,0.17v7.547l-1.547-0.673c-0.063-0.023-0.116-0.036-0.159-0.036
					c-0.07,0-0.105,0.045-0.105,0.135v0.609c0,0.063,0.039,0.115,0.117,0.159l1.811,0.861c0.098,0.051,0.181,0.077,0.252,0.077
					h0.492c0.063,0,0.116-0.021,0.161-0.063c0.045-0.041,0.068-0.096,0.068-0.166V674.942z"/>
				<path id="path5366" fill="none" stroke="#8D198F" stroke-width="3" stroke-miterlimit="10" d="M201.474,678.915
					c0,7.859,6.372,14.232,14.232,14.232c7.861,0,14.233-6.373,14.233-14.232c0-7.861-6.372-14.231-14.233-14.231
					C207.846,664.684,201.474,671.054,201.474,678.915z"/>
				<path id="path5370" fill="none" stroke="#8D198F" stroke-width="3" stroke-linecap="round" stroke-miterlimit="10" d="
					M217.578,664.961l7.876-3.845"/>
				<path id="path5374" fill="none" stroke="#8D198F" stroke-width="3" stroke-linecap="round" stroke-miterlimit="10" d="
					M217.578,664.961l4.584,7.65"/>
			</g>
			<g id="M2">
				<path id="path3904" fill="#231F20" d="M253.005,714.659c0-0.32-0.052-0.606-0.158-0.858s-0.271-0.492-0.495-0.721
					c-0.225-0.229-0.528-0.474-0.911-0.736l-1.148-0.779c-0.434-0.293-0.775-0.569-1.023-0.827c-0.248-0.258-0.42-0.521-0.516-0.791
					c-0.096-0.27-0.144-0.582-0.144-0.938v-0.252h4.043c0.16,0,0.241-0.069,0.241-0.205v-0.527c0-0.07-0.023-0.123-0.07-0.161
					c-0.047-0.038-0.104-0.056-0.17-0.056h-4.763c-0.063,0-0.119,0.023-0.167,0.068c-0.049,0.044-0.073,0.098-0.073,0.161v0.973
					c0,0.418,0.063,0.814,0.191,1.187c0.127,0.373,0.326,0.723,0.598,1.049c0.271,0.326,0.622,0.631,1.052,0.916l1.213,0.82
					c0.5,0.336,0.83,0.611,0.99,0.823s0.241,0.497,0.241,0.852c0,0.289-0.056,0.525-0.167,0.706
					c-0.112,0.182-0.278,0.315-0.501,0.401s-0.504,0.129-0.844,0.129c-0.27,0-0.542-0.024-0.818-0.073
					c-0.275-0.049-0.548-0.111-0.82-0.188c-0.271-0.076-0.497-0.14-0.677-0.191c-0.074-0.023-0.133-0.02-0.176,0.012
					s-0.064,0.082-0.064,0.152v0.41c0,0.074,0.013,0.128,0.038,0.161c0.026,0.033,0.073,0.063,0.144,0.091
					c0.207,0.09,0.43,0.174,0.668,0.252s0.516,0.146,0.835,0.202c0.318,0.057,0.622,0.085,0.911,0.085
					c0.406,0,0.772-0.047,1.096-0.141s0.59-0.227,0.797-0.398s0.367-0.393,0.48-0.662S253.005,715.022,253.005,714.659
					L253.005,714.659z"/>
				<path id="path5378" fill="none" stroke="#8D198F" stroke-width="3" stroke-miterlimit="10" d="M235.922,711.888
					c0-7.861,6.372-14.232,14.232-14.232c7.861,0,14.233,6.371,14.233,14.232c0,7.859-6.372,14.232-14.234,14.232
					C242.294,726.12,235.922,719.747,235.922,711.888z"/>
				<path id="path5382" fill="none" stroke="#8D198F" stroke-width="3" stroke-linecap="round" stroke-miterlimit="10" d="
					M247.696,726.169l6.211-6.186"/>
				<path id="path5386" fill="none" stroke="#8D198F" stroke-width="3" stroke-linecap="round" stroke-miterlimit="10" d="
					M247.696,726.169l6.813,5.756"/>
			</g>
		</g>
	</g>
</g>
</svg>
