<?xml version="1.0" encoding="utf-8"?>
<!-- Copyright 2014.  All rights reserved.  Used with permission for Baseflight Configurator -->
<svg version="1.2" baseProfile="tiny"
	 id="svg3387" xmlns:dc="http://purl.org/dc/elements/1.1/" xmlns:cc="http://creativecommons.org/ns#" xmlns:rdf="http://www.w3.org/1999/02/22-rdf-syntax-ns#" xmlns:svg="http://www.w3.org/2000/svg"
	 xmlns="http://www.w3.org/2000/svg" xmlns:xlink="http://www.w3.org/1999/xlink" x="0px" y="0px" width="89.125px"
	 height="96.596px" viewBox="0 0 89.125 96.596" xml:space="preserve">
<g id="layer1" transform="translate(-331.63693,-454.24951)">
	<g id="QuadCopter-X" transform="matrix(1.25,0,0,-1.25,260.80888,1395.1084)">
		<g id="MotorOrderGraphic">
			<g id="FrontArrow">
				<path id="path5094" fill="none" stroke="#ED1C24" stroke-width="5" stroke-miterlimit="10" d="M93.897,704.08v9.902"/>
				<path id="path5098" fill="#ED1C24" d="M101.335,711.793l-7.478,12.953l-7.48-12.953H101.335z"/>
			</g>
			<g id="M3">
				<path id="path3488" fill="#231F20" d="M74.815,690.309c-0.383,0-0.775,0.048-1.178,0.144c-0.402,0.096-0.738,0.198-1.008,0.308
					c-0.07,0.035-0.117,0.068-0.141,0.099s-0.035,0.082-0.035,0.152v0.41c0,0.16,0.08,0.217,0.24,0.17
					c0.473-0.125,0.854-0.219,1.145-0.281s0.605-0.094,0.941-0.094c0.645,0,1.105,0.13,1.383,0.392s0.416,0.684,0.416,1.266v0.252
					c0,0.23-0.044,0.458-0.132,0.683c-0.088,0.224-0.238,0.411-0.451,0.559s-0.487,0.223-0.823,0.223h-2.18
					c-0.152,0-0.229,0.072-0.229,0.216v0.416c0,0.066,0.021,0.121,0.064,0.164s0.098,0.064,0.164,0.064h2.18
					c0.359,0,0.643,0.07,0.852,0.211s0.354,0.32,0.434,0.537c0.08,0.216,0.12,0.444,0.12,0.682v0.17c0,0.34-0.057,0.613-0.17,0.817
					c-0.113,0.205-0.302,0.358-0.566,0.457c-0.264,0.1-0.618,0.149-1.063,0.149c-0.336,0-0.654-0.031-0.955-0.094
					s-0.678-0.154-1.131-0.275c-0.16-0.047-0.24,0.01-0.24,0.17v0.405c0,0.074,0.012,0.128,0.038,0.161
					c0.025,0.034,0.071,0.063,0.138,0.091c0.266,0.113,0.598,0.218,0.996,0.314c0.398,0.095,0.795,0.143,1.189,0.143
					c0.949,0,1.667-0.177,2.153-0.533s0.73-0.957,0.73-1.805v-0.17c0-0.207-0.025-0.401-0.073-0.583
					c-0.049-0.181-0.122-0.353-0.22-0.516c-0.098-0.162-0.219-0.309-0.363-0.442s-0.307-0.245-0.486-0.334
					c0.391-0.188,0.679-0.45,0.864-0.787c0.186-0.338,0.279-0.702,0.279-1.093v-0.252c0-0.871-0.253-1.516-0.759-1.936
					C76.433,690.519,75.725,690.309,74.815,690.309L74.815,690.309z"/>
				<path id="path5294" fill="none" stroke="#8D198F" stroke-width="3" stroke-miterlimit="10" d="M88.879,694.71
					c0,7.859-6.372,14.232-14.232,14.232c-7.861,0-14.233-6.373-14.233-14.232c0-7.861,6.372-14.232,14.233-14.232
					C82.507,680.478,88.879,686.849,88.879,694.71z"/>
				<path id="path5298" fill="none" stroke="#8D198F" stroke-width="3" stroke-linecap="round" stroke-miterlimit="10" d="
					M67.08,682.658l-0.751,8.733"/>
				<path id="path5302" fill="none" stroke="#8D198F" stroke-width="3" stroke-linecap="round" stroke-miterlimit="10" d="
					M67.08,682.658h-8.918"/>
			</g>
			<g id="M2">
				<path id="path3486" fill="#231F20" d="M115.077,734.333c0-0.32-0.053-0.607-0.159-0.859c-0.105-0.252-0.271-0.492-0.495-0.721
					c-0.224-0.228-0.528-0.474-0.911-0.735l-1.148-0.779c-0.434-0.293-0.774-0.569-1.023-0.827s-0.42-0.521-0.516-0.791
					s-0.144-0.582-0.144-0.938v-0.252h4.044c0.159,0,0.24-0.069,0.24-0.205V727.7c0-0.07-0.023-0.124-0.07-0.162
					c-0.047-0.037-0.104-0.056-0.17-0.056h-4.764c-0.063,0-0.119,0.023-0.167,0.067c-0.048,0.045-0.073,0.098-0.073,0.161v0.973
					c0,0.418,0.064,0.814,0.191,1.187c0.127,0.373,0.327,0.723,0.598,1.049c0.271,0.326,0.623,0.631,1.052,0.916l1.212,0.82
					c0.5,0.336,0.83,0.611,0.991,0.823c0.159,0.213,0.24,0.497,0.24,0.852c0,0.289-0.055,0.525-0.167,0.706
					c-0.112,0.182-0.278,0.316-0.501,0.401s-0.504,0.129-0.844,0.129c-0.27,0-0.542-0.024-0.817-0.073
					c-0.276-0.048-0.549-0.111-0.82-0.188c-0.272-0.076-0.497-0.139-0.677-0.19c-0.075-0.023-0.133-0.02-0.177,0.012
					c-0.042,0.03-0.064,0.081-0.064,0.152v0.41c0,0.074,0.013,0.127,0.038,0.161c0.026,0.033,0.073,0.063,0.144,0.091
					c0.208,0.09,0.43,0.174,0.669,0.252c0.238,0.078,0.516,0.145,0.834,0.202c0.319,0.057,0.622,0.085,0.911,0.085
					c0.406,0,0.772-0.047,1.096-0.141s0.59-0.227,0.797-0.398s0.367-0.392,0.48-0.662S115.077,734.696,115.077,734.333
					L115.077,734.333z"/>
				<path id="path5306" fill="none" stroke="#8D198F" stroke-width="3" stroke-miterlimit="10" d="M97.999,731.149
					c0-7.859,6.372-14.232,14.231-14.232c7.861,0,14.233,6.373,14.233,14.232c0,7.86-6.372,14.232-14.233,14.232
					C104.371,745.381,97.999,739.009,97.999,731.149z"/>
				<path id="path5310" fill="none" stroke="#8D198F" stroke-width="3" stroke-linecap="round" stroke-miterlimit="10" d="
					M109.774,745.432l6.209-6.188"/>
				<path id="path5314" fill="none" stroke="#8D198F" stroke-width="3" stroke-linecap="round" stroke-miterlimit="10" d="
					M109.774,745.432l6.811,5.755"/>
			</g>
			<g id="M4">
				<path id="path3490" fill="#231F20" d="M76.905,730.073c0-0.066-0.023-0.118-0.068-0.155c-0.045-0.037-0.098-0.056-0.161-0.056
					h-1.043v-2.139c0-0.066-0.019-0.123-0.056-0.17s-0.087-0.07-0.149-0.07h-0.697c-0.137,0-0.205,0.08-0.205,0.24v2.139h-3.469
					c-0.176,0-0.302,0.035-0.378,0.105s-0.114,0.189-0.114,0.357v0.457c0,0.168,0.049,0.316,0.146,0.445l3.551,4.98
					c0.082,0.129,0.199,0.194,0.352,0.194h0.703c0.211,0,0.316-0.088,0.316-0.264v-5.367h1.043c0.066,0,0.121-0.019,0.164-0.059
					c0.043-0.039,0.064-0.091,0.064-0.158V730.073z M74.537,730.771v4.107c0,0.047-0.016,0.07-0.047,0.07h-0.012
					c-0.031,0-0.063-0.023-0.094-0.07l-2.771-3.938c-0.027-0.031-0.041-0.064-0.041-0.099c0-0.047,0.033-0.07,0.1-0.07H74.537z"/>
				<path id="path5318" fill="none" stroke="#8D198F" stroke-width="3" stroke-miterlimit="10" d="M88.879,731.149
					c0-7.859-6.372-14.232-14.232-14.232c-7.861,0-14.233,6.373-14.233,14.232c0,7.86,6.372,14.232,14.233,14.232
					C82.507,745.381,88.879,739.009,88.879,731.149z"/>
				<path id="path5322" fill="none" stroke="#8D198F" stroke-width="3" stroke-linecap="round" stroke-miterlimit="10" d="
					M69.541,744.851l-8.708,0.996"/>
				<path id="path5326" fill="none" stroke="#8D198F" stroke-width="3" stroke-linecap="round" stroke-miterlimit="10" d="
					M69.541,744.851l-1.769-8.742"/>
			</g>
			<g id="M1">
				<path id="path3484" fill="#231F20" d="M113.514,690.631c0-0.07-0.02-0.128-0.059-0.173c-0.039-0.045-0.091-0.068-0.158-0.068
					h-0.656c-0.066,0-0.119,0.023-0.158,0.07s-0.059,0.104-0.059,0.17v7.547l-1.547-0.674c-0.063-0.023-0.115-0.035-0.158-0.035
					c-0.07,0-0.105,0.045-0.105,0.135v0.609c0,0.063,0.039,0.115,0.117,0.158l1.81,0.862c0.098,0.051,0.182,0.076,0.252,0.076h0.492
					c0.063,0,0.116-0.02,0.161-0.061c0.045-0.041,0.068-0.097,0.068-0.167V690.631z"/>
				<path id="path5330" fill="none" stroke="#8D198F" stroke-width="3" stroke-miterlimit="10" d="M97.999,694.71
					c0,7.859,6.372,14.232,14.231,14.232c7.861,0,14.233-6.373,14.233-14.232c0-7.861-6.372-14.232-14.233-14.232
					C104.371,680.478,97.999,686.849,97.999,694.71z"/>
				<path id="path5334" fill="none" stroke="#8D198F" stroke-width="3" stroke-linecap="round" stroke-miterlimit="10" d="
					M114.102,680.756l7.877-3.845"/>
				<path id="path5338" fill="none" stroke="#8D198F" stroke-width="3" stroke-linecap="round" stroke-miterlimit="10" d="
					M114.102,680.756l4.584,7.65"/>
			</g>
		</g>
	</g>
</g>
</svg>
