<?xml version="1.0" encoding="utf-8"?>
<!-- Copyright 2014.  All rights reserved.  Used with permission for Baseflight Configurator -->
<svg version="1.2" baseProfile="tiny"
	 id="svg3742" xmlns:dc="http://purl.org/dc/elements/1.1/" xmlns:cc="http://creativecommons.org/ns#" xmlns:rdf="http://www.w3.org/1999/02/22-rdf-syntax-ns#" xmlns:svg="http://www.w3.org/2000/svg"
	 xmlns="http://www.w3.org/2000/svg" xmlns:xlink="http://www.w3.org/1999/xlink" x="0px" y="0px" width="117.723px"
	 height="111.328px" viewBox="0 0 117.723 111.328" xml:space="preserve">
<g id="layer1" transform="translate(-316.13881,-449.29394)">
	<g id="TriCopter" transform="matrix(1.25,0,0,-1.25,-51.466488,1404.5132)">
		<g id="MotorOrderGraphic">
			<g id="FrontArrow">
				<path id="path5270" fill="none" stroke="#ED1C24" stroke-width="5" stroke-miterlimit="10" d="M343.701,715.623v9.902"/>
				<path id="path5274" fill="#ED1C24" d="M351.139,723.337l-7.479,12.953l-7.479-12.953H351.139z"/>
			</g>
			<g id="S1">
				<path id="path5276" fill="none" stroke="#BF1B2C" stroke-width="3" stroke-miterlimit="10" d="M383.636,682.441h-20.213v20.212
					h20.213V682.441z"/>
				<path id="path3952" fill="#231F20" d="M373.396,690.615c0-0.676-0.219-1.245-0.659-1.706c-0.439-0.461-1.175-0.691-2.206-0.691
					c-0.383,0-0.789,0.049-1.219,0.147s-0.783,0.212-1.06,0.345c-0.102,0.051-0.165,0.094-0.191,0.129
					c-0.025,0.035-0.038,0.1-0.038,0.194v0.492c0,0.156,0.08,0.203,0.241,0.141c0.352-0.121,0.736-0.227,1.154-0.316
					s0.801-0.135,1.148-0.135c0.406,0,0.737,0.056,0.991,0.17c0.254,0.113,0.434,0.274,0.542,0.483
					c0.107,0.209,0.161,0.459,0.161,0.748c0,0.301-0.098,0.559-0.293,0.776c-0.195,0.217-0.574,0.495-1.137,0.835l-1.16,0.709
					c-0.578,0.352-0.999,0.698-1.262,1.04c-0.264,0.341-0.396,0.743-0.396,1.204c0,0.465,0.108,0.858,0.323,1.178
					s0.523,0.557,0.923,0.712c0.401,0.154,0.87,0.231,1.409,0.231c0.426,0,0.841-0.048,1.248-0.144
					c0.406-0.095,0.713-0.192,0.92-0.29c0.063-0.023,0.113-0.051,0.149-0.082c0.038-0.031,0.056-0.076,0.056-0.134v-0.609
					c0-0.145-0.077-0.194-0.229-0.147c-0.277,0.09-0.524,0.164-0.741,0.223c-0.216,0.059-0.447,0.106-0.691,0.144
					c-0.244,0.037-0.481,0.055-0.712,0.055c-0.539,0-0.933-0.085-1.18-0.255c-0.248-0.17-0.372-0.464-0.372-0.882
					c0-0.273,0.096-0.511,0.29-0.712c0.193-0.202,0.534-0.448,1.023-0.741l1.102-0.662c0.688-0.402,1.17-0.791,1.45-1.163
					C373.256,691.527,373.396,691.099,373.396,690.615L373.396,690.615z"/>
				<path id="path3954" fill="#231F20" d="M378.186,688.541c0-0.07-0.02-0.128-0.059-0.173c-0.039-0.045-0.091-0.067-0.158-0.067
					h-0.656c-0.066,0-0.12,0.023-0.159,0.07s-0.059,0.104-0.059,0.17v7.547l-1.547-0.674c-0.063-0.023-0.115-0.035-0.158-0.035
					c-0.07,0-0.105,0.044-0.105,0.134v0.609c0,0.063,0.039,0.116,0.117,0.159l1.81,0.861c0.098,0.051,0.182,0.077,0.252,0.077h0.492
					c0.063,0,0.116-0.02,0.161-0.062c0.045-0.041,0.067-0.097,0.067-0.167V688.541z"/>
			</g>
			<g id="M3">
				<path id="path3933" fill="#231F20" d="M312.311,738.455c-0.383,0-0.776,0.048-1.178,0.144c-0.402,0.095-0.738,0.198-1.008,0.308
					c-0.07,0.035-0.117,0.068-0.141,0.099s-0.035,0.082-0.035,0.152v0.41c0,0.16,0.08,0.217,0.241,0.17
					c0.473-0.125,0.854-0.219,1.145-0.281c0.291-0.063,0.605-0.094,0.941-0.094c0.645,0,1.105,0.13,1.383,0.392
					s0.416,0.684,0.416,1.266v0.252c0,0.23-0.044,0.458-0.132,0.682c-0.087,0.225-0.238,0.412-0.451,0.56
					c-0.213,0.148-0.488,0.223-0.823,0.223h-2.18c-0.152,0-0.228,0.072-0.228,0.216v0.416c0,0.066,0.021,0.121,0.064,0.164
					s0.098,0.064,0.164,0.064h2.18c0.359,0,0.644,0.07,0.852,0.211c0.209,0.141,0.354,0.32,0.434,0.536
					c0.08,0.217,0.12,0.445,0.12,0.683v0.17c0,0.34-0.056,0.612-0.17,0.817c-0.113,0.205-0.302,0.357-0.566,0.457
					c-0.264,0.099-0.618,0.149-1.063,0.149c-0.336,0-0.655-0.031-0.955-0.094s-0.677-0.154-1.13-0.275
					c-0.16-0.047-0.241,0.009-0.241,0.17v0.405c0,0.074,0.013,0.127,0.038,0.161c0.025,0.033,0.071,0.063,0.137,0.091
					c0.266,0.113,0.598,0.218,0.996,0.313c0.398,0.096,0.795,0.144,1.19,0.144c0.949,0,1.666-0.177,2.153-0.533
					c0.486-0.355,0.73-0.957,0.73-1.805v-0.17c0-0.207-0.025-0.402-0.073-0.583c-0.049-0.182-0.122-0.354-0.22-0.516
					c-0.098-0.163-0.219-0.309-0.363-0.442s-0.307-0.245-0.487-0.334c0.391-0.188,0.679-0.45,0.864-0.788
					c0.186-0.337,0.279-0.702,0.279-1.092v-0.252c0-0.871-0.253-1.516-0.759-1.937C313.929,738.666,313.222,738.455,312.311,738.455
					L312.311,738.455z"/>
				<path id="path5390" fill="none" stroke="#8D198F" stroke-width="3" stroke-miterlimit="10" d="M326.301,742.558
					c0,7.859-6.372,14.232-14.232,14.232c-7.861,0-14.233-6.373-14.233-14.232c0-7.861,6.372-14.232,14.233-14.232
					C319.929,728.326,326.301,734.698,326.301,742.558z"/>
				<path id="path5394" fill="none" stroke="#8D198F" stroke-width="3" stroke-linecap="round" stroke-miterlimit="10" d="
					M304.502,730.505l-0.752,8.733"/>
				<path id="path5398" fill="none" stroke="#8D198F" stroke-width="3" stroke-linecap="round" stroke-miterlimit="10" d="
					M304.502,730.505h-8.918"/>
			</g>
			<g id="M2">
				<path id="path3937" fill="#231F20" d="M375.721,744.823c0-0.32-0.052-0.607-0.158-0.859c-0.105-0.252-0.271-0.492-0.495-0.721
					c-0.225-0.228-0.528-0.474-0.911-0.735l-1.148-0.779c-0.434-0.293-0.775-0.569-1.023-0.827c-0.248-0.258-0.42-0.521-0.516-0.791
					c-0.096-0.27-0.144-0.582-0.144-0.938v-0.252h4.043c0.16,0,0.241-0.068,0.241-0.205v-0.527c0-0.07-0.023-0.124-0.07-0.162
					c-0.047-0.037-0.104-0.056-0.17-0.056h-4.763c-0.063,0-0.119,0.023-0.167,0.067c-0.049,0.045-0.073,0.099-0.073,0.162v0.973
					c0,0.418,0.063,0.813,0.191,1.186c0.127,0.373,0.326,0.723,0.598,1.049c0.271,0.326,0.622,0.632,1.052,0.917l1.213,0.82
					c0.5,0.336,0.83,0.61,0.99,0.823c0.16,0.213,0.241,0.498,0.241,0.853c0,0.289-0.056,0.524-0.167,0.706
					c-0.112,0.182-0.278,0.316-0.501,0.401s-0.504,0.129-0.844,0.129c-0.27,0-0.542-0.024-0.818-0.073
					c-0.275-0.048-0.548-0.111-0.82-0.188c-0.271-0.076-0.497-0.139-0.677-0.19c-0.074-0.023-0.133-0.02-0.176,0.012
					c-0.043,0.03-0.064,0.081-0.064,0.152v0.41c0,0.074,0.012,0.127,0.037,0.161c0.026,0.033,0.073,0.063,0.144,0.091
					c0.207,0.09,0.43,0.174,0.668,0.252s0.516,0.145,0.835,0.202c0.318,0.057,0.622,0.085,0.911,0.085
					c0.406,0,0.772-0.047,1.096-0.141s0.59-0.227,0.797-0.398s0.367-0.392,0.48-0.662S375.721,745.187,375.721,744.823
					L375.721,744.823z"/>
				<path id="path5402" fill="none" stroke="#8D198F" stroke-width="3" stroke-miterlimit="10" d="M358.297,742.637
					c0-7.86,6.372-14.232,14.232-14.232c7.861,0,14.233,6.372,14.233,14.232c0,7.86-6.372,14.232-14.233,14.232
					C364.669,756.869,358.297,750.498,358.297,742.637z"/>
				<path id="path5406" fill="none" stroke="#8D198F" stroke-width="3" stroke-linecap="round" stroke-miterlimit="10" d="
					M370.072,756.919l6.211-6.187"/>
				<path id="path5410" fill="none" stroke="#8D198F" stroke-width="3" stroke-linecap="round" stroke-miterlimit="10" d="
					M370.072,756.919l6.813,5.756"/>
			</g>
			<g id="M1">
				<path id="path3935" fill="#231F20" d="M343.307,687.226c0-0.07-0.02-0.128-0.059-0.173c-0.039-0.045-0.092-0.067-0.159-0.067
					h-0.656c-0.066,0-0.119,0.023-0.158,0.07s-0.059,0.103-0.059,0.169v7.547l-1.547-0.673c-0.063-0.023-0.116-0.035-0.159-0.035
					c-0.07,0-0.105,0.044-0.105,0.134v0.609c0,0.063,0.039,0.116,0.117,0.159l1.811,0.861c0.098,0.051,0.181,0.077,0.252,0.077
					h0.492c0.063,0,0.116-0.021,0.161-0.062c0.045-0.041,0.068-0.097,0.068-0.167V687.226z"/>
				<path id="path5414" fill="none" stroke="#8D198F" stroke-width="3" stroke-miterlimit="10" d="M356.174,690.845
					c0,7.859-6.372,14.232-14.232,14.232c-7.861,0-14.233-6.373-14.233-14.232c0-7.861,6.372-14.232,14.233-14.232
					C349.802,676.613,356.174,682.984,356.174,690.845z"/>
				<path id="path5418" fill="none" stroke="#8D198F" stroke-width="3" stroke-linecap="round" stroke-miterlimit="10" d="
					M334.375,678.793l-0.752,8.732"/>
				<path id="path5422" fill="none" stroke="#8D198F" stroke-width="3" stroke-linecap="round" stroke-miterlimit="10" d="
					M334.375,678.793h-8.918"/>
			</g>
		</g>
	</g>
</g>
</svg>
