<?xml version="1.0" encoding="UTF-8" standalone="no"?>
<!-- Created with Inkscape (http://www.inkscape.org/) -->

<svg
   xmlns:dc="http://purl.org/dc/elements/1.1/"
   xmlns:cc="http://creativecommons.org/ns#"
   xmlns:rdf="http://www.w3.org/1999/02/22-rdf-syntax-ns#"
   xmlns:svg="http://www.w3.org/2000/svg"
   xmlns="http://www.w3.org/2000/svg"
   xmlns:sodipodi="http://sodipodi.sourceforge.net/DTD/sodipodi-0.dtd"
   xmlns:inkscape="http://www.inkscape.org/namespaces/inkscape"
   width="117.72237"
   height="111.32775"
   id="svg3742"
   version="1.1"
   inkscape:version="0.48.4 r9939"
   sodipodi:docname="motor-order-tri.svg">
  <defs
     id="defs3744" />
  <sodipodi:namedview
     id="base"
     pagecolor="#ffffff"
     bordercolor="#666666"
     borderopacity="1.0"
     inkscape:pageopacity="0.0"
     inkscape:pageshadow="2"
     inkscape:zoom="2.1469197"
     inkscape:cx="154.43349"
     inkscape:cy="17.654655"
     inkscape:document-units="px"
     inkscape:current-layer="layer1"
     showgrid="false"
     fit-margin-top="0"
     fit-margin-left="0"
     fit-margin-right="0"
     fit-margin-bottom="0"
     inkscape:window-width="1302"
     inkscape:window-height="918"
     inkscape:window-x="240"
     inkscape:window-y="240"
     inkscape:window-maximized="0" />
  <metadata
     id="metadata3747">
    <rdf:RDF>
      <cc:Work
         rdf:about="">
        <dc:format>image/svg+xml</dc:format>
        <dc:type
           rdf:resource="http://purl.org/dc/dcmitype/StillImage" />
        <dc:title />
      </cc:Work>
    </rdf:RDF>
  </metadata>
  <g
     inkscape:label="Layer 1"
     inkscape:groupmode="layer"
     id="layer1"
     transform="translate(-316.13881,-449.29394)">
    <g
       transform="matrix(1.25,0,0,-1.25,-51.466488,1404.5132)"
       id="TriCopter"
       inkscape:label="TriCopter">
      <g
         id="MotorOrderGraphic"
         inkscape:label="MotorOrderGraphic">
        <g
           inkscape:label="FrontArrow"
           id="FrontArrow">
          <path
             d="m 343.70144,715.62351 0,9.901"
             style="fill:none;stroke:#ed1c24;stroke-width:5;stroke-linecap:butt;stroke-linejoin:miter;stroke-miterlimit:10;stroke-opacity:1;stroke-dasharray:none"
             id="path5270"
             inkscape:connector-curvature="0" />
          <path
             d="m 351.13894,723.33641 -7.479,12.953 -7.479,-12.953 14.958,0 z"
             style="fill:#ed1c24;fill-opacity:1;fill-rule:nonzero;stroke:none"
             id="path5274"
             inkscape:connector-curvature="0" />
        </g>
        <g
           inkscape:label="S1"
           id="S1">
          <path
             inkscape:connector-curvature="0"
             id="path5276"
             style="fill:none;stroke:#bf1b2c;stroke-width:3;stroke-linecap:butt;stroke-linejoin:miter;stroke-miterlimit:10;stroke-opacity:1;stroke-dasharray:none"
             d="m 383.63604,682.44131 -20.212,0 0,20.212 20.212,0 0,-20.212 z" />
          <path
             d="m 373.39578,690.61426 c 0,-0.67579 -0.21973,-1.24414 -0.65918,-1.70508 -0.43946,-0.46094 -1.17481,-0.69141 -2.20605,-0.69141 -0.38282,0 -0.78907,0.0488 -1.21875,0.14649 -0.42969,0.0977 -0.78321,0.21289 -1.06055,0.3457 -0.10156,0.0508 -0.16504,0.0937 -0.19043,0.12891 -0.0254,0.0351 -0.0381,0.0996 -0.0381,0.19336 l 0,0.49218 c 0,0.15625 0.0801,0.20313 0.24023,0.14063 0.35156,-0.1211 0.73633,-0.22656 1.1543,-0.31641 0.41796,-0.0898 0.80078,-0.13476 1.14843,-0.13476 0.40625,0 0.73633,0.0566 0.99024,0.16992 0.2539,0.11328 0.43456,0.27441 0.54199,0.4834 0.10742,0.20898 0.16113,0.458 0.16113,0.74707 0,0.30078 -0.0977,0.55957 -0.29297,0.77636 -0.19531,0.2168 -0.57422,0.49512 -1.13671,0.83497 l -1.16016,0.70898 c -0.57813,0.35156 -0.99902,0.69824 -1.2627,1.04004 -0.26367,0.34179 -0.3955,0.74316 -0.3955,1.2041 0,0.46484 0.10742,0.85742 0.32226,1.17774 0.21485,0.3203 0.52246,0.5576 0.92285,0.71191 0.40039,0.15429 0.87012,0.23144 1.40918,0.23144 0.42578,0 0.8418,-0.0479 1.24805,-0.14355 0.40625,-0.0957 0.71289,-0.19239 0.91992,-0.29004 0.0625,-0.0235 0.1123,-0.0508 0.14942,-0.082 0.0371,-0.0313 0.0557,-0.0762 0.0557,-0.13477 l 0,-0.60937 c 0,-0.14454 -0.0762,-0.19337 -0.22852,-0.14649 -0.27734,0.0898 -0.52441,0.16406 -0.74121,0.22266 -0.2168,0.0586 -0.44727,0.10644 -0.6914,0.14356 -0.24415,0.0371 -0.48145,0.0557 -0.71192,0.0557 -0.53906,-1e-5 -0.93262,-0.085 -1.18066,-0.25488 -0.24805,-0.16993 -0.37207,-0.46388 -0.37207,-0.88184 0,-0.27344 0.0967,-0.51075 0.29004,-0.71191 0.19336,-0.20118 0.53418,-0.44825 1.02246,-0.74121 l 1.10156,-0.66211 c 0.6875,-0.40235 1.1709,-0.79005 1.4502,-1.16309 0.27929,-0.37305 0.41894,-0.80176 0.41894,-1.28613 z"
             style="font-size:12px;font-variant:normal;font-weight:normal;font-stretch:normal;writing-mode:lr-tb;fill:#231f20;fill-opacity:1;fill-rule:nonzero;stroke:none;font-family:UTM Neo Sans Intel;-inkscape-font-specification:UTM Neo Sans Intel"
             id="path3952"
             inkscape:connector-curvature="0" />
          <path
             d="m 378.18576,688.54004 c 0,-0.0703 -0.0195,-0.12793 -0.0586,-0.17285 -0.0391,-0.0449 -0.0918,-0.0674 -0.15821,-0.0674 l -0.65625,0 c -0.0664,0 -0.11914,0.0234 -0.1582,0.0703 -0.0391,0.0469 -0.0586,0.10351 -0.0586,0.16992 l 0,7.54687 -1.54688,-0.67382 c -0.0625,-0.0235 -0.11523,-0.0352 -0.1582,-0.0352 -0.0703,-1e-5 -0.10547,0.0449 -0.10547,0.13477 l 0,0.60937 c 0,0.0625 0.0391,0.11523 0.11719,0.1582 l 1.81054,0.86133 c 0.0977,0.0508 0.18164,0.0762 0.25196,0.0762 l 0.49218,0 c 0.0625,-10e-6 0.11621,-0.0205 0.16114,-0.0615 0.0449,-0.041 0.0674,-0.0967 0.0674,-0.16699 z"
             style="font-size:12px;font-variant:normal;font-weight:normal;font-stretch:normal;writing-mode:lr-tb;fill:#231f20;fill-opacity:1;fill-rule:nonzero;stroke:none;font-family:UTM Neo Sans Intel;-inkscape-font-specification:UTM Neo Sans Intel"
             id="path3954"
             inkscape:connector-curvature="0" />
        </g>
        <g
           inkscape:label="M3"
           id="M3">
          <path
             d="m 312.31122,738.45532 c -0.38282,0 -0.77539,0.0478 -1.17774,0.14356 -0.40234,0.0957 -0.73828,0.19824 -1.00781,0.30761 -0.0703,0.0352 -0.11719,0.0684 -0.14062,0.0996 -0.0234,0.0312 -0.0352,0.082 -0.0352,0.15235 l 0,0.41015 c 0,0.16016 0.0801,0.2168 0.24023,0.16993 0.47266,-0.12501 0.85449,-0.21876 1.14551,-0.28125 0.29102,-0.0625 0.60449,-0.0938 0.94043,-0.0937 0.64453,-10e-6 1.10547,0.13085 1.38281,0.39257 0.27734,0.26172 0.41602,0.6836 0.41602,1.26563 l 0,0.25195 c 0,0.23047 -0.0439,0.45801 -0.13184,0.68262 -0.0879,0.2246 -0.23828,0.41113 -0.45117,0.55957 -0.21289,0.14843 -0.48731,0.22265 -0.82324,0.22266 l -2.17969,0 c -0.15234,-10e-6 -0.22851,0.0723 -0.22851,0.21679 l 0,0.41602 c 0,0.0664 0.0215,0.12109 0.0644,0.16406 0.043,0.043 0.0977,0.0644 0.16406,0.0644 l 2.17969,0 c 0.35937,0 0.64355,0.0703 0.85254,0.21094 0.20898,0.14062 0.35351,0.31933 0.43359,0.53613 0.0801,0.21679 0.12012,0.44433 0.12012,0.68262 l 0,0.16992 c 0,0.33984 -0.0566,0.6123 -0.16992,0.81739 -0.11329,0.20507 -0.30176,0.35741 -0.56543,0.45703 -0.26368,0.0996 -0.61817,0.1494 -1.06348,0.14941 -0.33594,-10e-6 -0.6543,-0.0313 -0.95508,-0.0937 -0.30078,-0.0625 -0.67773,-0.1543 -1.13086,-0.27539 -0.16015,-0.0469 -0.24023,0.01 -0.24023,0.16992 l 0,0.4043 c 0,0.0742 0.0127,0.12792 0.0381,0.16113 0.0254,0.0332 0.0713,0.0635 0.13769,0.0908 0.26563,0.11327 0.59766,0.21777 0.9961,0.31348 0.39843,0.0957 0.79491,0.14354 1.18945,0.14355 0.94921,-10e-6 1.66699,-0.17774 2.15332,-0.5332 0.48632,-0.35548 0.72948,-0.95704 0.72949,-1.80469 l 0,-0.16992 c -10e-6,-0.20704 -0.0244,-0.40137 -0.0732,-0.58301 -0.0488,-0.18164 -0.12208,-0.35352 -0.21973,-0.51562 -0.0977,-0.16212 -0.21875,-0.30958 -0.36328,-0.44238 -0.14454,-0.13282 -0.30665,-0.24415 -0.48633,-0.33399 0.39062,-0.1875 0.67871,-0.4502 0.86426,-0.78808 0.18554,-0.3379 0.27831,-0.70216 0.27832,-1.09278 l 0,-0.25195 c -10e-6,-0.8711 -0.25293,-1.5166 -0.75879,-1.93652 -0.50586,-0.41993 -1.21387,-0.62989 -2.12402,-0.62989 z"
             style="font-size:12px;font-variant:normal;font-weight:normal;font-stretch:normal;writing-mode:lr-tb;fill:#231f20;fill-opacity:1;fill-rule:nonzero;stroke:none;font-family:UTM Neo Sans Intel;-inkscape-font-specification:UTM Neo Sans Intel"
             id="path3933"
             inkscape:connector-curvature="0" />
          <path
             d="m 326.30114,742.55811 c 0,7.859 -6.372,14.232 -14.232,14.232 -7.861,0 -14.233,-6.373 -14.233,-14.232 0,-7.861 6.372,-14.232 14.233,-14.232 7.86,0 14.232,6.371 14.232,14.232 z"
             style="fill:none;stroke:#8d198f;stroke-width:3;stroke-linecap:butt;stroke-linejoin:miter;stroke-miterlimit:10;stroke-opacity:1;stroke-dasharray:none"
             id="path5390"
             inkscape:connector-curvature="0" />
          <path
             d="m 304.50224,730.50531 -0.752,8.733"
             style="fill:none;stroke:#8d198f;stroke-width:3;stroke-linecap:round;stroke-linejoin:miter;stroke-miterlimit:10;stroke-opacity:1;stroke-dasharray:none"
             id="path5394"
             inkscape:connector-curvature="0" />
          <path
             d="m 304.50224,730.50531 -8.918,0"
             style="fill:none;stroke:#8d198f;stroke-width:3;stroke-linecap:round;stroke-linejoin:miter;stroke-miterlimit:10;stroke-opacity:1;stroke-dasharray:none"
             id="path5398"
             inkscape:connector-curvature="0" />
        </g>
        <g
           inkscape:label="M2"
           id="M2">
          <path
             d="m 375.72089,744.823 c -10e-6,-0.32032 -0.0527,-0.60645 -0.15821,-0.8584 -0.10547,-0.25196 -0.27051,-0.49219 -0.49511,-0.7207 -0.22462,-0.22852 -0.52833,-0.47364 -0.91114,-0.73536 l -1.14843,-0.77929 c -0.4336,-0.29297 -0.77442,-0.56836 -1.02247,-0.82617 -0.24804,-0.25782 -0.41992,-0.52149 -0.51562,-0.79102 -0.0957,-0.26953 -0.14356,-0.58203 -0.14356,-0.9375 l 0,-0.25195 4.04297,0 c 0.16015,0 0.24023,-0.0684 0.24024,-0.20508 l 0,-0.52734 c -10e-6,-0.0703 -0.0234,-0.12403 -0.0703,-0.16114 -0.0469,-0.0371 -0.10353,-0.0557 -0.16993,-0.0557 l -4.76367,0 c -0.0625,0 -0.11816,0.0225 -0.16699,0.0674 -0.0488,0.0449 -0.0732,0.0986 -0.0732,0.16113 l 0,0.97266 c 0,0.41797 0.0635,0.81348 0.19043,1.18652 0.12695,0.37305 0.32617,0.72266 0.59765,1.04883 0.27149,0.32617 0.62207,0.63183 1.05176,0.91699 l 1.21289,0.82032 c 0.5,0.33593 0.83008,0.61034 0.99024,0.82324 0.16015,0.21288 0.24023,0.49706 0.24023,0.85254 0,0.28905 -0.0557,0.5244 -0.16699,0.70605 -0.11133,0.18164 -0.27833,0.31542 -0.50098,0.40137 -0.22266,0.0859 -0.50391,0.1289 -0.84375,0.12891 -0.26953,-10e-6 -0.54199,-0.0244 -0.81738,-0.0733 -0.27539,-0.0488 -0.54883,-0.11133 -0.82031,-0.1875 -0.27149,-0.0762 -0.49708,-0.13965 -0.67676,-0.19043 -0.0742,-0.0234 -0.13281,-0.0195 -0.17578,0.0117 -0.043,0.0312 -0.0645,0.082 -0.0645,0.15235 l 0,0.41015 c 0,0.0742 0.0127,0.12792 0.0381,0.16114 0.0254,0.0332 0.0732,0.0635 0.14355,0.0908 0.20703,0.0898 0.42969,0.17382 0.66797,0.25195 0.23828,0.0781 0.5166,0.1455 0.83496,0.20215 0.31836,0.0566 0.62207,0.085 0.91114,0.085 0.40624,-10e-6 0.77148,-0.0469 1.0957,-0.14063 0.32421,-0.0938 0.58984,-0.22657 0.79688,-0.39843 0.20702,-0.17189 0.36718,-0.39259 0.48046,-0.66211 0.11328,-0.26954 0.16992,-0.58595 0.16993,-0.94922 z"
             style="font-size:12px;font-variant:normal;font-weight:normal;font-stretch:normal;writing-mode:lr-tb;fill:#231f20;fill-opacity:1;fill-rule:nonzero;stroke:none;font-family:UTM Neo Sans Intel;-inkscape-font-specification:UTM Neo Sans Intel"
             id="path3937"
             inkscape:connector-curvature="0" />
          <path
             d="m 358.29714,742.63721 c 0,-7.86 6.372,-14.232 14.232,-14.232 7.861,0 14.233,6.372 14.233,14.232 0,7.86 -6.372,14.232 -14.233,14.232 -7.86,0 -14.232,-6.372 -14.232,-14.232 z"
             style="fill:none;stroke:#8d198f;stroke-width:3;stroke-linecap:butt;stroke-linejoin:miter;stroke-miterlimit:10;stroke-opacity:1;stroke-dasharray:none"
             id="path5402"
             inkscape:connector-curvature="0" />
          <path
             d="m 370.07164,756.91941 6.211,-6.187"
             style="fill:none;stroke:#8d198f;stroke-width:3;stroke-linecap:round;stroke-linejoin:miter;stroke-miterlimit:10;stroke-opacity:1;stroke-dasharray:none"
             id="path5406"
             inkscape:connector-curvature="0" />
          <path
             d="m 370.07164,756.91941 6.813,5.756"
             style="fill:none;stroke:#8d198f;stroke-width:3;stroke-linecap:round;stroke-linejoin:miter;stroke-miterlimit:10;stroke-opacity:1;stroke-dasharray:none"
             id="path5410"
             inkscape:connector-curvature="0" />
        </g>
        <g
           inkscape:label="M1"
           id="M1">
          <path
             d="m 343.30646,687.22565 c -1e-5,-0.0703 -0.0195,-0.12793 -0.0586,-0.17285 -0.0391,-0.0449 -0.0918,-0.0674 -0.1582,-0.0674 l -0.65625,0 c -0.0664,0 -0.11914,0.0234 -0.1582,0.0703 -0.0391,0.0469 -0.0586,0.10351 -0.0586,0.16992 l 0,7.54687 -1.54687,-0.67383 c -0.0625,-0.0234 -0.11524,-0.0352 -0.1582,-0.0352 -0.0703,-10e-6 -0.10547,0.0449 -0.10547,0.13476 l 0,0.60938 c 0,0.0625 0.0391,0.11522 0.11718,0.1582 l 1.81055,0.86133 c 0.0976,0.0508 0.18164,0.0762 0.25195,0.0762 l 0.49219,0 c 0.0625,-10e-6 0.11621,-0.0205 0.16113,-0.0615 0.0449,-0.041 0.0674,-0.0967 0.0674,-0.16699 z"
             style="font-size:12px;font-variant:normal;font-weight:normal;font-stretch:normal;writing-mode:lr-tb;fill:#231f20;fill-opacity:1;fill-rule:nonzero;stroke:none;font-family:UTM Neo Sans Intel;-inkscape-font-specification:UTM Neo Sans Intel"
             id="path3935"
             inkscape:connector-curvature="0" />
          <path
             d="m 356.17414,690.84521 c 0,7.859 -6.372,14.232 -14.232,14.232 -7.861,0 -14.233,-6.373 -14.233,-14.232 0,-7.861 6.372,-14.232 14.233,-14.232 7.86,0 14.232,6.371 14.232,14.232 z"
             style="fill:none;stroke:#8d198f;stroke-width:3;stroke-linecap:butt;stroke-linejoin:miter;stroke-miterlimit:10;stroke-opacity:1;stroke-dasharray:none"
             id="path5414"
             inkscape:connector-curvature="0" />
          <path
             d="m 334.37534,678.79251 -0.752,8.732"
             style="fill:none;stroke:#8d198f;stroke-width:3;stroke-linecap:round;stroke-linejoin:miter;stroke-miterlimit:10;stroke-opacity:1;stroke-dasharray:none"
             id="path5418"
             inkscape:connector-curvature="0" />
          <path
             d="m 334.37534,678.79251 -8.918,0"
             style="fill:none;stroke:#8d198f;stroke-width:3;stroke-linecap:round;stroke-linejoin:miter;stroke-miterlimit:10;stroke-opacity:1;stroke-dasharray:none"
             id="path5422"
             inkscape:connector-curvature="0" />
        </g>
      </g>
    </g>
  </g>
</svg>
