<?xml version="1.0" encoding="utf-8"?>
<!-- Copyright 2014.  All rights reserved.  Used with permission for Baseflight Configurator -->
<!DOCTYPE svg PUBLIC "-//W3C//DTD SVG 1.1 Basic//EN" "http://www.w3.org/Graphics/SVG/1.1/DTD/svg11-basic.dtd" [
	<!ENTITY st0 "fill:none;stroke:#8D198F;stroke-width:3;stroke-miterlimit:10;">
	<!ENTITY st1 "fill:#ED1C24;">
	<!ENTITY st2 "fill:none;stroke:#BF1B2C;stroke-width:3;stroke-miterlimit:10;">
	<!ENTITY st3 "fill:#231F20;">
	<!ENTITY st4 "fill:none;stroke:#ED1C24;stroke-width:5;stroke-miterlimit:10;">
	<!ENTITY st5 "fill:none;stroke:#8D198F;stroke-width:3;stroke-linecap:round;stroke-miterlimit:10;">
]>
<svg version="1.1" baseProfile="basic"
	 id="tri-mix" xmlns:dc="http://purl.org/dc/elements/1.1/" xmlns:cc="http://creativecommons.org/ns#" xmlns:rdf="http://www.w3.org/1999/02/22-rdf-syntax-ns#" xmlns:svg="http://www.w3.org/2000/svg"
	 xmlns="http://www.w3.org/2000/svg" xmlns:xlink="http://www.w3.org/1999/xlink" x="0px" y="0px" width="116.97px"
	 height="110.58px" viewBox="0.37 0.38 116.97 110.58" xml:space="preserve">
<g id="S1">
	<path id="path5276" style="&st2;" d="M111.94,102.17H86.67V76.9h25.27V102.17z"/>
	<path id="path3952" style="&st3;" d="M99.14,91.95c0,0.84-0.27,1.56-0.82,2.13c-0.55,0.58-1.47,0.86-2.76,0.86
		c-0.48,0-0.99-0.06-1.52-0.18c-0.54-0.12-0.98-0.27-1.33-0.43c-0.13-0.06-0.21-0.12-0.24-0.16c-0.03-0.04-0.05-0.13-0.05-0.24
		v-0.62c0-0.19,0.1-0.25,0.3-0.18c0.44,0.15,0.92,0.28,1.44,0.39s1,0.17,1.43,0.17c0.51,0,0.92-0.07,1.24-0.21
		c0.32-0.14,0.54-0.34,0.68-0.6c0.13-0.26,0.2-0.57,0.2-0.94c0-0.38-0.12-0.7-0.37-0.97c-0.24-0.27-0.72-0.62-1.42-1.04l-1.45-0.89
		c-0.72-0.44-1.25-0.87-1.58-1.3c-0.33-0.43-0.5-0.93-0.5-1.51c0-0.58,0.14-1.07,0.4-1.47c0.27-0.4,0.65-0.7,1.15-0.89
		c0.5-0.19,1.09-0.29,1.76-0.29c0.53,0,1.05,0.06,1.56,0.18c0.51,0.12,0.89,0.24,1.15,0.36c0.08,0.03,0.14,0.06,0.19,0.1
		c0.05,0.04,0.07,0.09,0.07,0.17v0.76c0,0.18-0.1,0.24-0.29,0.18c-0.35-0.11-0.66-0.21-0.93-0.28c-0.27-0.07-0.56-0.13-0.86-0.18
		c-0.3-0.05-0.6-0.07-0.89-0.07c-0.67,0-1.17,0.11-1.48,0.32c-0.31,0.21-0.46,0.58-0.46,1.1c0,0.34,0.12,0.64,0.36,0.89
		c0.24,0.25,0.67,0.56,1.28,0.93l1.38,0.83c0.86,0.5,1.46,0.99,1.81,1.45C98.97,90.81,99.14,91.35,99.14,91.95L99.14,91.95z"/>
	<path id="path3954" style="&st3;" d="M105.13,94.54c0,0.09-0.03,0.16-0.07,0.22c-0.05,0.06-0.11,0.08-0.2,0.08h-0.82
		c-0.08,0-0.15-0.03-0.2-0.09s-0.07-0.13-0.07-0.21v-9.43l-1.93,0.84c-0.08,0.03-0.14,0.04-0.2,0.04c-0.09,0-0.13-0.06-0.13-0.17
		v-0.76c0-0.08,0.05-0.14,0.15-0.2l2.26-1.08c0.12-0.06,0.23-0.1,0.32-0.1h0.62c0.08,0,0.14,0.03,0.2,0.08
		c0.06,0.05,0.08,0.12,0.08,0.21L105.13,94.54L105.13,94.54z"/>
</g>
<g id="M3">
	<path id="path3933" style="&st3;" d="M22.78,32.15c-0.48,0-0.97-0.06-1.47-0.18c-0.5-0.12-0.92-0.25-1.26-0.39
		c-0.09-0.04-0.15-0.08-0.18-0.12c-0.03-0.04-0.04-0.1-0.04-0.19v-0.51c0-0.2,0.1-0.27,0.3-0.21c0.59,0.16,1.07,0.27,1.43,0.35
		c0.36,0.08,0.76,0.12,1.18,0.12c0.81,0,1.38-0.16,1.73-0.49c0.35-0.33,0.52-0.85,0.52-1.58v-0.31c0-0.29-0.05-0.57-0.17-0.85
		c-0.11-0.28-0.3-0.51-0.56-0.7c-0.27-0.19-0.61-0.28-1.03-0.28h-2.72c-0.19,0-0.29-0.09-0.29-0.27v-0.52
		c0-0.08,0.03-0.15,0.08-0.21s0.12-0.08,0.21-0.08h2.72c0.45,0,0.81-0.09,1.07-0.26c0.26-0.18,0.44-0.4,0.54-0.67
		c0.1-0.27,0.15-0.56,0.15-0.85v-0.21c0-0.42-0.07-0.77-0.21-1.02c-0.14-0.26-0.38-0.45-0.71-0.57c-0.33-0.12-0.77-0.19-1.33-0.19
		c-0.42,0-0.82,0.04-1.19,0.12s-0.85,0.19-1.41,0.34c-0.2,0.06-0.3-0.01-0.3-0.21v-0.51c0-0.09,0.02-0.16,0.05-0.2
		c0.03-0.04,0.09-0.08,0.17-0.11c0.33-0.14,0.75-0.27,1.25-0.39c0.5-0.12,0.99-0.18,1.49-0.18c1.19,0,2.08,0.22,2.69,0.67
		c0.61,0.44,0.91,1.2,0.91,2.26v0.21c0,0.26-0.03,0.5-0.09,0.73c-0.06,0.23-0.15,0.44-0.28,0.65c-0.12,0.2-0.27,0.39-0.45,0.55
		c-0.18,0.17-0.38,0.31-0.61,0.42c0.49,0.23,0.85,0.56,1.08,0.98c0.23,0.42,0.35,0.88,0.35,1.36v0.31c0,1.09-0.32,1.9-0.95,2.42
		C24.81,31.89,23.92,32.15,22.78,32.15L22.78,32.15z"/>
	<path id="path5390" style="&st0;" d="M40.27,27.02c0-9.82-7.96-17.79-17.79-17.79c-9.83,0-17.79,7.97-17.79,17.79
		c0,9.83,7.96,17.79,17.79,17.79C32.31,44.81,40.27,36.85,40.27,27.02z"/>
	<path id="path5394" style="&st5;" d="M13.02,42.09l-0.94-10.92"/>
	<path id="path5398" style="&st5;" d="M13.02,42.09H1.87"/>
</g>
<g id="M2">
	<path id="path3937" style="&st3;" d="M102.05,24.19c0,0.4-0.07,0.76-0.2,1.07s-0.34,0.62-0.62,0.9c-0.28,0.29-0.66,0.59-1.14,0.92
		l-1.44,0.97c-0.54,0.37-0.97,0.71-1.28,1.03c-0.31,0.32-0.53,0.65-0.64,0.99c-0.12,0.34-0.18,0.73-0.18,1.17v0.31h5.05
		c0.2,0,0.3,0.08,0.3,0.26v0.66c0,0.09-0.03,0.16-0.09,0.2c-0.06,0.05-0.13,0.07-0.21,0.07h-5.95c-0.08,0-0.15-0.03-0.21-0.08
		c-0.06-0.06-0.09-0.12-0.09-0.2v-1.22c0-0.52,0.08-1.02,0.24-1.48c0.16-0.47,0.41-0.9,0.75-1.31c0.34-0.41,0.78-0.79,1.31-1.15
		l1.52-1.02c0.63-0.42,1.04-0.76,1.24-1.03s0.3-0.62,0.3-1.07c0-0.36-0.07-0.65-0.21-0.88c-0.14-0.23-0.35-0.4-0.63-0.5
		c-0.28-0.11-0.63-0.16-1.05-0.16c-0.34,0-0.68,0.03-1.02,0.09c-0.34,0.06-0.68,0.14-1.03,0.23c-0.34,0.1-0.62,0.17-0.85,0.24
		c-0.09,0.03-0.17,0.02-0.22-0.02c-0.05-0.04-0.08-0.1-0.08-0.19v-0.51c0-0.09,0.01-0.16,0.05-0.2c0.03-0.04,0.09-0.08,0.18-0.11
		c0.26-0.11,0.54-0.22,0.83-0.31c0.3-0.1,0.65-0.18,1.04-0.25c0.4-0.07,0.78-0.11,1.14-0.11c0.51,0,0.96,0.06,1.37,0.18
		s0.74,0.28,1,0.5s0.46,0.49,0.6,0.83C101.98,23.34,102.05,23.74,102.05,24.19L102.05,24.19z"/>
	<path id="path5402" style="&st0;" d="M80.27,26.92c0,9.83,7.96,17.79,17.79,17.79c9.83,0,17.79-7.96,17.79-17.79
		c0-9.82-7.96-17.79-17.79-17.79C88.23,9.13,80.27,17.1,80.27,26.92z"/>
	<path id="path5406" style="&st5;" d="M94.98,9.07l7.76,7.73"/>
	<path id="path5410" style="&st5;" d="M94.98,9.07l8.52-7.19"/>
</g>
<g id="M1">
	<path id="path3935" style="&st3;" d="M61.53,96.19c0,0.09-0.03,0.16-0.07,0.22c-0.05,0.06-0.11,0.08-0.2,0.08h-0.82
		c-0.08,0-0.15-0.03-0.2-0.09c-0.05-0.06-0.07-0.13-0.07-0.21v-9.43l-1.93,0.84c-0.08,0.03-0.14,0.04-0.2,0.04
		c-0.09,0-0.13-0.05-0.13-0.17v-0.76c0-0.08,0.05-0.15,0.15-0.2l2.26-1.08c0.12-0.06,0.23-0.1,0.32-0.1h0.62
		c0.08,0,0.14,0.03,0.2,0.08c0.06,0.05,0.08,0.12,0.08,0.21L61.53,96.19L61.53,96.19z"/>
	<path id="path5414" style="&st0;" d="M77.61,91.66c0-9.82-7.97-17.79-17.79-17.79c-9.83,0-17.79,7.97-17.79,17.79
		c0,9.83,7.97,17.79,17.79,17.79C69.65,109.45,77.61,101.49,77.61,91.66z"/>
	<path id="path5418" style="&st5;" d="M50.36,106.73l-0.94-10.92"/>
	<path id="path5422" style="&st5;" d="M50.36,106.73H39.22"/>
</g>
<g id="FrontArrow">
	<path id="path5270" style="&st4;" d="M62.02,60.69V48.31"/>
	<path id="path5274" style="&st1;" d="M71.32,51.05l-9.35-16.19l-9.35,16.19H71.32z"/>
</g>
</svg>
