<?xml version="1.0" encoding="utf-8"?>
<!-- Copyright 2014.  All rights reserved.  Used with permission for Baseflight Configurator -->
<!DOCTYPE svg PUBLIC "-//W3C//DTD SVG 1.1 Basic//EN" "http://www.w3.org/Graphics/SVG/1.1/DTD/svg11-basic.dtd" [
	<!ENTITY st0 "fill:none;stroke:#8D198F;stroke-width:3;stroke-miterlimit:10;">
	<!ENTITY st1 "fill:#ED1C24;">
	<!ENTITY st2 "fill:#231F20;">
	<!ENTITY st3 "fill:none;stroke:#ED1C24;stroke-width:5;stroke-miterlimit:10;">
	<!ENTITY st4 "fill:none;stroke:#8D198F;stroke-width:3;stroke-linecap:round;stroke-miterlimit:10;">
]>
<svg version="1.1" baseProfile="basic"
	 id="Vtail-mix" xmlns:dc="http://purl.org/dc/elements/1.1/" xmlns:cc="http://creativecommons.org/ns#" xmlns:rdf="http://www.w3.org/1999/02/22-rdf-syntax-ns#" xmlns:svg="http://www.w3.org/2000/svg"
	 xmlns="http://www.w3.org/2000/svg" xmlns:xlink="http://www.w3.org/1999/xlink" x="0px" y="0px" width="90.56px" height="85.29px"
	 viewBox="0.69 6.47 90.56 85.29" xml:space="preserve">
<g id="M4">
	<path id="path3490" style="&st2;" d="M22.8,28.27c0,0.08-0.03,0.15-0.09,0.19c-0.06,0.05-0.12,0.07-0.2,0.07h-1.3v2.67
		c0,0.08-0.02,0.15-0.07,0.21c-0.05,0.06-0.11,0.09-0.19,0.09h-0.87c-0.17,0-0.26-0.1-0.26-0.3v-2.67h-4.34
		c-0.22,0-0.38-0.05-0.47-0.13c-0.1-0.09-0.14-0.23-0.14-0.44v-0.57c0-0.21,0.06-0.4,0.18-0.56l4.44-6.23
		c0.1-0.16,0.25-0.24,0.44-0.24h0.88c0.26,0,0.39,0.11,0.39,0.33v6.71h1.3c0.08,0,0.15,0.02,0.21,0.07c0.05,0.05,0.08,0.11,0.08,0.2
		V28.27L22.8,28.27L22.8,28.27z M19.84,27.4v-5.13c0-0.06-0.02-0.09-0.06-0.09h-0.01c-0.04,0-0.08,0.03-0.12,0.09l-3.46,4.92
		c-0.03,0.04-0.05,0.08-0.05,0.12c0,0.06,0.04,0.09,0.13,0.09H19.84z"/>
	<path id="path5318" style="&st0;" d="M37.77,26.92c0,9.82-7.96,17.79-17.79,17.79c-9.83,0-17.79-7.97-17.79-17.79
		c0-9.82,7.96-17.79,17.79-17.79C29.81,9.13,37.77,17.1,37.77,26.92z"/>
	<path id="path5322" style="&st4;" d="M13.6,9.79L2.71,8.55"/>
	<path id="path5326" style="&st4;" d="M13.6,9.79l-2.21,10.93"/>
</g>
<g id="M3_1_">
	<path id="path5330" style="&st0;" d="M41.67,72.47c0-9.82,7.97-17.79,17.79-17.79c9.83,0,17.79,7.97,17.79,17.79
		c0,9.83-7.96,17.79-17.79,17.79C49.64,90.26,41.67,82.3,41.67,72.47z"/>
	<path id="path5334" style="&st4;" d="M69.01,87.25l10.96,0.15"/>
	<path id="path5338" style="&st4;" d="M69.01,87.25l1.11-11.09"/>
	<path id="path3488" style="&st2;" d="M59.35,77.97c-0.48,0-0.97-0.06-1.47-0.18c-0.5-0.12-0.92-0.25-1.26-0.38
		c-0.09-0.05-0.15-0.09-0.18-0.12c-0.03-0.04-0.04-0.1-0.04-0.19v-0.51c0-0.2,0.1-0.27,0.3-0.21c0.59,0.16,1.07,0.27,1.43,0.35
		c0.36,0.08,0.76,0.12,1.18,0.12c0.81,0,1.38-0.16,1.73-0.49c0.35-0.33,0.52-0.85,0.52-1.58v-0.31c0-0.29-0.06-0.57-0.17-0.85
		c-0.11-0.28-0.3-0.52-0.56-0.7c-0.27-0.19-0.61-0.28-1.03-0.28h-2.73c-0.19,0-0.29-0.09-0.29-0.27v-0.52c0-0.08,0.03-0.15,0.08-0.2
		c0.05-0.06,0.12-0.08,0.21-0.08h2.73c0.45,0,0.81-0.09,1.07-0.26c0.26-0.18,0.44-0.4,0.54-0.67c0.1-0.27,0.15-0.56,0.15-0.85v-0.21
		c0-0.43-0.07-0.77-0.21-1.02c-0.14-0.26-0.38-0.45-0.71-0.57c-0.33-0.13-0.77-0.19-1.33-0.19c-0.42,0-0.82,0.04-1.19,0.12
		s-0.85,0.19-1.41,0.35c-0.2,0.06-0.3-0.01-0.3-0.21V67.5c0-0.09,0.01-0.16,0.05-0.2c0.03-0.04,0.09-0.08,0.17-0.11
		c0.33-0.14,0.75-0.27,1.24-0.39c0.5-0.12,0.99-0.18,1.49-0.18c1.19,0,2.08,0.22,2.69,0.67c0.61,0.44,0.91,1.19,0.91,2.26v0.21
		c0,0.26-0.03,0.5-0.09,0.73c-0.06,0.23-0.15,0.44-0.27,0.65c-0.12,0.2-0.27,0.39-0.46,0.55c-0.18,0.17-0.38,0.31-0.61,0.42
		c0.49,0.23,0.85,0.56,1.08,0.98c0.23,0.42,0.35,0.88,0.35,1.37v0.31c0,1.09-0.32,1.9-0.95,2.42
		C61.37,77.71,60.48,77.97,59.35,77.97L59.35,77.97z"/>
</g>
<g id="M2">
	<path id="path3486" style="&st2;" d="M75.52,22.94c0,0.4-0.06,0.76-0.2,1.07c-0.13,0.31-0.34,0.61-0.62,0.9
		c-0.28,0.29-0.66,0.59-1.14,0.92l-1.44,0.97c-0.54,0.37-0.97,0.71-1.28,1.03c-0.31,0.32-0.52,0.65-0.65,0.99s-0.18,0.73-0.18,1.17
		v0.31h5.05c0.2,0,0.3,0.09,0.3,0.26v0.66c0,0.09-0.03,0.16-0.09,0.2c-0.06,0.05-0.13,0.07-0.21,0.07h-5.96
		c-0.08,0-0.15-0.03-0.21-0.08c-0.06-0.06-0.09-0.12-0.09-0.2V30c0-0.52,0.08-1.02,0.24-1.48c0.16-0.47,0.41-0.9,0.75-1.31
		c0.34-0.41,0.78-0.79,1.31-1.15l1.52-1.02c0.63-0.42,1.04-0.77,1.24-1.03c0.2-0.27,0.3-0.62,0.3-1.06c0-0.36-0.07-0.66-0.21-0.88
		c-0.14-0.23-0.35-0.4-0.63-0.5c-0.28-0.1-0.63-0.16-1.06-0.16c-0.34,0-0.68,0.03-1.02,0.09c-0.35,0.06-0.69,0.14-1.02,0.23
		c-0.34,0.1-0.62,0.17-0.85,0.24c-0.1,0.03-0.17,0.03-0.22-0.01c-0.05-0.04-0.08-0.1-0.08-0.19v-0.51c0-0.09,0.02-0.16,0.05-0.2
		c0.03-0.04,0.09-0.08,0.18-0.11c0.26-0.11,0.54-0.22,0.84-0.31c0.3-0.1,0.65-0.18,1.04-0.25c0.4-0.07,0.78-0.11,1.14-0.11
		c0.51,0,0.97,0.06,1.37,0.18c0.41,0.12,0.74,0.28,1,0.5c0.26,0.21,0.46,0.49,0.6,0.83C75.45,22.1,75.52,22.49,75.52,22.94
		L75.52,22.94z"/>
	<path id="path5306" style="&st0;" d="M54.17,26.92c0,9.82,7.97,17.79,17.79,17.79c9.83,0,17.79-7.97,17.79-17.79
		c0-9.82-7.96-17.79-17.79-17.79C62.14,9.13,54.17,17.1,54.17,26.92z"/>
	<path id="path5310" style="&st4;" d="M78.24,9.93l2.84,10.58"/>
	<path id="path5314" style="&st4;" d="M78.24,9.93l10.97-1.96"/>
</g>
<g id="M1">
	<path id="path3484" style="&st2;" d="M34.29,77.57c0,0.09-0.02,0.16-0.07,0.22c-0.05,0.06-0.11,0.08-0.2,0.08H33.2
		c-0.08,0-0.15-0.03-0.2-0.09c-0.05-0.06-0.07-0.13-0.07-0.21v-9.43l-1.94,0.84c-0.08,0.03-0.14,0.04-0.2,0.04
		c-0.09,0-0.13-0.06-0.13-0.17v-0.76c0-0.08,0.05-0.14,0.15-0.2l2.26-1.08c0.12-0.06,0.23-0.09,0.32-0.09H34
		c0.08,0,0.15,0.02,0.2,0.08s0.08,0.12,0.08,0.21L34.29,77.57L34.29,77.57L34.29,77.57z"/>
	<path id="path5294" style="&st0;" d="M50.27,72.47c0-9.82-7.96-17.79-17.79-17.79s-17.79,7.97-17.79,17.79
		c0,9.83,7.96,17.79,17.79,17.79S50.27,82.3,50.27,72.47z"/>
	<path id="path5298" style="&st4;" d="M23.02,87.54l-0.94-10.92"/>
	<path id="path5302" style="&st4;" d="M23.02,87.54H11.87"/>
</g>
<g id="FrontArrow">
	<path id="path5094" style="&st3;" d="M46.02,53.94V41.56"/>
	<path id="path5098" style="&st1;" d="M55.32,44.3l-9.35-16.19L36.62,44.3H55.32z"/>
</g>
</svg>
