<?xml version="1.0" encoding="utf-8"?>
<!-- Copyright 2014.  All rights reserved.  Used with permission for Baseflight Configurator -->

<!DOCTYPE svg PUBLIC "-//W3C//DTD SVG 1.1 Basic//EN" "http://www.w3.org/Graphics/SVG/1.1/DTD/svg11-basic.dtd" [
	<!ENTITY st0 "fill:none;stroke:#8D198F;stroke-width:3;stroke-miterlimit:10;">
	<!ENTITY st1 "fill:#ED1C24;">
	<!ENTITY st2 "fill:#231F20;">
	<!ENTITY st3 "fill:none;stroke:#293D9B;stroke-width:3;stroke-linecap:round;stroke-miterlimit:10;">
	<!ENTITY st4 "fill:none;stroke:#ED1C24;stroke-width:5;stroke-miterlimit:10;">
	<!ENTITY st5 "fill:none;stroke:#293D9B;stroke-width:3;stroke-miterlimit:10;">
	<!ENTITY st6 "fill:none;stroke:#8D198F;stroke-width:3;stroke-linecap:round;stroke-miterlimit:10;">
]>
<svg version="1.1" baseProfile="basic"
	 id="Y4-mix" xmlns:dc="http://purl.org/dc/elements/1.1/" xmlns:cc="http://creativecommons.org/ns#" xmlns:rdf="http://www.w3.org/1999/02/22-rdf-syntax-ns#" xmlns:svg="http://www.w3.org/2000/svg"
	 xmlns="http://www.w3.org/2000/svg" xmlns:xlink="http://www.w3.org/1999/xlink" x="0px" y="0px" width="112.83px"
	 height="138.5px" viewBox="0.37 0.37 112.83 138.5" xml:space="preserve">
<g id="M4">
	<path id="path3443" style="&st2;" d="M23.81,26.9c0,0.08-0.03,0.15-0.09,0.19c-0.06,0.05-0.12,0.07-0.2,0.07h-1.3v2.67
		c0,0.08-0.02,0.15-0.07,0.21c-0.05,0.06-0.11,0.09-0.19,0.09h-0.87c-0.17,0-0.26-0.1-0.26-0.3v-2.67H16.5
		c-0.22,0-0.38-0.04-0.47-0.13c-0.09-0.09-0.14-0.24-0.14-0.45v-0.57c0-0.21,0.06-0.4,0.18-0.56l4.44-6.23
		c0.1-0.16,0.25-0.24,0.44-0.24h0.88c0.26,0,0.4,0.11,0.4,0.33v6.71h1.3c0.08,0,0.15,0.03,0.21,0.07c0.05,0.05,0.08,0.12,0.08,0.2
		L23.81,26.9L23.81,26.9z M20.85,26.02v-5.13c0-0.06-0.02-0.09-0.06-0.09h-0.02c-0.04,0-0.08,0.03-0.12,0.09l-3.46,4.92
		c-0.03,0.04-0.05,0.08-0.05,0.13c0,0.06,0.04,0.09,0.13,0.09L20.85,26.02L20.85,26.02z"/>
	<path id="path5570" style="&st0;" d="M37.46,24.48c0,9.83-7.96,17.79-17.79,17.79c-9.83,0-17.79-7.96-17.79-17.79
		c0-9.82,7.96-17.79,17.79-17.79S37.46,14.65,37.46,24.48z"/>
	<path id="path5574" style="&st6;" d="M13.28,7.35L2.4,6.11"/>
	<path id="path5578" style="&st6;" d="M13.28,7.35l-2.21,10.92"/>
</g>
<g id="M2">
	<path id="path3986" style="&st2;" d="M96.8,23.47c0,0.4-0.07,0.76-0.2,1.07c-0.13,0.31-0.34,0.61-0.62,0.9
		c-0.28,0.29-0.66,0.59-1.14,0.92l-1.43,0.97c-0.54,0.37-0.97,0.71-1.28,1.03c-0.31,0.32-0.52,0.65-0.65,0.99
		c-0.12,0.34-0.18,0.73-0.18,1.17v0.31h5.05c0.2,0,0.3,0.08,0.3,0.26v0.66c0,0.09-0.03,0.15-0.09,0.2
		c-0.06,0.05-0.13,0.07-0.21,0.07h-5.95c-0.08,0-0.15-0.03-0.21-0.09c-0.06-0.06-0.09-0.12-0.09-0.2v-1.22
		c0-0.52,0.08-1.02,0.24-1.48c0.16-0.47,0.41-0.9,0.75-1.31c0.34-0.41,0.78-0.79,1.32-1.15l1.52-1.03c0.63-0.42,1.04-0.76,1.24-1.03
		c0.2-0.27,0.3-0.62,0.3-1.07c0-0.36-0.07-0.66-0.21-0.88c-0.14-0.23-0.35-0.39-0.63-0.5c-0.28-0.11-0.63-0.16-1.05-0.16
		c-0.34,0-0.68,0.03-1.02,0.09c-0.34,0.06-0.69,0.14-1.02,0.23c-0.34,0.1-0.62,0.18-0.85,0.24c-0.09,0.03-0.17,0.03-0.22-0.02
		c-0.05-0.04-0.08-0.1-0.08-0.19v-0.51c0-0.09,0.02-0.16,0.05-0.2c0.03-0.04,0.09-0.08,0.18-0.11c0.26-0.11,0.54-0.22,0.84-0.31
		c0.3-0.1,0.64-0.18,1.04-0.25c0.4-0.07,0.78-0.11,1.14-0.11c0.51,0,0.97,0.06,1.37,0.18c0.41,0.12,0.74,0.28,1,0.5
		c0.26,0.21,0.46,0.49,0.6,0.83C96.73,22.62,96.8,23.02,96.8,23.47L96.8,23.47z"/>
	<path id="path5582" style="&st0;" d="M76.12,26.92c0,9.83,7.97,17.79,17.79,17.79c9.83,0,17.79-7.96,17.79-17.79
		c0-9.82-7.96-17.79-17.79-17.79C84.09,9.13,76.12,17.1,76.12,26.92z"/>
	<path id="path5586" style="&st6;" d="M90.84,9.07l7.76,7.73"/>
	<path id="path5590" style="&st6;" d="M90.84,9.07l8.52-7.2"/>
</g>
<g id="M3">
	<path id="path3988" style="&st2;" d="M56.32,124.64c-0.48,0-0.97-0.06-1.47-0.18c-0.5-0.12-0.92-0.25-1.26-0.38
		c-0.09-0.04-0.15-0.08-0.18-0.12s-0.04-0.1-0.04-0.19v-0.51c0-0.2,0.1-0.27,0.3-0.21c0.59,0.16,1.07,0.27,1.43,0.35
		s0.76,0.12,1.18,0.12c0.81,0,1.38-0.16,1.73-0.49c0.35-0.33,0.52-0.86,0.52-1.58v-0.32c0-0.29-0.05-0.57-0.17-0.85
		c-0.11-0.28-0.3-0.51-0.56-0.7c-0.27-0.18-0.61-0.28-1.03-0.28h-2.73c-0.19,0-0.29-0.09-0.29-0.27v-0.52
		c0-0.08,0.03-0.15,0.08-0.21s0.12-0.08,0.21-0.08h2.73c0.45,0,0.8-0.09,1.07-0.26c0.26-0.18,0.44-0.4,0.54-0.67
		c0.1-0.27,0.15-0.56,0.15-0.85v-0.21c0-0.42-0.07-0.77-0.21-1.02c-0.14-0.26-0.38-0.45-0.71-0.57c-0.33-0.12-0.77-0.18-1.33-0.18
		c-0.42,0-0.82,0.04-1.19,0.12c-0.38,0.08-0.85,0.19-1.41,0.34c-0.2,0.06-0.3-0.01-0.3-0.21v-0.5c0-0.09,0.02-0.16,0.05-0.2
		c0.03-0.04,0.09-0.08,0.17-0.11c0.33-0.14,0.75-0.27,1.25-0.39c0.5-0.12,0.99-0.18,1.49-0.18c1.19,0,2.08,0.22,2.69,0.67
		c0.61,0.44,0.91,1.2,0.91,2.26v0.21c0,0.26-0.03,0.5-0.09,0.73c-0.06,0.23-0.15,0.44-0.27,0.64c-0.12,0.2-0.27,0.39-0.46,0.55
		c-0.18,0.17-0.38,0.31-0.61,0.42c0.49,0.23,0.85,0.56,1.08,0.98s0.35,0.88,0.35,1.37v0.32c0,1.09-0.32,1.9-0.95,2.42
		C58.34,124.38,57.45,124.64,56.32,124.64L56.32,124.64z"/>
	<path id="path5594" style="&st5;" d="M65.91,134.59c8.29-5.27,10.74-16.27,5.46-24.56c-5.27-8.29-16.27-10.74-24.56-5.46
		c-8.29,5.27-10.74,16.27-5.46,24.56C46.63,137.42,57.62,139.86,65.91,134.59z"/>
	<path id="path5598" style="&st3;" d="M42.95,131.75l2.36-10.7"/>
	<path id="path5602" style="&st3;" d="M42.95,131.75l-10.64-3.32"/>
</g>
<g id="M1">
	<path id="path3441" style="&st2;" d="M58.95,94.78c0,0.09-0.02,0.16-0.07,0.22c-0.05,0.06-0.12,0.08-0.2,0.08h-0.82
		c-0.08,0-0.15-0.03-0.2-0.09s-0.07-0.13-0.07-0.21v-9.43l-1.93,0.84c-0.08,0.03-0.14,0.04-0.2,0.04c-0.09,0-0.13-0.05-0.13-0.17
		v-0.76c0-0.08,0.05-0.14,0.15-0.2l2.26-1.08c0.12-0.07,0.23-0.1,0.31-0.1h0.62c0.08,0,0.14,0.03,0.2,0.08
		c0.06,0.05,0.08,0.12,0.08,0.21V94.78z"/>
	<path id="path5678" style="&st0;" d="M49.85,105.15c-8.74-4.49-12.18-15.22-7.68-23.96c4.49-8.74,15.22-12.18,23.96-7.68
		C74.87,78,78.3,88.73,73.81,97.46C69.32,106.2,58.59,109.64,49.85,105.15z"/>
	<path id="path5682" style="&st6;" d="M76.14,91.49l6.08-9.11"/>
	<path id="path5686" style="&st6;" d="M76.14,91.49l-8.71-6.96"/>
</g>
<g id="FrontArrow">
	<path id="path5198" style="&st4;" d="M57.65,61.14V48.76"/>
	<path id="path5202" style="&st1;" d="M66.95,51.5L57.6,35.3L48.25,51.5H66.95z"/>
</g>
</svg>
