<?xml version="1.0" encoding="utf-8"?>
<!-- Copyright 2014.  All rights reserved.  Used with permission for Baseflight Configurator -->
<svg version="1.2" baseProfile="tiny"
	 id="svg3882" xmlns:dc="http://purl.org/dc/elements/1.1/" xmlns:cc="http://creativecommons.org/ns#" xmlns:rdf="http://www.w3.org/1999/02/22-rdf-syntax-ns#" xmlns:svg="http://www.w3.org/2000/svg"
	 xmlns="http://www.w3.org/2000/svg" xmlns:xlink="http://www.w3.org/1999/xlink" x="0px" y="0px" width="113.578px"
	 height="139.248px" viewBox="0 0 113.578 139.248" xml:space="preserve">
<g id="layer1" transform="translate(-318.21087,-449.76084)">
	<g id="Y4" transform="matrix(1.25,0,0,-1.25,-223.4348,1407.1481)">
		<g id="FrontArrow">
			<path id="path5198" fill="none" stroke="#ED1C24" stroke-width="5" stroke-miterlimit="10" d="M479.44,717v9.901"/>
			<path id="path5202" fill="#ED1C24" d="M486.878,724.713l-7.48,12.953l-7.479-12.953H486.878z"/>
		</g>
		<g id="M4">
			<path id="path3443" fill="#231F20" d="M452.366,744.393c0-0.066-0.023-0.118-0.068-0.155s-0.098-0.055-0.161-0.055h-1.043v-2.139
				c0-0.066-0.019-0.123-0.056-0.17s-0.087-0.07-0.149-0.07h-0.697c-0.137,0-0.205,0.08-0.205,0.24v2.139h-3.469
				c-0.176,0-0.302,0.035-0.378,0.105s-0.114,0.189-0.114,0.357v0.457c0,0.168,0.049,0.316,0.146,0.445l3.551,4.98
				c0.082,0.129,0.199,0.193,0.352,0.193h0.703c0.211,0,0.316-0.088,0.316-0.264v-5.367h1.043c0.066,0,0.121-0.02,0.164-0.059
				c0.043-0.039,0.064-0.092,0.064-0.158V744.393z M449.999,745.09v4.107c0,0.047-0.016,0.07-0.047,0.07h-0.012
				c-0.031,0-0.063-0.023-0.094-0.07l-2.771-3.938c-0.027-0.031-0.041-0.064-0.041-0.1c0-0.047,0.033-0.07,0.1-0.07H449.999z"/>
			<path id="path5570" fill="none" stroke="#8D198F" stroke-width="3" stroke-miterlimit="10" d="M463.281,746.326
				c0-7.86-6.372-14.232-14.232-14.232c-7.861,0-14.233,6.372-14.233,14.232c0,7.86,6.372,14.232,14.233,14.232
				C456.91,760.558,463.281,754.186,463.281,746.326z"/>
			<path id="path5574" fill="none" stroke="#8D198F" stroke-width="3" stroke-linecap="round" stroke-miterlimit="10" d="
				M443.943,760.027l-8.708,0.996"/>
			<path id="path5578" fill="none" stroke="#8D198F" stroke-width="3" stroke-linecap="round" stroke-miterlimit="10" d="
				M443.943,760.027l-1.769-8.74"/>
		</g>
		<g id="M2">
			<path id="path3986" fill="#231F20" d="M510.758,747.133c0-0.32-0.052-0.606-0.159-0.858c-0.105-0.252-0.27-0.492-0.495-0.721
				c-0.224-0.229-0.529-0.474-0.912-0.736l-1.148-0.779c-0.433-0.293-0.773-0.568-1.022-0.826c-0.248-0.258-0.42-0.521-0.516-0.791
				c-0.095-0.27-0.144-0.582-0.144-0.938v-0.252h4.043c0.16,0,0.24-0.068,0.24-0.205V740.5c0-0.07-0.023-0.124-0.07-0.161
				s-0.103-0.056-0.17-0.056h-4.763c-0.063,0-0.119,0.023-0.167,0.068c-0.048,0.045-0.073,0.098-0.073,0.161v0.973
				c0,0.418,0.064,0.814,0.191,1.187c0.127,0.373,0.327,0.723,0.598,1.049c0.271,0.326,0.622,0.632,1.052,0.917l1.213,0.82
				c0.5,0.336,0.83,0.611,0.99,0.823s0.24,0.497,0.24,0.852c0,0.289-0.055,0.525-0.166,0.706c-0.112,0.182-0.279,0.315-0.501,0.401
				c-0.223,0.086-0.505,0.129-0.844,0.129c-0.27,0-0.542-0.024-0.817-0.073c-0.276-0.049-0.549-0.111-0.82-0.188
				c-0.272-0.076-0.498-0.14-0.677-0.191c-0.074-0.023-0.133-0.02-0.176,0.012s-0.064,0.082-0.064,0.152v0.41
				c0,0.074,0.013,0.128,0.038,0.161c0.026,0.033,0.073,0.063,0.144,0.091c0.207,0.09,0.43,0.174,0.668,0.252
				s0.516,0.146,0.835,0.202c0.319,0.057,0.622,0.085,0.911,0.085c0.406,0,0.772-0.047,1.095-0.141
				c0.325-0.094,0.591-0.227,0.797-0.398c0.208-0.172,0.367-0.393,0.481-0.662C510.701,747.813,510.758,747.496,510.758,747.133
				L510.758,747.133z"/>
			<path id="path5582" fill="none" stroke="#8D198F" stroke-width="3" stroke-miterlimit="10" d="M494.214,744.371
				c0-7.86,6.373-14.232,14.232-14.232c7.862,0,14.233,6.372,14.233,14.232c0,7.86-6.371,14.232-14.233,14.232
				C500.587,758.604,494.214,752.232,494.214,744.371z"/>
			<path id="path5586" fill="none" stroke="#8D198F" stroke-width="3" stroke-linecap="round" stroke-miterlimit="10" d="
				M505.99,758.653l6.209-6.186"/>
			<path id="path5590" fill="none" stroke="#8D198F" stroke-width="3" stroke-linecap="round" stroke-miterlimit="10" d="
				M505.99,758.653l6.812,5.757"/>
		</g>
		<g id="M3">
			<path id="path3988" fill="#231F20" d="M478.369,666.198c-0.383,0-0.775,0.048-1.178,0.143c-0.402,0.096-0.738,0.198-1.008,0.308
				c-0.07,0.035-0.117,0.068-0.141,0.099s-0.035,0.083-0.035,0.153v0.409c0,0.161,0.08,0.217,0.24,0.17
				c0.473-0.125,0.854-0.219,1.145-0.281s0.605-0.094,0.941-0.094c0.645,0,1.105,0.131,1.383,0.392
				c0.277,0.263,0.416,0.684,0.416,1.266v0.252c0,0.23-0.044,0.459-0.132,0.683s-0.238,0.411-0.451,0.559
				c-0.213,0.148-0.487,0.223-0.823,0.223h-2.18c-0.152,0-0.229,0.072-0.229,0.217v0.416c0,0.066,0.021,0.121,0.064,0.164
				s0.098,0.064,0.164,0.064h2.18c0.359,0,0.644,0.07,0.852,0.211s0.354,0.32,0.434,0.537s0.12,0.445,0.12,0.682v0.17
				c0,0.34-0.056,0.613-0.17,0.817c-0.113,0.205-0.302,0.358-0.566,0.458c-0.263,0.099-0.618,0.148-1.063,0.148
				c-0.336,0-0.654-0.031-0.955-0.094s-0.678-0.154-1.131-0.275c-0.16-0.047-0.24,0.01-0.24,0.17v0.404
				c0,0.074,0.012,0.128,0.038,0.162c0.025,0.033,0.072,0.063,0.138,0.091c0.266,0.112,0.598,0.217,0.996,0.313
				s0.794,0.143,1.189,0.143c0.949,0,1.667-0.177,2.153-0.533c0.487-0.355,0.73-0.957,0.73-1.805v-0.17
				c0-0.206-0.024-0.401-0.073-0.583c-0.048-0.181-0.122-0.353-0.219-0.516c-0.098-0.162-0.219-0.309-0.364-0.442
				c-0.144-0.133-0.306-0.244-0.486-0.334c0.391-0.188,0.678-0.45,0.864-0.787s0.278-0.702,0.278-1.093v-0.252
				c0-0.87-0.253-1.516-0.759-1.936S479.279,666.198,478.369,666.198L478.369,666.198z"/>
			<path id="path5594" fill="none" stroke="#293D9B" stroke-width="3" stroke-miterlimit="10" d="M486.045,658.237
				c6.634,4.219,8.591,13.016,4.372,19.647c-4.22,6.633-13.016,8.589-19.647,4.372c-6.633-4.219-8.589-13.016-4.37-19.649
				C470.617,655.975,479.413,654.018,486.045,658.237z"/>
			<path id="path5598" fill="none" stroke="#293D9B" stroke-width="3" stroke-linecap="round" stroke-miterlimit="10" d="
				M467.676,660.508l1.887,8.559"/>
			<path id="path5602" fill="none" stroke="#293D9B" stroke-width="3" stroke-linecap="round" stroke-miterlimit="10" d="
				M467.676,660.508l-8.513,2.656"/>
		</g>
		<g id="M1">
			<path id="path3441" fill="#231F20" d="M480.479,690.082c0-0.07-0.019-0.127-0.058-0.172c-0.039-0.045-0.092-0.068-0.159-0.068
				h-0.656c-0.066,0-0.12,0.023-0.159,0.07s-0.058,0.104-0.058,0.169v7.547l-1.547-0.673c-0.063-0.023-0.115-0.035-0.158-0.035
				c-0.07,0-0.105,0.044-0.105,0.135v0.609c0,0.063,0.039,0.115,0.117,0.158l1.811,0.861c0.097,0.052,0.181,0.077,0.252,0.077h0.492
				c0.063,0,0.116-0.02,0.161-0.061c0.045-0.041,0.067-0.097,0.067-0.167V690.082z"/>
			<path id="path5678" fill="none" stroke="#8D198F" stroke-width="3" stroke-miterlimit="10" d="M473.199,681.792
				c-6.989,3.595-9.742,12.177-6.146,19.166c3.595,6.991,12.175,9.742,19.166,6.147c6.99-3.595,9.741-12.177,6.147-19.167
				C488.77,680.948,480.188,678.197,473.199,681.792z"/>
			<path id="path5682" fill="none" stroke="#8D198F" stroke-width="3" stroke-linecap="round" stroke-miterlimit="10" d="
				M494.229,692.721l4.868,7.288"/>
			<path id="path5686" fill="none" stroke="#8D198F" stroke-width="3" stroke-linecap="round" stroke-miterlimit="10" d="
				M494.229,692.721l-6.964,5.57"/>
		</g>
	</g>
</g>
</svg>
