<?xml version="1.0" encoding="utf-8"?>
<!-- Copyright 2014.  All rights reserved.  Used with permission for Baseflight Configurator -->
<svg version="1.2" baseProfile="tiny"
	 id="svg4602" xmlns:dc="http://purl.org/dc/elements/1.1/" xmlns:cc="http://creativecommons.org/ns#" xmlns:rdf="http://www.w3.org/1999/02/22-rdf-syntax-ns#" xmlns:svg="http://www.w3.org/2000/svg"
	 xmlns="http://www.w3.org/2000/svg" xmlns:xlink="http://www.w3.org/1999/xlink" x="0px" y="0px" width="158.436px"
	 height="157.094px" viewBox="0 0 158.436 157.094" xml:space="preserve">
<g id="layer1" transform="translate(-295.7821,-441.82894)">
	<g id="Y6" transform="matrix(1.25,0,0,-1.25,-183.46958,1221.9047)">
		<g id="MotorOrderGraphic">
			<g id="FrontArrow">
				<path id="path5134" fill="none" stroke="#ED1C24" stroke-width="5" stroke-miterlimit="10" d="M448.082,561.936v9.901"/>
				<path id="path5138" fill="#ED1C24" d="M455.519,569.649l-7.478,12.953l-7.479-12.953H455.519z"/>
			</g>
			<g id="M4">
				<path id="path4060" fill="#231F20" d="M448.612,513.135c0-0.066-0.023-0.118-0.067-0.156c-0.045-0.037-0.098-0.055-0.161-0.055
					h-1.043v-2.139c0-0.066-0.019-0.123-0.056-0.17c-0.037-0.047-0.087-0.07-0.149-0.07h-0.697c-0.137,0-0.205,0.08-0.205,0.24
					v2.139h-3.469c-0.176,0-0.302,0.035-0.378,0.105c-0.076,0.07-0.114,0.189-0.114,0.357v0.457c0,0.168,0.049,0.316,0.147,0.445
					l3.551,4.98c0.082,0.129,0.199,0.194,0.352,0.194h0.703c0.211,0,0.316-0.088,0.316-0.264v-5.367h1.043
					c0.066,0,0.121-0.02,0.164-0.059s0.064-0.091,0.064-0.158V513.135z M446.245,513.832v4.108c0,0.047-0.016,0.07-0.047,0.07
					h-0.012c-0.031,0-0.063-0.023-0.094-0.07l-2.771-3.938c-0.027-0.031-0.041-0.065-0.041-0.1c0-0.047,0.034-0.07,0.1-0.07H446.245
					z"/>
				<path id="path5606" fill="none" stroke="#293D9B" stroke-width="3" stroke-miterlimit="10" d="M457.003,522.885
					c4.842-6.191,3.746-15.137-2.446-19.979c-6.191-4.841-15.137-3.746-19.979,2.447c-4.841,6.191-3.746,15.136,2.446,19.978
					C443.217,530.171,452.161,529.076,457.003,522.885z"/>
				<path id="path5610" fill="none" stroke="#293D9B" stroke-width="3" stroke-linecap="round" stroke-miterlimit="10" d="
					M433.328,521.766l-7.473-4.579"/>
				<path id="path5614" fill="none" stroke="#293D9B" stroke-width="3" stroke-linecap="round" stroke-miterlimit="10" d="
					M433.328,521.766l3.991-7.975"/>
			</g>
			<g id="M6">
				<path id="path4064" fill="#231F20" d="M405.973,601.614v0.07c0,0.406-0.085,0.734-0.255,0.982
					c-0.17,0.248-0.394,0.423-0.671,0.524s-0.588,0.152-0.931,0.152c-0.27,0-0.582-0.023-0.938-0.067
					c-0.355-0.045-0.647-0.095-0.873-0.15v-1.142c0-0.641,0.07-1.145,0.208-1.512c0.139-0.367,0.341-0.627,0.607-0.78
					s0.602-0.228,1.008-0.228c0.285,0,0.541,0.039,0.77,0.117c0.228,0.078,0.422,0.198,0.58,0.36
					c0.159,0.163,0.28,0.385,0.366,0.668C405.93,600.893,405.973,601.228,405.973,601.614z M404.355,607.661
					c0.738,0,1.459-0.148,2.162-0.445c0.07-0.027,0.117-0.055,0.141-0.085c0.023-0.029,0.034-0.084,0.035-0.166v-0.434
					c0-0.156-0.08-0.211-0.241-0.164c-0.504,0.133-0.887,0.229-1.148,0.29c-0.262,0.06-0.578,0.091-0.949,0.091
					c-0.582,0-1.023-0.107-1.324-0.322s-0.497-0.51-0.589-0.885c-0.091-0.375-0.137-0.859-0.137-1.453v-0.134
					c0.707,0.16,1.311,0.24,1.811,0.24c0.555,0,1.052-0.078,1.491-0.234c0.44-0.156,0.791-0.42,1.055-0.791
					c0.264-0.371,0.396-0.866,0.396-1.483v-0.07c0-0.641-0.109-1.188-0.326-1.641c-0.216-0.453-0.543-0.798-0.978-1.037
					c-0.436-0.238-0.977-0.358-1.626-0.358c-0.453,0-0.859,0.07-1.216,0.208c-0.357,0.139-0.661,0.346-0.911,0.621
					c-0.25,0.276-0.442,0.63-0.577,1.064c-0.134,0.434-0.202,0.938-0.202,1.512v2.103c0,0.848,0.117,1.534,0.352,2.057
					s0.584,0.907,1.048,1.151C403.086,607.539,403.664,607.661,404.355,607.661L404.355,607.661z"/>
				<path id="path5618" fill="none" stroke="#293D9B" stroke-width="3" stroke-miterlimit="10" d="M411.784,591.574
					c6.633,4.219,8.59,13.016,4.371,19.647c-4.219,6.633-13.016,8.589-19.647,4.372c-6.634-4.219-8.589-13.016-4.37-19.648
					C396.355,589.312,405.152,587.355,411.784,591.574z"/>
				<path id="path5622" fill="none" stroke="#293D9B" stroke-width="3" stroke-linecap="round" stroke-miterlimit="10" d="
					M393.414,593.845l1.887,8.559"/>
				<path id="path5626" fill="none" stroke="#293D9B" stroke-width="3" stroke-linecap="round" stroke-miterlimit="10" d="
					M393.414,593.845l-8.513,2.656"/>
			</g>
			<g id="M5">
				<path id="path4062" fill="#231F20" d="M494.416,598.435c-0.387,0-0.78,0.048-1.18,0.144c-0.4,0.095-0.735,0.198-1.005,0.307
					c-0.074,0.04-0.123,0.073-0.147,0.103c-0.023,0.029-0.035,0.079-0.035,0.149v0.41c0,0.164,0.08,0.22,0.241,0.17
					c0.832-0.25,1.533-0.375,2.103-0.375c0.672,0,1.166,0.159,1.48,0.475c0.315,0.316,0.472,0.787,0.472,1.412v0.182
					c0,0.59-0.192,1.005-0.577,1.245c-0.384,0.24-1.028,0.36-1.93,0.36h-1.436c-0.055,0-0.1,0.023-0.137,0.067
					c-0.037,0.045-0.055,0.091-0.055,0.137v0.012l0.334,3.996c0.009,0.063,0.035,0.113,0.082,0.15
					c0.047,0.037,0.1,0.055,0.159,0.055h4.13c0.066,0,0.123-0.019,0.17-0.055c0.047-0.037,0.07-0.088,0.07-0.15v-0.527
					c0-0.129-0.08-0.193-0.241-0.193h-3.445l-0.193-2.59h0.563c0.781,0,1.437-0.078,1.966-0.234c0.53-0.156,0.937-0.42,1.222-0.791
					s0.427-0.865,0.427-1.482v-0.182c0-0.891-0.264-1.579-0.794-2.065C496.129,598.678,495.381,598.435,494.416,598.435
					L494.416,598.435z"/>
				<path id="path5630" fill="none" stroke="#293D9B" stroke-width="3" stroke-miterlimit="10" d="M480.213,603.735
					c-0.496-7.845,5.462-14.605,13.307-15.102c7.845-0.495,14.605,5.462,15.101,13.307c0.495,7.846-5.463,14.607-13.308,15.102
					C487.47,617.537,480.709,611.58,480.213,603.735z"/>
				<path id="path5634" fill="none" stroke="#293D9B" stroke-width="3" stroke-linecap="round" stroke-miterlimit="10" d="
					M492.865,617.245l5.807-6.564"/>
				<path id="path5638" fill="none" stroke="#293D9B" stroke-width="3" stroke-linecap="round" stroke-miterlimit="10" d="
					M492.865,617.245l7.159,5.316"/>
			</g>
			<g id="M3">
				<path id="path4066" fill="#231F20" d="M418.683,585.763c-0.383,0-0.776,0.048-1.178,0.144c-0.402,0.095-0.738,0.198-1.008,0.307
					c-0.07,0.035-0.117,0.069-0.141,0.1s-0.035,0.082-0.035,0.152v0.41c0,0.16,0.08,0.216,0.241,0.17
					c0.473-0.125,0.855-0.219,1.145-0.281c0.291-0.063,0.605-0.094,0.941-0.094c0.645,0,1.105,0.131,1.383,0.393
					s0.416,0.684,0.416,1.266v0.252c0,0.23-0.044,0.459-0.131,0.683c-0.088,0.225-0.238,0.411-0.452,0.559
					c-0.213,0.148-0.488,0.223-0.823,0.223h-2.18c-0.152,0-0.228,0.073-0.228,0.217v0.416c0,0.066,0.021,0.121,0.064,0.164
					s0.098,0.065,0.164,0.065h2.18c0.359,0,0.644,0.07,0.853,0.211c0.209,0.141,0.353,0.32,0.434,0.536
					c0.08,0.217,0.12,0.444,0.12,0.683v0.17c0,0.34-0.056,0.613-0.17,0.818c-0.113,0.205-0.302,0.357-0.566,0.457
					c-0.263,0.099-0.618,0.149-1.063,0.149c-0.336,0-0.655-0.031-0.955-0.094s-0.677-0.154-1.13-0.275
					c-0.16-0.047-0.241,0.009-0.241,0.169v0.405c0,0.074,0.013,0.127,0.038,0.161c0.026,0.033,0.071,0.063,0.137,0.091
					c0.266,0.113,0.598,0.218,0.996,0.313c0.398,0.096,0.795,0.144,1.19,0.144c0.949,0,1.667-0.177,2.153-0.533
					c0.487-0.355,0.73-0.957,0.73-1.805v-0.17c0-0.207-0.024-0.401-0.073-0.583c-0.048-0.182-0.122-0.354-0.22-0.516
					c-0.098-0.162-0.219-0.309-0.363-0.442s-0.307-0.245-0.487-0.334c0.391-0.188,0.679-0.45,0.865-0.788
					c0.185-0.338,0.278-0.702,0.278-1.092v-0.252c0-0.871-0.253-1.516-0.759-1.937C420.301,585.974,419.593,585.763,418.683,585.763
					L418.683,585.763z"/>
				<path id="path5642" fill="none" stroke="#8D198F" stroke-width="3" stroke-miterlimit="10" d="M419.12,576.199
					c-7.86,0-14.232,6.373-14.232,14.232c0,7.863,6.372,14.233,14.232,14.234c7.86-0.001,14.232-6.372,14.232-14.234
					C433.352,582.573,426.98,576.201,419.12,576.199z"/>
				<path id="path5646" fill="none" stroke="#8D198F" stroke-width="3" stroke-linecap="round" stroke-miterlimit="10" d="
					M432.823,595.538l0.995,8.708"/>
				<path id="path5650" fill="none" stroke="#8D198F" stroke-width="3" stroke-linecap="round" stroke-miterlimit="10" d="
					M432.823,595.538l-8.74,1.769"/>
			</g>
			<g id="M2">
				<path id="path4070" fill="#231F20" d="M480.088,591.123c0-0.32-0.052-0.606-0.158-0.859c-0.105-0.252-0.271-0.492-0.495-0.72
					c-0.225-0.229-0.528-0.473-0.911-0.735l-1.148-0.78c-0.434-0.293-0.775-0.568-1.023-0.826c-0.248-0.258-0.42-0.522-0.516-0.791
					c-0.096-0.27-0.144-0.582-0.144-0.938v-0.252h4.043c0.16,0,0.241-0.069,0.241-0.206v-0.527c0-0.07-0.023-0.124-0.07-0.161
					c-0.047-0.037-0.104-0.055-0.17-0.055h-4.763c-0.063,0-0.119,0.022-0.167,0.067c-0.049,0.045-0.073,0.098-0.073,0.161v0.973
					c0,0.418,0.063,0.813,0.191,1.187c0.127,0.373,0.326,0.723,0.598,1.048c0.271,0.327,0.622,0.632,1.052,0.917l1.213,0.82
					c0.5,0.336,0.83,0.61,0.99,0.823c0.16,0.213,0.241,0.497,0.241,0.852c0,0.289-0.056,0.524-0.167,0.706
					c-0.112,0.181-0.278,0.316-0.501,0.402c-0.223,0.085-0.504,0.129-0.844,0.129c-0.27,0-0.542-0.025-0.818-0.073
					c-0.275-0.049-0.548-0.112-0.82-0.188c-0.271-0.077-0.497-0.14-0.677-0.191c-0.074-0.023-0.133-0.02-0.176,0.012
					s-0.064,0.082-0.064,0.152v0.41c0,0.074,0.013,0.128,0.038,0.161c0.026,0.034,0.073,0.064,0.144,0.091
					c0.207,0.09,0.43,0.173,0.668,0.252s0.516,0.145,0.835,0.202c0.318,0.056,0.622,0.085,0.911,0.085
					c0.406,0,0.772-0.047,1.096-0.141s0.59-0.227,0.797-0.398s0.367-0.393,0.48-0.663S480.088,591.486,480.088,591.123
					L480.088,591.123z"/>
				<path id="path5654" fill="none" stroke="#8D198F" stroke-width="3" stroke-miterlimit="10" d="M462.787,587.882
					c0,7.859,6.372,14.232,14.232,14.232c7.861,0,14.233-6.373,14.233-14.232c0-7.861-6.372-14.232-14.233-14.232
					C469.159,573.65,462.787,580.021,462.787,587.882z"/>
				<path id="path5658" fill="none" stroke="#8D198F" stroke-width="3" stroke-linecap="round" stroke-miterlimit="10" d="
					M478.891,573.928l7.877-3.846"/>
				<path id="path5662" fill="none" stroke="#8D198F" stroke-width="3" stroke-linecap="round" stroke-miterlimit="10" d="
					M478.891,573.928l4.585,7.649"/>
			</g>
			<g id="M1">
				<path id="path4068" fill="#231F20" d="M447.674,533.526c0-0.07-0.02-0.128-0.059-0.173c-0.039-0.045-0.092-0.067-0.159-0.067
					h-0.656c-0.066,0-0.119,0.023-0.158,0.07s-0.059,0.104-0.059,0.17v7.547l-1.547-0.674c-0.063-0.023-0.116-0.035-0.159-0.035
					c-0.07,0-0.105,0.044-0.105,0.134v0.609c0,0.063,0.039,0.116,0.117,0.159l1.811,0.861c0.098,0.051,0.181,0.077,0.252,0.077
					h0.492c0.063,0,0.116-0.02,0.161-0.062c0.045-0.041,0.068-0.097,0.068-0.167V533.526z"/>
				<path id="path5666" fill="none" stroke="#8D198F" stroke-width="3" stroke-miterlimit="10" d="M432.148,538.154
					c0-7.859,6.372-14.232,14.232-14.232c7.861,0,14.233,6.373,14.233,14.232c0,7.861-6.372,14.233-14.233,14.233
					C438.52,552.387,432.148,546.015,432.148,538.154z"/>
				<path id="path5670" fill="none" stroke="#8D198F" stroke-width="3" stroke-linecap="round" stroke-miterlimit="10" d="
					M443.922,552.436l6.211-6.188"/>
				<path id="path5674" fill="none" stroke="#8D198F" stroke-width="3" stroke-linecap="round" stroke-miterlimit="10" d="
					M443.922,552.436l6.813,5.755"/>
			</g>
		</g>
	</g>
</g>
</svg>
