<?xml version="1.0" encoding="utf-8"?>
<!-- Copyright 2014.  All rights reserved.  Used with permission for Baseflight Configurator -->
<!DOCTYPE svg PUBLIC "-//W3C//DTD SVG 1.1 Basic//EN" "http://www.w3.org/Graphics/SVG/1.1/DTD/svg11-basic.dtd" [
	<!ENTITY st0 "fill:none;stroke:#8D198F;stroke-width:3;stroke-miterlimit:10;">
	<!ENTITY st1 "fill:#ED1C24;">
	<!ENTITY st2 "fill:#231F20;">
	<!ENTITY st3 "fill:none;stroke:#293D9B;stroke-width:3;stroke-linecap:round;stroke-miterlimit:10;">
	<!ENTITY st4 "fill:none;stroke:#ED1C24;stroke-width:5;stroke-miterlimit:10;">
	<!ENTITY st5 "fill:none;stroke:#293D9B;stroke-width:3;stroke-miterlimit:10;">
	<!ENTITY st6 "fill:none;stroke:#8D198F;stroke-width:3;stroke-linecap:round;stroke-miterlimit:10;">
]>
<svg version="1.1" baseProfile="basic"
	 id="Y6-mix" xmlns:dc="http://purl.org/dc/elements/1.1/" xmlns:cc="http://creativecommons.org/ns#" xmlns:rdf="http://www.w3.org/1999/02/22-rdf-syntax-ns#" xmlns:svg="http://www.w3.org/2000/svg"
	 xmlns="http://www.w3.org/2000/svg" xmlns:xlink="http://www.w3.org/1999/xlink" x="0px" y="0px" width="157.69px"
	 height="156.34px" viewBox="0.37 0.37 157.69 156.34" xml:space="preserve">
<g id="M4">
	<path id="path4060" style="&st2;" d="M81.51,138.66c0,0.08-0.03,0.15-0.08,0.2c-0.06,0.05-0.12,0.07-0.2,0.07h-1.3v2.67
		c0,0.08-0.02,0.15-0.07,0.21c-0.05,0.06-0.11,0.09-0.19,0.09H78.8c-0.17,0-0.26-0.1-0.26-0.3v-2.67H74.2
		c-0.22,0-0.38-0.04-0.47-0.13c-0.09-0.09-0.14-0.24-0.14-0.45v-0.57c0-0.21,0.06-0.39,0.18-0.56l4.44-6.23
		c0.1-0.16,0.25-0.24,0.44-0.24h0.88c0.26,0,0.4,0.11,0.4,0.33v6.71h1.3c0.08,0,0.15,0.03,0.21,0.07s0.08,0.11,0.08,0.2
		L81.51,138.66L81.51,138.66z M78.55,137.79v-5.13c0-0.06-0.02-0.09-0.06-0.09h-0.01c-0.04,0-0.08,0.03-0.12,0.09l-3.46,4.92
		c-0.03,0.04-0.05,0.08-0.05,0.13c0,0.06,0.04,0.09,0.13,0.09H78.55z"/>
	<path id="path5606" style="&st5;" d="M92,126.47c6.05,7.74,4.68,18.92-3.06,24.97c-7.74,6.05-18.92,4.68-24.97-3.06
		c-6.05-7.74-4.68-18.92,3.06-24.97C74.77,117.36,85.95,118.73,92,126.47z"/>
	<path id="path5610" style="&st3;" d="M62.41,127.87l-9.34,5.72"/>
	<path id="path5614" style="&st3;" d="M62.41,127.87l4.99,9.97"/>
</g>
<g id="M6">
	<path id="path4064" style="&st2;" d="M28.21,28.06v-0.09c0-0.51-0.11-0.92-0.32-1.23s-0.49-0.53-0.84-0.65
		c-0.35-0.13-0.73-0.19-1.16-0.19c-0.34,0-0.73,0.03-1.17,0.08c-0.44,0.06-0.81,0.12-1.09,0.19v1.43c0,0.8,0.09,1.43,0.26,1.89
		c0.17,0.46,0.43,0.78,0.76,0.97c0.33,0.19,0.75,0.29,1.26,0.29c0.36,0,0.68-0.05,0.96-0.15c0.29-0.1,0.53-0.25,0.73-0.45
		c0.2-0.2,0.35-0.48,0.46-0.83C28.16,28.96,28.21,28.54,28.21,28.06z M26.19,20.5c0.92,0,1.82,0.19,2.7,0.56
		c0.09,0.03,0.15,0.07,0.18,0.11c0.03,0.04,0.04,0.1,0.04,0.21v0.54c0,0.19-0.1,0.26-0.3,0.21c-0.63-0.17-1.11-0.29-1.44-0.36
		c-0.33-0.07-0.72-0.11-1.19-0.11c-0.73,0-1.28,0.13-1.65,0.4c-0.38,0.27-0.62,0.64-0.74,1.11c-0.11,0.47-0.17,1.07-0.17,1.82v0.17
		c0.88-0.2,1.64-0.3,2.26-0.3c0.69,0,1.31,0.1,1.86,0.29c0.55,0.19,0.99,0.52,1.32,0.99c0.33,0.46,0.5,1.08,0.5,1.85v0.09
		c0,0.8-0.14,1.49-0.41,2.05c-0.27,0.57-0.68,1-1.22,1.3c-0.54,0.3-1.22,0.45-2.03,0.45c-0.57,0-1.07-0.09-1.52-0.26
		c-0.45-0.17-0.83-0.43-1.14-0.78c-0.31-0.34-0.55-0.79-0.72-1.33c-0.17-0.54-0.25-1.17-0.25-1.89v-2.63c0-1.06,0.15-1.92,0.44-2.57
		s0.73-1.13,1.31-1.44C24.61,20.65,25.33,20.5,26.19,20.5L26.19,20.5z"/>
	<path id="path5618" style="&st5;" d="M35.48,40.61c8.29-5.27,10.74-16.27,5.46-24.56c-5.27-8.29-16.27-10.74-24.56-5.46
		c-8.29,5.27-10.74,16.27-5.46,24.56C16.19,43.44,27.19,45.88,35.48,40.61z"/>
	<path id="path5622" style="&st3;" d="M12.52,37.77l2.36-10.7"/>
	<path id="path5626" style="&st3;" d="M12.52,37.77L1.87,34.45"/>
</g>
<g id="M5">
	<path id="path4062" style="&st2;" d="M138.77,32.03c-0.48,0-0.97-0.06-1.47-0.18c-0.5-0.12-0.92-0.25-1.26-0.38
		c-0.09-0.05-0.15-0.09-0.18-0.13c-0.03-0.04-0.04-0.1-0.04-0.19v-0.51c0-0.21,0.1-0.27,0.3-0.21c1.04,0.31,1.92,0.47,2.63,0.47
		c0.84,0,1.46-0.2,1.85-0.59c0.39-0.4,0.59-0.98,0.59-1.77v-0.23c0-0.74-0.24-1.26-0.72-1.56c-0.48-0.3-1.29-0.45-2.41-0.45h-1.79
		c-0.07,0-0.13-0.03-0.17-0.08c-0.05-0.06-0.07-0.11-0.07-0.17v-0.01l0.42-5c0.01-0.08,0.04-0.14,0.1-0.19s0.13-0.07,0.2-0.07h5.16
		c0.08,0,0.15,0.02,0.21,0.07c0.06,0.05,0.09,0.11,0.09,0.19v0.66c0,0.16-0.1,0.24-0.3,0.24h-4.31l-0.24,3.24h0.7
		c0.98,0,1.8,0.1,2.46,0.29c0.66,0.19,1.17,0.52,1.53,0.99c0.36,0.46,0.53,1.08,0.53,1.85v0.23c0,1.11-0.33,1.97-0.99,2.58
		C140.91,31.73,139.97,32.03,138.77,32.03L138.77,32.03z"/>
	<path id="path5630" style="&st5;" d="M121.01,25.41c-0.62,9.81,6.83,18.26,16.63,18.88c9.81,0.62,18.26-6.83,18.88-16.63
		c0.62-9.81-6.83-18.26-16.63-18.88C130.09,8.15,121.64,15.6,121.01,25.41z"/>
	<path id="path5634" style="&st3;" d="M136.83,8.52l7.26,8.21"/>
	<path id="path5638" style="&st3;" d="M136.83,8.52l8.95-6.65"/>
</g>
<g id="M3">
	<path id="path4066" style="&st2;" d="M44.1,47.87c-0.48,0-0.97-0.06-1.47-0.18c-0.5-0.12-0.92-0.25-1.26-0.38
		c-0.09-0.04-0.15-0.09-0.18-0.13c-0.03-0.04-0.04-0.1-0.04-0.19v-0.51c0-0.2,0.1-0.27,0.3-0.21c0.59,0.16,1.07,0.27,1.43,0.35
		c0.36,0.08,0.76,0.12,1.18,0.12c0.81,0,1.38-0.16,1.73-0.49c0.35-0.33,0.52-0.85,0.52-1.58v-0.31c0-0.29-0.05-0.57-0.16-0.85
		c-0.11-0.28-0.3-0.51-0.56-0.7c-0.27-0.19-0.61-0.28-1.03-0.28h-2.72c-0.19,0-0.29-0.09-0.29-0.27v-0.52
		c0-0.08,0.03-0.15,0.08-0.21c0.05-0.05,0.12-0.08,0.21-0.08h2.72c0.45,0,0.81-0.09,1.07-0.26c0.26-0.18,0.44-0.4,0.54-0.67
		c0.1-0.27,0.15-0.56,0.15-0.85v-0.21c0-0.42-0.07-0.77-0.21-1.02c-0.14-0.26-0.38-0.45-0.71-0.57c-0.33-0.12-0.77-0.19-1.33-0.19
		c-0.42,0-0.82,0.04-1.19,0.12c-0.38,0.08-0.85,0.19-1.41,0.34c-0.2,0.06-0.3-0.01-0.3-0.21V37.4c0-0.09,0.02-0.16,0.05-0.2
		c0.03-0.04,0.09-0.08,0.17-0.11c0.33-0.14,0.75-0.27,1.25-0.39c0.5-0.12,0.99-0.18,1.49-0.18c1.19,0,2.08,0.22,2.69,0.67
		c0.61,0.44,0.91,1.2,0.91,2.26v0.21c0,0.26-0.03,0.5-0.09,0.73c-0.06,0.23-0.15,0.44-0.27,0.65c-0.12,0.2-0.27,0.39-0.45,0.55
		c-0.18,0.17-0.38,0.31-0.61,0.42c0.49,0.23,0.85,0.56,1.08,0.98c0.23,0.42,0.35,0.88,0.35,1.36v0.32c0,1.09-0.32,1.89-0.95,2.42
		C46.12,47.61,45.24,47.87,44.1,47.87L44.1,47.87z"/>
	<path id="path5642" style="&st0;" d="M44.65,59.83c-9.83,0-17.79-7.97-17.79-17.79c0-9.83,7.96-17.79,17.79-17.79
		c9.82,0,17.79,7.96,17.79,17.79C62.44,51.86,54.47,59.82,44.65,59.83z"/>
	<path id="path5646" style="&st6;" d="M61.78,35.65l1.24-10.89"/>
	<path id="path5650" style="&st6;" d="M61.78,35.65l-10.92-2.21"/>
</g>
<g id="M2">
	<path id="path4070" style="&st2;" d="M120.86,41.17c0,0.4-0.07,0.76-0.2,1.07c-0.13,0.31-0.34,0.62-0.62,0.9
		c-0.28,0.29-0.66,0.59-1.14,0.92l-1.44,0.98c-0.54,0.37-0.97,0.71-1.28,1.03c-0.31,0.32-0.53,0.65-0.65,0.99
		c-0.12,0.34-0.18,0.73-0.18,1.17v0.31h5.05c0.2,0,0.3,0.09,0.3,0.26v0.66c0,0.09-0.03,0.16-0.09,0.2
		c-0.06,0.05-0.13,0.07-0.21,0.07h-5.95c-0.08,0-0.15-0.03-0.21-0.08c-0.06-0.06-0.09-0.12-0.09-0.2v-1.22
		c0-0.52,0.08-1.02,0.24-1.48c0.16-0.47,0.41-0.9,0.75-1.31c0.34-0.41,0.78-0.79,1.32-1.15l1.52-1.02c0.63-0.42,1.04-0.76,1.24-1.03
		c0.2-0.27,0.3-0.62,0.3-1.06c0-0.36-0.07-0.65-0.21-0.88c-0.14-0.23-0.35-0.4-0.63-0.5c-0.28-0.11-0.63-0.16-1.05-0.16
		c-0.34,0-0.68,0.03-1.02,0.09c-0.34,0.06-0.68,0.14-1.03,0.23c-0.34,0.1-0.62,0.18-0.85,0.24c-0.09,0.03-0.17,0.02-0.22-0.02
		c-0.05-0.04-0.08-0.1-0.08-0.19v-0.51c0-0.09,0.02-0.16,0.05-0.2c0.03-0.04,0.09-0.08,0.18-0.11c0.26-0.11,0.54-0.22,0.83-0.31
		c0.3-0.1,0.64-0.18,1.04-0.25c0.4-0.07,0.78-0.11,1.14-0.11c0.51,0,0.97,0.06,1.37,0.18c0.41,0.12,0.74,0.28,1,0.5
		c0.26,0.21,0.46,0.49,0.6,0.83S120.86,40.72,120.86,41.17L120.86,41.17z"/>
	<path id="path5654" style="&st0;" d="M99.23,45.22c0-9.82,7.97-17.79,17.79-17.79c9.83,0,17.79,7.97,17.79,17.79
		c0,9.83-7.97,17.79-17.79,17.79C107.2,63.01,99.23,55.05,99.23,45.22z"/>
	<path id="path5658" style="&st6;" d="M119.36,62.67l9.85,4.81"/>
	<path id="path5662" style="&st6;" d="M119.36,62.67l5.73-9.56"/>
</g>
<g id="M1">
	<path id="path4068" style="&st2;" d="M80.34,113.17c0,0.09-0.03,0.16-0.07,0.22c-0.05,0.06-0.12,0.08-0.2,0.08h-0.82
		c-0.08,0-0.15-0.03-0.2-0.09s-0.07-0.13-0.07-0.21v-9.43l-1.93,0.84c-0.08,0.03-0.14,0.04-0.2,0.04c-0.09,0-0.13-0.06-0.13-0.17
		v-0.76c0-0.08,0.05-0.14,0.15-0.2l2.26-1.08c0.12-0.06,0.23-0.1,0.32-0.1h0.61c0.08,0,0.15,0.03,0.2,0.08
		c0.06,0.05,0.08,0.12,0.08,0.21L80.34,113.17L80.34,113.17z"/>
	<path id="path5666" style="&st0;" d="M60.93,107.38c0,9.82,7.97,17.79,17.79,17.79c9.83,0,17.79-7.97,17.79-17.79
		c0-9.83-7.96-17.79-17.79-17.79C68.9,89.59,60.93,97.56,60.93,107.38z"/>
	<path id="path5670" style="&st6;" d="M75.65,89.53l7.76,7.73"/>
	<path id="path5674" style="&st6;" d="M75.65,89.53l8.52-7.19"/>
</g>
<g id="FrontArrow">
	<path id="path5134" style="&st4;" d="M80.85,77.66V65.28"/>
	<path id="path5138" style="&st1;" d="M90.15,68.01L80.8,51.82l-9.35,16.19H90.15z"/>
</g>
</svg>
