<?xml version="1.0" encoding="UTF-8" standalone="no"?>
<!-- Created with Inkscape (http://www.inkscape.org/) -->

<svg
   xmlns:dc="http://purl.org/dc/elements/1.1/"
   xmlns:cc="http://creativecommons.org/ns#"
   xmlns:rdf="http://www.w3.org/1999/02/22-rdf-syntax-ns#"
   xmlns:svg="http://www.w3.org/2000/svg"
   xmlns="http://www.w3.org/2000/svg"
   xmlns:sodipodi="http://sodipodi.sourceforge.net/DTD/sodipodi-0.dtd"
   xmlns:inkscape="http://www.inkscape.org/namespaces/inkscape"
   width="2478.5964mm"
   height="1086.9835mm"
   viewBox="0 0 8782.4284 3851.5164"
   id="svg2"
   version="1.1"
   inkscape:version="0.91 r13725"
   sodipodi:docname="StickPositions.svg"
   inkscape:export-filename="C:\Users\stuphi\Dropbox\projects\quad\StickPositions.png"
   inkscape:export-xdpi="74.996788"
   inkscape:export-ydpi="74.996788">
  <defs
     id="defs4" />
  <sodipodi:namedview
     id="base"
     pagecolor="#ffffff"
     bordercolor="#666666"
     borderopacity="1.0"
     inkscape:pageopacity="0.0"
     inkscape:pageshadow="2"
     inkscape:zoom="0.08"
     inkscape:cx="2990.2403"
     inkscape:cy="3041.654"
     inkscape:document-units="px"
     inkscape:current-layer="g4157"
     showgrid="false"
     inkscape:window-width="1920"
     inkscape:window-height="1137"
     inkscape:window-x="-8"
     inkscape:window-y="-8"
     inkscape:window-maximized="1"
     fit-margin-top="1"
     fit-margin-left="1"
     fit-margin-right="1"
     fit-margin-bottom="1"
     units="mm"
     showborder="true" />
  <metadata
     id="metadata7">
    <rdf:RDF>
      <cc:Work
         rdf:about="">
        <dc:format>image/svg+xml</dc:format>
        <dc:type
           rdf:resource="http://purl.org/dc/dcmitype/StillImage" />
        <dc:title></dc:title>
      </cc:Work>
    </rdf:RDF>
  </metadata>
  <g
     inkscape:label="Frame"
     inkscape:groupmode="layer"
     id="layer1"
     transform="translate(2203.3186,1653.7717)"
     style="display:inline" />
  <g
     inkscape:groupmode="layer"
     id="layer2"
     inkscape:label="StickCentre"
     style="display:inline"
     transform="translate(2203.3186,1962.0394)" />
  <g
     inkscape:groupmode="layer"
     id="layer3"
     inkscape:label="StickDown"
     style="display:inline"
     transform="translate(2203.3186,1962.0394)" />
  <g
     style="display:inline"
     inkscape:label="StickDownLeft"
     id="g4169"
     inkscape:groupmode="layer"
     transform="translate(2203.3186,1962.0394)" />
  <g
     inkscape:groupmode="layer"
     id="g4173"
     inkscape:label="StickDownRight"
     style="display:inline"
     transform="translate(2203.3186,1962.0394)" />
  <g
     style="display:inline"
     inkscape:label="StickUpRight"
     id="g4177"
     inkscape:groupmode="layer"
     transform="translate(2203.3186,1962.0394)" />
  <g
     inkscape:groupmode="layer"
     id="g4181"
     inkscape:label="StickUpLeft"
     style="display:inline"
     transform="translate(2203.3186,1962.0394)" />
  <g
     style="display:inline"
     inkscape:label="StickRight"
     id="g4161"
     inkscape:groupmode="layer"
     transform="translate(2203.3186,1962.0394)" />
  <g
     inkscape:groupmode="layer"
     id="g4165"
     inkscape:label="StickLeft"
     style="display:inline"
     transform="translate(2203.3186,1962.0394)" />
  <g
     inkscape:label="StickUp"
     id="g4157"
     inkscape:groupmode="layer"
     style="display:inline"
     transform="translate(2203.3186,1962.0394)">
    <rect
       style="display:inline;opacity:1;fill:none;fill-opacity:1;stroke:#808080;stroke-width:11.05660725;stroke-miterlimit:4;stroke-dasharray:none;stroke-opacity:1"
       id="rect4136"
       width="288.94339"
       height="288.94339"
       x="708.38544"
       y="-1390.3773"
       ry="0" />
    <path
       inkscape:transform-center-x="-73.935657"
       inkscape:transform-center-y="73.935654"
       style="display:inline;opacity:1;fill:#000000;fill-opacity:1;stroke:#000000;stroke-width:8.07780743;stroke-miterlimit:4;stroke-dasharray:none;stroke-opacity:1"
       d="m 948.22718,-1104.1681 c 7.47613,7.4761 23.9146,3.1588 36.71634,-9.6429 12.80173,-12.8017 17.11898,-29.2402 9.64285,-36.7163 -7.47612,-7.4762 -126.05745,-105.3018 -138.85919,-92.5 -12.80175,12.8017 85.02386,131.383 92.5,138.8592 z"
       id="path4175"
       inkscape:connector-curvature="0"
       sodipodi:nodetypes="sssss" />
    <rect
       ry="0"
       y="-1390.3773"
       x="1114.0997"
       height="288.94339"
       width="288.94339"
       id="rect4208"
       style="display:inline;opacity:1;fill:none;fill-opacity:1;stroke:#808080;stroke-width:11.05660725;stroke-miterlimit:4;stroke-dasharray:none;stroke-opacity:1" />
    <circle
       r="31.819805"
       cy="-1245.9056"
       cx="1258.5714"
       id="circle4210"
       style="display:inline;opacity:1;fill:#000000;fill-opacity:1;stroke:#000000;stroke-width:10;stroke-miterlimit:4;stroke-dasharray:none;stroke-opacity:1" />
    <text
       xml:space="preserve"
       style="font-style:normal;font-weight:normal;font-size:286.5987854px;line-height:125%;font-family:sans-serif;letter-spacing:0px;word-spacing:0px;fill:#000000;fill-opacity:1;stroke:none;stroke-width:1px;stroke-linecap:butt;stroke-linejoin:miter;stroke-opacity:1"
       x="486.66803"
       y="-1140.8967"
       id="text4574"
       sodipodi:linespacing="125%"><tspan
         sodipodi:role="line"
         x="486.668"
         y="-1140.8967"
         id="tspan4578"
         style="text-align:end;text-anchor:end">Arm</tspan></text>
    <rect
       ry="0"
       y="-969.96918"
       x="708.38544"
       height="288.94339"
       width="288.94339"
       id="rect4615"
       style="display:inline;opacity:1;fill:none;fill-opacity:1;stroke:#808080;stroke-width:11.05660725;stroke-miterlimit:4;stroke-dasharray:none;stroke-opacity:1" />
    <path
       inkscape:transform-center-x="73.935653"
       inkscape:transform-center-y="73.935654"
       style="display:inline;opacity:1;fill:#000000;fill-opacity:1;stroke:#000000;stroke-width:8.07780743;stroke-miterlimit:4;stroke-dasharray:none;stroke-opacity:1"
       d="m 756.60309,-683.75996 c -7.47613,7.47613 -23.9146,3.15888 -36.71634,-9.64286 -12.80173,-12.80174 -17.11899,-29.2402 -9.64285,-36.71634 7.47612,-7.47614 126.05745,-105.30174 138.85919,-92.5 12.80175,12.80174 -85.02386,131.38307 -92.5,138.8592 z"
       id="path4621"
       inkscape:connector-curvature="0"
       sodipodi:nodetypes="sssss" />
    <rect
       style="display:inline;opacity:1;fill:none;fill-opacity:1;stroke:#808080;stroke-width:11.05660725;stroke-miterlimit:4;stroke-dasharray:none;stroke-opacity:1"
       id="rect4637"
       width="288.94339"
       height="288.94339"
       x="1114.0997"
       y="-969.96918"
       ry="0" />
    <circle
       style="display:inline;opacity:1;fill:#000000;fill-opacity:1;stroke:#000000;stroke-width:10;stroke-miterlimit:4;stroke-dasharray:none;stroke-opacity:1"
       id="circle4639"
       cx="1258.5714"
       cy="-825.4975"
       r="31.819805" />
    <text
       sodipodi:linespacing="125%"
       id="text4657"
       y="-720.48853"
       x="486.66803"
       style="font-style:normal;font-weight:normal;font-size:286.5987854px;line-height:125%;font-family:sans-serif;letter-spacing:0px;word-spacing:0px;fill:#000000;fill-opacity:1;stroke:none;stroke-width:1px;stroke-linecap:butt;stroke-linejoin:miter;stroke-opacity:1"
       xml:space="preserve"><tspan
         style="text-align:end;text-anchor:end"
         id="tspan4659"
         y="-720.48853"
         x="486.66803"
         sodipodi:role="line">Disarm</tspan></text>
    <rect
       ry="0"
       y="-549.56104"
       x="708.38544"
       height="288.94339"
       width="288.94339"
       id="rect4667"
       style="display:inline;opacity:1;fill:none;fill-opacity:1;stroke:#808080;stroke-width:11.05660725;stroke-miterlimit:4;stroke-dasharray:none;stroke-opacity:1" />
    <path
       inkscape:transform-center-x="73.935653"
       inkscape:transform-center-y="73.935654"
       style="display:inline;opacity:1;fill:#000000;fill-opacity:1;stroke:#000000;stroke-width:8.07780743;stroke-miterlimit:4;stroke-dasharray:none;stroke-opacity:1"
       d="m 756.60309,-263.35179 c -7.47613,7.47613 -23.9146,3.15888 -36.71634,-9.64286 -12.80173,-12.80174 -17.11899,-29.2402 -9.64285,-36.71634 7.47612,-7.47614 126.05745,-105.30174 138.85919,-92.5 12.80175,12.80174 -85.02386,131.38307 -92.5,138.8592 z"
       id="path4673"
       inkscape:connector-curvature="0"
       sodipodi:nodetypes="sssss" />
    <rect
       style="display:inline;opacity:1;fill:none;fill-opacity:1;stroke:#808080;stroke-width:11.05660725;stroke-miterlimit:4;stroke-dasharray:none;stroke-opacity:1"
       id="rect4689"
       width="288.94339"
       height="288.94339"
       x="1114.0997"
       y="-549.56104"
       ry="0" />
    <path
       style="display:inline;opacity:1;fill:#000000;fill-opacity:1;stroke:#000000;stroke-width:8.07780743;stroke-miterlimit:4;stroke-dasharray:none;stroke-opacity:1"
       d="m 1090.881,-372.67398 c -10.5728,0 -19.1438,-14.67651 -19.1438,-32.7809 0,-18.10439 8.571,-32.7809 19.1438,-32.7809 10.5729,-1e-5 163.5957,14.6765 163.5957,32.7809 0,18.1044 -153.0228,32.78091 -163.5957,32.7809 z"
       id="path4705"
       inkscape:connector-curvature="0"
       sodipodi:nodetypes="sssss"
       inkscape:transform-center-x="94.95434"
       inkscape:transform-center-y="0.5050695" />
    <text
       sodipodi:linespacing="125%"
       id="text4709"
       y="-300.08038"
       x="486.66803"
       style="font-style:normal;font-weight:normal;font-size:286.5987854px;line-height:125%;font-family:sans-serif;letter-spacing:0px;word-spacing:0px;fill:#000000;fill-opacity:1;stroke:none;stroke-width:1px;stroke-linecap:butt;stroke-linejoin:miter;stroke-opacity:1"
       xml:space="preserve"><tspan
         style="text-align:end;text-anchor:end"
         id="tspan4711"
         y="-300.08038"
         x="486.668"
         sodipodi:role="line">Profile 1</tspan></text>
    <rect
       style="display:inline;opacity:1;fill:none;fill-opacity:1;stroke:#808080;stroke-width:11.05660725;stroke-miterlimit:4;stroke-dasharray:none;stroke-opacity:1"
       id="rect4719"
       width="288.94339"
       height="288.94339"
       x="708.38544"
       y="-129.15286"
       ry="0" />
    <path
       sodipodi:nodetypes="sssss"
       inkscape:connector-curvature="0"
       id="path4725"
       d="m 756.60309,157.05638 c -7.47613,7.47613 -23.9146,3.15888 -36.71634,-9.64286 -12.80173,-12.80174 -17.11899,-29.2402 -9.64285,-36.71634 7.47612,-7.47614 126.05745,-105.30174 138.85919,-92.5 12.80175,12.80174 -85.02386,131.38307 -92.5,138.8592 z"
       style="display:inline;opacity:1;fill:#000000;fill-opacity:1;stroke:#000000;stroke-width:8.07780743;stroke-miterlimit:4;stroke-dasharray:none;stroke-opacity:1"
       inkscape:transform-center-y="73.935654"
       inkscape:transform-center-x="73.935653" />
    <rect
       ry="0"
       y="-129.15286"
       x="1114.0997"
       height="288.94339"
       width="288.94339"
       id="rect4741"
       style="display:inline;opacity:1;fill:none;fill-opacity:1;stroke:#808080;stroke-width:11.05660725;stroke-miterlimit:4;stroke-dasharray:none;stroke-opacity:1" />
    <path
       style="opacity:1;fill:#000000;fill-opacity:1;stroke:#000000;stroke-width:8.07780743;stroke-miterlimit:4;stroke-dasharray:none;stroke-opacity:1"
       d="m 1291.3523,-149.39445 c 0,-10.57285 -14.6765,-19.14384 -32.7809,-19.14384 -18.1043,0 -32.7809,8.57099 -32.7809,19.14384 0,10.57285 14.6765,163.59566 32.7809,163.59566 18.1044,0 32.781,-153.02281 32.7809,-163.59566 z"
       id="path4759"
       inkscape:connector-curvature="0"
       sodipodi:nodetypes="sssss" />
    <text
       xml:space="preserve"
       style="font-style:normal;font-weight:normal;font-size:286.5987854px;line-height:125%;font-family:sans-serif;letter-spacing:0px;word-spacing:0px;fill:#000000;fill-opacity:1;stroke:none;stroke-width:1px;stroke-linecap:butt;stroke-linejoin:miter;stroke-opacity:1"
       x="486.66803"
       y="120.3278"
       id="text4761"
       sodipodi:linespacing="125%"><tspan
         sodipodi:role="line"
         x="486.668"
         y="120.3278"
         id="tspan4763"
         style="text-align:end;text-anchor:end">Profile 2</tspan></text>
    <rect
       ry="0"
       y="291.25531"
       x="708.38544"
       height="288.94339"
       width="288.94339"
       id="rect4771"
       style="display:inline;opacity:1;fill:none;fill-opacity:1;stroke:#808080;stroke-width:11.05660725;stroke-miterlimit:4;stroke-dasharray:none;stroke-opacity:1" />
    <path
       inkscape:transform-center-x="73.935653"
       inkscape:transform-center-y="73.935654"
       style="display:inline;opacity:1;fill:#000000;fill-opacity:1;stroke:#000000;stroke-width:8.07780743;stroke-miterlimit:4;stroke-dasharray:none;stroke-opacity:1"
       d="m 756.60309,577.46454 c -7.47613,7.47613 -23.9146,3.15888 -36.71634,-9.64286 -12.80173,-12.80174 -17.11899,-29.2402 -9.64285,-36.71634 7.47612,-7.47614 126.05745,-105.30174 138.85919,-92.5 12.80175,12.80174 -85.02386,131.38307 -92.5,138.8592 z"
       id="path4777"
       inkscape:connector-curvature="0"
       sodipodi:nodetypes="sssss" />
    <rect
       style="display:inline;opacity:1;fill:none;fill-opacity:1;stroke:#808080;stroke-width:11.05660725;stroke-miterlimit:4;stroke-dasharray:none;stroke-opacity:1"
       id="rect4793"
       width="288.94339"
       height="288.94339"
       x="1114.0997"
       y="291.25531"
       ry="0" />
    <path
       sodipodi:nodetypes="sssss"
       inkscape:connector-curvature="0"
       id="path4807"
       d="m 1425.2415,403.08564 c 10.5729,0 19.1439,14.67651 19.1439,32.7809 0,18.10439 -8.571,32.7809 -19.1439,32.7809 -10.5728,10e-6 -163.5957,-14.6765 -163.5957,-32.7809 0,-18.1044 153.0229,-32.78091 163.5957,-32.7809 z"
       style="display:inline;opacity:1;fill:#000000;fill-opacity:1;stroke:#000000;stroke-width:8.07780743;stroke-miterlimit:4;stroke-dasharray:none;stroke-opacity:1" />
    <text
       sodipodi:linespacing="125%"
       id="text4813"
       y="540.73602"
       x="486.66803"
       style="font-style:normal;font-weight:normal;font-size:286.5987854px;line-height:125%;font-family:sans-serif;letter-spacing:0px;word-spacing:0px;fill:#000000;fill-opacity:1;stroke:none;stroke-width:1px;stroke-linecap:butt;stroke-linejoin:miter;stroke-opacity:1"
       xml:space="preserve"><tspan
         style="text-align:end;text-anchor:end"
         id="tspan4815"
         y="540.73602"
         x="486.668"
         sodipodi:role="line">Profile 3</tspan></text>
    <rect
       style="display:inline;opacity:1;fill:none;fill-opacity:1;stroke:#808080;stroke-width:11.05660725;stroke-miterlimit:4;stroke-dasharray:none;stroke-opacity:1"
       id="rect4823"
       width="288.94339"
       height="288.94339"
       x="708.38544"
       y="711.66351"
       ry="0" />
    <path
       sodipodi:nodetypes="sssss"
       inkscape:connector-curvature="0"
       id="path4829"
       d="m 756.60309,997.87274 c -7.47613,7.47616 -23.9146,3.15886 -36.71634,-9.64286 -12.80173,-12.80174 -17.11899,-29.2402 -9.64285,-36.71634 7.47612,-7.47614 126.05745,-105.30174 138.85919,-92.5 12.80175,12.80174 -85.02386,131.38307 -92.5,138.8592 z"
       style="display:inline;opacity:1;fill:#000000;fill-opacity:1;stroke:#000000;stroke-width:8.07780743;stroke-miterlimit:4;stroke-dasharray:none;stroke-opacity:1"
       inkscape:transform-center-y="73.935654"
       inkscape:transform-center-x="73.935653" />
    <rect
       ry="0"
       y="711.66351"
       x="1114.0997"
       height="288.94339"
       width="288.94339"
       id="rect4845"
       style="display:inline;opacity:1;fill:none;fill-opacity:1;stroke:#808080;stroke-width:11.05660725;stroke-miterlimit:4;stroke-dasharray:none;stroke-opacity:1" />
    <path
       sodipodi:nodetypes="sssss"
       inkscape:connector-curvature="0"
       id="path4849"
       d="m 1291.3523,1021.9347 c 0,10.5728 -14.6765,19.1438 -32.7809,19.1438 -18.1043,0 -32.7809,-8.571 -32.7809,-19.1438 0,-10.5729 14.6765,-163.5957 32.7809,-163.5957 18.1044,0 32.781,153.0228 32.7809,163.5957 z"
       style="display:inline;opacity:1;fill:#000000;fill-opacity:1;stroke:#000000;stroke-width:8.07780743;stroke-miterlimit:4;stroke-dasharray:none;stroke-opacity:1" />
    <text
       xml:space="preserve"
       style="font-style:normal;font-weight:normal;font-size:286.5987854px;line-height:125%;font-family:sans-serif;letter-spacing:0px;word-spacing:0px;fill:#000000;fill-opacity:1;stroke:none;stroke-width:1px;stroke-linecap:butt;stroke-linejoin:miter;stroke-opacity:1"
       x="486.66803"
       y="961.14417"
       id="text4865"
       sodipodi:linespacing="125%"><tspan
         sodipodi:role="line"
         x="486.66791"
         y="961.14417"
         id="tspan4867"
         style="text-align:end;text-anchor:end">Calibrate Gyro</tspan></text>
    <rect
       style="display:inline;opacity:1;fill:none;fill-opacity:1;stroke:#808080;stroke-width:11.05660725;stroke-miterlimit:4;stroke-dasharray:none;stroke-opacity:1"
       id="rect4875"
       width="288.94339"
       height="288.94339"
       x="708.38544"
       y="1132.0717"
       ry="0" />
    <path
       inkscape:transform-center-x="73.935669"
       inkscape:transform-center-y="-73.935654"
       style="display:inline;opacity:1;fill:#000000;fill-opacity:1;stroke:#000000;stroke-width:8.07780743;stroke-miterlimit:4;stroke-dasharray:none;stroke-opacity:1"
       d="m 757.10817,1133.9385 c -7.47613,-7.4762 -23.9146,-3.1589 -36.71634,9.6428 -12.80173,12.8018 -17.11899,29.2402 -9.64285,36.7164 7.47612,7.4761 126.05745,105.3017 138.85919,92.5 12.80175,-12.8018 -85.02386,-131.3831 -92.5,-138.8592 z"
       id="path4887"
       inkscape:connector-curvature="0"
       sodipodi:nodetypes="sssss" />
    <rect
       ry="0"
       y="1132.0717"
       x="1114.0997"
       height="288.94339"
       width="288.94339"
       id="rect4897"
       style="display:inline;opacity:1;fill:none;fill-opacity:1;stroke:#808080;stroke-width:11.05660725;stroke-miterlimit:4;stroke-dasharray:none;stroke-opacity:1" />
    <path
       sodipodi:nodetypes="sssss"
       inkscape:connector-curvature="0"
       id="path4901"
       d="m 1291.3523,1442.3429 c 0,10.5728 -14.6765,19.1438 -32.7809,19.1438 -18.1043,0 -32.7809,-8.571 -32.7809,-19.1438 0,-10.5729 14.6765,-163.5957 32.7809,-163.5957 18.1044,0 32.781,153.0228 32.7809,163.5957 z"
       style="display:inline;opacity:1;fill:#000000;fill-opacity:1;stroke:#000000;stroke-width:8.07780743;stroke-miterlimit:4;stroke-dasharray:none;stroke-opacity:1" />
    <text
       xml:space="preserve"
       style="font-style:normal;font-weight:normal;font-size:286.5987854px;line-height:125%;font-family:sans-serif;letter-spacing:0px;word-spacing:0px;fill:#000000;fill-opacity:1;stroke:none;stroke-width:1px;stroke-linecap:butt;stroke-linejoin:miter;stroke-opacity:1"
       x="486.66803"
       y="1381.5524"
       id="text4917"
       sodipodi:linespacing="125%"><tspan
         sodipodi:role="line"
         x="486.66803"
         y="1381.5524"
         id="tspan4919"
         style="text-align:end;text-anchor:end">Calibrate Acc</tspan></text>
    <rect
       ry="0"
       y="1552.4799"
       x="708.38544"
       height="288.94339"
       width="288.94339"
       id="rect4927"
       style="display:inline;opacity:1;fill:none;fill-opacity:1;stroke:#808080;stroke-width:11.05660725;stroke-miterlimit:4;stroke-dasharray:none;stroke-opacity:1" />
    <path
       inkscape:transform-center-x="-73.935665"
       inkscape:transform-center-y="-73.935654"
       style="display:inline;opacity:1;fill:#000000;fill-opacity:1;stroke:#000000;stroke-width:8.07780743;stroke-miterlimit:4;stroke-dasharray:none;stroke-opacity:1"
       d="m 948.22718,1554.3467 c 7.47613,-7.4762 23.9146,-3.1589 36.71634,9.6428 12.80173,12.8018 17.11898,29.2402 9.64285,36.7164 -7.47612,7.4761 -126.05745,105.3017 -138.85919,92.5 -12.80175,-12.8018 85.02386,-131.3831 92.5,-138.8592 z"
       id="path4937"
       inkscape:connector-curvature="0"
       sodipodi:nodetypes="sssss" />
    <rect
       style="display:inline;opacity:1;fill:none;fill-opacity:1;stroke:#808080;stroke-width:11.05660725;stroke-miterlimit:4;stroke-dasharray:none;stroke-opacity:1"
       id="rect4949"
       width="288.94339"
       height="288.94339"
       x="1114.0997"
       y="1552.4799"
       ry="0" />
    <path
       style="display:inline;opacity:1;fill:#000000;fill-opacity:1;stroke:#000000;stroke-width:8.07780743;stroke-miterlimit:4;stroke-dasharray:none;stroke-opacity:1"
       d="m 1291.3523,1862.7511 c 0,10.5728 -14.6765,19.1438 -32.7809,19.1438 -18.1043,0 -32.7809,-8.571 -32.7809,-19.1438 0,-10.5729 14.6765,-163.5957 32.7809,-163.5957 18.1044,0 32.781,153.0228 32.7809,163.5957 z"
       id="path4953"
       inkscape:connector-curvature="0"
       sodipodi:nodetypes="sssss" />
    <text
       sodipodi:linespacing="125%"
       id="text4969"
       y="1801.9606"
       x="486.66803"
       style="font-style:normal;font-weight:normal;font-size:286.5987854px;line-height:125%;font-family:sans-serif;letter-spacing:0px;word-spacing:0px;fill:#000000;fill-opacity:1;stroke:none;stroke-width:1px;stroke-linecap:butt;stroke-linejoin:miter;stroke-opacity:1"
       xml:space="preserve"><tspan
         style="text-align:end;text-anchor:end"
         id="tspan4971"
         y="1801.9606"
         x="486.66791"
         sodipodi:role="line">Calibrate Compass</tspan></text>
    <rect
       ry="0"
       y="-1390.3773"
       x="5835.5283"
       height="288.94339"
       width="288.94339"
       id="rect5607"
       style="display:inline;opacity:1;fill:none;fill-opacity:1;stroke:#808080;stroke-width:11.05660725;stroke-miterlimit:4;stroke-dasharray:none;stroke-opacity:1" />
    <path
       inkscape:transform-center-x="73.935653"
       inkscape:transform-center-y="73.935654"
       style="display:inline;opacity:1;fill:#000000;fill-opacity:1;stroke:#000000;stroke-width:8.07780743;stroke-miterlimit:4;stroke-dasharray:none;stroke-opacity:1"
       d="m 5883.7461,-1104.1681 c -7.4762,7.4761 -23.9146,3.1588 -36.7164,-9.6429 -12.8017,-12.8017 -17.119,-29.2402 -9.6428,-36.7163 7.4761,-7.4762 126.0574,-105.3018 138.8592,-92.5 12.8017,12.8017 -85.0239,131.383 -92.5,138.8592 z"
       id="path5613"
       inkscape:connector-curvature="0"
       sodipodi:nodetypes="sssss" />
    <rect
       style="display:inline;opacity:1;fill:none;fill-opacity:1;stroke:#808080;stroke-width:11.05660725;stroke-miterlimit:4;stroke-dasharray:none;stroke-opacity:1"
       id="rect5629"
       width="288.94339"
       height="288.94339"
       x="6241.2427"
       y="-1390.3773"
       ry="0" />
    <path
       sodipodi:nodetypes="sssss"
       inkscape:connector-curvature="0"
       id="path5639"
       d="m 6481.0845,-1388.5106 c 7.4761,-7.4762 23.9146,-3.1589 36.7163,9.6428 12.8017,12.8018 17.119,29.2402 9.6428,36.7164 -7.4761,7.4761 -126.0574,105.3017 -138.8591,92.5 -12.8018,-12.8018 85.0238,-131.3831 92.5,-138.8592 z"
       style="display:inline;opacity:1;fill:#000000;fill-opacity:1;stroke:#000000;stroke-width:8.07780743;stroke-miterlimit:4;stroke-dasharray:none;stroke-opacity:1"
       inkscape:transform-center-y="-73.935654"
       inkscape:transform-center-x="-73.935665" />
    <text
       sodipodi:linespacing="125%"
       id="text5649"
       y="-1140.8967"
       x="5613.811"
       style="font-style:normal;font-weight:normal;font-size:286.5987854px;line-height:125%;font-family:sans-serif;letter-spacing:0px;word-spacing:0px;fill:#000000;fill-opacity:1;stroke:none;stroke-width:1px;stroke-linecap:butt;stroke-linejoin:miter;stroke-opacity:1"
       xml:space="preserve"><tspan
         style="text-align:end;text-anchor:end"
         id="tspan5651"
         y="-1140.8967"
         x="5613.811"
         sodipodi:role="line">In-flight Calibration Controls</tspan></text>
    <rect
       style="display:inline;opacity:1;fill:none;fill-opacity:1;stroke:#808080;stroke-width:11.05660725;stroke-miterlimit:4;stroke-dasharray:none;stroke-opacity:1"
       id="rect5659"
       width="288.94339"
       height="288.94339"
       x="5835.5283"
       y="-969.96918"
       ry="0" />
    <path
       sodipodi:nodetypes="sssss"
       inkscape:connector-curvature="0"
       id="path5677"
       d="m 6012.781,-990.21079 c 0,-10.57281 -14.6765,-19.14381 -32.7809,-19.14381 -18.1044,0 -32.7809,8.571 -32.7809,19.14381 0,10.57285 14.6765,163.59566 32.7809,163.59566 18.1044,0 32.7809,-153.02281 32.7809,-163.59566 z"
       style="opacity:1;fill:#000000;fill-opacity:1;stroke:#000000;stroke-width:8.07780743;stroke-miterlimit:4;stroke-dasharray:none;stroke-opacity:1" />
    <rect
       ry="0"
       y="-969.96918"
       x="6241.2427"
       height="288.94339"
       width="288.94339"
       id="rect5681"
       style="display:inline;opacity:1;fill:none;fill-opacity:1;stroke:#808080;stroke-width:11.05660725;stroke-miterlimit:4;stroke-dasharray:none;stroke-opacity:1" />
    <path
       inkscape:transform-center-y="0.5050695"
       inkscape:transform-center-x="94.95434"
       sodipodi:nodetypes="sssss"
       inkscape:connector-curvature="0"
       id="path5697"
       d="m 6218.024,-793.08215 c -10.5729,0 -19.1438,-14.67651 -19.1438,-32.7809 0,-18.10439 8.5709,-32.7809 19.1438,-32.7809 10.5728,-10e-6 163.5957,14.6765 163.5957,32.7809 0,18.1044 -153.0229,32.78091 -163.5957,32.7809 z"
       style="display:inline;opacity:1;fill:#000000;fill-opacity:1;stroke:#000000;stroke-width:8.07780743;stroke-miterlimit:4;stroke-dasharray:none;stroke-opacity:1" />
    <text
       xml:space="preserve"
       style="font-style:normal;font-weight:normal;font-size:286.5987854px;line-height:125%;font-family:sans-serif;letter-spacing:0px;word-spacing:0px;fill:#000000;fill-opacity:1;stroke:none;stroke-width:1px;stroke-linecap:butt;stroke-linejoin:miter;stroke-opacity:1"
       x="5613.811"
       y="-720.48853"
       id="text5701"
       sodipodi:linespacing="125%"><tspan
         sodipodi:role="line"
         x="5613.811"
         y="-720.48853"
         id="tspan5703"
         style="text-align:end;text-anchor:end">Trim Acc Left</tspan></text>
    <rect
       style="display:inline;opacity:1;fill:none;fill-opacity:1;stroke:#808080;stroke-width:11.05660725;stroke-miterlimit:4;stroke-dasharray:none;stroke-opacity:1"
       id="rect5711"
       width="288.94339"
       height="288.94339"
       x="5835.5283"
       y="-549.56104"
       ry="0" />
    <path
       sodipodi:nodetypes="sssss"
       inkscape:connector-curvature="0"
       id="path5729"
       d="m 6012.781,-569.80262 c 0,-10.57285 -14.6765,-19.14384 -32.7809,-19.14384 -18.1044,0 -32.7809,8.57099 -32.7809,19.14384 0,10.57285 14.6765,163.59566 32.7809,163.59566 18.1044,0 32.7809,-153.02281 32.7809,-163.59566 z"
       style="opacity:1;fill:#000000;fill-opacity:1;stroke:#000000;stroke-width:8.07780743;stroke-miterlimit:4;stroke-dasharray:none;stroke-opacity:1" />
    <rect
       ry="0"
       y="-549.56104"
       x="6241.2427"
       height="288.94339"
       width="288.94339"
       id="rect5733"
       style="display:inline;opacity:1;fill:none;fill-opacity:1;stroke:#808080;stroke-width:11.05660725;stroke-miterlimit:4;stroke-dasharray:none;stroke-opacity:1" />
    <path
       style="display:inline;opacity:1;fill:#000000;fill-opacity:1;stroke:#000000;stroke-width:8.07780743;stroke-miterlimit:4;stroke-dasharray:none;stroke-opacity:1"
       d="m 6552.3845,-437.73069 c 10.5728,0 19.1438,14.67651 19.1438,32.7809 0,18.10439 -8.571,32.7809 -19.1438,32.7809 -10.5729,10e-6 -163.5957,-14.6765 -163.5957,-32.7809 0,-18.1044 153.0228,-32.78091 163.5957,-32.7809 z"
       id="path5747"
       inkscape:connector-curvature="0"
       sodipodi:nodetypes="sssss" />
    <text
       xml:space="preserve"
       style="font-style:normal;font-weight:normal;font-size:286.5987854px;line-height:125%;font-family:sans-serif;letter-spacing:0px;word-spacing:0px;fill:#000000;fill-opacity:1;stroke:none;stroke-width:1px;stroke-linecap:butt;stroke-linejoin:miter;stroke-opacity:1"
       x="5613.811"
       y="-300.08038"
       id="text5753"
       sodipodi:linespacing="125%"><tspan
         sodipodi:role="line"
         x="5613.811"
         y="-300.08038"
         id="tspan5755"
         style="text-align:end;text-anchor:end">Trim Acc Right</tspan></text>
    <rect
       ry="0"
       y="-129.15286"
       x="5835.5283"
       height="288.94339"
       width="288.94339"
       id="rect5763"
       style="display:inline;opacity:1;fill:none;fill-opacity:1;stroke:#808080;stroke-width:11.05660725;stroke-miterlimit:4;stroke-dasharray:none;stroke-opacity:1" />
    <path
       style="opacity:1;fill:#000000;fill-opacity:1;stroke:#000000;stroke-width:8.07780743;stroke-miterlimit:4;stroke-dasharray:none;stroke-opacity:1"
       d="m 6012.781,-149.39445 c 0,-10.57285 -14.6765,-19.14384 -32.7809,-19.14384 -18.1044,0 -32.7809,8.57099 -32.7809,19.14384 0,10.57285 14.6765,163.59566 32.7809,163.59566 18.1044,0 32.7809,-153.02281 32.7809,-163.59566 z"
       id="path5781"
       inkscape:connector-curvature="0"
       sodipodi:nodetypes="sssss" />
    <rect
       style="display:inline;opacity:1;fill:none;fill-opacity:1;stroke:#808080;stroke-width:11.05660725;stroke-miterlimit:4;stroke-dasharray:none;stroke-opacity:1"
       id="rect5785"
       width="288.94339"
       height="288.94339"
       x="6241.2427"
       y="-129.15286"
       ry="0" />
    <path
       sodipodi:nodetypes="sssss"
       inkscape:connector-curvature="0"
       id="path5803"
       d="m 6418.4953,-149.39445 c 0,-10.57285 -14.6765,-19.14384 -32.7809,-19.14384 -18.1044,0 -32.7809,8.57099 -32.7809,19.14384 0,10.57285 14.6765,163.59566 32.7809,163.59566 18.1044,0 32.7809,-153.02281 32.7809,-163.59566 z"
       style="opacity:1;fill:#000000;fill-opacity:1;stroke:#000000;stroke-width:8.07780743;stroke-miterlimit:4;stroke-dasharray:none;stroke-opacity:1" />
    <text
       sodipodi:linespacing="125%"
       id="text5805"
       y="120.3278"
       x="5613.811"
       style="font-style:normal;font-weight:normal;font-size:286.5987854px;line-height:125%;font-family:sans-serif;letter-spacing:0px;word-spacing:0px;fill:#000000;fill-opacity:1;stroke:none;stroke-width:1px;stroke-linecap:butt;stroke-linejoin:miter;stroke-opacity:1"
       xml:space="preserve"><tspan
         style="text-align:end;text-anchor:end"
         id="tspan5807"
         y="120.3278"
         x="5613.811"
         sodipodi:role="line">Trim Acc Forwards</tspan></text>
    <rect
       style="display:inline;opacity:1;fill:none;fill-opacity:1;stroke:#808080;stroke-width:11.05660725;stroke-miterlimit:4;stroke-dasharray:none;stroke-opacity:1"
       id="rect5815"
       width="288.94339"
       height="288.94339"
       x="5835.5283"
       y="291.25531"
       ry="0" />
    <path
       sodipodi:nodetypes="sssss"
       inkscape:connector-curvature="0"
       id="path5833"
       d="m 6012.781,271.01371 c 0,-10.57285 -14.6765,-19.14384 -32.7809,-19.14384 -18.1044,0 -32.7809,8.57099 -32.7809,19.14384 0,10.57285 14.6765,163.59566 32.7809,163.59566 18.1044,0 32.7809,-153.02281 32.7809,-163.59566 z"
       style="opacity:1;fill:#000000;fill-opacity:1;stroke:#000000;stroke-width:8.07780743;stroke-miterlimit:4;stroke-dasharray:none;stroke-opacity:1" />
    <rect
       ry="0"
       y="291.25531"
       x="6241.2427"
       height="288.94339"
       width="288.94339"
       id="rect5837"
       style="display:inline;opacity:1;fill:none;fill-opacity:1;stroke:#808080;stroke-width:11.05660725;stroke-miterlimit:4;stroke-dasharray:none;stroke-opacity:1" />
    <path
       sodipodi:nodetypes="sssss"
       inkscape:connector-curvature="0"
       id="path5841"
       d="m 6418.4953,601.52646 c 0,10.57285 -14.6765,19.14384 -32.7809,19.14384 -18.1044,0 -32.7809,-8.57099 -32.7809,-19.14384 0,-10.57285 14.6765,-163.59566 32.7809,-163.59566 18.1044,0 32.7809,153.02281 32.7809,163.59566 z"
       style="display:inline;opacity:1;fill:#000000;fill-opacity:1;stroke:#000000;stroke-width:8.07780743;stroke-miterlimit:4;stroke-dasharray:none;stroke-opacity:1" />
    <text
       xml:space="preserve"
       style="font-style:normal;font-weight:normal;font-size:286.5987854px;line-height:125%;font-family:sans-serif;letter-spacing:0px;word-spacing:0px;fill:#000000;fill-opacity:1;stroke:none;stroke-width:1px;stroke-linecap:butt;stroke-linejoin:miter;stroke-opacity:1"
       x="5613.811"
       y="540.73602"
       id="text5857"
       sodipodi:linespacing="125%"><tspan
         sodipodi:role="line"
         x="5613.811"
         y="540.73602"
         id="tspan5859"
         style="text-align:end;text-anchor:end">Trim Acc Backwards</tspan></text>
    <rect
       ry="0"
       y="711.66351"
       x="5835.5283"
       height="288.94339"
       width="288.94339"
       id="rect5867"
       style="display:inline;opacity:1;fill:none;fill-opacity:1;stroke:#808080;stroke-width:11.05660725;stroke-miterlimit:4;stroke-dasharray:none;stroke-opacity:1" />
    <path
       sodipodi:nodetypes="sssss"
       inkscape:connector-curvature="0"
       id="path5871"
       d="m 6012.781,1021.9347 c 0,10.5728 -14.6765,19.1438 -32.7809,19.1438 -18.1044,0 -32.7809,-8.571 -32.7809,-19.1438 0,-10.5729 14.6765,-163.5957 32.7809,-163.5957 18.1044,0 32.7809,153.0228 32.7809,163.5957 z"
       style="display:inline;opacity:1;fill:#000000;fill-opacity:1;stroke:#000000;stroke-width:8.07780743;stroke-miterlimit:4;stroke-dasharray:none;stroke-opacity:1" />
    <rect
       style="display:inline;opacity:1;fill:none;fill-opacity:1;stroke:#808080;stroke-width:11.05660725;stroke-miterlimit:4;stroke-dasharray:none;stroke-opacity:1"
       id="rect5889"
       width="288.94339"
       height="288.94339"
       x="6241.2427"
       y="711.66351"
       ry="0" />
    <path
       inkscape:transform-center-x="73.935669"
       inkscape:transform-center-y="-73.935654"
       style="display:inline;opacity:1;fill:#000000;fill-opacity:1;stroke:#000000;stroke-width:8.07780743;stroke-miterlimit:4;stroke-dasharray:none;stroke-opacity:1"
       d="m 6289.9654,713.53025 c -7.4761,-7.47613 -23.9146,-3.15888 -36.7163,9.64286 -12.8017,12.80174 -17.119,29.2402 -9.6428,36.71634 7.4761,7.47614 126.0574,105.30174 138.8591,92.5 12.8018,-12.80174 -85.0238,-131.38307 -92.5,-138.8592 z"
       id="path5901"
       inkscape:connector-curvature="0"
       sodipodi:nodetypes="sssss" />
    <text
       sodipodi:linespacing="125%"
       id="text5909"
       y="961.14417"
       x="5613.811"
       style="font-style:normal;font-weight:normal;font-size:286.5987854px;line-height:125%;font-family:sans-serif;letter-spacing:0px;word-spacing:0px;fill:#000000;fill-opacity:1;stroke:none;stroke-width:1px;stroke-linecap:butt;stroke-linejoin:miter;stroke-opacity:1"
       xml:space="preserve"><tspan
         style="text-align:end;text-anchor:end"
         id="tspan5911"
         y="961.14417"
         x="5613.811"
         sodipodi:role="line">Disable LCD Page Cycling</tspan></text>
    <rect
       ry="0"
       y="1132.0717"
       x="5835.5283"
       height="288.94339"
       width="288.94339"
       id="rect5919"
       style="display:inline;opacity:1;fill:none;fill-opacity:1;stroke:#808080;stroke-width:11.05660725;stroke-miterlimit:4;stroke-dasharray:none;stroke-opacity:1" />
    <path
       sodipodi:nodetypes="sssss"
       inkscape:connector-curvature="0"
       id="path5923"
       d="m 6012.781,1442.3429 c 0,10.5728 -14.6765,19.1438 -32.7809,19.1438 -18.1044,0 -32.7809,-8.571 -32.7809,-19.1438 0,-10.5729 14.6765,-163.5957 32.7809,-163.5957 18.1044,0 32.7809,153.0228 32.7809,163.5957 z"
       style="display:inline;opacity:1;fill:#000000;fill-opacity:1;stroke:#000000;stroke-width:8.07780743;stroke-miterlimit:4;stroke-dasharray:none;stroke-opacity:1" />
    <rect
       style="display:inline;opacity:1;fill:none;fill-opacity:1;stroke:#808080;stroke-width:11.05660725;stroke-miterlimit:4;stroke-dasharray:none;stroke-opacity:1"
       id="rect5941"
       width="288.94339"
       height="288.94339"
       x="6241.2427"
       y="1132.0717"
       ry="0" />
    <path
       sodipodi:nodetypes="sssss"
       inkscape:connector-curvature="0"
       id="path5951"
       d="m 6481.0845,1133.9385 c 7.4761,-7.4762 23.9146,-3.1589 36.7163,9.6428 12.8017,12.8018 17.119,29.2402 9.6428,36.7164 -7.4761,7.4761 -126.0574,105.3017 -138.8591,92.5 -12.8018,-12.8018 85.0238,-131.3831 92.5,-138.8592 z"
       style="display:inline;opacity:1;fill:#000000;fill-opacity:1;stroke:#000000;stroke-width:8.07780743;stroke-miterlimit:4;stroke-dasharray:none;stroke-opacity:1"
       inkscape:transform-center-y="-73.935654"
       inkscape:transform-center-x="-73.935665" />
    <text
       sodipodi:linespacing="125%"
       id="text5961"
       y="1381.5524"
       x="5613.811"
       style="font-style:normal;font-weight:normal;font-size:286.5987854px;line-height:125%;font-family:sans-serif;letter-spacing:0px;word-spacing:0px;fill:#000000;fill-opacity:1;stroke:none;stroke-width:1px;stroke-linecap:butt;stroke-linejoin:miter;stroke-opacity:1"
       xml:space="preserve"><tspan
         style="text-align:end;text-anchor:end"
         id="tspan5963"
         y="1381.5524"
         x="5613.811"
         sodipodi:role="line">Enable LCD Page Cycling</tspan></text>
    <rect
       style="display:inline;opacity:1;fill:none;fill-opacity:1;stroke:#808080;stroke-width:11.05660725;stroke-miterlimit:4;stroke-dasharray:none;stroke-opacity:1"
       id="rect5971"
       width="288.94339"
       height="288.94339"
       x="5835.5283"
       y="1552.4799"
       ry="0" />
    <path
       sodipodi:nodetypes="sssss"
       inkscape:connector-curvature="0"
       id="path5977"
       d="m 5883.7461,1838.6891 c -7.4762,7.4762 -23.9146,3.1589 -36.7164,-9.6428 -12.8017,-12.8018 -17.119,-29.2402 -9.6428,-36.7164 7.4761,-7.4761 126.0574,-105.3017 138.8592,-92.5 12.8017,12.8018 -85.0239,131.3831 -92.5,138.8592 z"
       style="display:inline;opacity:1;fill:#000000;fill-opacity:1;stroke:#000000;stroke-width:8.07780743;stroke-miterlimit:4;stroke-dasharray:none;stroke-opacity:1"
       inkscape:transform-center-y="73.935654"
       inkscape:transform-center-x="73.935653" />
    <rect
       ry="0"
       y="1552.4799"
       x="6241.2427"
       height="288.94339"
       width="288.94339"
       id="rect5993"
       style="display:inline;opacity:1;fill:none;fill-opacity:1;stroke:#808080;stroke-width:11.05660725;stroke-miterlimit:4;stroke-dasharray:none;stroke-opacity:1" />
    <path
       sodipodi:nodetypes="sssss"
       inkscape:connector-curvature="0"
       id="path6001"
       d="m 6481.0845,1838.6891 c 7.4761,7.4762 23.9146,3.1589 36.7163,-9.6428 12.8017,-12.8018 17.119,-29.2402 9.6428,-36.7164 -7.4761,-7.4761 -126.0574,-105.3017 -138.8591,-92.5 -12.8018,12.8018 85.0238,131.3831 92.5,138.8592 z"
       style="display:inline;opacity:1;fill:#000000;fill-opacity:1;stroke:#000000;stroke-width:8.07780743;stroke-miterlimit:4;stroke-dasharray:none;stroke-opacity:1"
       inkscape:transform-center-y="73.935654"
       inkscape:transform-center-x="-73.935657" />
    <text
       xml:space="preserve"
       style="font-style:normal;font-weight:normal;font-size:286.5987854px;line-height:125%;font-family:sans-serif;letter-spacing:0px;word-spacing:0px;fill:#000000;fill-opacity:1;stroke:none;stroke-width:1px;stroke-linecap:butt;stroke-linejoin:miter;stroke-opacity:1"
       x="5613.811"
       y="1801.9606"
       id="text6013"
       sodipodi:linespacing="125%"><tspan
         sodipodi:role="line"
         x="5613.811"
         y="1801.9606"
         id="tspan6015"
         style="text-align:end;text-anchor:end">Save Setting</tspan></text>
    <text
       xml:space="preserve"
       style="font-style:normal;font-weight:normal;font-size:352.85842896px;line-height:125%;font-family:sans-serif;letter-spacing:0px;word-spacing:0px;fill:#000000;fill-opacity:1;stroke:none;stroke-width:1px;stroke-linecap:butt;stroke-linejoin:miter;stroke-opacity:1"
       x="2179.2813"
       y="-1690.4064"
       id="text7907"
       sodipodi:linespacing="125%"><tspan
         sodipodi:role="line"
         x="2179.2813"
         y="-1690.4064"
         id="tspan7909"
         style="text-align:center;text-anchor:middle">Mode 2 Stick Functions</tspan></text>
  </g>
</svg>
