<?xml version="1.0" encoding="utf-8"?>
<!-- Generator: Adobe Illustrator 19.1.0, SVG Export Plug-In . SVG Version: 6.00 Build 0)  -->
<svg version="1.1" id="Ebene_1" xmlns="http://www.w3.org/2000/svg" xmlns:xlink="http://www.w3.org/1999/xlink" x="0px" y="0px"
	 viewBox="-84 66 200 200" style="enable-background:new -84 66 200 200;" xml:space="preserve">
<style type="text/css">
	.st0{opacity:0.3;}
	.st1{fill:none;stroke:#1A171B;stroke-linecap:round;stroke-miterlimit:10;}
	.st2{fill:none;stroke:#1A171B;stroke-linecap:round;stroke-miterlimit:10;stroke-dasharray:2.9947,2.9947;}
	.st3{fill:#BABABA;}
	.st4{fill:#FFFFFF;}
</style>
<g id="surface11" class="st0">
	<g>
		<g>
			<polyline class="st1" points="12.4,186.6 11.3,185.5 10.3,186.6 			"/>
			<path class="st2" d="M8.1,188.7l-46.9,46.9c-5.5,5.5-14.3,5.5-19.8,0c-5.5-5.5-5.5-14.3,0-19.8l48-48"/>
			<polyline class="st1" points="-9.5,166.8 -8.5,165.7 -9.5,164.6 			"/>
			<path class="st2" d="M-11.7,162.5l-46.9-46.9c-5.5-5.5-5.5-14.3,0-19.8c5.5-5.5,14.3-5.5,19.8,0l48,48"/>
			<polyline class="st1" points="10.3,144.8 11.3,145.9 12.4,144.8 			"/>
			<path class="st2" d="M14.5,142.7l46.9-46.9c5.5-5.5,14.3-5.5,19.8,0c5.5,5.5,5.5,14.3,0,19.8l-48,48"/>
			<polyline class="st1" points="32.2,164.6 31.1,165.7 32.2,166.8 			"/>
			<path class="st2" d="M34.3,168.9l46.9,46.9c5.5,5.5,5.5,14.3,0,19.8c-2.7,2.7-6.3,4.1-9.9,4.1s-7.2-1.4-9.9-4.1l-48-48"/>
		</g>
	</g>
	<g>
	</g>
</g>
<path class="st3" d="M53.6,181.3h-84.5c-4.1,0-7.5-3.4-7.5-7.5v-17c0-4.1,3.4-7.5,7.5-7.5h84.5c4.1,0,7.5,3.4,7.5,7.5v17
	C61.1,177.9,57.7,181.3,53.6,181.3z"/>
<g>
	<path class="st4" d="M-21.5,169.7c-0.4,0.2-1.3,0.4-2.5,0.4c-2.7,0-4.7-1.7-4.7-4.8c0-3,2-5,4.9-5c1.2,0,1.9,0.3,2.2,0.4l-0.3,1
		c-0.5-0.2-1.1-0.4-1.9-0.4c-2.2,0-3.7,1.4-3.7,3.9c0,2.3,1.3,3.8,3.6,3.8c0.7,0,1.5-0.2,2-0.4L-21.5,169.7z"/>
	<path class="st4" d="M-14.5,168.1c0,0.7,0,1.3,0.1,1.8h-1.1l-0.1-1.1h0c-0.3,0.5-1,1.3-2.2,1.3c-1.1,0-2.3-0.6-2.3-3v-4h1.2v3.8
		c0,1.3,0.4,2.2,1.5,2.2c0.8,0,1.4-0.6,1.6-1.1c0.1-0.2,0.1-0.4,0.1-0.6v-4.2h1.2V168.1z"/>
	<path class="st4" d="M-12.6,168.7c0.4,0.2,1,0.5,1.6,0.5c0.9,0,1.3-0.4,1.3-1c0-0.6-0.3-0.9-1.3-1.2c-1.2-0.4-1.8-1.1-1.8-1.9
		c0-1.1,0.9-2,2.3-2c0.7,0,1.3,0.2,1.7,0.4l-0.3,0.9c-0.3-0.2-0.8-0.4-1.4-0.4c-0.7,0-1.1,0.4-1.1,0.9c0,0.6,0.4,0.8,1.3,1.1
		c1.2,0.4,1.8,1,1.8,2c0,1.2-0.9,2-2.5,2c-0.7,0-1.4-0.2-1.9-0.5L-12.6,168.7z"/>
	<path class="st4" d="M-5.4,161.3v1.9h1.8v0.9h-1.8v3.7c0,0.8,0.2,1.3,0.9,1.3c0.3,0,0.6,0,0.7-0.1l0.1,0.9
		c-0.2,0.1-0.6,0.2-1.1,0.2c-0.6,0-1-0.2-1.3-0.5c-0.4-0.4-0.5-1-0.5-1.8v-3.7h-1.1v-0.9h1.1v-1.6L-5.4,161.3z"/>
	<path class="st4" d="M3.8,166.5c0,2.5-1.7,3.6-3.4,3.6c-1.8,0-3.2-1.3-3.2-3.5c0-2.3,1.5-3.6,3.4-3.6C2.5,163,3.8,164.5,3.8,166.5z
		 M-1.6,166.6c0,1.5,0.9,2.6,2.1,2.6c1.2,0,2.1-1.1,2.1-2.6c0-1.1-0.6-2.6-2-2.6S-1.6,165.3-1.6,166.6z"/>
	<path class="st4" d="M5.3,165c0-0.7,0-1.3-0.1-1.8h1.1l0.1,1.1h0c0.4-0.6,1-1.2,2.1-1.2c0.9,0,1.6,0.6,1.9,1.4h0
		c0.2-0.4,0.5-0.7,0.8-0.9c0.4-0.3,0.9-0.5,1.5-0.5c0.9,0,2.2,0.6,2.2,2.9v4h-1.2v-3.8c0-1.3-0.5-2.1-1.5-2.1
		c-0.7,0-1.2,0.5-1.5,1.1c-0.1,0.2-0.1,0.4-0.1,0.6v4.2H9.6v-4.1c0-1.1-0.5-1.9-1.4-1.9c-0.8,0-1.3,0.6-1.5,1.2
		c-0.1,0.2-0.1,0.4-0.1,0.6v4.1H5.3V165z"/>
	<path class="st4" d="M28,165.8c-0.1-1.3-0.2-2.9-0.1-4.1h0c-0.3,1.1-0.7,2.3-1.2,3.6l-1.7,4.6H24l-1.5-4.5
		c-0.4-1.3-0.8-2.5-1.1-3.7h0c0,1.2-0.1,2.8-0.2,4.2l-0.3,4h-1.2l0.7-9.4H22l1.6,4.6c0.4,1.2,0.7,2.2,1,3.2h0c0.2-1,0.6-2,1-3.2
		l1.7-4.6h1.6l0.6,9.4h-1.2L28,165.8z"/>
	<path class="st4" d="M32.8,161.3c0,0.4-0.3,0.8-0.8,0.8c-0.4,0-0.7-0.3-0.7-0.8c0-0.4,0.3-0.8,0.8-0.8
		C32.5,160.5,32.8,160.9,32.8,161.3z M31.4,170v-6.8h1.2v6.8H31.4z"/>
	<path class="st4" d="M35.2,163.2l1,1.5c0.3,0.4,0.5,0.7,0.7,1.1h0c0.2-0.4,0.4-0.8,0.7-1.1l1-1.4h1.3l-2.3,3.3L40,170h-1.4l-1-1.5
		c-0.3-0.4-0.5-0.8-0.7-1.2h0c-0.2,0.4-0.5,0.8-0.7,1.2l-1,1.5h-1.4l2.4-3.5l-2.3-3.3H35.2z"/>
	<path class="st4" d="M41.6,166.8c0,1.7,1.1,2.4,2.3,2.4c0.9,0,1.4-0.2,1.9-0.3l0.2,0.9c-0.4,0.2-1.2,0.4-2.3,0.4
		c-2.1,0-3.3-1.4-3.3-3.4s1.2-3.7,3.2-3.7c2.2,0,2.8,1.9,2.8,3.2c0,0.3,0,0.4,0,0.6H41.6z M45.2,165.9c0-0.8-0.3-2-1.7-2
		c-1.2,0-1.8,1.1-1.9,2H45.2z"/>
	<path class="st4" d="M47.9,165.3c0-0.8,0-1.5-0.1-2.1H49l0,1.3h0.1c0.3-0.9,1-1.5,1.9-1.5c0.1,0,0.2,0,0.3,0v1.2
		c-0.1,0-0.3,0-0.4,0c-0.9,0-1.5,0.7-1.7,1.6c0,0.2-0.1,0.4-0.1,0.6v3.6h-1.2V165.3z"/>
</g>
</svg>