<?xml version="1.0" encoding="utf-8"?>
<!-- Copyright 2014.  All rights reserved.  Used with permission for Baseflight Configurator -->
<!DOCTYPE svg PUBLIC "-//W3C//DTD SVG 1.1 Basic//EN" "http://www.w3.org/Graphics/SVG/1.1/DTD/svg11-basic.dtd" [
	<!ENTITY st0 "fill:#BDBCBC;">
]>
<svg version="1.1" baseProfile="basic"
	 id="custom-mix" xmlns:dc="http://purl.org/dc/elements/1.1/" xmlns:cc="http://creativecommons.org/ns#" xmlns:rdf="http://www.w3.org/1999/02/22-rdf-syntax-ns#" xmlns:svg="http://www.w3.org/2000/svg"
	 xmlns="http://www.w3.org/2000/svg" xmlns:xlink="http://www.w3.org/1999/xlink" x="0px" y="0px" width="43.83px" height="95px"
	 viewBox="0 0 43.83 95" xml:space="preserve">
<path id="CustomSymbol" style="&st0;" d="M2.66,16.33C0.89,13.46,0,10.94,0,8.75c0-1.61,0.43-2.97,1.29-4.06
	s1.99-1.99,3.4-2.69s3.01-1.21,4.8-1.52S13.13,0,15,0c3.59,0,7.12,0.47,10.59,1.41s6.54,2.32,9.22,4.14
	c2.68,1.82,4.86,4.1,6.52,6.84c1.67,2.73,2.5,5.93,2.5,9.57c0,2.4-0.38,4.52-1.13,6.37c-0.76,1.85-1.76,3.54-3.01,5.08
	c-1.25,1.54-2.71,2.97-4.38,4.3c-1.67,1.33-3.41,2.64-5.24,3.94c-1.56,1.09-3.07,2.15-4.53,3.16c-1.46,1.02-2.76,2.07-3.91,3.16
	c-1.15,1.09-2.07,2.28-2.77,3.55s-1.05,2.72-1.05,4.34c0,1.51,0.35,3.09,1.05,4.73s1.81,3.56,3.32,5.74
	c-1.2,0.83-2.38,1.48-3.56,1.95s-2.31,0.7-3.4,0.7c-1.51,0-2.84-0.26-3.98-0.78c-1.15-0.52-2.11-1.22-2.89-2.11
	c-0.78-0.88-1.38-1.93-1.8-3.13c-0.42-1.2-0.63-2.47-0.63-3.83c0-2.24,0.47-4.31,1.41-6.21c0.94-1.9,2.15-3.67,3.63-5.31
	s3.18-3.18,5.08-4.61c1.9-1.43,3.81-2.82,5.74-4.18c1.77-1.25,3.5-2.49,5.19-3.71c1.69-1.22,3.19-2.47,4.49-3.75s2.34-2.6,3.13-3.98
	c0.78-1.38,1.17-2.88,1.17-4.49c0-1.93-0.47-3.58-1.41-4.96c-0.94-1.38-2.17-2.5-3.71-3.36c-1.54-0.86-3.31-1.48-5.31-1.88
	c-2.01-0.39-4.1-0.59-6.29-0.59C12.5,12.11,7.03,13.52,2.66,16.33z M22.81,86.72c0,2.81-0.78,4.9-2.34,6.25
	c-1.56,1.35-3.83,2.03-6.8,2.03c-2.4,0-4.24-0.76-5.55-2.27c-1.3-1.51-1.95-3.52-1.95-6.02c0-2.97,0.81-5.1,2.42-6.41
	c1.62-1.3,3.85-1.95,6.72-1.95c2.5,0,4.38,0.73,5.63,2.19C22.19,82.01,22.81,84.06,22.81,86.72z"/>
</svg>
