<?xml version="1.0" encoding="utf-8"?>
<!-- Generator: Adobe Illustrator 18.1.1, SVG Export Plug-In . SVG Version: 6.00 Build 0)  -->
<svg version="1.1" id="Ebene_1" xmlns="http://www.w3.org/2000/svg" xmlns:xlink="http://www.w3.org/1999/xlink" x="0px" y="0px"
	 viewBox="0 0 141.7 141.7" enable-background="new 0 0 141.7 141.7" xml:space="preserve">
<g>
	<g>
		<path fill="#BABABA" d="M33.5,107.5L33.5,107.5c-3.4-3.4-3.4-8.9,0-12.2L100.8,28c3.4-3.4,8.9-3.4,12.2,0l0,0
			c3.4,3.4,3.4,8.9,0,12.2l-67.3,67.3C42.4,110.9,36.9,110.9,33.5,107.5z"/>
		<circle fill="#BABABA" cx="108.1" cy="32.9" r="12.6"/>
		<circle fill="#BABABA" cx="33.4" cy="107.6" r="12.6"/>
	</g>
	<g>
		<path fill="#BABABA" d="M108,107.5L108,107.5c-3.4,3.4-8.9,3.4-12.2,0L28.5,40.2c-3.4-3.4-3.4-8.9,0-12.2l0,0
			c3.4-3.4,8.9-3.4,12.2,0L108,95.3C111.4,98.6,111.4,104.1,108,107.5z"/>
		<circle fill="#BABABA" cx="33.4" cy="32.9" r="12.6"/>
		<circle fill="#BABABA" cx="108.1" cy="107.6" r="12.6"/>
	</g>
	<polygon fill="#FA0700" points="77.9,71.3 71,60.1 64.1,71.3 68,70.6 68,78.7 74,78.7 74,70.6 	"/>
	<g>
		<g>
			<g id="chevron-right">
				<polygon fill="#54AD1D" points="29.6,1.8 28,3.4 33.2,8.6 28,13.7 29.6,15.3 36.3,8.6 				"/>
			</g>
		</g>
		<path fill="#54AD1D" d="M44.7,9.9l-1.1,2.3c7.6,3.8,12.9,11.7,12.9,20.7c0,12.8-10.4,23.1-23.1,23.1S10.3,45.7,10.3,32.9
			S20.7,9.8,33.4,9.8c0.1,0,0.2,0,0.4,0V7.3c-0.1,0-0.2,0-0.4,0C19.3,7.3,7.8,18.8,7.8,32.9s11.5,25.6,25.6,25.6
			s25.6-11.5,25.6-25.6C59.1,22.8,53.2,14.1,44.7,9.9z"/>
	</g>
	<g>
		<g>
			<g id="chevron-right_1_">
				<polygon fill="#54AD1D" points="104,8.6 110.8,15.3 112.3,13.7 107.2,8.6 112.3,3.4 110.8,1.8 				"/>
			</g>
		</g>
		<path fill="#54AD1D" d="M95.6,9.9l1.1,2.3C89,16,83.8,23.8,83.8,32.9c0,12.8,10.4,23.1,23.1,23.1S130,45.7,130,32.9
			S119.7,9.8,106.9,9.8c-0.1,0-0.2,0-0.4,0V7.3c0.1,0,0.2,0,0.4,0c14.1,0,25.6,11.5,25.6,25.6S121,58.6,106.9,58.6
			S81.3,47.1,81.3,32.9C81.3,22.8,87.1,14.1,95.6,9.9z"/>
	</g>
	<g>
		<g>
			<g id="chevron-right_3_">
				<polygon fill="#54AD1D" points="36.3,133 29.6,126.3 28,127.8 33.2,133 28,138.2 29.6,139.7 				"/>
			</g>
		</g>
		<path fill="#54AD1D" d="M44.7,131.6l-1.1-2.3c7.6-3.8,12.9-11.7,12.9-20.7c0-12.8-10.4-23.1-23.1-23.1s-23.1,10.4-23.1,23.1
			s10.4,23.1,23.1,23.1c0.1,0,0.2,0,0.4,0v2.5c-0.1,0-0.2,0-0.4,0c-14.1,0-25.6-11.5-25.6-25.6S19.3,83,33.4,83s25.6,11.5,25.6,25.6
			C59.1,118.7,53.2,127.5,44.7,131.6z"/>
	</g>
	<g>
		<g>
			<g id="chevron-right_2_">
				<polygon fill="#54AD1D" points="110.8,139.7 112.3,138.2 107.2,133 112.3,127.8 110.8,126.3 104,133 				"/>
			</g>
		</g>
		<path fill="#54AD1D" d="M95.6,131.6l1.1-2.3c-7.6-3.8-12.9-11.7-12.9-20.7c0-12.8,10.4-23.1,23.1-23.1S130,95.9,130,108.6
			s-10.4,23.1-23.1,23.1c-0.1,0-0.2,0-0.4,0v2.5c0.1,0,0.2,0,0.4,0c14.1,0,25.6-11.5,25.6-25.6S121,83,106.9,83
			s-25.6,11.5-25.6,25.6C81.3,118.7,87.1,127.5,95.6,131.6z"/>
	</g>
</g>
<g>
	<path fill="#FFFFFF" d="M37.8,36.6H36v2.8h-1.3v-2.8h-5.8v-1.2l5.7-8.1H36v8h1.8V36.6z M34.7,35.4v-4c0-0.8,0-1.6,0.1-2.6h-0.1
		c-0.3,0.5-0.5,0.9-0.7,1.3l-3.8,5.3H34.7z"/>
</g>
<g>
	<path fill="#FFFFFF" d="M111.5,39.3h-7.9v-1.1l3.1-3.2c1-1,1.6-1.6,1.9-2.1c0.3-0.4,0.6-0.9,0.7-1.2c0.1-0.4,0.2-0.8,0.2-1.3
		c0-0.6-0.2-1.1-0.6-1.5c-0.4-0.4-0.9-0.6-1.6-0.6c-0.5,0-1,0.1-1.4,0.2s-0.9,0.4-1.5,0.9l-0.7-0.9c1.1-0.9,2.3-1.3,3.6-1.3
		c1.1,0,2,0.3,2.6,0.9c0.6,0.6,0.9,1.3,0.9,2.3c0,0.8-0.2,1.5-0.6,2.3c-0.4,0.7-1.2,1.7-2.4,2.8l-2.6,2.6v0.1h6.2L111.5,39.3
		L111.5,39.3z"/>
</g>
<g>
	<path fill="#FFFFFF" d="M36.8,104.6c0,0.8-0.2,1.4-0.6,1.8c-0.4,0.5-1.1,0.8-1.8,1v0.1c1,0.1,1.7,0.4,2.1,0.9
		c0.5,0.5,0.7,1.1,0.7,1.9c0,1.1-0.4,2-1.2,2.6s-1.9,0.9-3.3,0.9c-0.6,0-1.2-0.1-1.7-0.1c-0.5-0.1-1.1-0.3-1.6-0.5v-1.3
		c0.5,0.3,1.1,0.4,1.6,0.6c0.6,0.1,1.1,0.2,1.6,0.2c2.1,0,3.1-0.8,3.1-2.4c0-1.4-1.1-2.2-3.4-2.2h-1.2V107h1.2
		c0.9,0,1.7-0.2,2.2-0.6c0.6-0.4,0.9-1,0.9-1.7c0-0.6-0.2-1.1-0.6-1.3c-0.4-0.4-0.9-0.5-1.6-0.5c-0.5,0-1,0.1-1.5,0.2
		c-0.5,0.1-1,0.4-1.6,0.8l-0.7-0.9c0.5-0.4,1.1-0.7,1.7-0.9c0.6-0.2,1.3-0.4,2-0.4c1.1,0,2.1,0.3,2.7,0.8
		C36.5,102.9,36.8,103.7,36.8,104.6z"/>
</g>
<g>
	<path fill="#FFFFFF" d="M109.7,113.7h-1.3v-8.5c0-0.7,0-1.3,0.1-2c-0.1,0.1-0.2,0.2-0.4,0.4c-0.1,0.1-0.8,0.6-1.9,1.6l-0.7-0.9
		l3.2-2.4h1.1L109.7,113.7L109.7,113.7z"/>
</g>
</svg>
