<?xml version="1.0" encoding="utf-8"?>
<!-- Generator: Adobe Illustrator 18.1.1, SVG Export Plug-In . SVG Version: 6.00 Build 0)  -->
<svg version="1.1" id="Ebene_1" xmlns="http://www.w3.org/2000/svg" xmlns:xlink="http://www.w3.org/1999/xlink" x="0px" y="0px"
	 viewBox="29 -30.3 200 200" enable-background="new 29 -30.3 200 200" xml:space="preserve">
<g>
	<g>
		<g>
			<path fill="#BABABA" d="M74.1,124.9l-1.1-1.1c-4.7-4.7-4.7-12.3,0-17L173.4,6.5c4.7-4.7,12.3-4.7,17,0l1.1,1.1
				c4.7,4.7,4.7,12.3,0,17L91.1,124.9C86.4,129.6,78.8,129.6,74.1,124.9z"/>
			<circle fill="#BABABA" cx="183.6" cy="14.3" r="18.6"/>
			<circle fill="#BABABA" cx="73.5" cy="124.5" r="18.6"/>
		</g>
		<g>
			<path fill="#BABABA" d="M184.1,123.8l-1.1,1.1c-4.7,4.7-12.3,4.7-17,0L65.7,24.6c-4.7-4.7-4.7-12.3,0-17l1.1-1.1
				c4.7-4.7,12.3-4.7,17,0l100.3,100.3C188.7,111.5,188.7,119.2,184.1,123.8z"/>
			<circle fill="#BABABA" cx="73.5" cy="14.3" r="18.6"/>
			<circle fill="#BABABA" cx="183.6" cy="124.5" r="18.6"/>
		</g>
		<path fill="#54AD1D" enable-background="new    " d="M222,14.1c-0.1-14.2-7.9-26.6-19.6-33l9.2-9.4l-26.3,0.2l0.2,26.3l11.2-11.4
			c10.1,5.2,17.1,15.2,17.2,27.4c0.1,16.6-13.5,30.4-30.1,30.5s-30.4-13.5-30.5-30.1c-0.1-13.3,8.3-24.3,20-28.9l-0.1-8.5
			c-16.1,4.6-28.2,19.6-28,37.4c0.2,21.4,17.7,38.3,38.7,38.1S222.2,35.1,222,14.1z"/>
		<path fill="#54AD1D" enable-background="new    " d="M73.1,52.8c21,0.1,38.5-16.7,38.7-38.1c0.1-17.8-11.9-32.8-28-37.4l-0.1,8.5
			c11.7,4.5,20.1,15.5,20,28.9c-0.1,16.6-14,30.2-30.5,30.1s-30.2-14-30.1-30.5c0.1-12.1,7-22.2,17.2-27.4L71.5-1.8l0.2-26.3
			l-26.3-0.2l9.2,9.4C42.8-12.5,35.1,0,35,14.1C34.8,35.1,52.1,52.7,73.1,52.8z"/>
		<path fill="#54AD1D" enable-background="new    " d="M183.9,86.5c-21-0.1-38.5,16.7-38.7,38.1c-0.1,17.8,11.9,32.8,28,37.4
			l0.1-8.5c-11.7-4.5-20.1-15.5-20-28.9c0.1-16.6,14-30.2,30.5-30.1s30.2,14,30.1,30.5c-0.1,12.1-7,22.2-17.2,27.4l-11.2-11.4
			l-0.2,26.3l26.3,0.2l-9.2-9.4c11.8-6.4,19.5-18.9,19.6-33C222.2,104.2,204.9,86.7,183.9,86.5z"/>
		<path fill="#54AD1D" enable-background="new    " d="M34.9,125.2c0.1,14.2,7.9,26.6,19.6,33l-9.2,9.4l26.3-0.2l-0.2-26.3
			l-11.2,11.4c-10.1-5.2-17.1-15.2-17.2-27.4c-0.1-16.6,13.5-30.4,30.1-30.5c16.6-0.1,30.4,13.5,30.5,30.1
			c0.1,13.3-8.3,24.3-20,28.9l0.1,8.5c16.1-4.6,28.2-19.6,28-37.4c-0.2-21.4-17.7-38.3-38.7-38.1C52,86.7,34.8,104.2,34.9,125.2z"/>
		<polygon fill="#FA0700" points="138.9,71 128.8,54.4 118.4,71 124,69.9 124,81.7 133,81.7 133,69.9 		"/>
	</g>
	<g>
		<path fill="#FFFFFF" d="M79.5,19.2H77v3.9h-1.8v-3.9H67v-1.7l8-11.4h2v11.3h2.5V19.2z M75.2,17.5v-5.6c0-1.1,0-2.3,0.1-3.7h-0.1
			c-0.4,0.7-0.7,1.3-1,1.8l-5.3,7.5H75.2z"/>
	</g>
	<g>
		<path fill="#FFFFFF" d="M189.2,23.1h-11.1v-1.6l4.4-4.5c1.4-1.4,2.2-2.3,2.7-2.9c0.4-0.6,0.8-1.2,1-1.7c0.2-0.6,0.3-1.1,0.3-1.8
			c0-0.9-0.3-1.6-0.8-2.1c-0.5-0.5-1.3-0.8-2.3-0.8c-0.7,0-1.4,0.1-2,0.3c-0.6,0.2-1.3,0.6-2.1,1.3l-1-1.3c1.6-1.3,3.2-1.9,5.1-1.9
			c1.6,0,2.8,0.4,3.7,1.2c0.9,0.8,1.3,1.9,1.3,3.3c0,1.1-0.3,2.1-0.9,3.2c-0.6,1-1.7,2.4-3.4,4l-3.7,3.6v0.1h8.7V23.1z"/>
	</g>
	<g>
		<path fill="#FFFFFF" d="M78.1,119.4c0,1.1-0.3,2-0.9,2.6c-0.6,0.7-1.5,1.1-2.6,1.4v0.1c1.4,0.2,2.4,0.6,3,1.3c0.7,0.7,1,1.6,1,2.7
			c0,1.6-0.6,2.8-1.7,3.7c-1.1,0.9-2.7,1.3-4.7,1.3c-0.9,0-1.7-0.1-2.4-0.2c-0.7-0.1-1.5-0.4-2.2-0.7v-1.8c0.7,0.4,1.5,0.6,2.3,0.8
			c0.8,0.2,1.6,0.3,2.3,0.3c2.9,0,4.4-1.1,4.4-3.4c0-2-1.6-3.1-4.8-3.1h-1.7v-1.6h1.7c1.3,0,2.4-0.3,3.1-0.9
			c0.8-0.6,1.2-1.4,1.2-2.4c0-0.8-0.3-1.5-0.8-1.9c-0.6-0.5-1.3-0.7-2.3-0.7c-0.7,0-1.4,0.1-2.1,0.3c-0.7,0.2-1.4,0.6-2.2,1.1
			l-1-1.3c0.7-0.5,1.5-1,2.4-1.3c0.9-0.3,1.9-0.5,2.8-0.5c1.6,0,2.9,0.4,3.8,1.1C77.7,117.1,78.1,118.1,78.1,119.4z"/>
	</g>
	<g>
		<path fill="#FFFFFF" d="M185.2,132.3h-1.9v-12c0-1,0-1.9,0.1-2.8c-0.2,0.2-0.3,0.3-0.5,0.5c-0.2,0.2-1.1,0.9-2.7,2.2l-1-1.3
			l4.5-3.4h1.6V132.3z"/>
	</g>
</g>
</svg>
