<?xml version="1.0" encoding="utf-8"?>
<!-- Generator: Adobe Illustrator 18.1.1, SVG Export Plug-In . SVG Version: 6.00 Build 0)  -->
<svg version="1.0" id="Capa_1" xmlns="http://www.w3.org/2000/svg" xmlns:xlink="http://www.w3.org/1999/xlink" x="0px" y="0px"
	 viewBox="235 -236.3 612 612" enable-background="new 235 -236.3 612 612" xml:space="preserve">
<g>
	<g id="Right">
		<g>
			<path fill="#59AA29" d="M512.6-56.6L512.6-56.6c-5.2-4.6-11.9-7.6-19.4-7.6c-15.8,0-28.7,12.9-28.7,28.7c0,8.4,3.6,15.8,9.4,21.1
				l-0.1,0.1l91.7,84l-91.7,84.1l0.1,0.1c-5.7,5.2-9.4,12.7-9.4,21.1c0,15.8,12.9,28.7,28.7,28.7c7.5,0,14.2-2.9,19.3-7.6l0.1,0.1
				L627.3,90.9c5.9-5.5,9.3-13.1,9.3-21.2s-3.4-15.7-9.3-21.2L512.6-56.6z M541-236.3c-169,0-306,137-306,306s137,306,306,306
				s306-137,306-306S710-236.3,541-236.3z M541,318.4c-137.1,0-248.6-111.5-248.6-248.6S403.9-178.9,541-178.9
				S789.6-67.4,789.6,69.7S678.1,318.4,541,318.4z"/>
		</g>
	</g>
</g>
</svg>
