<?xml version="1.0" encoding="utf-8"?>
<!-- Generator: Adobe Illustrator 19.1.0, SVG Export Plug-In . SVG Version: 6.00 Build 0)  -->
<svg version="1.1" id="Ebene_1" xmlns="http://www.w3.org/2000/svg" xmlns:xlink="http://www.w3.org/1999/xlink" x="0px" y="0px"
	 viewBox="-70 61.5 141.7 18.2" style="enable-background:new -70 61.5 141.7 18.2;" xml:space="preserve">
<style type="text/css">
	.st0{fill:#FFBB00;}
	.st1{fill:#424242;}
	.st2{fill:#3A3A3A;}
</style>
<g>
	<g>
		<path class="st0" d="M-19.5,70.1h4.1c2,0,2,1.1,1.7,1.9s-0.8,1.2-1.4,1.5c0.6,0.2,1,0.8,0.6,1.9c-0.5,1.5-2.1,2.3-3.4,2.3h-4.2
			L-19.5,70.1z M-19.2,75.8h1.4c0.5,0,0.9-0.1,1.2-0.7c0.2-0.4,0-0.7-0.6-0.7h-1.4L-19.2,75.8z M-18.2,73h1.2c0.5,0,0.8-0.1,1-0.6
			c0.1-0.4-0.1-0.5-0.6-0.5h-1.2L-18.2,73z"/>
		<path class="st0" d="M-11.6,70.1h6.2L-6.1,72H-10l-0.3,0.9h3.5l-0.6,1.8h-3.5l-0.3,0.9h4l-0.7,1.9h-6.3L-11.6,70.1z"/>
		<path class="st0" d="M-3.2,72h-2.1l0.7-1.9h6.5L1.2,72h-2.1l-2,5.6h-2.3L-3.2,72z"/>
		<path class="st0" d="M4,70.1h2.3l0.1,7.5H3.9L4,76.5H1.6l-0.7,1.1h-2.3L4,70.1z M4.1,74.9l0.1-2.3l0,0l-1.5,2.3H4.1z"/>
		<path class="st1" d="M9.6,70.1h5.8L14.7,72h-3.5l-0.3,0.9h3l-0.6,1.8h-3l-1,2.9H7L9.6,70.1z"/>
		<path class="st1" d="M16.3,70.1h2.3l-2,5.6h3.3l-0.7,1.9h-5.6L16.3,70.1z"/>
		<path class="st1" d="M22.7,70.1H25l-2.7,7.5H20L22.7,70.1z"/>
		<path class="st1" d="M29.4,76.8c-0.7,0.7-1.6,0.9-2.5,0.9c-2.2,0-3-1.7-2.2-3.8c1-2.9,3.4-4,5.1-4c1.9,0,2.7,1,2.5,2.8h-2.2
			c0.1-0.5-0.2-0.9-0.8-0.9c-1.6,0-2.1,1.7-2.3,2.2c-0.2,0.7-0.4,1.9,1,1.9c0.5,0,1.2-0.3,1.5-0.8h-1l0.6-1.6h3.1l-1.5,4.1h-1.5
			L29.4,76.8z"/>
		<path class="st1" d="M34.6,70.1h2.3L36,72.7h2.2l0.9-2.6h2.3l-2.7,7.5h-2.3l1.1-3h-2.2l-1.1,3h-2.3L34.6,70.1z"/>
		<path class="st1" d="M43.6,72h-2.1l0.7-1.9h6.5L48,72h-2.1l-2,5.6h-2.3L43.6,72z"/>
	</g>
	<g>
		<path class="st0" d="M-36.4,73.5c0,0-2.5,1.2-1.7,3.5c0.9,2.6,5.3,2.3,7.9,1.2c2.2-0.9,0.4-1.6,0.4-1.6l-2.3-1.3l-3.4-2.1
			L-36.4,73.5z"/>
		<path class="st2" d="M-30.3,75.5c-1.7-0.7-2.9-1.7-4-2.2c0.6-0.3,1.2-0.7,1.6-1c0.4-0.4,0.5-0.8,0.5-1.3c1.2,0.8,2.7,0.9,3.5,0.9
			c0.8,0,1.5,0.2,1.7,0.6c0,0,0.2-4.2-8.4-7c0,0,2.6,1.2,3.4,2.1c0,0-0.9-0.1-1.3,0.5c-0.2,0.3-0.2,0.8-0.1,1.3
			c-0.1,0-0.3,0-0.5-0.1l-13.7-7.6l1.4,3.1l-1.4-0.5l0.4,0.8c0,0,0.6,1.1,1.9,3.4c1,1.8,2.9,2.7,5.4,2.6c0.1,0,0.2,0,0.3,0
			c0.6,0,1.6-0.1,2.5-0.2c-0.1,0.3-0.1,0.7,0,1.2c0.1,0.6,0.3,0.9,0.6,1.2c-0.7,0.3-1.4,1-1.7,1.8c0,0,0,0,0,0c0,0,0,0,0,0.1
			c0,0,0,0,0,0c-0.2,0.5-0.3,1.1,0,1.8c0,0,0,0,0,0c0,0.1,0.1,0.3,0.2,0.4c0.1,0.1,0.2,0.3,0.3,0.4c1.5,1.8,5.3,1.5,7.6,0.5
			c0,0,0.1,0,0.1,0c0.2-0.1,0.4-0.2,0.6-0.3c0,0,0.1,0,0.1-0.1c0.2-0.1,0.4-0.2,0.6-0.3c2.3-1.4,3.1-2.9,3.1-2.9
			S-28.1,76.5-30.3,75.5z M-29.7,69.3c0.7,0.3,1.7,1.9,1.7,1.9c-0.8-0.1-2.5-0.7-2.7-1.3S-30.4,69-29.7,69.3z M-40.1,70.5
			c-0.9,0-1.7-0.1-2.4-0.3c-1-0.4-1.8-1-2.3-2c-0.7-1.2-1.2-2-1.5-2.6l1.2,0.4l-1.2-2.7l10.8,6c-0.3,0-0.6,0.1-0.9,0.3l-6.9-2.8
			l6,3.4C-38.4,70.4-39.5,70.5-40.1,70.5z M-38.1,76.7c-0.1-0.5-0.1-0.9,0-1.3c0.6,0.4,1.6,0.7,2.9,0.2
			C-35.1,75.5-36.1,76.7-38.1,76.7z M-34.9,78.9c-0.4-0.1-0.9-0.2-1.3-0.3c-0.2-0.1-0.4-0.2-0.6-0.3c0.9-0.2,2-0.7,3-1.9
			C-33.8,76.4-33.9,77.7-34.9,78.9z M-31.9,78.6c-0.2,0.1-0.5,0.1-0.7,0.2c0.4-0.3,0.8-0.7,0.8-1.4C-31.8,77.4-31.6,78.2-31.9,78.6z
			 M-28.7,77.1c-0.1-0.3-0.2-0.9-0.2-0.9c0.7,0.1,1.6-0.2,1.6-0.2C-27.9,76.6-28.7,77.1-28.7,77.1z"/>
		<path class="st0" d="M-34.1,69.8c0,0-2.5-0.6-2.9,1.3c-0.1,0.8,0.2,1.5,0.6,1.8c0.2-0.1,0.5-0.2,1-0.2c-0.1,0-0.3-0.3-0.4-0.6
			c0.2,0,0.4,0.1,0.6,0c0,0-0.6-0.2-0.8-0.9c0,0,0,0,0,0c0.1,0.1,0.2,0.1,0.3,0.1c0,0-0.5-0.4-0.1-0.9C-35.5,70.1-35,69.8-34.1,69.8
			z"/>
	</g>
</g>
</svg>
