<?xml version="1.0" encoding="utf-8"?>
<!-- Generator: Adobe Illustrator 19.1.0, SVG Export Plug-In . SVG Version: 6.00 Build 0)  -->
<svg version="1.1" id="Ebene_1" xmlns="http://www.w3.org/2000/svg" xmlns:xlink="http://www.w3.org/1999/xlink" x="0px" y="0px"
	 viewBox="-70 61.5 141.7 18.2" style="enable-background:new -70 61.5 141.7 18.2;" xml:space="preserve">
<style type="text/css">
	.st0{fill:#FFBB00;}
	.st1{fill:#424242;}
</style>
<g>
	<g>
		<path class="st0" d="M-35.1,65.4c0,0,2.7,1.2,3.5,2.2c0,0-0.9-0.1-1.3,0.6c-0.4,0.6-0.2,1.9,1.1,2.8c1.3,1,2.9,1,3.7,1.1
			c0.8,0,1.6,0.2,1.7,0.6C-26.5,72.6-26.2,68.3-35.1,65.4z M-30.2,69.9c-0.2-0.7,0.4-0.9,1.1-0.6s1.7,2,1.7,2
			C-28.2,71.1-30,70.5-30.2,69.9z"/>
		<path class="st0" d="M-47.7,61.5l1.5,3.2l-1.4-0.5l0.4,0.8c0,0,0.6,1.1,1.9,3.5c1.1,1.9,3,2.8,5.5,2.7c0.1,0,0.2,0,0.3,0
			c1.6-0.1,5.2-0.5,5.3-0.5l0,0l1.7-0.7L-47.7,61.5z M-39.8,70.5c-0.9,0-1.7-0.1-2.5-0.3c-1.1-0.4-1.9-1-2.4-2
			c-0.7-1.2-1.2-2.1-1.5-2.7l1.3,0.4l-1.3-2.7l12.1,6.7l-0.2,0.1c-0.1,0-0.3,0-0.6,0.1l-8.2-3.3l6.2,3.5
			C-38,70.4-39.2,70.5-39.8,70.5z"/>
		<path class="st0" d="M-32.4,69.6c0,0-5.2-1.3-4.4,2.7c0.5,2.6,3.5,1.1,4.6,0.1C-31.2,71.4-32.1,69.7-32.4,69.6z"/>
		<path class="st0" d="M-29.7,75.7c-2.3-1-3.7-2.6-5.5-2.5c-1.1,0.1-2.3,1-2.7,2.2c0.6,0.5,1.7,0.9,3.2,0.3c0,0-1.1,1.3-3.3,1.2
			c0.1,0.3,0.1,0.5,0.3,0.8c0.2,0.3,0.5,0.6,0.8,0.9c0.9-0.1,2.3-0.6,3.6-2c0,0-0.1,1.5-1.3,2.8c0.6,0.1,1.3,0.1,2,0
			c0.5-0.3,1.3-0.8,1.3-1.8c0,0,0.2,0.7-0.1,1.6c1.1-0.2,2.2-0.6,3.3-1.3c2.4-1.4,3.2-3,3.2-3S-27.4,76.7-29.7,75.7z M-28,77.4
			c-0.1-0.3-0.2-1-0.2-1c0.7,0.1,1.6-0.2,1.6-0.2C-27.2,77-28,77.4-28,77.4z"/>
	</g>
	<g>
		<path class="st0" d="M-19.5,69.8h4.1c2,0,2,1.1,1.7,1.9c-0.3,0.8-0.8,1.2-1.4,1.5c0.6,0.2,1,0.8,0.6,1.9c-0.5,1.5-2.1,2.3-3.4,2.3
			h-4.2L-19.5,69.8z M-19.2,75.5h1.4c0.5,0,0.9-0.1,1.2-0.7c0.2-0.4,0-0.7-0.6-0.7h-1.4L-19.2,75.5z M-18.2,72.7h1.2
			c0.5,0,0.8-0.1,1-0.6c0.1-0.4-0.1-0.5-0.6-0.5h-1.2L-18.2,72.7z"/>
		<path class="st0" d="M-11.6,69.8h6.2l-0.7,1.9H-10l-0.3,0.9h3.5l-0.6,1.8h-3.5l-0.3,0.9h4l-0.7,1.9h-6.3L-11.6,69.8z"/>
		<path class="st0" d="M-3.2,71.7h-2.1l0.7-1.9h6.5l-0.7,1.9h-2.1l-2,5.6h-2.3L-3.2,71.7z"/>
		<path class="st0" d="M4,69.8h2.3l0.1,7.5H3.9L4,76.2H1.6l-0.7,1.1h-2.3L4,69.8z M4.1,74.6l0.1-2.3h0l-1.5,2.3H4.1z"/>
		<path class="st1" d="M9.6,69.8h5.8l-0.7,1.9h-3.5l-0.3,0.9h3l-0.6,1.8h-3l-1,2.9H7L9.6,69.8z"/>
		<path class="st1" d="M16.3,69.8h2.3l-2,5.6h3.3l-0.7,1.9h-5.6L16.3,69.8z"/>
		<path class="st1" d="M22.7,69.8H25l-2.7,7.5h-2.3L22.7,69.8z"/>
		<path class="st1" d="M29.4,76.5c-0.7,0.7-1.6,0.9-2.5,0.9c-2.2,0-3-1.7-2.2-3.8c1-2.9,3.4-4,5.1-4c1.9,0,2.7,1,2.5,2.8h-2.2
			c0.1-0.5-0.2-0.9-0.8-0.9c-1.6,0-2.1,1.7-2.3,2.2c-0.2,0.7-0.4,1.9,1,1.9c0.5,0,1.2-0.3,1.5-0.8h-1l0.6-1.6h3.1l-1.5,4.1h-1.5
			L29.4,76.5z"/>
		<path class="st1" d="M34.6,69.8h2.3L36,72.4h2.2l0.9-2.6h2.3l-2.7,7.5h-2.3l1.1-3h-2.2l-1.1,3h-2.3L34.6,69.8z"/>
		<path class="st1" d="M43.6,71.7h-2.1l0.7-1.9h6.5L48,71.7h-2.1l-2,5.6h-2.3L43.6,71.7z"/>
	</g>
</g>
</svg>
