<?xml version="1.0" encoding="utf-8"?>
<!-- Generator: Adobe Illustrator 18.1.1, SVG Export Plug-In . SVG Version: 6.00 Build 0)  -->
<svg version="1.0" id="Ebene_1" xmlns="http://www.w3.org/2000/svg" xmlns:xlink="http://www.w3.org/1999/xlink" x="0px" y="0px"
	 width="141.7px" height="18.2px" viewBox="0 0 141.7 18.2" enable-background="new 0 0 141.7 18.2" xml:space="preserve">
<g>
	<path fill="#FFFFFF" d="M56.8,4.9V4.7l-0.1-0.4c-0.4-0.8-1.2-1.1-2.5-1.1l-5.1,0c-0.5,0-1,0.2-1.5,0.4c0,0,0,0,0,0
		c-0.2,0.1-0.4,0.2-0.6,0.3c0,0,0,0,0,0c-0.3,0.1-0.7,0.4-1.1,0.8c0,0,0,0,0,0c-0.1,0.1-0.3,0.3-0.4,0.4c-0.1,0.1-0.1,0.1-0.2,0.2
		c-0.1,0.1-0.2,0.2-0.3,0.4c0,0,0,0.1-0.1,0.1c0,0,0,0,0,0c-0.2,0.3-1.4,2.4-3.7,6.3h-9.6c0.2-0.5,0.5-1,1-1.7h2
		c0.1,0,1.5-0.8,4.1-2.3V8h-4.7l1-1.8h6.9l4.9-2.9V3.2H33.2l-5,8.8H19l5-8.7V3.2h-2.6v0h-9.8C9.6,3.2,8,4,6.6,5.6l-2.7,4.6
		c-1,1.5-1.5,2.6-1.5,3.2c0,0.3,0.1,0.5,0.1,0.6c0.2,0.7,0.9,1,1.9,1H6l0.4,0l0.5,0h6.3c0.1,0,0.6-1,1.7-2.9h0l0,0H8.1l-0.4,0
		l-0.1,0c-0.4,0-0.7-0.2-0.7-0.6c0-0.4,0.4-1.1,1.1-2.3c1-2,2.1-2.9,3.2-2.9h5.3l3.8-2.3l-3.1,5.4C15,13,14,15,14,15h10.1l3.5-2
		l-1.1,2h0l0,0h12.9h0.1h0.5h2.6h0.2l0,0c1-1.9,1.6-2.8,1.7-2.9h5v0.1l-0.6,1l-1,1.8l0,0l0,0h0.1h3h0.2c0.1-0.1,1.5-2.5,4.2-7.2
		C56.4,6.4,56.8,5.4,56.8,4.9z M46.6,8.4c0.7-1.5,1.7-2.2,3-2.2h1.7c0.4,0,0.7,0,0.9,0.1c0.1,0,0.1,0.1,0.2,0.1c0,0,0,0,0,0
		c0.1,0,0.1,0.1,0.1,0.2c0,0,0,0,0,0v0.3c0,0.2-0.4,0.9-1.1,2c0,0.1-0.1,0.2-0.3,0.2h-4.9C46.2,9.1,46.3,8.8,46.6,8.4z"/>
	<path fill="#FFFFFF" d="M69.2,4.8L69.2,4.8c0-0.3,0-0.5-0.1-0.6c-0.4-0.6-1.2-0.9-2.4-0.9v0h-8l-3.4,5.9C53.1,13,52,15,52,15h3.3
		c0.1-0.1,1.8-3,5.1-8.8h3.9c0.5,0,0.7,0.2,0.7,0.5v0.1c0,0.2-0.1,0.4-0.2,0.6L60.4,15v0h3.3c0.4-0.7,1.8-3.1,4.1-7.2
		C68.8,6.4,69.2,5.3,69.2,4.8z"/>
	<path fill="#FFFFFF" d="M99.8,3.2h-3.3c-2.2,3.9-3.8,6.8-4.9,8.8h-9.1l5-8.7V3.2h-2.8v0H71.3L64.5,15v0h3.3c1.2-2,2.1-3.6,2.6-4.7
		h2.2l4-2.3V8h-4.7c0.7-1.2,1-1.8,1.1-1.8h6.9l3.9-2.3l-3.1,5.5C78.5,13,77.4,15,77.4,15h10.1l3.4-2c-0.6,1.1-1,1.8-1.1,2h3.3
		L99.8,3.2L99.8,3.2z"/>
	<path fill="#FFFFFF" d="M135.7,3.1h-8.1l-3.2,1.9l1-1.8l-0.1-0.1h-3.2L119.4,8l-3.8,0h-1.3l2.6-4.7V3.2v0h-3.3l0,0H104
		c-1.6,0-3,0.6-4.4,1.9c-0.6,0.7-1.6,2.4-3.1,5c-1.1,1.6-1.6,2.8-1.6,3.4c0,1,0.7,1.5,2.2,1.5h8.5l3.9-7h0l0,0h-5.6l-4,2.3v0.1h5
		c-0.6,1.1-0.9,1.7-1,1.7h-3.7c-0.5-0.1-0.8-0.3-0.8-0.6v-0.3c0.1-0.4,0.4-1.1,1.1-2.1c1-1.9,2-2.9,3.2-2.9h5.3l4.6-2.7l-3.7,6.4
		c-1.7,3-2.7,4.8-2.9,5.1h3.3l2.7-4.7h5v0c-1.7,3-2.6,4.5-2.6,4.6l3.3,0h0l5-8.8h3.7l-5,8.8v0h3.3c0.1,0,1.7-2.9,5-8.8h3.2l4.9-3
		V3.2L135.7,3.1z"/>
</g>
</svg>
