<?xml version="1.0" encoding="utf-8"?>
<!-- Generator: Adobe Illustrator 18.1.1, SVG Export Plug-In . SVG Version: 6.00 Build 0)  -->
<svg version="1.0"
	 id="svg5730" sodipodi:docname="ic_settings_24px.svg" inkscape:version="0.48.5 r10040" xmlns:inkscape="http://www.inkscape.org/namespaces/inkscape" xmlns:dc="http://purl.org/dc/elements/1.1/" xmlns:cc="http://creativecommons.org/ns#" xmlns:rdf="http://www.w3.org/1999/02/22-rdf-syntax-ns#" xmlns:svg="http://www.w3.org/2000/svg" xmlns:sodipodi="http://sodipodi.sourceforge.net/DTD/sodipodi-0.dtd"
	 xmlns="http://www.w3.org/2000/svg" xmlns:xlink="http://www.w3.org/1999/xlink" x="0px" y="0px" viewBox="-59 59.7 22 22"
	 enable-background="new -59 59.7 22 22" xml:space="preserve">
<title  id="title5799">CF_Settings_Icon</title>
<sodipodi:namedview  id="namedview5733" inkscape:window-width="1061" inkscape:window-y="0" inkscape:window-x="0" inkscape:pageopacity="0" fit-margin-right="0" inkscape:pageshadow="2" inkscape:window-height="855" inkscape:current-layer="svg5730" fit-margin-bottom="0" inkscape:window-maximized="0" gridtolerance="10" inkscape:zoom="19.072019" fit-margin-left="0" bordercolor="#666666" inkscape:cx="10.164105" inkscape:cy="10.532446" fit-margin-top="0" borderopacity="1" objecttolerance="10" guidetolerance="10" showgrid="false" pagecolor="#ffffff">
	</sodipodi:namedview>
<g>
	<path d="M-45.4,68.9l-0.4-0.9c0,0,0.9-2,0.8-2.1l-1.2-1.2c-0.1-0.1-2.1,0.9-2.1,0.9l-0.9-0.4c0,0-0.8-2.1-1-2.1h-1.7
		c-0.1,0-0.9,2.1-0.9,2.1l-0.9,0.4c0,0-2.1-0.9-2.2-0.8l-1.2,1.2c-0.1,0.1,0.9,2.1,0.9,2.1l-0.4,0.9c0,0-2.1,0.8-2.1,0.9v1.7
		c0,0.1,2.1,0.9,2.1,0.9l0.4,0.9c0,0-0.9,2.1-0.8,2.1l1.2,1.2c0.1,0.1,2.1-0.9,2.1-0.9l0.9,0.4c0,0,0.8,2.1,1,2.1h1.7
		c0.1,0,0.9-2.1,0.9-2.1l0.9-0.4c0,0,2.1,0.9,2.2,0.8l1.2-1.2c0.1-0.1-0.9-2.1-0.9-2.1l0.4-0.9c0,0,2.1-0.8,2.1-0.9v-1.7
		C-43.3,69.6-45.4,68.9-45.4,68.9z M-51,73c-1.4,0-2.5-1.1-2.5-2.4c0-1.3,1.1-2.4,2.5-2.4c1.4,0,2.5,1.1,2.5,2.4
		C-48.5,71.9-49.7,73-51,73z"/>
	<path d="M-38.3,66.9l0-0.5c0,0,0.8-0.7,0.8-0.8l-0.3-0.8c0-0.1-1.1,0-1.1,0l-0.3-0.4c0,0,0-1.1,0-1.1l-0.7-0.3
		c-0.1,0-0.8,0.7-0.8,0.7l-0.5,0c0,0-0.7-0.8-0.8-0.8l-0.8,0.3c-0.1,0,0,1.1,0,1.1l-0.4,0.3c0,0-1.1-0.1-1.1,0l-0.3,0.7
		c0,0.1,0.8,0.8,0.8,0.8l0,0.5c0,0-0.8,0.7-0.8,0.8l0.3,0.8c0,0.1,1.1,0,1.1,0l0.3,0.4c0,0,0,1.1,0,1.1l0.7,0.3
		c0.1,0,0.8-0.7,0.8-0.7l0.5,0c0,0,0.7,0.8,0.8,0.8l0.8-0.3c0.1,0,0-1.1,0-1.1l0.4-0.3c0,0,1.1,0.1,1.1,0l0.3-0.7
		C-37.5,67.7-38.3,66.9-38.3,66.9z M-40,67.1c-0.3,0.6-1,0.8-1.6,0.6c-0.6-0.3-0.9-1-0.6-1.6c0.3-0.6,1-0.8,1.6-0.6
		C-40,65.8-39.8,66.5-40,67.1z"/>
</g>
</svg>
