<?xml version="1.0" encoding="UTF-8" standalone="no"?>
<svg
   xmlns:dc="http://purl.org/dc/elements/1.1/"
   xmlns:cc="http://creativecommons.org/ns#"
   xmlns:rdf="http://www.w3.org/1999/02/22-rdf-syntax-ns#"
   xmlns:svg="http://www.w3.org/2000/svg"
   xmlns="http://www.w3.org/2000/svg"
   xmlns:sodipodi="http://sodipodi.sourceforge.net/DTD/sodipodi-0.dtd"
   xmlns:inkscape="http://www.inkscape.org/namespaces/inkscape"
   width="22"
   height="22"
   viewBox="0 0 17.600017 17.600007"
   id="svg5730"
   version="1.1"
   inkscape:version="0.48.5 r10040"
   sodipodi:docname="ic_settings_24px.svg">
  <title
     id="title5799">CF_Settings_Icon</title>
  <metadata
     id="metadata5737">
    <rdf:RDF>
      <cc:Work
         rdf:about="">
        <dc:format>image/svg+xml</dc:format>
        <dc:type
           rdf:resource="http://purl.org/dc/dcmitype/StillImage" />
        <dc:title>CF_Settings_Icon</dc:title>
        <dc:date>12.28.2014</dc:date>
        <dc:creator>
          <cc:Agent>
            <dc:title>Dustin Hawkinson</dc:title>
          </cc:Agent>
        </dc:creator>
        <dc:rights>
          <cc:Agent>
            <dc:title>GPL licensed and royalty free</dc:title>
          </cc:Agent>
        </dc:rights>
        <dc:description>Settings icon for Cleanflight.  Created by Dustin Hawkinson for the Cleanflight project.  GPL licensed and may be used by anyone for any purpose.</dc:description>
        <cc:license
           rdf:resource="http://creativecommons.org/licenses/publicdomain/" />
      </cc:Work>
      <cc:License
         rdf:about="http://creativecommons.org/licenses/publicdomain/">
        <cc:permits
           rdf:resource="http://creativecommons.org/ns#Reproduction" />
        <cc:permits
           rdf:resource="http://creativecommons.org/ns#Distribution" />
        <cc:permits
           rdf:resource="http://creativecommons.org/ns#DerivativeWorks" />
      </cc:License>
    </rdf:RDF>
  </metadata>
  <defs
     id="defs5735" />
  <sodipodi:namedview
     pagecolor="#ffffff"
     bordercolor="#666666"
     borderopacity="1"
     objecttolerance="10"
     gridtolerance="10"
     guidetolerance="10"
     inkscape:pageopacity="0"
     inkscape:pageshadow="2"
     inkscape:window-width="1061"
     inkscape:window-height="855"
     id="namedview5733"
     showgrid="false"
     fit-margin-top="0"
     fit-margin-left="0"
     fit-margin-right="0"
     fit-margin-bottom="0"
     inkscape:zoom="19.072019"
     inkscape:cx="10.164105"
     inkscape:cy="10.532446"
     inkscape:window-x="0"
     inkscape:window-y="0"
     inkscape:window-maximized="0"
     inkscape:current-layer="svg5730" />
  <path
     style="fill:#000000;stroke:#000000;stroke-width:0.04269349"
     d="m 10.922903,0.40870542 c -0.0101,6.2e-4 -0.0202,0.003 -0.031,0.006 L 9.6473831,0.92596543 c -0.05,0.0325 -0.0805,0.0969 -0.0651,0.17717997 l 0.40665,1.22957 c 0.0657,0.21518 -0.001,0.27666 -0.18251,0.39705 l -0.24442,0.24976 c -0.12083,0.18059 -0.18401,0.24719 -0.39919,0.18145 l -1.22744,-0.41093 c -0.0798,-0.0158 -0.14473,0.0152 -0.17718,0.0651 l -0.51445,1.24238 c -0.0299,0.0858 0.0461,0.15284 0.10033,0.17504 l 1.13564,0.62013 c 0.17846,0.0854 0.19213,0.17803 0.15157,0.34581 l -0.016,0.40666 c 0.0427,0.21347 0.0459,0.30505 -0.15263,0.41093 l -1.157,0.5817 c -0.0675,0.0457 -0.0907,0.11335 -0.0779,0.17184 l 0.51766,1.24131 c 0.0397,0.0815 0.1411,0.0734 0.19532,0.0512 l 1.24025,-0.36716 c 0.18614,-0.0662 0.26171,-0.0117 0.35222,0.13555 l 0.28071,0.31273 c 0.18102,0.12125 0.2476199,0.18401 0.18145,0.39919 l -0.40986,1.2274301 c -0.0158,0.0803 0.0141,0.14516 0.064,0.17718 l 1.2434499,0.5144605 c 0.0858,0.0299 0.15135,-0.0461 0.17397,-0.10033 l 0.62119,-1.1356506 c 0.0854,-0.17846 0.17761,-0.19212 0.34582,-0.15156 l 0.39919,-0.0427 c 0.16778,-0.0401 0.26021,-0.0258 0.34475,0.15263 l 0.61692,1.1367106 c 0.0222,0.0542 0.0882,0.13192 0.17397,0.10247 l 1.24452,-0.5112605 c 0.0504,-0.0324 0.082,-0.0969 0.0662,-0.17718 l -0.40773,-1.2295701 c -0.0653,-0.21518 0.002,-0.27772 0.18358,-0.39812 l 0.27645,-0.29885 c 0.0901,-0.14772 0.16458,-0.20237 0.35115,-0.13662 l 1.24238,0.36289 c 0.0542,0.0226 0.15455,0.0307 0.19426,-0.0512 l 0.51445,-1.24238 c 0.0124,-0.0585 -0.0111,-0.12659 -0.079,-0.17184 l -1.15806,-0.57743 c -0.19895,-0.10546 -0.19596,-0.19746 -0.1537,-0.41093 l 0.002,-0.34902 c -0.0427,-0.21346 -0.0459,-0.30398 0.15263,-0.40986 l 1.15699,-0.58169 c 0.0679,-0.0457 0.0918,-0.11378 0.079,-0.17185 l -0.51872,-1.24131 c -0.0401,-0.0815 -0.14004,-0.0739 -0.19426,-0.0512 l -1.24025,0.36716 c -0.18657,0.0662 -0.26171,0.0117 -0.35222,-0.13555 l -0.30846,-0.29032 c -0.14772,-0.0901 -0.20343,-0.16458 -0.13768,-0.35115 l 0.36503,-1.24132 c 0.0222,-0.0542 0.0292,-0.15454997 -0.0523,-0.19424997 l -1.24345,-0.51553001 c -0.0581,-0.0124 -0.12552,0.0122 -0.17078,0.0801 l -0.57849,1.15806998 c -0.10546,0.19895 -0.1964,0.19596 -0.40986,0.15369 l -0.0192,-0.001 -0.34476,0 c -0.16821,0.0406 -0.25979,0.0263 -0.34475,-0.15263 l -0.61798,-1.13671998 c -0.0194,-0.0478 -0.0726,-0.11216 -0.14303,-0.1078 z m 1.30002,3.55743998 c 0.80567,0 1.45905,0.65338 1.45905,1.45905 0,0.80567 -0.65338,1.45798 -1.45905,1.45798 -0.80567,0 -1.45905,-0.65231 -1.45905,-1.45798 0,-0.80567 0.65338,-1.45905 1.45905,-1.45905 z m -7.3080699,2.96186 c -0.0585,0.0102 -0.11228,0.0589 -0.12808,0.13876 l -0.0907,1.29148 c -0.0213,0.22371 -0.10673,0.25616 -0.3202,0.29885 l -0.0181,0.006 -0.31806,0.13235 c -0.13961,0.10161 -0.2314,0.12381 -0.37784,-0.009 l -1.00543,-0.81438 c -0.0414,-0.0418 -0.13171,-0.0869 -0.1996,-0.0267 l -0.95313,0.9478 c -0.0342,0.0487 -0.0384,0.12061 0.006,0.18892 l 0.8464,0.9798206 c 0.14259,0.17376 0.10523,0.25658 -0.016,0.4376 l -0.13128,0.32341 c -0.0427,0.21347 -0.0751,0.29885 -0.29885,0.3202 l -1.29148002,0.0907 c -0.0798,0.0158 -0.12851,0.0696 -0.13876,0.12808 l 0,1.34485 c 0.005,0.0909 0.10161,0.12274 0.16011,0.12274 l 1.28614002,0.13876 c 0.19767,0.0102 0.2457,0.0907 0.27217,0.2615 l 0.14195,0.3821 c 0.12125,0.18102 0.15861,0.26385 0.016,0.43761 l -0.8464,0.97982 c -0.0448,0.0683 -0.0406,0.14025 -0.006,0.18892 l 0.95313,0.94779 c 0.0679,0.0602 0.15818,0.0152 0.1996,-0.0267 l 1.00543,-0.81438 c 0.14644,-0.13235 0.23823,-0.11015 0.37784,-0.009 l 0.3789,0.18145 c 0.21347,0.0427 0.29886,0.0751 0.3202,0.29885 l 0.0907,1.29148 c 0.0158,0.0798 0.0696,0.12851 0.12808,0.13876 l 1.34484,0 c 0.0909,-0.005 0.12275,-0.10161 0.12275,-0.1601 l 0.13875,-1.28615 c 0.0102,-0.19767 0.0907,-0.2457 0.2615,-0.27217 l 0.35222,-0.19212 c 0.13961,-0.10161 0.2314,-0.12381 0.37784,0.009 l 1.00543,0.81438 c 0.0414,0.0418 0.13171,0.0869 0.19959,0.0267 l 0.95314,-0.94779 c 0.0342,-0.0487 0.0384,-0.12061 -0.006,-0.18892 l -0.8464,-0.97982 c -0.14259,-0.17376 -0.10523,-0.25659 0.016,-0.43761 l 0.14196,-0.3821 c 0.0265,-0.17078 0.0745,-0.25126 0.27217,-0.2615 l 1.2861399,-0.13876 c 0.0585,0 0.15498,-0.0318 0.16011,-0.12274 l 0,-1.34485 c -0.0102,-0.0585 -0.0589,-0.11228 -0.13876,-0.12808 l -1.2914799,-0.0907 c -0.22371,-0.0214 -0.25616,-0.10673 -0.29885,-0.3202 l -0.13129,-0.32341 c -0.12124,-0.18102 -0.1586,-0.26384 -0.016,-0.4376 l 0.8464,-0.9798206 c 0.0448,-0.0683 0.0406,-0.14025 0.006,-0.18892 l -0.95314,-0.9478 c -0.0679,-0.0602 -0.15817,-0.0152 -0.19959,0.0267 l -1.00543,0.81438 c -0.14644,0.13235 -0.23823,0.11015 -0.37784,0.009 l -0.39491,-0.14943 c -0.17078,-0.0265 -0.25125,-0.0745 -0.2615,-0.27217 l -0.13875,-1.28615 c 0,-0.0585 -0.0318,-0.15497 -0.12275,-0.1601 l -1.34485,0 z m 0.69271,3.6855206 c 0.79914,0 1.44731,0.64817 1.44731,1.44731 0,0.79914 -0.64817,1.44625 -1.44731,1.44625 -0.79914,0 -1.44731,-0.64711 -1.44731,-1.44625 0,-0.79914 0.64817,-1.44731 1.44731,-1.44731 z"
     id="gearcogs copy"
     inkscape:connector-curvature="0" />
</svg>
