<?xml version="1.0" encoding="utf-8"?>
<!-- Generator: Adobe Illustrator 19.1.0, SVG Export Plug-In . SVG Version: 6.00 Build 0)  -->
<svg version="1.1"
	 id="svg4057" sodipodi:docname="light-wide-1.svg" inkscape:version="0.91 r13725" xmlns:inkscape="http://www.inkscape.org/namespaces/inkscape" xmlns:sodipodi="http://sodipodi.sourceforge.net/DTD/sodipodi-0.dtd" xmlns:cc="http://creativecommons.org/ns#" xmlns:rdf="http://www.w3.org/1999/02/22-rdf-syntax-ns#" xmlns:svg="http://www.w3.org/2000/svg" xmlns:dc="http://purl.org/dc/elements/1.1/"
	 xmlns="http://www.w3.org/2000/svg" xmlns:xlink="http://www.w3.org/1999/xlink" x="0px" y="0px" viewBox="-21 39.4 239.9 62.3"
	 style="enable-background:new -21 39.4 239.9 62.3;" xml:space="preserve">
<style type="text/css">
	.st0{fill:#FFBB00;}
	.st1{fill:#FFFFFF;}
</style>
<sodipodi:namedview  inkscape:window-maximized="0" inkscape:pageopacity="0.0" inkscape:current-layer="layer1" inkscape:showpageshadow="false" inkscape:window-y="241" inkscape:window-height="666" inkscape:pageshadow="2" fit-margin-bottom="0" inkscape:window-x="2360" fit-margin-right="0" inkscape:window-width="1011" inkscape:document-units="px" id="base" borderopacity="1.0" bordercolor="#666666" fit-margin-left="0" inkscape:cx="271.31351" inkscape:zoom="1.4" showgrid="true" inkscape:cy="-40.407035" fit-margin-top="0" borderlayer="false" showborder="true" showguides="false" pagecolor="#ffffff">
	<inkscape:grid  type="xygrid" id="grid4093" originy="-961.96023" originx="-10.04131"></inkscape:grid>
</sodipodi:namedview>
<g>
	<g>
		<path class="st0" d="M16.4,53.6c0,0,7.6,3.4,10,6.2c0,0-2.7-0.2-3.8,1.6c-1.1,1.7-0.5,5.3,3.2,8.1s8.3,2.9,10.6,3.1
			c2.3,0.1,4.5,0.6,4.9,1.7C41.2,74.2,41.9,61.8,16.4,53.6z M30.6,66.3c-0.5-1.9,1.1-2.7,3.1-1.8c1.9,0.9,4.9,5.7,4.9,5.7
			C36.1,69.8,31.1,68.2,30.6,66.3z"/>
		<path class="st0" d="M-19.7,42.4l4.3,9.2l-4-1.4l1.2,2.3c0,0,1.7,3.2,5.6,10c3.1,5.4,8.5,8,15.8,7.7c0.3,0,0.6,0,0.9,0
			c4.5-0.3,14.8-1.4,15.2-1.4l0.1,0l4.9-1.9L-19.7,42.4z M3.1,68.2c-2.6,0.1-5-0.2-7-0.9c-3-1.1-5.3-3-6.9-5.8c-2-3.5-3.4-6-4.3-7.7
			l3.7,1.3l-3.6-7.9l34.7,19.3l-0.6,0.2c-0.3,0-0.9,0.1-1.7,0.2l-23.4-9.4l17.6,10C8.2,67.8,4.8,68.1,3.1,68.2z"/>
		<path class="st0" d="M24.1,65.5c0,0-14.8-3.9-12.6,7.7c1.5,7.5,10,3.2,13.1,0.3C27.7,70.6,25.2,65.7,24.1,65.5z"/>
		<path class="st0" d="M32,82.9c-6.7-2.8-10.7-7.4-15.7-7.1c-3.1,0.2-6.4,2.9-7.7,6.3c1.8,1.5,4.8,2.6,9.2,0.9c0,0-3,3.8-9.6,3.4
			C8.3,87.2,8.6,88,9,88.8c0.5,1,1.4,1.8,2.4,2.5c2.7-0.3,6.5-1.6,10.2-5.7c0,0-0.4,4.3-3.7,8c1.8,0.2,3.7,0.3,5.7,0.1
			c1.5-0.8,3.7-2.4,3.7-5.1c0,0,0.7,2.1-0.4,4.6c3.1-0.6,6.3-1.8,9.3-3.6c6.9-4,9.2-8.7,9.2-8.7S38.6,85.7,32,82.9z M36.7,88
			c-0.4-0.9-0.5-2.8-0.5-2.8c2.1,0.2,4.7-0.7,4.7-0.7C39.2,86.6,36.7,88,36.7,88z"/>
	</g>
	<g>
		<path class="st0" d="M57.5,61h9.7c4.7,0,4.7,2.6,4.1,4.4c-0.6,1.8-1.8,2.8-3.4,3.5c1.4,0.5,2.4,1.8,1.5,4.4
			c-1.3,3.6-5,5.4-8.1,5.4H51.2L57.5,61z M58.2,74.5h3.2c1.1,0,2.3-0.3,2.7-1.7c0.4-1,0-1.6-1.3-1.6h-3.4L58.2,74.5z M60.5,67.9h2.9
			c1.1,0,2-0.3,2.4-1.5c0.3-0.9-0.3-1.2-1.4-1.2h-2.9L60.5,67.9z"/>
		<path class="st0" d="M76.2,61h14.7l-1.6,4.5H80l-0.8,2.2h8.4l-1.5,4.2h-8.4L77,74.1h9.5l-1.6,4.5h-15L76.2,61z"/>
		<path class="st0" d="M96,65.5h-5l1.6-4.5h15.4l-1.6,4.5h-5l-4.7,13.2h-5.5L96,65.5z"/>
		<path class="st0" d="M113.1,61h5.3l0.2,17.7H113l0.2-2.5h-5.6l-1.7,2.5h-5.5L113.1,61z M113.4,72.4l0.3-5.5h0l-3.7,5.5H113.4z"/>
		<path class="st1" d="M126.4,61h13.7l-1.6,4.5h-8.2l-0.8,2.2h7.1l-1.5,4.2H128l-2.4,6.8h-5.5L126.4,61z"/>
		<path class="st1" d="M142.2,61h5.5L143,74.1h7.9l-1.6,4.5h-13.3L142.2,61z"/>
		<path class="st1" d="M157.5,61h5.5l-6.3,17.7h-5.5L157.5,61z"/>
		<path class="st1" d="M173.3,76.9c-1.8,1.6-3.9,2.2-5.8,2.2c-5.2,0-7-4.1-5.2-9.1c2.4-6.8,8.1-9.5,12.1-9.5c4.5,0,6.5,2.5,5.8,6.6
			h-5.2c0.3-1.3-0.5-2.2-1.8-2.2c-3.8,0-5,4-5.5,5.2c-0.6,1.7-0.9,4.6,2.4,4.6c1.3,0,2.8-0.6,3.5-2h-2.4l1.3-3.8h7.3l-3.5,9.8h-3.5
			L173.3,76.9z"/>
		<path class="st1" d="M185.6,61h5.5l-2.2,6.2h5.1l2.2-6.2h5.5l-6.3,17.7h-5.5l2.5-7h-5.1l-2.5,7h-5.5L185.6,61z"/>
		<path class="st1" d="M206.9,65.5h-5l1.6-4.5h15.4l-1.6,4.5h-5l-4.7,13.2h-5.5L206.9,65.5z"/>
	</g>
</g>
</svg>
