<?xml version="1.0" encoding="utf-8"?>
<!-- Generator: Adobe Illustrator 19.1.0, SVG Export Plug-In . SVG Version: 6.00 Build 0)  -->
<svg version="1.1"
	 id="svg4057" sodipodi:docname="light-wide-1.svg" inkscape:version="0.91 r13725" xmlns:inkscape="http://www.inkscape.org/namespaces/inkscape" xmlns:sodipodi="http://sodipodi.sourceforge.net/DTD/sodipodi-0.dtd" xmlns:cc="http://creativecommons.org/ns#" xmlns:rdf="http://www.w3.org/1999/02/22-rdf-syntax-ns#" xmlns:svg="http://www.w3.org/2000/svg" xmlns:dc="http://purl.org/dc/elements/1.1/"
	 xmlns="http://www.w3.org/2000/svg" xmlns:xlink="http://www.w3.org/1999/xlink" x="0px" y="0px" viewBox="-21 39.4 239.9 62.3"
	 style="enable-background:new -21 39.4 239.9 62.3;" xml:space="preserve">
<style type="text/css">
	.st0{fill:#4F4F4F;}
</style>
<sodipodi:namedview  inkscape:window-maximized="0" inkscape:pageopacity="0.0" inkscape:current-layer="layer1" inkscape:showpageshadow="false" inkscape:window-y="241" inkscape:window-height="666" inkscape:pageshadow="2" fit-margin-bottom="0" inkscape:window-x="2360" fit-margin-right="0" inkscape:window-width="1011" inkscape:document-units="px" id="base" borderopacity="1.0" bordercolor="#666666" fit-margin-left="0" inkscape:cx="271.31351" inkscape:zoom="1.4" showgrid="true" inkscape:cy="-40.407035" fit-margin-top="0" borderlayer="false" showborder="true" showguides="false" pagecolor="#ffffff">
	<inkscape:grid  type="xygrid" id="grid4093" originy="-961.96023" originx="-10.04131"></inkscape:grid>
</sodipodi:namedview>
<g>
	<g>
		<path class="st0" d="M51.2,66.4h9.9c4.8,0,4.8,2.7,4.2,4.5c-0.6,1.8-1.9,2.8-3.5,3.5c1.4,0.6,2.5,1.9,1.5,4.5
			c-1.3,3.6-5.1,5.5-8.3,5.5H44.8L51.2,66.4z M51.9,80.2h3.3c1.2,0,2.3-0.3,2.8-1.7c0.4-1.1,0-1.6-1.4-1.6h-3.5L51.9,80.2z
			 M54.3,73.4h2.9c1.2,0,2-0.3,2.4-1.5c0.3-0.9-0.3-1.2-1.5-1.2h-2.9L54.3,73.4z"/>
		<path class="st0" d="M70.2,66.4h15L83.6,71h-9.4l-0.8,2.3h8.5l-1.5,4.3h-8.5l-0.8,2.3h9.7l-1.6,4.6H63.8L70.2,66.4z"/>
		<path class="st0" d="M90.5,71h-5.1l1.6-4.6h15.7l-1.6,4.6H96l-4.8,13.5h-5.6L90.5,71z"/>
		<path class="st0" d="M107.9,66.4h5.5l0.2,18.1h-5.8l0.2-2.6h-5.8l-1.7,2.6h-5.6L107.9,66.4z M108.2,78l0.4-5.6h-0.1l-3.7,5.6
			H108.2z"/>
		<path class="st0" d="M121.5,66.4h14l-1.6,4.6h-8.4l-0.8,2.3h7.2l-1.5,4.3h-7.2l-2.4,6.9h-5.6L121.5,66.4z"/>
		<path class="st0" d="M137.6,66.4h5.6l-4.8,13.5h8l-1.6,4.6h-13.6L137.6,66.4z"/>
		<path class="st0" d="M153.2,66.4h5.6l-6.4,18.1h-5.6L153.2,66.4z"/>
		<path class="st0" d="M169.3,82.6c-1.8,1.6-4,2.3-6,2.3c-5.3,0-7.2-4.2-5.3-9.3c2.4-6.9,8.3-9.7,12.3-9.7c4.6,0,6.6,2.5,5.9,6.8
			h-5.3c0.3-1.3-0.5-2.3-1.8-2.3c-3.8,0-5.1,4-5.6,5.3c-0.6,1.7-1,4.7,2.4,4.7c1.3,0,2.8-0.7,3.6-2H167l1.4-3.9h7.4l-3.5,10h-3.5
			L169.3,82.6z"/>
		<path class="st0" d="M181.9,66.4h5.6l-2.2,6.3h5.2l2.2-6.3h5.6l-6.4,18.1h-5.6l2.5-7.2h-5.2l-2.5,7.2h-5.6L181.9,66.4z"/>
		<path class="st0" d="M203.6,71h-5.1l1.6-4.6h15.8l-1.6,4.6h-5.1l-4.8,13.5h-5.6L203.6,71z"/>
	</g>
	<path class="st0" d="M26.2,80.8C22,79.1,19,76.5,16,75.4c1.6-0.7,3-1.7,3.9-2.5c1-0.9,1.3-2.1,1.2-3.2c3.1,2.1,6.8,2.3,8.7,2.4
		c1.9,0.1,3.8,0.5,4.2,1.4c0,0,0.6-10.6-21.2-17.6c0,0,6.5,2.9,8.5,5.3c0,0-2.3-0.1-3.3,1.3c-0.5,0.8-0.6,1.9-0.2,3.2
		c-0.4-0.1-0.8-0.1-1.2-0.1l-34.5-19.2l3.6,7.8l-3.4-1.2l1,1.9c0,0,1.4,2.8,4.7,8.6C-9.2,68-4.6,70.3,1.6,70c0.2,0,0.5,0,0.8,0
		c1.6-0.1,4-0.3,6.3-0.5c-0.2,0.9-0.1,1.9,0.1,3.1c0.3,1.4,0.8,2.3,1.6,2.9c-1.8,0.9-3.5,2.6-4.3,4.6c0,0,0,0,0,0
		c-0.5,1.3-0.7,2.8,0,4.6c0,0,0,0,0,0c0.1,0.4,0.3,0.7,0.5,1.1c0.2,0.4,0.5,0.7,0.7,1c3.8,4.6,13.2,3.8,19.1,1.4
		c0.1,0,0.2-0.1,0.2-0.1c0.5-0.2,0.9-0.4,1.4-0.6c0.1,0,0.2-0.1,0.3-0.1c0.5-0.2,1-0.5,1.5-0.8c5.8-3.4,7.8-7.4,7.8-7.4
		S31.9,83.2,26.2,80.8z M27.6,65.2c1.6,0.7,4.2,4.8,4.2,4.8c-2.1-0.3-6.4-1.7-6.8-3.3C24.6,65.1,26,64.4,27.6,65.2z M22.2,85.6
		c0,0,0.4,1.4-0.1,3.2c-0.6,0.2-1.2,0.3-1.8,0.4C21.3,88.4,22.2,87.3,22.2,85.6z M-6.3,59.2l15,8.5C5.9,68,3,68.2,1.6,68.3
		c-2.2,0.1-4.2-0.2-6-0.8C-7,66.6-9,65-10.3,62.6c-1.7-3-2.9-5.1-3.7-6.5l3.1,1.1l-3.1-6.7l27.3,15.1c-0.8,0.1-1.5,0.3-2.1,0.6
		L-6.3,59.2z M9.6,69.8c1.1-5.1,7.6-3.5,7.6-3.5c-2.4,0-3.7,0.6-4.4,1.5c-1,1.4,0.2,2.5,0.2,2.5c-0.4-0.1-0.7-0.2-0.9-0.3
		c0,0,0,0,0,0.1c0.5,2,2.1,2.5,2.1,2.5c-0.6,0.1-1.1,0-1.6-0.1c0.4,0.8,0.8,1.4,1.2,1.6c-1.4,0-2.2,0.3-2.7,0.6
		C10,73.9,9.1,72,9.6,69.8z M14.1,80.9c0,0-2.4,2.9-7.4,2.9c-0.3-1.1-0.2-2.3,0.1-3.3C8.3,81.6,10.7,82.2,14.1,80.9z M9.8,87.8
		c2.2-0.5,4.9-1.7,7.6-4.7c0,0-0.3,3.3-2.7,6.3c-1.1-0.1-2.2-0.4-3.3-0.9C10.8,88.3,10.2,88.1,9.8,87.8z M30.2,85.1
		c-0.3-0.8-0.4-2.4-0.4-2.4c1.8,0.2,4-0.6,4-0.6C32.4,84,30.2,85.1,30.2,85.1z"/>
</g>
</svg>
