<?xml version="1.0" encoding="utf-8"?>
<!-- Generator: Adobe Illustrator 19.1.0, SVG Export Plug-In . SVG Version: 6.00 Build 0)  -->
<svg version="1.1"
	 id="svg4057" sodipodi:docname="light-wide-1.svg" inkscape:version="0.91 r13725" xmlns:inkscape="http://www.inkscape.org/namespaces/inkscape" xmlns:sodipodi="http://sodipodi.sourceforge.net/DTD/sodipodi-0.dtd" xmlns:cc="http://creativecommons.org/ns#" xmlns:rdf="http://www.w3.org/1999/02/22-rdf-syntax-ns#" xmlns:svg="http://www.w3.org/2000/svg" xmlns:dc="http://purl.org/dc/elements/1.1/"
	 xmlns="http://www.w3.org/2000/svg" xmlns:xlink="http://www.w3.org/1999/xlink" x="0px" y="0px" viewBox="-21 39.4 239.9 62.3"
	 style="enable-background:new -21 39.4 239.9 62.3;" xml:space="preserve">
<style type="text/css">
	.st0{fill:#4F4F4F;}
</style>
<sodipodi:namedview  inkscape:window-maximized="0" inkscape:pageopacity="0.0" inkscape:current-layer="layer1" inkscape:showpageshadow="false" inkscape:window-y="241" inkscape:window-height="666" inkscape:pageshadow="2" fit-margin-bottom="0" inkscape:window-x="2360" fit-margin-right="0" inkscape:window-width="1011" inkscape:document-units="px" id="base" borderopacity="1.0" bordercolor="#666666" fit-margin-left="0" inkscape:cx="271.31351" inkscape:zoom="1.4" showgrid="true" inkscape:cy="-40.407035" fit-margin-top="0" borderlayer="false" showborder="true" showguides="false" pagecolor="#ffffff">
	<inkscape:grid  type="xygrid" id="grid4093" originy="-961.96023" originx="-10.04131"></inkscape:grid>
</sodipodi:namedview>
<g>
	<g>
		<path class="st0" d="M13.4,57.5c0,0,6.4,2.9,8.5,5.3c0,0-2.3-0.1-3.2,1.3c-1,1.5-0.5,4.5,2.7,6.8s7,2.5,8.9,2.6
			c1.9,0.1,3.8,0.5,4.2,1.4C34.4,74.9,35,64.4,13.4,57.5z M25.4,68.2C25,66.6,26.3,66,28,66.7c1.6,0.7,4.2,4.8,4.2,4.8
			C30.1,71.2,25.9,69.8,25.4,68.2z"/>
		<path class="st0" d="M-17.1,48.1l3.6,7.8l-3.4-1.2l1,1.9c0,0,1.4,2.7,4.7,8.5c2.6,4.5,7.2,6.8,13.4,6.5c0.2,0,0.5,0,0.8,0
			c3.8-0.2,12.5-1.2,12.9-1.2H16l4.1-1.6L-17.1,48.1z M2.1,69.9c-2.2,0.1-4.2-0.2-5.9-0.8c-2.5-0.9-4.5-2.5-5.9-4.9
			c-1.7-3-2.9-5.1-3.6-6.5l3.1,1.1l-3.1-6.6l29.4,16.2l-0.5,0.2c-0.2,0-0.7,0.1-1.5,0.2l-19.8-8l14.9,8.5
			C6.5,69.5,3.6,69.8,2.1,69.9z"/>
		<path class="st0" d="M19.9,67.5c0,0-12.5-3.3-10.6,6.5c1.2,6.4,8.4,2.7,11,0.3S20.8,67.8,19.9,67.5z"/>
		<path class="st0" d="M26.5,82.3c-5.6-2.4-9-6.3-13.3-6c-2.6,0.2-5.4,2.4-6.5,5.3c1.6,1.3,4,2.2,7.8,0.8c0,0-2.6,3.2-8.1,2.9
			c0.1,0.7,0.4,1.3,0.7,2c0.5,0.8,1.2,1.6,2,2.2c2.3-0.3,5.5-1.4,8.6-4.8c0,0-0.3,3.6-3.1,6.8c1.5,0.2,3.1,0.2,4.8,0.1
			c1.3-0.7,3.1-2,3.1-4.3c0,0,0.6,1.8-0.3,3.9c2.6-0.5,5.3-1.5,7.9-3c5.8-3.4,7.7-7.3,7.7-7.3S32.2,84.6,26.5,82.3z M30.6,86.5
			c-0.3-0.8-0.4-2.4-0.4-2.4c1.8,0.2,4-0.6,4-0.6C32.7,85.4,30.6,86.5,30.6,86.5z"/>
	</g>
	<g>
		<path class="st0" d="M51.3,68h9.9c4.8,0,4.8,2.7,4.2,4.5c-0.6,1.8-1.9,2.8-3.5,3.5c1.4,0.6,2.5,1.9,1.5,4.5
			c-1.3,3.6-5.1,5.5-8.3,5.5H44.9L51.3,68z M52,81.8h3.3c1.2,0,2.3-0.3,2.8-1.7c0.4-1.1,0-1.6-1.4-1.6h-3.5L52,81.8z M54.4,75h2.9
			c1.2,0,2-0.3,2.4-1.5c0.3-0.9-0.3-1.2-1.5-1.2h-2.9L54.4,75z"/>
		<path class="st0" d="M70.3,68h15l-1.6,4.6h-9.4l-0.8,2.3H82l-1.5,4.3H72l-0.8,2.3h9.7l-1.6,4.6H63.9L70.3,68z"/>
		<path class="st0" d="M90.6,72.6h-5.1l1.6-4.6h15.7l-1.6,4.6h-5.1l-4.8,13.5h-5.6L90.6,72.6z"/>
		<path class="st0" d="M108,68h5.5l0.2,18.1h-5.8l0.2-2.6h-5.8l-1.7,2.6H95L108,68z M108.3,79.6l0.4-5.6h-0.1l-3.7,5.6H108.3z"/>
		<path class="st0" d="M121.6,68h14l-1.6,4.6h-8.4l-0.8,2.3h7.2l-1.5,4.3h-7.2l-2.4,6.9h-5.6L121.6,68z"/>
		<path class="st0" d="M137.7,68h5.6l-4.8,13.5h8l-1.6,4.6h-13.6L137.7,68z"/>
		<path class="st0" d="M153.3,68h5.6l-6.4,18.1h-5.6L153.3,68z"/>
		<path class="st0" d="M169.4,84.2c-1.8,1.6-4,2.3-6,2.3c-5.3,0-7.2-4.2-5.3-9.3c2.4-6.9,8.3-9.7,12.3-9.7c4.6,0,6.6,2.5,5.9,6.8
			H171c0.3-1.3-0.5-2.3-1.8-2.3c-3.8,0-5.1,4-5.6,5.3c-0.6,1.7-1,4.7,2.4,4.7c1.3,0,2.8-0.7,3.6-2h-2.5l1.4-3.9h7.4l-3.5,10h-3.5
			L169.4,84.2z"/>
		<path class="st0" d="M182,68h5.6l-2.2,6.3h5.2l2.2-6.3h5.6L192,86.1h-5.6l2.5-7.2h-5.2l-2.5,7.2h-5.6L182,68z"/>
		<path class="st0" d="M203.7,72.6h-5.1l1.6-4.6H216l-1.6,4.6h-5.1l-4.8,13.5h-5.6L203.7,72.6z"/>
	</g>
</g>
</svg>
