<?xml version="1.0" encoding="utf-8"?>
<!-- Generator: Adobe Illustrator 18.1.1, SVG Export Plug-In . SVG Version: 6.00 Build 0)  -->
<svg version="1.1"
	 id="svg4057" sodipodi:docname="light-wide-1.svg" inkscape:version="0.91 r13725" xmlns:cc="http://creativecommons.org/ns#" xmlns:sodipodi="http://sodipodi.sourceforge.net/DTD/sodipodi-0.dtd" xmlns:svg="http://www.w3.org/2000/svg" xmlns:inkscape="http://www.inkscape.org/namespaces/inkscape" xmlns:dc="http://purl.org/dc/elements/1.1/" xmlns:rdf="http://www.w3.org/1999/02/22-rdf-syntax-ns#"
	 xmlns="http://www.w3.org/2000/svg" xmlns:xlink="http://www.w3.org/1999/xlink" x="0px" y="0px" viewBox="49 39.4 239.9 62.3"
	 enable-background="new 49 39.4 239.9 62.3" xml:space="preserve">
<sodipodi:namedview  id="base" fit-margin-bottom="0" inkscape:window-width="1011" inkscape:pageopacity="0.0" inkscape:pageshadow="2" fit-margin-right="0" inkscape:window-height="666" inkscape:window-maximized="0" inkscape:document-units="px" inkscape:window-y="241" inkscape:current-layer="layer1" inkscape:window-x="2360" inkscape:showpageshadow="false" showgrid="true" inkscape:cy="-40.407035" bordercolor="#666666" borderopacity="1.0" fit-margin-top="0" fit-margin-left="0" borderlayer="false" inkscape:zoom="1.4" showguides="false" showborder="true" inkscape:cx="271.31351" pagecolor="#ffffff">
	<inkscape:grid  type="xygrid" id="grid4093" originy="-961.96023" originx="-10.04131"></inkscape:grid>
</sodipodi:namedview>
<g id="layer1" transform="translate(-10.04131,-12.483937)" inkscape:groupmode="layer" inkscape:label="Layer 1">
	<path id="path3751" inkscape:connector-curvature="0" fill="#56AC1D" d="M102.3,85.1h15.2v0.1l-7.6,4.5h-8.2c-1.8,0-3.4,1.5-5,4.5
		c-1.1,1.8-1.7,2.9-1.7,3.5c0.1,0.7,0.5,1,1.1,1l0.2,0.1l0.7-0.1h10.3l0.1,0.1h0.1c-1.6,3-2.5,4.5-2.6,4.5H95l-0.7,0.1l-0.6-0.1
		h-2.3c-1.6,0-2.6-0.5-2.9-1.5c-0.1-0.1-0.1-0.4-0.2-0.9c0-1,0.8-2.6,2.3-5l4.2-7.1C96.8,86.4,99.3,85.1,102.3,85.1z"/>
	<path id="path3753" inkscape:connector-curvature="0" fill="#56AC1D" d="M121.6,85.2v0.1l-7.8,13.5h15.8v0.1l-7.9,4.5H106
		c0-0.1,1.7-3.1,5-8.9l5.4-9.4l0.1-0.1L121.6,85.2L121.6,85.2z"/>
	<path id="path3755" inkscape:connector-curvature="0" fill="#56AC1D" d="M156.5,85.2v0.1l-7.6,4.5h-10.6l-1.5,2.8h7.3v0.1
		c-4,2.3-6.1,3.5-6.3,3.6h-3.1c-0.7,1.1-1.2,1.9-1.5,2.7h15.7l0.1,0.1h0.1c-1.5,2.7-2.4,4.2-2.6,4.4h-20.9l-0.1-0.1h-0.1l10.3-18.2
		C135.7,85.2,156.5,85.2,156.5,85.2z"/>
	<path id="path3757" inkscape:connector-curvature="0" fill="#56AC1D" d="M168.3,85.1c2,0,3.3,0.6,3.8,1.8l0.1,0.7v0.2
		c0,0.8-0.7,2.3-2.1,4.6c-4.1,7.2-6.3,10.9-6.4,11.1h-5.1l2.5-4.5h-7.9c-0.1,0.1-1,1.7-2.6,4.5l-0.1,0.1h-5.2v-0.1
		c5.1-8.9,7.8-13.7,8.3-14.4c1.4-1.5,2.5-2.5,3.4-2.8c1.1-0.6,2.2-0.9,3.3-1L168.3,85.1L168.3,85.1z M161,85.2h7.7
		c1.8,0,2.9,0.7,3.5,2l0.1,0.4c0,0.9-0.9,2.7-2.7,5.5c-1.8,3.2-3.7,6.5-5.9,10.2l-0.2,0.1h-4.7l-0.1-0.1l2.4-4.3v-0.2h-7.9
		c-0.1,0.1-1,1.7-2.6,4.5l-0.3,0.1h-4.8l-0.1-0.1h-0.1c5-8.9,7.8-13.6,8.2-14.2C155.8,86.5,158.3,85.2,161,85.2L161,85.2z
		 M155.7,94.4h7c0.8,0,1.2-0.1,1.2-0.4c1.2-1.7,1.8-2.8,1.8-3.2v-0.4c-0.2-0.4-0.7-0.7-1.6-0.7h-3.2C158.8,89.8,157,91.3,155.7,94.4
		L155.7,94.4z M155.8,94.4h7.9c1.3-2.1,2-3.2,2-3.5v-0.2c0-0.6-0.6-0.9-1.9-0.9h-2.6c-2,0-3.6,1.1-4.7,3.4
		C156.1,93.9,155.8,94.3,155.8,94.4z"/>
	<path id="path3759" inkscape:connector-curvature="0" fill="#56AC1D" d="M187.5,85.2c1.9,0,3.1,0.5,3.7,1.4
		c0.1,0.3,0.2,0.6,0.2,0.9v0.1c0,0.9-0.7,2.4-2.2,4.7c-3.5,6.4-5.6,10.1-6.3,11.1h-5.1v-0.1l6.6-11.7c0.2-0.4,0.3-0.7,0.3-1v-0.2
		c0-0.5-0.4-0.7-1.1-0.7h-6c-5.1,9-7.7,13.6-7.9,13.7h-5c0-0.1,1.7-3.2,5.1-9.1l5.3-9.1L187.5,85.2L187.5,85.2z"/>
	<path id="path3761" inkscape:connector-curvature="0" fill="#949494" d="M194.6,85.2h20.8v0.1l-7.5,4.5h-10.6
		c-0.1,0-0.6,0.9-1.7,2.8h7.3v0.1l-6.1,3.5h-3.4c-0.9,1.8-2.3,4.2-4.1,7.2h-5.1v-0.1L194.6,85.2L194.6,85.2z"/>
	<path id="path3763" inkscape:connector-curvature="0" fill="#949494" d="M219.6,85.2v0.1l-7.8,13.5h15.8v0.1l-7.9,4.5h-15.7
		c0-0.1,1.7-3.1,5-8.9l5.4-9.4l0.1-0.1L219.6,85.2L219.6,85.2z"/>
	<path id="path3765" inkscape:connector-curvature="0" fill="#949494" d="M233.6,85.2h5.1l0.1,0.1l-10.3,18.1h-5.1
		C223.8,102.7,227.2,96.6,233.6,85.2z"/>
	<path id="path3767" inkscape:connector-curvature="0" fill="#949494" d="M245.1,85.2h15.2v0.1l-7.6,4.5h-8.1
		c-1.8,0-3.4,1.5-4.9,4.5c-1,1.5-1.6,2.6-1.7,3.3V98c0,0.5,0.4,0.8,1.3,0.9h5.6c0.1,0,0.6-0.9,1.5-2.7h-7.7v-0.1l6.1-3.5h8.7
		l0.1,0.1h0.1l-6.1,10.8h-13.1c-2.3,0-3.4-0.8-3.4-2.3c0-1.1,0.8-2.8,2.4-5.3c2.2-4.1,3.8-6.7,4.8-7.8
		C240.4,86.2,242.7,85.2,245.1,85.2L245.1,85.2z"/>
	<path id="path3769" inkscape:connector-curvature="0" fill="#949494" d="M265.1,85.2v0.1l-4.1,7.2h1.9l5.9,0.1l4.2-7.4h5l0.1,0.1
		l-10.3,18.2h-0.1l-5.1-0.1c0-0.1,1.3-2.5,4-7.1v-0.1h-7.8l-4.2,7.2h-5.1c0.2-0.6,1.7-3.2,4.4-7.9l5.9-10.3L265.1,85.2L265.1,85.2z"
		/>
	<path id="path3771" inkscape:connector-curvature="0" fill="#949494" d="M294.1,85.1l4.8,0.1v0.1l-7.5,4.6h-4.9
		c-5.1,9.1-7.7,13.6-7.8,13.6h-5.1v-0.1l7.8-13.6H274v-0.1l7.6-4.6H294.1L294.1,85.1z"/>
	<path id="path3773" inkscape:connector-curvature="0" fill="#949494" d="M60.1,83.1l1.1,0.1l1.5-0.3l1.7-0.8l1.8-1.2l1.4-1.2
		l5.9,0.1l5.7-0.6l0.7,0.9l0.2,0.2l0.2,0.1l0.2,0l0.2,0l0.2-0.1l0.2-0.1l0.1-0.2l0.1-0.3l0,0l0.2,0.3l-0.9,1.8l0.1,0.1l0.3,0
		l-0.6,0.9l0,0L80.2,83l-4,8.2l-0.2,0l-2.2,0.3l-2.3,0.9l-2.3,1.4L67,95.7L65,98l-1.7,2.6l-1.3,2.8l-0.7,2.8l-0.1,2.7l0.5,2.3
		L63,113l1.9,1.1l2.5,0.2l2.9-0.8l3-1.8l2.8-2.5l2.4-3.1l1.7-3.3l1-3.2l0.2-2.9l-0.5-2.4l-0.4-0.6l0.5-0.9l2.7-6.2l0.1,0.1l0.3,0.1
		l0.3,0.1l0.3,0l0.2,0l0.2-0.1l0.1-0.1l0.1-0.3l0-0.2l-0.1-0.2l-0.1-0.2l-0.8-0.9l0.1-0.1l0.1-1.4l0.4,0l0,0l0.8-1.8l1.4-1.1
		l0.7-1.7l1.8-0.2l0.7-0.6l1.9-0.2l0,0l0.1-0.4l1.4,0.4l0.1,0l0.7,1l0.2,0.2L95,79l0.2,0l0.3,0l0.2-0.1l0.1-0.2l0.1-0.2l0.1-0.3
		l0-0.3l0-0.3l0-0.1l6.5-0.7l0.7-0.1l0.4,0.5l2,1.2l2.7,0.7l3.3,0.1l3.6-0.6l3.6-1.3l3.2-1.9l2.6-2.4l1.7-2.5l0.6-2.5l-0.4-2.2
		l-1.3-1.8l-2-1.3l-2.5-0.7l-2.8-0.1l-3,0.4l-2.9,0.8l-2.7,1.2l-2.4,1.5l-2,1.8l-1.5,2l-1,2l0,0.3l-8.6,1.3l-0.3,0l0,0l-1,0.3
		l0.1-0.3l-0.1-0.1l-1.9,0.3l-0.5-0.5l0.3,0.1l0.3,0l0.3,0l0.2-0.1l0.2-0.1l0.1-0.2l0.1-0.2l0-0.2l0-0.2l-0.1-0.2l-0.6-0.9l2.3-5.3
		l1.7-5.7l1.6-1l1.6-1.4l1.2-1.4l0.8-1.3l0.2-1.1l-0.3-0.9L99,52.1l-1.1-0.2L96.4,52l-1.6,0.4L93.1,53l-1.7,0.9L89.9,55l-1.4,1.2
		l-1.2,1.2l-0.8,1.2L86,59.7l0,1l0.4,0.7l0.9,0.4l1.3,0.1l1.7-0.3l0.2-0.1L86.9,69l-0.1,0.2l0,0L86.6,70l-0.4,0.1l0,0l-0.7,1.4
		l-4.3,3.2l-1.5,0.2l-0.2,0.4l-0.8,0l0,0l-0.2,0l-7.9,1.2l0.2-0.2l0.8-1.5l0.3-1.3l-0.1-1L71,71.8l-0.9-0.3l-1.2,0.1L67.6,72
		l-1.5,0.7l-1.5,1L63.1,75l-1.3,1.4l-1.1,1.4l-0.9,1.4l-0.5,1.3L59,81.7l0.3,0.9L60.1,83.1L60.1,83.1z M93.2,62L93.2,62L93.2,62
		l-0.4,0.2l0.3-0.6l0,0l0,0l0,0l0,0.1l0,0.1l0,0.1l0,0.1L93.2,62C93.2,62,93.2,62,93.2,62z M92.6,62.6L92.6,62.6l0.1,0l0,0l0,0
		l0,0.1l0,0.1l-0.1,0.1L92.5,63L92.4,63l-0.1,0.1l0,0C92.3,63.1,92.6,62.6,92.6,62.6z M92.3,63.4L92.3,63.4l0.2,0l0,0l0,0l0,0.1
		l0,0.1l-0.1,0.1l-0.1,0.1l-0.1,0.1l-0.1,0.1L92,64l-0.1,0L92.3,63.4C92.2,63.4,92.3,63.4,92.3,63.4z M90.2,72l-0.1,0L90,72l-0.1,0
		l-0.1,0l0.1-0.3l0.1,0l0.1,0.1l0.1,0.1l0.1,0.1L90.2,72C90.3,71.9,90.2,72,90.2,72z M91.1,75.9L91.1,75.9L91.1,75.9
		C91.1,75.9,91.1,75.9,91.1,75.9z M95.3,77.9L95.3,77.9L95.3,77.9L95.3,77.9z M95.1,77.7l0,0.1l0,0L95,77.7l-0.1-0.1l0,0l0.2,0
		C95.1,77.5,95.1,77.7,95.1,77.7z M84,85.6l0.1,0.1l0.1,0.1l0,0l-0.1,0l-0.1,0l-0.1,0L84,85.6C84,85.6,84,85.6,84,85.6z M87.1,78.3
		L87.1,78.3L87.1,78.3L87.1,78.3L87.1,78.3L87.1,78.3L87.1,78.3L87.1,78.3L87.1,78.3z M87.2,78.2L87.2,78.2L87.2,78.2L87.2,78.2z
		 M87.1,75.1L87.1,75.1L87.1,75.1C87,75.1,87.1,75.1,87.1,75.1z M89.9,64.8l0-0.1l0-0.1l0-0.1l0.9-2l0.4-0.1l0,0l0,0.1l0,0.1
		l-0.7,2.2L89.9,64.8C89.9,64.9,89.9,64.8,89.9,64.8z M92,61.3L92,61.3L92,61.3C92.1,61.3,92,61.3,92,61.3z M90.3,65.3L90.3,65.3
		L90.3,65.3l-0.1,0.1l-0.1-0.1L90,65.2l0,0l0,0l0.1,0l0.1,0l0.1,0C90.3,65.2,90.3,65.3,90.3,65.3z M87,73.8L87,73.8L87,73.8L87,73.8
		z M101.9,73.3L101.9,73.3l-0.1-0.2l0-0.1l0.1-0.1l0.1,0C102,72.8,101.9,73.3,101.9,73.3z M92.3,61.3L92.3,61.3L92.3,61.3L92.3,61.3
		z M85.9,76.5L85.9,76.5L85.9,76.5L85.9,76.5z M85.8,73.4L85.8,73.4L85.8,73.4L85.8,73.4z M82.8,76.9L82.8,76.9L82.8,76.9
		C82.8,76.9,82.8,76.9,82.8,76.9z M84,77.3L84,77.3L84,77.3C84,77.3,84,77.3,84,77.3z M82.9,75.5L82.9,75.5L82.9,75.5L82.9,75.5z
		 M77.2,91.4L77.2,91.4l0.1-0.2l0.1-0.1l0.1-0.1l0,0l0.1,0l0.1,0.1l0.1,0.1l0.1,0.2l0,0.1C77.9,91.5,77.2,91.4,77.2,91.4z
		 M79.6,92.5l-0.5-0.3l0.4-0.9l0.1-0.1l0.1-0.1l0.3,0l0,0l0.1,0.1l0.1,0.2l0,0.2l0,0.2l0,0.2l-0.1,0.2l-0.3,0.6L79.6,92.5z
		 M83.5,81.6L83.5,81.6L83.5,81.6L83.5,81.6z M102.3,75.5l0.2,0.3l-0.4,0.1l-0.2,0l-0.2,0l-0.2-0.1l-0.2-0.1l-0.1-0.1l-0.1-0.1
		l0.1-0.4l0,0l0.2,0l0.7-0.1C102.2,74.9,102.3,75.5,102.3,75.5z M90.3,72L90.3,72L90.3,72L90.3,72z M91.9,64.4L91.9,64.4l0.6-0.2
		l-0.2,0.7l0,0.1l0,0l-0.1,0l-0.1-0.1L92,64.8l-0.1-0.1l0-0.1C91.9,64.5,91.9,64.4,91.9,64.4z M84.2,74.1L84.2,74.1L84.2,74.1
		L84.2,74.1z M84,74.2L84,74.2L84,74.2C84,74.2,84,74.2,84,74.2z M80,79L80,79l0.4-0.1l0,0l0,0.1l0,0.1l0,0.1l-0.1,0.1l0,0l-0.1-0.1
		l-0.1-0.1L80,79.2C80,79.2,80,79,80,79z M73.3,76.8l0.1,0l0.1,0l0.1,0l-0.3,0.5l-2.2,0l-0.1,0l-0.1,0l0,0l0.2-0.3L73.3,76.8z
		 M74,77.1L74,77.1l0.1,0.2l0,0.1l0,0l-0.1,0l-0.2,0l0,0l0-0.1L74,77.1L74,77.1C73.9,77.1,74,77.1,74,77.1z M70.3,77.1L70.3,77.1
		L70.3,77.1L70.3,77.1z M73.1,79.1L73.1,79.1l-0.8,0l0.3-0.5l0.1,0l0.1,0.1l0.1,0.1l0.1,0.1L73,79L73.1,79.1L73.1,79.1
		C73.1,79.1,73.1,79.1,73.1,79.1z M70.1,79.2L70.1,79.2l-0.1,0l-0.1,0l-0.1,0l-0.1,0l0-0.1l0,0l0,0l0.7-0.1L70.1,79.2L70.1,79.2
		C70.1,79.2,70.1,79.2,70.1,79.2z M70.7,78.9L70.7,78.9L70.7,78.9C70.7,78.8,70.7,78.9,70.7,78.9z M71.6,78.9L71.6,78.9L71.6,78.9
		L71.6,78.9z M72.2,78.6L72.2,78.6l-0.1,0.2L72,78.9l-0.1,0.1l-0.1,0l-0.1,0l-0.1,0l0,0l0,0l0-0.1l0-0.1l0,0L72.2,78.6
		C72.2,78.6,72.2,78.6,72.2,78.6z M71.2,78.8L71.2,78.8L71,78.9l-0.1,0l-0.1,0l-0.1,0l0,0l0,0l0-0.1l0,0L71.2,78.8
		C71.3,78.7,71.2,78.8,71.2,78.8z"/>
</g>
</svg>
